<svg
            width="auto"
            height="auto"
            viewBox="0 0 372 248"
            fill="none"
            xmlns="http://www.w3.org/2000/svg"
          >
            <path
              d="M35 0.5H268C287.054 0.5 302.5 15.9462 302.5 35C302.5 54.0538 287.054 69.5 268 69.5H35C15.9462 69.5 0.5 54.0538 0.5 35C0.5 15.9462 15.9462 0.5 35 0.5Z"
              stroke="#B887DE"
            />
            <path
              d="M0 85C0 54.0721 25.0721 29 56 29H316C346.928 29 372 54.0721 372 85V192C372 222.928 346.928 248 316 248H56C25.072 248 0 222.928 0 192V85Z"
              fill="#B887DE"
              fill-opacity="0.1"
            />
            <path
              d="M60.35 63V59.28H50.66V41.64H46.49V63H60.35ZM77.8159 63V59.28H67.9159V54.09H76.3459V50.37H67.9159V45.36H77.8159V41.64H63.7459V63H77.8159ZM95.7099 56.7C95.7099 54.81 95.1999 53.25 94.0599 52.17C93.1599 51.33 91.9299 50.79 89.9799 50.52L87.4599 50.16C86.5899 50.04 85.8999 49.71 85.4799 49.32C85.0299 48.9 84.8499 48.33 84.8499 47.79C84.8499 46.32 85.9299 45.09 88.1499 45.09C89.5599 45.09 91.1799 45.27 92.5299 46.56L95.1699 43.95C93.3399 42.18 91.2099 41.46 88.2699 41.46C83.6499 41.46 80.8299 44.13 80.8299 47.94C80.8299 49.74 81.3399 51.12 82.3599 52.14C83.3199 53.07 84.6699 53.64 86.4999 53.91L89.0799 54.27C90.0699 54.42 90.5499 54.63 90.9699 55.02C91.4199 55.44 91.6299 56.07 91.6299 56.82C91.6299 58.53 90.3099 59.46 87.8499 59.46C85.8699 59.46 84.0399 59.01 82.6899 57.66L79.9899 60.36C82.0899 62.49 84.5499 63.18 87.7899 63.18C92.2599 63.18 95.7099 60.84 95.7099 56.7ZM113.259 56.7C113.259 54.81 112.749 53.25 111.609 52.17C110.709 51.33 109.479 50.79 107.529 50.52L105.009 50.16C104.139 50.04 103.449 49.71 103.029 49.32C102.579 48.9 102.399 48.33 102.399 47.79C102.399 46.32 103.479 45.09 105.699 45.09C107.109 45.09 108.729 45.27 110.079 46.56L112.719 43.95C110.889 42.18 108.759 41.46 105.819 41.46C101.199 41.46 98.3788 44.13 98.3788 47.94C98.3788 49.74 98.8888 51.12 99.9088 52.14C100.869 53.07 102.219 53.64 104.049 53.91L106.629 54.27C107.619 54.42 108.099 54.63 108.519 55.02C108.969 55.44 109.179 56.07 109.179 56.82C109.179 58.53 107.859 59.46 105.399 59.46C103.419 59.46 101.589 59.01 100.239 57.66L97.5388 60.36C99.6388 62.49 102.099 63.18 105.339 63.18C109.809 63.18 113.259 60.84 113.259 56.7ZM132.243 52.32C132.243 48.63 132.273 45.96 130.113 43.8C128.613 42.3 126.783 41.46 124.353 41.46C121.923 41.46 120.063 42.3 118.563 43.8C116.403 45.96 116.463 48.63 116.463 52.32C116.463 56.01 116.403 58.68 118.563 60.84C120.063 62.34 121.923 63.18 124.353 63.18C126.783 63.18 128.613 62.34 130.113 60.84C132.273 58.68 132.243 56.01 132.243 52.32ZM128.073 52.32C128.073 56.43 127.833 57.42 127.023 58.32C126.423 59.01 125.493 59.46 124.353 59.46C123.213 59.46 122.253 59.01 121.653 58.32C120.843 57.42 120.633 56.43 120.633 52.32C120.633 48.21 120.843 47.22 121.653 46.32C122.253 45.63 123.213 45.18 124.353 45.18C125.493 45.18 126.423 45.63 127.023 46.32C127.833 47.22 128.073 48.21 128.073 52.32ZM152.84 63V41.64H148.67V54.72L140.21 41.64H136.49V63H140.66V49.89L149.12 63H152.84ZM180.121 48.3C180.121 44.67 177.481 41.64 173.071 41.64H164.791V63H168.961V54.96H173.071C177.481 54.96 180.121 51.93 180.121 48.3ZM175.951 48.3C175.951 50.04 174.751 51.21 172.861 51.21H168.961V45.36H172.861C174.751 45.36 175.951 46.56 175.951 48.3ZM197.489 63V59.28H187.799V41.64H183.629V63H197.489ZM217.385 63L209.585 41.64H206.315L198.545 63H202.895L204.185 59.22H211.775L213.035 63H217.385ZM210.665 55.71H205.355L208.055 47.94L210.665 55.71ZM236.365 63V41.64H232.195V54.72L223.735 41.64H220.015V63H224.185V49.89L232.645 63H236.365ZM255.144 56.7C255.144 54.81 254.634 53.25 253.494 52.17C252.594 51.33 251.364 50.79 249.414 50.52L246.894 50.16C246.024 50.04 245.334 49.71 244.914 49.32C244.464 48.9 244.284 48.33 244.284 47.79C244.284 46.32 245.364 45.09 247.584 45.09C248.994 45.09 250.614 45.27 251.964 46.56L254.604 43.95C252.774 42.18 250.644 41.46 247.704 41.46C243.084 41.46 240.264 44.13 240.264 47.94C240.264 49.74 240.774 51.12 241.794 52.14C242.754 53.07 244.104 53.64 245.934 53.91L248.514 54.27C249.504 54.42 249.984 54.63 250.404 55.02C250.854 55.44 251.064 56.07 251.064 56.82C251.064 58.53 249.744 59.46 247.284 59.46C245.304 59.46 243.474 59.01 242.124 57.66L239.424 60.36C241.524 62.49 243.984 63.18 247.224 63.18C251.694 63.18 255.144 60.84 255.144 56.7Z"
              fill="#B887DE"
            />
            <path
              d="M49.184 105.304C49.184 102.888 49.184 101.768 48.112 100.696C47.344 99.928 46.336 99.512 45.2 99.512C44.064 99.512 43.056 99.928 42.288 100.696C41.216 101.768 41.216 102.888 41.216 105.304C41.216 107.72 41.216 108.84 42.288 109.912C43.056 110.68 44.064 111.096 45.2 111.096C46.336 111.096 47.344 110.68 48.112 109.912C49.184 108.84 49.184 107.72 49.184 105.304ZM47.968 105.304C47.968 107.688 47.888 108.456 47.168 109.192C46.672 109.704 45.952 110.008 45.2 110.008C44.448 110.008 43.728 109.704 43.232 109.192C42.512 108.456 42.432 107.688 42.432 105.304C42.432 102.92 42.512 102.152 43.232 101.416C43.728 100.904 44.448 100.6 45.2 100.6C45.952 100.6 46.672 100.904 47.168 101.416C47.888 102.152 47.968 102.92 47.968 105.304ZM57.9583 111V103.128H56.8063V107.976C56.8063 109.352 56.0223 110.072 54.8383 110.072C53.6543 110.072 52.9183 109.368 52.9183 107.976V103.128H51.7663V108.152C51.7663 109.064 52.0063 109.816 52.5663 110.36C53.0463 110.84 53.7503 111.096 54.5983 111.096C55.4783 111.096 56.2623 110.76 56.8223 110.12V111H57.9583ZM66.0786 103.768C65.5186 103.208 64.9426 103.032 64.1906 103.032C63.2786 103.032 62.4146 103.432 61.9826 104.088V103.128H60.8306V111H61.9826V106.168C61.9826 104.968 62.7186 104.056 63.8706 104.056C64.4786 104.056 64.7986 104.2 65.2306 104.632L66.0786 103.768ZM77.1974 109.928L76.4134 109.176C75.8214 109.832 75.3574 110.072 74.6054 110.072C73.8374 110.072 73.1974 109.768 72.7814 109.176C72.4134 108.664 72.2694 108.056 72.2694 107.064C72.2694 106.072 72.4134 105.464 72.7814 104.952C73.1974 104.36 73.8374 104.056 74.6054 104.056C75.3574 104.056 75.8214 104.28 76.4134 104.936L77.1974 104.2C76.3814 103.32 75.6934 103.032 74.6054 103.032C72.6214 103.032 71.1174 104.376 71.1174 107.064C71.1174 109.752 72.6214 111.096 74.6054 111.096C75.6934 111.096 76.3814 110.808 77.1974 109.928ZM85.1748 107.064C85.1748 105.848 85.0148 104.744 84.2148 103.928C83.6708 103.384 82.9188 103.032 81.9588 103.032C80.9988 103.032 80.2468 103.384 79.7028 103.928C78.9028 104.744 78.7428 105.848 78.7428 107.064C78.7428 108.28 78.9028 109.384 79.7028 110.2C80.2468 110.744 80.9988 111.096 81.9588 111.096C82.9188 111.096 83.6708 110.744 84.2148 110.2C85.0148 109.384 85.1748 108.28 85.1748 107.064ZM84.0228 107.064C84.0228 107.944 83.9748 108.92 83.3988 109.496C83.0308 109.864 82.5188 110.072 81.9588 110.072C81.3988 110.072 80.9028 109.864 80.5348 109.496C79.9588 108.92 79.8948 107.944 79.8948 107.064C79.8948 106.184 79.9588 105.208 80.5348 104.632C80.9028 104.264 81.3988 104.056 81.9588 104.056C82.5188 104.056 83.0308 104.264 83.3988 104.632C83.9748 105.208 84.0228 106.184 84.0228 107.064ZM90.4431 111V110.008H89.8191C89.0191 110.008 88.7631 109.624 88.7631 108.856V99.608H87.6111V108.904C87.6111 110.104 88.2351 111 89.6111 111H90.4431ZM95.1931 111V110.008H94.5691C93.7691 110.008 93.5131 109.624 93.5131 108.856V99.608H92.3611V108.904C92.3611 110.104 92.9851 111 94.3611 111H95.1931ZM102.769 107.368V106.84C102.769 104.504 101.569 103.032 99.5369 103.032C97.5369 103.032 96.3049 104.52 96.3049 107.064C96.3049 109.848 97.6649 111.096 99.7449 111.096C101.089 111.096 101.825 110.68 102.625 109.88L101.841 109.192C101.217 109.816 100.689 110.088 99.7769 110.088C98.2729 110.088 97.4569 109.096 97.4569 107.368H102.769ZM101.617 106.504H97.4569C97.4889 105.864 97.5209 105.624 97.6969 105.192C98.0009 104.472 98.7049 104.008 99.5369 104.008C100.369 104.008 101.073 104.472 101.377 105.192C101.553 105.624 101.585 105.864 101.617 106.504ZM110.869 109.928L110.085 109.176C109.493 109.832 109.029 110.072 108.277 110.072C107.509 110.072 106.869 109.768 106.453 109.176C106.085 108.664 105.941 108.056 105.941 107.064C105.941 106.072 106.085 105.464 106.453 104.952C106.869 104.36 107.509 104.056 108.277 104.056C109.029 104.056 109.493 104.28 110.085 104.936L110.869 104.2C110.053 103.32 109.365 103.032 108.277 103.032C106.293 103.032 104.789 104.376 104.789 107.064C104.789 109.752 106.293 111.096 108.277 111.096C109.365 111.096 110.053 110.808 110.869 109.928ZM116.089 111V110.008H115.481C114.745 110.008 114.409 109.576 114.409 108.856V104.056H116.089V103.176H114.409V100.712H113.257V103.176H112.265V104.056H113.257V108.888C113.257 110.056 113.929 111 115.273 111H116.089ZM119.61 100.888V99.592H118.314V100.888H119.61ZM119.53 111V103.128H118.378V111H119.53ZM128.44 107.064C128.44 105.848 128.28 104.744 127.48 103.928C126.936 103.384 126.184 103.032 125.224 103.032C124.264 103.032 123.512 103.384 122.968 103.928C122.168 104.744 122.008 105.848 122.008 107.064C122.008 108.28 122.168 109.384 122.968 110.2C123.512 110.744 124.264 111.096 125.224 111.096C126.184 111.096 126.936 110.744 127.48 110.2C128.28 109.384 128.44 108.28 128.44 107.064ZM127.288 107.064C127.288 107.944 127.24 108.92 126.664 109.496C126.296 109.864 125.784 110.072 125.224 110.072C124.664 110.072 124.168 109.864 123.8 109.496C123.224 108.92 123.16 107.944 123.16 107.064C123.16 106.184 123.224 105.208 123.8 104.632C124.168 104.264 124.664 104.056 125.224 104.056C125.784 104.056 126.296 104.264 126.664 104.632C127.24 105.208 127.288 106.184 127.288 107.064ZM137.101 111V105.96C137.101 105.048 136.845 104.312 136.285 103.768C135.805 103.288 135.117 103.032 134.269 103.032C133.389 103.032 132.621 103.352 132.061 103.992V103.128H130.909V111H132.061V106.152C132.061 104.776 132.829 104.056 134.013 104.056C135.197 104.056 135.949 104.76 135.949 106.152V111H137.101ZM149.894 107.064C149.894 105.848 149.734 104.744 148.934 103.928C148.39 103.384 147.638 103.032 146.678 103.032C145.718 103.032 144.966 103.384 144.422 103.928C143.622 104.744 143.462 105.848 143.462 107.064C143.462 108.28 143.622 109.384 144.422 110.2C144.966 110.744 145.718 111.096 146.678 111.096C147.638 111.096 148.39 110.744 148.934 110.2C149.734 109.384 149.894 108.28 149.894 107.064ZM148.742 107.064C148.742 107.944 148.694 108.92 148.118 109.496C147.75 109.864 147.238 110.072 146.678 110.072C146.118 110.072 145.622 109.864 145.254 109.496C144.678 108.92 144.614 107.944 144.614 107.064C144.614 106.184 144.678 105.208 145.254 104.632C145.622 104.264 146.118 104.056 146.678 104.056C147.238 104.056 147.75 104.264 148.118 104.632C148.694 105.208 148.742 106.184 148.742 107.064ZM155.45 104.056V103.176H153.77V101.72C153.77 101 154.09 100.568 154.826 100.568H155.45V99.576H154.618C153.274 99.576 152.618 100.52 152.618 101.688V103.176H151.61V104.056H152.618V111H153.77V104.056H155.45ZM167.41 107.368V106.84C167.41 104.504 166.21 103.032 164.178 103.032C162.178 103.032 160.946 104.52 160.946 107.064C160.946 109.848 162.306 111.096 164.386 111.096C165.73 111.096 166.466 110.68 167.266 109.88L166.482 109.192C165.858 109.816 165.33 110.088 164.418 110.088C162.914 110.088 162.098 109.096 162.098 107.368H167.41ZM166.258 106.504H162.098C162.13 105.864 162.162 105.624 162.338 105.192C162.642 104.472 163.346 104.008 164.178 104.008C165.01 104.008 165.714 104.472 166.018 105.192C166.194 105.624 166.226 105.864 166.258 106.504ZM175.702 111V99.608H174.55V104.04C173.91 103.224 173.19 103.032 172.326 103.032C171.526 103.032 170.822 103.304 170.406 103.72C169.606 104.52 169.446 105.832 169.446 107.064C169.446 108.296 169.606 109.608 170.406 110.408C170.822 110.824 171.526 111.096 172.326 111.096C173.19 111.096 173.926 110.888 174.566 110.056V111H175.702ZM174.55 107.064C174.55 108.6 174.294 110.072 172.582 110.072C170.87 110.072 170.598 108.6 170.598 107.064C170.598 105.528 170.87 104.056 172.582 104.056C174.294 104.056 174.55 105.528 174.55 107.064ZM184.693 111V103.128H183.541V107.976C183.541 109.352 182.757 110.072 181.573 110.072C180.389 110.072 179.653 109.368 179.653 107.976V103.128H178.501V108.152C178.501 109.064 178.741 109.816 179.301 110.36C179.781 110.84 180.485 111.096 181.333 111.096C182.213 111.096 182.997 110.76 183.557 110.12V111H184.693ZM193.213 109.928L192.429 109.176C191.837 109.832 191.373 110.072 190.621 110.072C189.853 110.072 189.213 109.768 188.797 109.176C188.429 108.664 188.285 108.056 188.285 107.064C188.285 106.072 188.429 105.464 188.797 104.952C189.213 104.36 189.853 104.056 190.621 104.056C191.373 104.056 191.837 104.28 192.429 104.936L193.213 104.2C192.397 103.32 191.709 103.032 190.621 103.032C188.637 103.032 187.133 104.376 187.133 107.064C187.133 109.752 188.637 111.096 190.621 111.096C191.709 111.096 192.397 110.808 193.213 109.928ZM200.837 111V105.656C200.837 103.944 199.797 103.032 197.685 103.032C196.405 103.032 195.605 103.288 194.901 104.2L195.685 104.92C196.149 104.264 196.661 104.024 197.669 104.024C199.109 104.024 199.685 104.6 199.685 105.752V106.504H197.317C195.557 106.504 194.597 107.4 194.597 108.776C194.597 109.4 194.805 109.992 195.189 110.376C195.685 110.888 196.325 111.096 197.413 111.096C198.469 111.096 199.045 110.888 199.685 110.248V111H200.837ZM199.685 108.216C199.685 108.872 199.557 109.32 199.285 109.576C198.789 110.056 198.197 110.104 197.525 110.104C196.277 110.104 195.717 109.672 195.717 108.76C195.717 107.848 196.293 107.368 197.477 107.368H199.685V108.216ZM206.667 111V110.008H206.059C205.323 110.008 204.987 109.576 204.987 108.856V104.056H206.667V103.176H204.987V100.712H203.835V103.176H202.843V104.056H203.835V108.888C203.835 110.056 204.507 111 205.851 111H206.667ZM210.188 100.888V99.592H208.892V100.888H210.188ZM210.108 111V103.128H208.956V111H210.108ZM219.019 107.064C219.019 105.848 218.859 104.744 218.059 103.928C217.515 103.384 216.763 103.032 215.803 103.032C214.843 103.032 214.091 103.384 213.547 103.928C212.747 104.744 212.587 105.848 212.587 107.064C212.587 108.28 212.747 109.384 213.547 110.2C214.091 110.744 214.843 111.096 215.803 111.096C216.763 111.096 217.515 110.744 218.059 110.2C218.859 109.384 219.019 108.28 219.019 107.064ZM217.867 107.064C217.867 107.944 217.819 108.92 217.243 109.496C216.875 109.864 216.363 110.072 215.803 110.072C215.243 110.072 214.747 109.864 214.379 109.496C213.803 108.92 213.739 107.944 213.739 107.064C213.739 106.184 213.803 105.208 214.379 104.632C214.747 104.264 215.243 104.056 215.803 104.056C216.363 104.056 216.875 104.264 217.243 104.632C217.819 105.208 217.867 106.184 217.867 107.064ZM227.679 111V105.96C227.679 105.048 227.423 104.312 226.863 103.768C226.383 103.288 225.695 103.032 224.847 103.032C223.967 103.032 223.199 103.352 222.639 103.992V103.128H221.487V111H222.639V106.152C222.639 104.776 223.407 104.056 224.591 104.056C225.775 104.056 226.527 104.76 226.527 106.152V111H227.679ZM236.087 111V105.656C236.087 103.944 235.047 103.032 232.935 103.032C231.655 103.032 230.855 103.288 230.151 104.2L230.935 104.92C231.399 104.264 231.911 104.024 232.919 104.024C234.359 104.024 234.935 104.6 234.935 105.752V106.504H232.567C230.807 106.504 229.847 107.4 229.847 108.776C229.847 109.4 230.055 109.992 230.439 110.376C230.935 110.888 231.575 111.096 232.663 111.096C233.719 111.096 234.295 110.888 234.935 110.248V111H236.087ZM234.935 108.216C234.935 108.872 234.807 109.32 234.535 109.576C234.039 110.056 233.447 110.104 232.775 110.104C231.527 110.104 230.967 109.672 230.967 108.76C230.967 107.848 231.543 107.368 232.727 107.368H234.935V108.216ZM241.693 111V110.008H241.069C240.269 110.008 240.013 109.624 240.013 108.856V99.608H238.861V108.904C238.861 110.104 239.485 111 240.861 111H241.693ZM252.876 103.768C252.316 103.208 251.74 103.032 250.988 103.032C250.076 103.032 249.212 103.432 248.78 104.088V103.128H247.628V111H248.78V106.168C248.78 104.968 249.516 104.056 250.668 104.056C251.276 104.056 251.596 104.2 252.028 104.632L252.876 103.768ZM259.847 107.368V106.84C259.847 104.504 258.647 103.032 256.615 103.032C254.615 103.032 253.383 104.52 253.383 107.064C253.383 109.848 254.743 111.096 256.823 111.096C258.167 111.096 258.903 110.68 259.703 109.88L258.919 109.192C258.295 109.816 257.767 110.088 256.855 110.088C255.351 110.088 254.535 109.096 254.535 107.368H259.847ZM258.695 106.504H254.535C254.567 105.864 254.599 105.624 254.775 105.192C255.079 104.472 255.783 104.008 256.615 104.008C257.447 104.008 258.151 104.472 258.455 105.192C258.631 105.624 258.663 105.864 258.695 106.504ZM267.979 108.696C267.979 107.224 267.035 106.696 265.659 106.568L264.395 106.456C263.403 106.376 263.019 105.976 263.019 105.304C263.019 104.504 263.627 104.008 264.779 104.008C265.595 104.008 266.315 104.2 266.875 104.632L267.627 103.88C266.923 103.304 265.915 103.032 264.795 103.032C263.115 103.032 261.899 103.896 261.899 105.336C261.899 106.632 262.715 107.32 264.251 107.448L265.547 107.56C266.459 107.64 266.859 108.024 266.859 108.712C266.859 109.64 266.059 110.104 264.763 110.104C263.787 110.104 262.939 109.848 262.315 109.192L261.547 109.96C262.411 110.792 263.451 111.096 264.779 111.096C266.683 111.096 267.979 110.216 267.979 108.696ZM276.253 107.064C276.253 105.848 276.093 104.744 275.293 103.928C274.749 103.384 273.997 103.032 273.037 103.032C272.077 103.032 271.325 103.384 270.781 103.928C269.981 104.744 269.821 105.848 269.821 107.064C269.821 108.28 269.981 109.384 270.781 110.2C271.325 110.744 272.077 111.096 273.037 111.096C273.997 111.096 274.749 110.744 275.293 110.2C276.093 109.384 276.253 108.28 276.253 107.064ZM275.101 107.064C275.101 107.944 275.053 108.92 274.477 109.496C274.109 109.864 273.597 110.072 273.037 110.072C272.477 110.072 271.981 109.864 271.613 109.496C271.037 108.92 270.973 107.944 270.973 107.064C270.973 106.184 271.037 105.208 271.613 104.632C271.981 104.264 272.477 104.056 273.037 104.056C273.597 104.056 274.109 104.264 274.477 104.632C275.053 105.208 275.101 106.184 275.101 107.064ZM284.833 111V103.128H283.681V107.976C283.681 109.352 282.897 110.072 281.713 110.072C280.529 110.072 279.793 109.368 279.793 107.976V103.128H278.641V108.152C278.641 109.064 278.881 109.816 279.441 110.36C279.921 110.84 280.625 111.096 281.473 111.096C282.353 111.096 283.137 110.76 283.697 110.12V111H284.833ZM292.954 103.768C292.394 103.208 291.818 103.032 291.066 103.032C290.154 103.032 289.29 103.432 288.858 104.088V103.128H287.706V111H288.858V106.168C288.858 104.968 289.594 104.056 290.746 104.056C291.354 104.056 291.674 104.2 292.106 104.632L292.954 103.768ZM299.541 109.928L298.757 109.176C298.165 109.832 297.701 110.072 296.949 110.072C296.181 110.072 295.541 109.768 295.125 109.176C294.757 108.664 294.613 108.056 294.613 107.064C294.613 106.072 294.757 105.464 295.125 104.952C295.541 104.36 296.181 104.056 296.949 104.056C297.701 104.056 298.165 104.28 298.757 104.936L299.541 104.2C298.725 103.32 298.037 103.032 296.949 103.032C294.965 103.032 293.461 104.376 293.461 107.064C293.461 109.752 294.965 111.096 296.949 111.096C298.037 111.096 298.725 110.808 299.541 109.928ZM307.535 107.368V106.84C307.535 104.504 306.335 103.032 304.303 103.032C302.303 103.032 301.071 104.52 301.071 107.064C301.071 109.848 302.431 111.096 304.511 111.096C305.855 111.096 306.591 110.68 307.391 109.88L306.607 109.192C305.983 109.816 305.455 110.088 304.543 110.088C303.039 110.088 302.223 109.096 302.223 107.368H307.535ZM306.383 106.504H302.223C302.255 105.864 302.287 105.624 302.463 105.192C302.767 104.472 303.471 104.008 304.303 104.008C305.135 104.008 305.839 104.472 306.143 105.192C306.319 105.624 306.351 105.864 306.383 106.504ZM315.667 108.696C315.667 107.224 314.723 106.696 313.347 106.568L312.083 106.456C311.091 106.376 310.707 105.976 310.707 105.304C310.707 104.504 311.315 104.008 312.467 104.008C313.283 104.008 314.003 104.2 314.563 104.632L315.315 103.88C314.611 103.304 313.603 103.032 312.483 103.032C310.803 103.032 309.587 103.896 309.587 105.336C309.587 106.632 310.403 107.32 311.939 107.448L313.235 107.56C314.147 107.64 314.547 108.024 314.547 108.712C314.547 109.64 313.747 110.104 312.451 110.104C311.475 110.104 310.627 109.848 310.003 109.192L309.235 109.96C310.099 110.792 311.139 111.096 312.467 111.096C314.371 111.096 315.667 110.216 315.667 108.696ZM52.704 135V129.96C52.704 129.048 52.416 128.312 51.856 127.768C51.376 127.304 50.672 127.032 49.824 127.032C48.72 127.032 47.84 127.48 47.232 128.344C46.752 127.48 45.904 127.032 44.816 127.032C43.936 127.032 43.152 127.352 42.592 127.992V127.128H41.44V135H42.592V130.152C42.592 128.776 43.376 128.056 44.56 128.056C45.744 128.056 46.496 128.76 46.496 130.152V135H47.648V130.024C47.648 128.776 48.464 128.056 49.616 128.056C50.8 128.056 51.552 128.76 51.552 130.152V135H52.704ZM61.1185 135V129.656C61.1185 127.944 60.0785 127.032 57.9665 127.032C56.6865 127.032 55.8865 127.288 55.1825 128.2L55.9665 128.92C56.4305 128.264 56.9425 128.024 57.9505 128.024C59.3905 128.024 59.9665 128.6 59.9665 129.752V130.504H57.5985C55.8385 130.504 54.8785 131.4 54.8785 132.776C54.8785 133.4 55.0865 133.992 55.4705 134.376C55.9665 134.888 56.6065 135.096 57.6945 135.096C58.7505 135.096 59.3265 134.888 59.9665 134.248V135H61.1185ZM59.9665 132.216C59.9665 132.872 59.8385 133.32 59.5665 133.576C59.0705 134.056 58.4785 134.104 57.8065 134.104C56.5585 134.104 55.9985 133.672 55.9985 132.76C55.9985 131.848 56.5745 131.368 57.7585 131.368H59.9665V132.216ZM70.5324 135L67.3964 130.136L70.0684 127.128H68.6284L65.0764 131.224V123.608H63.9244V135H65.0764V132.728L66.6124 130.968L69.1084 135H70.5324ZM78.222 131.368V130.84C78.222 128.504 77.022 127.032 74.99 127.032C72.99 127.032 71.758 128.52 71.758 131.064C71.758 133.848 73.118 135.096 75.198 135.096C76.542 135.096 77.278 134.68 78.078 133.88L77.294 133.192C76.67 133.816 76.142 134.088 75.23 134.088C73.726 134.088 72.91 133.096 72.91 131.368H78.222ZM77.07 130.504H72.91C72.942 129.864 72.974 129.624 73.15 129.192C73.454 128.472 74.158 128.008 74.99 128.008C75.822 128.008 76.526 128.472 76.83 129.192C77.006 129.624 77.038 129.864 77.07 130.504ZM86.3544 132.696C86.3544 131.224 85.4104 130.696 84.0344 130.568L82.7704 130.456C81.7784 130.376 81.3944 129.976 81.3944 129.304C81.3944 128.504 82.0024 128.008 83.1544 128.008C83.9704 128.008 84.6904 128.2 85.2504 128.632L86.0024 127.88C85.2984 127.304 84.2904 127.032 83.1704 127.032C81.4904 127.032 80.2744 127.896 80.2744 129.336C80.2744 130.632 81.0904 131.32 82.6264 131.448L83.9224 131.56C84.8344 131.64 85.2344 132.024 85.2344 132.712C85.2344 133.64 84.4344 134.104 83.1384 134.104C82.1624 134.104 81.3144 133.848 80.6904 133.192L79.9224 133.96C80.7864 134.792 81.8264 135.096 83.1544 135.096C85.0584 135.096 86.3544 134.216 86.3544 132.696ZM93.8283 124.888V123.592H92.5323V124.888H93.8283ZM93.7483 135V127.128H92.5963V135H93.7483ZM99.6671 135V134.008H99.0591C98.3231 134.008 97.9871 133.576 97.9871 132.856V128.056H99.6671V127.176H97.9871V124.712H96.8351V127.176H95.8431V128.056H96.8351V132.888C96.8351 134.056 97.5071 135 98.8511 135H99.6671ZM111.972 131.368V130.84C111.972 128.504 110.772 127.032 108.74 127.032C106.74 127.032 105.508 128.52 105.508 131.064C105.508 133.848 106.868 135.096 108.948 135.096C110.292 135.096 111.028 134.68 111.828 133.88L111.044 133.192C110.42 133.816 109.892 134.088 108.98 134.088C107.476 134.088 106.66 133.096 106.66 131.368H111.972ZM110.82 130.504H106.66C106.692 129.864 106.724 129.624 106.9 129.192C107.204 128.472 107.908 128.008 108.74 128.008C109.572 128.008 110.276 128.472 110.58 129.192C110.756 129.624 110.788 129.864 110.82 130.504ZM120.04 135V129.656C120.04 127.944 119 127.032 116.888 127.032C115.608 127.032 114.808 127.288 114.104 128.2L114.888 128.92C115.352 128.264 115.864 128.024 116.872 128.024C118.312 128.024 118.888 128.6 118.888 129.752V130.504H116.52C114.76 130.504 113.8 131.4 113.8 132.776C113.8 133.4 114.008 133.992 114.392 134.376C114.888 134.888 115.528 135.096 116.616 135.096C117.672 135.096 118.248 134.888 118.888 134.248V135H120.04ZM118.888 132.216C118.888 132.872 118.76 133.32 118.488 133.576C117.992 134.056 117.4 134.104 116.728 134.104C115.48 134.104 114.92 133.672 114.92 132.76C114.92 131.848 115.496 131.368 116.68 131.368H118.888V132.216ZM128.526 132.696C128.526 131.224 127.582 130.696 126.206 130.568L124.942 130.456C123.95 130.376 123.566 129.976 123.566 129.304C123.566 128.504 124.174 128.008 125.326 128.008C126.142 128.008 126.862 128.2 127.422 128.632L128.174 127.88C127.47 127.304 126.462 127.032 125.342 127.032C123.662 127.032 122.446 127.896 122.446 129.336C122.446 130.632 123.262 131.32 124.798 131.448L126.094 131.56C127.006 131.64 127.406 132.024 127.406 132.712C127.406 133.64 126.606 134.104 125.31 134.104C124.334 134.104 123.486 133.848 122.862 133.192L122.094 133.96C122.958 134.792 123.998 135.096 125.326 135.096C127.23 135.096 128.526 134.216 128.526 132.696ZM136.32 127.128H135.072L132.928 133.448L130.768 127.128H129.52L132.352 134.84L131.792 136.376C131.536 137.096 131.296 137.352 130.496 137.352H130.144V138.376H130.64C131.2 138.376 131.76 138.232 132.176 137.832C132.4 137.624 132.576 137.336 132.736 136.904L136.32 127.128ZM145.012 128.056V127.176H143.332V125.72C143.332 125 143.652 124.568 144.388 124.568H145.012V123.576H144.18C142.836 123.576 142.18 124.52 142.18 125.688V127.176H141.172V128.056H142.18V135H143.332V128.056H145.012ZM152.675 131.064C152.675 129.848 152.515 128.744 151.715 127.928C151.171 127.384 150.419 127.032 149.459 127.032C148.499 127.032 147.747 127.384 147.203 127.928C146.403 128.744 146.243 129.848 146.243 131.064C146.243 132.28 146.403 133.384 147.203 134.2C147.747 134.744 148.499 135.096 149.459 135.096C150.419 135.096 151.171 134.744 151.715 134.2C152.515 133.384 152.675 132.28 152.675 131.064ZM151.523 131.064C151.523 131.944 151.475 132.92 150.899 133.496C150.531 133.864 150.019 134.072 149.459 134.072C148.899 134.072 148.403 133.864 148.035 133.496C147.459 132.92 147.395 131.944 147.395 131.064C147.395 130.184 147.459 129.208 148.035 128.632C148.403 128.264 148.899 128.056 149.459 128.056C150.019 128.056 150.531 128.264 150.899 128.632C151.475 129.208 151.523 130.184 151.523 131.064ZM160.391 127.768C159.831 127.208 159.255 127.032 158.503 127.032C157.591 127.032 156.727 127.432 156.295 128.088V127.128H155.143V135H156.295V130.168C156.295 128.968 157.031 128.056 158.183 128.056C158.791 128.056 159.111 128.2 159.543 128.632L160.391 127.768ZM171.542 132.696C171.542 131.224 170.598 130.696 169.222 130.568L167.958 130.456C166.966 130.376 166.582 129.976 166.582 129.304C166.582 128.504 167.19 128.008 168.342 128.008C169.158 128.008 169.878 128.2 170.438 128.632L171.19 127.88C170.486 127.304 169.478 127.032 168.358 127.032C166.678 127.032 165.462 127.896 165.462 129.336C165.462 130.632 166.278 131.32 167.814 131.448L169.11 131.56C170.022 131.64 170.422 132.024 170.422 132.712C170.422 133.64 169.622 134.104 168.326 134.104C167.35 134.104 166.502 133.848 165.878 133.192L165.11 133.96C165.974 134.792 167.014 135.096 168.342 135.096C170.246 135.096 171.542 134.216 171.542 132.696ZM176.667 135V134.008H176.059C175.323 134.008 174.987 133.576 174.987 132.856V128.056H176.667V127.176H174.987V124.712H173.835V127.176H172.843V128.056H173.835V132.888C173.835 134.056 174.507 135 175.851 135H176.667ZM185.068 135V127.128H183.916V131.976C183.916 133.352 183.132 134.072 181.948 134.072C180.764 134.072 180.028 133.368 180.028 131.976V127.128H178.876V132.152C178.876 133.064 179.116 133.816 179.676 134.36C180.156 134.84 180.86 135.096 181.708 135.096C182.588 135.096 183.372 134.76 183.932 134.12V135H185.068ZM193.78 135V123.608H192.628V128.04C191.988 127.224 191.268 127.032 190.404 127.032C189.604 127.032 188.9 127.304 188.484 127.72C187.684 128.52 187.524 129.832 187.524 131.064C187.524 132.296 187.684 133.608 188.484 134.408C188.9 134.824 189.604 135.096 190.404 135.096C191.268 135.096 192.004 134.888 192.644 134.056V135H193.78ZM192.628 131.064C192.628 132.6 192.372 134.072 190.66 134.072C188.948 134.072 188.676 132.6 188.676 131.064C188.676 129.528 188.948 128.056 190.66 128.056C192.372 128.056 192.628 129.528 192.628 131.064ZM202.691 131.368V130.84C202.691 128.504 201.491 127.032 199.459 127.032C197.459 127.032 196.227 128.52 196.227 131.064C196.227 133.848 197.587 135.096 199.667 135.096C201.011 135.096 201.747 134.68 202.547 133.88L201.763 133.192C201.139 133.816 200.611 134.088 199.699 134.088C198.195 134.088 197.379 133.096 197.379 131.368H202.691ZM201.539 130.504H197.379C197.411 129.864 197.443 129.624 197.619 129.192C197.923 128.472 198.627 128.008 199.459 128.008C200.291 128.008 200.995 128.472 201.299 129.192C201.475 129.624 201.507 129.864 201.539 130.504ZM211.335 135V129.96C211.335 129.048 211.079 128.312 210.519 127.768C210.039 127.288 209.351 127.032 208.503 127.032C207.623 127.032 206.855 127.352 206.295 127.992V127.128H205.143V135H206.295V130.152C206.295 128.776 207.063 128.056 208.247 128.056C209.431 128.056 210.183 128.76 210.183 130.152V135H211.335ZM217.152 135V134.008H216.544C215.808 134.008 215.472 133.576 215.472 132.856V128.056H217.152V127.176H215.472V124.712H214.32V127.176H213.328V128.056H214.32V132.888C214.32 134.056 214.992 135 216.336 135H217.152ZM225.12 132.696C225.12 131.224 224.176 130.696 222.8 130.568L221.536 130.456C220.544 130.376 220.16 129.976 220.16 129.304C220.16 128.504 220.768 128.008 221.92 128.008C222.736 128.008 223.456 128.2 224.016 128.632L224.768 127.88C224.064 127.304 223.056 127.032 221.936 127.032C220.256 127.032 219.04 127.896 219.04 129.336C219.04 130.632 219.856 131.32 221.392 131.448L222.688 131.56C223.6 131.64 224 132.024 224 132.712C224 133.64 223.2 134.104 221.904 134.104C220.928 134.104 220.08 133.848 219.456 133.192L218.688 133.96C219.552 134.792 220.592 135.096 221.92 135.096C223.824 135.096 225.12 134.216 225.12 132.696ZM234.386 135V134.008H233.778C233.042 134.008 232.706 133.576 232.706 132.856V128.056H234.386V127.176H232.706V124.712H231.554V127.176H230.562V128.056H231.554V132.888C231.554 134.056 232.226 135 233.57 135H234.386ZM242.565 131.064C242.565 129.848 242.405 128.744 241.605 127.928C241.061 127.384 240.309 127.032 239.349 127.032C238.389 127.032 237.637 127.384 237.093 127.928C236.293 128.744 236.133 129.848 236.133 131.064C236.133 132.28 236.293 133.384 237.093 134.2C237.637 134.744 238.389 135.096 239.349 135.096C240.309 135.096 241.061 134.744 241.605 134.2C242.405 133.384 242.565 132.28 242.565 131.064ZM241.413 131.064C241.413 131.944 241.365 132.92 240.789 133.496C240.421 133.864 239.909 134.072 239.349 134.072C238.789 134.072 238.293 133.864 237.925 133.496C237.349 132.92 237.285 131.944 237.285 131.064C237.285 130.184 237.349 129.208 237.925 128.632C238.293 128.264 238.789 128.056 239.349 128.056C239.909 128.056 240.421 128.264 240.789 128.632C241.365 129.208 241.413 130.184 241.413 131.064ZM255.05 131.368V130.84C255.05 128.504 253.85 127.032 251.818 127.032C249.818 127.032 248.586 128.52 248.586 131.064C248.586 133.848 249.946 135.096 252.026 135.096C253.37 135.096 254.106 134.68 254.906 133.88L254.122 133.192C253.498 133.816 252.97 134.088 252.058 134.088C250.554 134.088 249.738 133.096 249.738 131.368H255.05ZM253.898 130.504H249.738C249.77 129.864 249.802 129.624 249.978 129.192C250.282 128.472 250.986 128.008 251.818 128.008C252.65 128.008 253.354 128.472 253.658 129.192C253.834 129.624 253.866 129.864 253.898 130.504ZM263.695 135V129.96C263.695 129.048 263.439 128.312 262.879 127.768C262.399 127.288 261.711 127.032 260.863 127.032C259.983 127.032 259.215 127.352 258.655 127.992V127.128H257.503V135H258.655V130.152C258.655 128.776 259.423 128.056 260.607 128.056C261.791 128.056 262.543 128.76 262.543 130.152V135H263.695ZM267.719 124.888V123.592H266.423V124.888H267.719ZM267.639 136.424V127.176H266.487V136.376C266.487 137.144 266.231 137.528 265.431 137.528H264.807V138.536H265.639C267.015 138.536 267.639 137.624 267.639 136.424ZM276.55 131.064C276.55 129.848 276.39 128.744 275.59 127.928C275.046 127.384 274.294 127.032 273.334 127.032C272.374 127.032 271.622 127.384 271.078 127.928C270.278 128.744 270.118 129.848 270.118 131.064C270.118 132.28 270.278 133.384 271.078 134.2C271.622 134.744 272.374 135.096 273.334 135.096C274.294 135.096 275.046 134.744 275.59 134.2C276.39 133.384 276.55 132.28 276.55 131.064ZM275.398 131.064C275.398 131.944 275.35 132.92 274.774 133.496C274.406 133.864 273.894 134.072 273.334 134.072C272.774 134.072 272.278 133.864 271.91 133.496C271.334 132.92 271.27 131.944 271.27 131.064C271.27 130.184 271.334 129.208 271.91 128.632C272.278 128.264 272.774 128.056 273.334 128.056C273.894 128.056 274.406 128.264 274.774 128.632C275.35 129.208 275.398 130.184 275.398 131.064ZM284.398 127.128H283.15L281.006 133.448L278.846 127.128H277.598L280.43 134.84L279.87 136.376C279.614 137.096 279.374 137.352 278.574 137.352H278.222V138.376H278.718C279.278 138.376 279.838 138.232 280.254 137.832C280.478 137.624 280.654 137.336 280.814 136.904L284.398 127.128ZM293.027 135V134.008H292.419C291.683 134.008 291.347 133.576 291.347 132.856V128.056H293.027V127.176H291.347V124.712H290.195V127.176H289.203V128.056H290.195V132.888C290.195 134.056 290.867 135 292.211 135H293.027ZM301.507 135V129.944C301.507 128.168 300.451 127.032 298.675 127.032C297.795 127.032 297.043 127.336 296.467 127.992V123.608H295.315V135H296.467V130.136C296.467 128.776 297.251 128.056 298.435 128.056C299.619 128.056 300.355 128.76 300.355 130.136V135H301.507ZM310.331 131.368V130.84C310.331 128.504 309.131 127.032 307.099 127.032C305.099 127.032 303.867 128.52 303.867 131.064C303.867 133.848 305.227 135.096 307.307 135.096C308.651 135.096 309.387 134.68 310.187 133.88L309.403 133.192C308.779 133.816 308.251 134.088 307.339 134.088C305.835 134.088 305.019 133.096 305.019 131.368H310.331ZM309.179 130.504H305.019C305.051 129.864 305.083 129.624 305.259 129.192C305.563 128.472 306.267 128.008 307.099 128.008C307.931 128.008 308.635 128.472 308.939 129.192C309.115 129.624 309.147 129.864 309.179 130.504ZM314.016 124.888V123.592H312.72V124.888H314.016ZM313.936 135V127.128H312.784V135H313.936ZM322.079 127.768C321.519 127.208 320.943 127.032 320.191 127.032C319.279 127.032 318.415 127.432 317.983 128.088V127.128H316.831V135H317.983V130.168C317.983 128.968 318.719 128.056 319.871 128.056C320.479 128.056 320.799 128.2 321.231 128.632L322.079 127.768ZM47.472 155.368V154.84C47.472 152.504 46.272 151.032 44.24 151.032C42.24 151.032 41.008 152.52 41.008 155.064C41.008 157.848 42.368 159.096 44.448 159.096C45.792 159.096 46.528 158.68 47.328 157.88L46.544 157.192C45.92 157.816 45.392 158.088 44.48 158.088C42.976 158.088 42.16 157.096 42.16 155.368H47.472ZM46.32 154.504H42.16C42.192 153.864 42.224 153.624 42.4 153.192C42.704 152.472 43.408 152.008 44.24 152.008C45.072 152.008 45.776 152.472 46.08 153.192C46.256 153.624 46.288 153.864 46.32 154.504ZM55.7644 159V147.608H54.6124V152.04C53.9724 151.224 53.2524 151.032 52.3884 151.032C51.5884 151.032 50.8844 151.304 50.4684 151.72C49.6684 152.52 49.5084 153.832 49.5084 155.064C49.5084 156.296 49.6684 157.608 50.4684 158.408C50.8844 158.824 51.5884 159.096 52.3884 159.096C53.2524 159.096 53.9884 158.888 54.6284 158.056V159H55.7644ZM54.6124 155.064C54.6124 156.6 54.3564 158.072 52.6444 158.072C50.9324 158.072 50.6604 156.6 50.6604 155.064C50.6604 153.528 50.9324 152.056 52.6444 152.056C54.3564 152.056 54.6124 153.528 54.6124 155.064ZM64.7551 159V151.128H63.6031V155.976C63.6031 157.352 62.8191 158.072 61.6351 158.072C60.4511 158.072 59.7151 157.368 59.7151 155.976V151.128H58.5631V156.152C58.5631 157.064 58.8031 157.816 59.3631 158.36C59.8431 158.84 60.5471 159.096 61.3951 159.096C62.2751 159.096 63.0591 158.76 63.6191 158.12V159H64.7551ZM73.2755 157.928L72.4915 157.176C71.8995 157.832 71.4355 158.072 70.6835 158.072C69.9155 158.072 69.2755 157.768 68.8595 157.176C68.4915 156.664 68.3475 156.056 68.3475 155.064C68.3475 154.072 68.4915 153.464 68.8595 152.952C69.2755 152.36 69.9155 152.056 70.6835 152.056C71.4355 152.056 71.8995 152.28 72.4915 152.936L73.2755 152.2C72.4595 151.32 71.7715 151.032 70.6835 151.032C68.6995 151.032 67.1955 152.376 67.1955 155.064C67.1955 157.752 68.6995 159.096 70.6835 159.096C71.7715 159.096 72.4595 158.808 73.2755 157.928ZM80.8998 159V153.656C80.8998 151.944 79.8598 151.032 77.7478 151.032C76.4678 151.032 75.6678 151.288 74.9638 152.2L75.7478 152.92C76.2118 152.264 76.7238 152.024 77.7318 152.024C79.1718 152.024 79.7478 152.6 79.7478 153.752V154.504H77.3798C75.6198 154.504 74.6598 155.4 74.6598 156.776C74.6598 157.4 74.8678 157.992 75.2518 158.376C75.7478 158.888 76.3878 159.096 77.4758 159.096C78.5318 159.096 79.1078 158.888 79.7478 158.248V159H80.8998ZM79.7478 156.216C79.7478 156.872 79.6198 157.32 79.3478 157.576C78.8518 158.056 78.2598 158.104 77.5878 158.104C76.3398 158.104 75.7798 157.672 75.7798 156.76C75.7798 155.848 76.3558 155.368 77.5398 155.368H79.7478V156.216ZM86.7296 159V158.008H86.1216C85.3856 158.008 85.0496 157.576 85.0496 156.856V152.056H86.7296V151.176H85.0496V148.712H83.8976V151.176H82.9056V152.056H83.8976V156.888C83.8976 158.056 84.5696 159 85.9136 159H86.7296ZM90.2501 148.888V147.592H88.9541V148.888H90.2501ZM90.1701 159V151.128H89.0181V159H90.1701ZM99.081 155.064C99.081 153.848 98.921 152.744 98.121 151.928C97.577 151.384 96.825 151.032 95.865 151.032C94.905 151.032 94.153 151.384 93.609 151.928C92.809 152.744 92.649 153.848 92.649 155.064C92.649 156.28 92.809 157.384 93.609 158.2C94.153 158.744 94.905 159.096 95.865 159.096C96.825 159.096 97.577 158.744 98.121 158.2C98.921 157.384 99.081 156.28 99.081 155.064ZM97.929 155.064C97.929 155.944 97.881 156.92 97.305 157.496C96.937 157.864 96.425 158.072 95.865 158.072C95.305 158.072 94.809 157.864 94.441 157.496C93.865 156.92 93.801 155.944 93.801 155.064C93.801 154.184 93.865 153.208 94.441 152.632C94.809 152.264 95.305 152.056 95.865 152.056C96.425 152.056 96.937 152.264 97.305 152.632C97.881 153.208 97.929 154.184 97.929 155.064ZM107.741 159V153.96C107.741 153.048 107.485 152.312 106.925 151.768C106.445 151.288 105.757 151.032 104.909 151.032C104.029 151.032 103.261 151.352 102.701 151.992V151.128H101.549V159H102.701V154.152C102.701 152.776 103.469 152.056 104.653 152.056C105.837 152.056 106.589 152.76 106.589 154.152V159H107.741ZM120.534 155.064C120.534 153.848 120.374 152.744 119.574 151.928C119.03 151.384 118.278 151.032 117.318 151.032C116.358 151.032 115.606 151.384 115.062 151.928C114.262 152.744 114.102 153.848 114.102 155.064C114.102 156.28 114.262 157.384 115.062 158.2C115.606 158.744 116.358 159.096 117.318 159.096C118.278 159.096 119.03 158.744 119.574 158.2C120.374 157.384 120.534 156.28 120.534 155.064ZM119.382 155.064C119.382 155.944 119.334 156.92 118.758 157.496C118.39 157.864 117.878 158.072 117.318 158.072C116.758 158.072 116.262 157.864 115.894 157.496C115.318 156.92 115.254 155.944 115.254 155.064C115.254 154.184 115.318 153.208 115.894 152.632C116.262 152.264 116.758 152.056 117.318 152.056C117.878 152.056 118.39 152.264 118.758 152.632C119.334 153.208 119.382 154.184 119.382 155.064ZM129.115 159V151.128H127.963V155.976C127.963 157.352 127.179 158.072 125.995 158.072C124.811 158.072 124.075 157.368 124.075 155.976V151.128H122.923V156.152C122.923 157.064 123.163 157.816 123.723 158.36C124.203 158.84 124.907 159.096 125.755 159.096C126.635 159.096 127.419 158.76 127.979 158.12V159H129.115ZM135.011 159V158.008H134.403C133.667 158.008 133.331 157.576 133.331 156.856V152.056H135.011V151.176H133.331V148.712H132.179V151.176H131.187V152.056H132.179V156.888C132.179 158.056 132.851 159 134.195 159H135.011ZM142.979 156.696C142.979 155.224 142.035 154.696 140.659 154.568L139.395 154.456C138.403 154.376 138.019 153.976 138.019 153.304C138.019 152.504 138.627 152.008 139.779 152.008C140.595 152.008 141.315 152.2 141.875 152.632L142.627 151.88C141.923 151.304 140.915 151.032 139.795 151.032C138.115 151.032 136.899 151.896 136.899 153.336C136.899 154.632 137.715 155.32 139.251 155.448L140.547 155.56C141.459 155.64 141.859 156.024 141.859 156.712C141.859 157.64 141.059 158.104 139.763 158.104C138.787 158.104 137.939 157.848 137.315 157.192L136.547 157.96C137.411 158.792 138.451 159.096 139.779 159.096C141.683 159.096 142.979 158.216 142.979 156.696ZM146.469 148.888V147.592H145.173V148.888H146.469ZM146.389 159V151.128H145.237V159H146.389ZM155.124 159V147.608H153.972V152.04C153.332 151.224 152.612 151.032 151.748 151.032C150.948 151.032 150.244 151.304 149.828 151.72C149.028 152.52 148.868 153.832 148.868 155.064C148.868 156.296 149.028 157.608 149.828 158.408C150.244 158.824 150.948 159.096 151.748 159.096C152.612 159.096 153.348 158.888 153.988 158.056V159H155.124ZM153.972 155.064C153.972 156.6 153.716 158.072 152.004 158.072C150.292 158.072 150.02 156.6 150.02 155.064C150.02 153.528 150.292 152.056 152.004 152.056C153.716 152.056 153.972 153.528 153.972 155.064ZM164.035 155.368V154.84C164.035 152.504 162.835 151.032 160.803 151.032C158.803 151.032 157.571 152.52 157.571 155.064C157.571 157.848 158.931 159.096 161.011 159.096C162.355 159.096 163.091 158.68 163.891 157.88L163.107 157.192C162.483 157.816 161.955 158.088 161.043 158.088C159.539 158.088 158.723 157.096 158.723 155.368H164.035ZM162.883 154.504H158.723C158.755 153.864 158.787 153.624 158.963 153.192C159.267 152.472 159.971 152.008 160.803 152.008C161.635 152.008 162.339 152.472 162.643 153.192C162.819 153.624 162.851 153.864 162.883 154.504ZM173.495 159V158.008H172.887C172.151 158.008 171.815 157.576 171.815 156.856V152.056H173.495V151.176H171.815V148.712H170.663V151.176H169.671V152.056H170.663V156.888C170.663 158.056 171.335 159 172.679 159H173.495ZM181.976 159V153.944C181.976 152.168 180.92 151.032 179.144 151.032C178.264 151.032 177.512 151.336 176.936 151.992V147.608H175.784V159H176.936V154.136C176.936 152.776 177.72 152.056 178.904 152.056C180.088 152.056 180.824 152.76 180.824 154.136V159H181.976ZM190.8 155.368V154.84C190.8 152.504 189.6 151.032 187.568 151.032C185.568 151.032 184.336 152.52 184.336 155.064C184.336 157.848 185.696 159.096 187.776 159.096C189.12 159.096 189.856 158.68 190.656 157.88L189.872 157.192C189.248 157.816 188.72 158.088 187.808 158.088C186.304 158.088 185.488 157.096 185.488 155.368H190.8ZM189.648 154.504H185.488C185.52 153.864 185.552 153.624 185.728 153.192C186.032 152.472 186.736 152.008 187.568 152.008C188.4 152.008 189.104 152.472 189.408 153.192C189.584 153.624 189.616 153.864 189.648 154.504ZM202.885 157.928L202.101 157.176C201.509 157.832 201.045 158.072 200.293 158.072C199.525 158.072 198.885 157.768 198.469 157.176C198.101 156.664 197.957 156.056 197.957 155.064C197.957 154.072 198.101 153.464 198.469 152.952C198.885 152.36 199.525 152.056 200.293 152.056C201.045 152.056 201.509 152.28 202.101 152.936L202.885 152.2C202.069 151.32 201.381 151.032 200.293 151.032C198.309 151.032 196.805 152.376 196.805 155.064C196.805 157.752 198.309 159.096 200.293 159.096C201.381 159.096 202.069 158.808 202.885 157.928ZM207.881 159V158.008H207.257C206.457 158.008 206.201 157.624 206.201 156.856V147.608H205.049V156.904C205.049 158.104 205.673 159 207.049 159H207.881ZM215.447 159V153.656C215.447 151.944 214.407 151.032 212.295 151.032C211.015 151.032 210.215 151.288 209.511 152.2L210.295 152.92C210.759 152.264 211.271 152.024 212.279 152.024C213.719 152.024 214.295 152.6 214.295 153.752V154.504H211.927C210.167 154.504 209.207 155.4 209.207 156.776C209.207 157.4 209.415 157.992 209.799 158.376C210.295 158.888 210.935 159.096 212.023 159.096C213.079 159.096 213.655 158.888 214.295 158.248V159H215.447ZM214.295 156.216C214.295 156.872 214.167 157.32 213.895 157.576C213.399 158.056 212.807 158.104 212.135 158.104C210.887 158.104 210.327 157.672 210.327 156.76C210.327 155.848 210.903 155.368 212.087 155.368H214.295V156.216ZM223.933 156.696C223.933 155.224 222.989 154.696 221.613 154.568L220.349 154.456C219.357 154.376 218.973 153.976 218.973 153.304C218.973 152.504 219.581 152.008 220.733 152.008C221.549 152.008 222.269 152.2 222.829 152.632L223.581 151.88C222.877 151.304 221.869 151.032 220.749 151.032C219.069 151.032 217.853 151.896 217.853 153.336C217.853 154.632 218.669 155.32 220.205 155.448L221.501 155.56C222.413 155.64 222.813 156.024 222.813 156.712C222.813 157.64 222.013 158.104 220.717 158.104C219.741 158.104 218.893 157.848 218.269 157.192L217.501 157.96C218.365 158.792 219.405 159.096 220.733 159.096C222.637 159.096 223.933 158.216 223.933 156.696ZM231.62 156.696C231.62 155.224 230.676 154.696 229.3 154.568L228.036 154.456C227.044 154.376 226.66 153.976 226.66 153.304C226.66 152.504 227.268 152.008 228.42 152.008C229.236 152.008 229.956 152.2 230.516 152.632L231.268 151.88C230.564 151.304 229.556 151.032 228.436 151.032C226.756 151.032 225.54 151.896 225.54 153.336C225.54 154.632 226.356 155.32 227.892 155.448L229.188 155.56C230.1 155.64 230.5 156.024 230.5 156.712C230.5 157.64 229.7 158.104 228.404 158.104C227.428 158.104 226.58 157.848 225.956 157.192L225.188 157.96C226.052 158.792 227.092 159.096 228.42 159.096C230.324 159.096 231.62 158.216 231.62 156.696ZM239.126 151.768C238.566 151.208 237.99 151.032 237.238 151.032C236.326 151.032 235.462 151.432 235.03 152.088V151.128H233.878V159H235.03V154.168C235.03 152.968 235.766 152.056 236.918 152.056C237.526 152.056 237.846 152.2 238.278 152.632L239.126 151.768ZM246.081 155.064C246.081 153.848 245.921 152.744 245.121 151.928C244.577 151.384 243.825 151.032 242.865 151.032C241.905 151.032 241.153 151.384 240.609 151.928C239.809 152.744 239.649 153.848 239.649 155.064C239.649 156.28 239.809 157.384 240.609 158.2C241.153 158.744 241.905 159.096 242.865 159.096C243.825 159.096 244.577 158.744 245.121 158.2C245.921 157.384 246.081 156.28 246.081 155.064ZM244.929 155.064C244.929 155.944 244.881 156.92 244.305 157.496C243.937 157.864 243.425 158.072 242.865 158.072C242.305 158.072 241.809 157.864 241.441 157.496C240.865 156.92 240.801 155.944 240.801 155.064C240.801 154.184 240.865 153.208 241.441 152.632C241.809 152.264 242.305 152.056 242.865 152.056C243.425 152.056 243.937 152.264 244.305 152.632C244.881 153.208 244.929 154.184 244.929 155.064ZM254.565 155.064C254.565 153.848 254.405 152.744 253.605 151.928C253.061 151.384 252.309 151.032 251.349 151.032C250.389 151.032 249.637 151.384 249.093 151.928C248.293 152.744 248.133 153.848 248.133 155.064C248.133 156.28 248.293 157.384 249.093 158.2C249.637 158.744 250.389 159.096 251.349 159.096C252.309 159.096 253.061 158.744 253.605 158.2C254.405 157.384 254.565 156.28 254.565 155.064ZM253.413 155.064C253.413 155.944 253.365 156.92 252.789 157.496C252.421 157.864 251.909 158.072 251.349 158.072C250.789 158.072 250.293 157.864 249.925 157.496C249.349 156.92 249.285 155.944 249.285 155.064C249.285 154.184 249.349 153.208 249.925 152.632C250.293 152.264 250.789 152.056 251.349 152.056C251.909 152.056 252.421 152.264 252.789 152.632C253.365 153.208 253.413 154.184 253.413 155.064ZM268.298 159V153.96C268.298 153.048 268.01 152.312 267.45 151.768C266.97 151.304 266.266 151.032 265.418 151.032C264.314 151.032 263.434 151.48 262.826 152.344C262.346 151.48 261.498 151.032 260.41 151.032C259.53 151.032 258.746 151.352 258.186 151.992V151.128H257.034V159H258.186V154.152C258.186 152.776 258.97 152.056 260.154 152.056C261.338 152.056 262.09 152.76 262.09 154.152V159H263.242V154.024C263.242 152.776 264.058 152.056 265.21 152.056C266.394 152.056 267.146 152.76 267.146 154.152V159H268.298ZM272.568 159V157.496H271.064V159H272.568Z"
              fill="#B887DE"
            />
          </svg>