<svg width="393" height="313" viewBox="0 0 393 313" fill="none" xmlns="http://www.w3.org/2000/svg">
    <path d="M0.5 35C0.5 15.9462 15.9462 0.5 35 0.5H261C280.054 0.5 295.5 15.9462 295.5 35C295.5 54.0538 280.054 69.5 261 69.5H35C15.9462 69.5 0.5 54.0538 0.5 35Z" stroke="#B887DE"/>
    <path d="M0 85C0 54.072 25.0721 29 56 29H313C343.928 29 369 54.0721 369 85V257C369 287.928 343.928 313 313 313H56C25.0721 313 0 287.928 0 257V85Z" fill="#B887DE" fill-opacity="0.1"/>
    <path d="M58.17 59V55.776H49.772V40.488H46.158V59H58.17ZM71.9811 53.28V51.772C71.9811 48.054 69.8491 45.298 66.0791 45.298C62.5691 45.298 60.1771 47.794 60.1771 52.214C60.1771 57.7 63.2451 59.156 66.4431 59.156C68.8871 59.156 70.2131 58.402 71.5911 57.024L69.5371 55.022C68.6791 55.88 67.9511 56.296 66.4691 56.296C64.5711 56.296 63.5051 55.022 63.5051 53.28H71.9811ZM68.6531 50.966H63.5051C63.5311 50.368 63.6091 50.004 63.8171 49.51C64.1811 48.704 64.9351 48.106 66.0791 48.106C67.2231 48.106 67.9771 48.704 68.3411 49.51C68.5491 50.004 68.6271 50.368 68.6531 50.966ZM85.3412 59V50.082C85.3412 46.91 83.3652 45.298 79.5692 45.298C77.3072 45.298 76.0072 45.714 74.6812 47.17L76.8392 49.276C77.5412 48.47 78.1392 48.158 79.4392 48.158C81.2332 48.158 81.9612 48.808 81.9612 50.29V50.966H78.7632C75.6172 50.966 74.1352 52.734 74.1352 54.892C74.1352 56.088 74.5252 57.18 75.2532 57.934C76.0592 58.74 77.1772 59.13 78.7112 59.13C80.2712 59.13 81.1292 58.74 82.0392 57.83V59H85.3412ZM81.9612 54.008C81.9612 54.84 81.8312 55.386 81.4672 55.724C80.8692 56.296 80.2712 56.374 79.3352 56.374C78.0092 56.374 77.3852 55.75 77.3852 54.814C77.3852 53.852 78.0612 53.28 79.2832 53.28H81.9612V54.008ZM98.8919 46.572C97.9559 45.636 97.0199 45.298 95.6939 45.298C94.2379 45.298 92.9379 45.974 92.2879 46.754V45.454H88.9859V59H92.3659V50.836C92.3659 49.12 93.5099 48.34 94.5499 48.34C95.3819 48.34 95.8239 48.626 96.3439 49.146L98.8919 46.572ZM112.076 59V50.342C112.076 48.86 111.79 47.586 110.698 46.494C109.944 45.74 108.852 45.298 107.5 45.298C106.252 45.298 105.004 45.766 104.12 46.702V45.454H100.818V59H104.198V50.81C104.198 48.964 105.394 48.34 106.46 48.34C107.526 48.34 108.696 48.964 108.696 50.81V59H112.076ZM119.128 43.14V40.384H115.67V43.14H119.128ZM119.102 59V45.454H115.722V59H119.102ZM134.14 59V50.342C134.14 48.86 133.854 47.586 132.762 46.494C132.008 45.74 130.916 45.298 129.564 45.298C128.316 45.298 127.068 45.766 126.184 46.702V45.454H122.882V59H126.262V50.81C126.262 48.964 127.458 48.34 128.524 48.34C129.59 48.34 130.76 48.964 130.76 50.81V59H134.14ZM148.421 58.506V45.454H145.145V46.728C144.209 45.688 143.273 45.298 141.843 45.298C140.517 45.298 139.347 45.74 138.593 46.494C137.319 47.768 137.215 49.484 137.215 51.85C137.215 54.216 137.319 55.958 138.593 57.232C139.347 57.986 140.491 58.428 141.817 58.428C143.143 58.428 144.157 58.064 145.041 57.076V58.454C145.041 59.832 144.339 61.262 142.311 61.262C141.167 61.262 140.413 60.95 139.659 60.222L137.553 62.354C138.957 63.706 140.387 64.122 142.467 64.122C146.107 64.122 148.421 61.756 148.421 58.506ZM145.041 51.85C145.041 53.644 144.807 55.386 142.805 55.386C140.803 55.386 140.595 53.644 140.595 51.85C140.595 50.056 140.803 48.34 142.805 48.34C144.807 48.34 145.041 50.056 145.041 51.85ZM175.282 59V40.488H171.72L166.91 50.498L162.074 40.488H158.512V59H162.126V48.21L165.688 55.23H168.132L171.668 48.21V59H175.282ZM189.57 59V50.082C189.57 46.91 187.594 45.298 183.798 45.298C181.536 45.298 180.236 45.714 178.91 47.17L181.068 49.276C181.77 48.47 182.368 48.158 183.668 48.158C185.462 48.158 186.19 48.808 186.19 50.29V50.966H182.992C179.846 50.966 178.364 52.734 178.364 54.892C178.364 56.088 178.754 57.18 179.482 57.934C180.288 58.74 181.406 59.13 182.94 59.13C184.5 59.13 185.358 58.74 186.268 57.83V59H189.57ZM186.19 54.008C186.19 54.84 186.06 55.386 185.696 55.724C185.098 56.296 184.5 56.374 183.564 56.374C182.238 56.374 181.614 55.75 181.614 54.814C181.614 53.852 182.29 53.28 183.512 53.28H186.19V54.008ZM199.298 59V56.14H198.076C197.27 56.14 196.906 55.698 196.906 54.918V48.418H199.298V45.844H196.906V41.84H193.526V45.844H192.096V48.418H193.526V55.126C193.526 57.05 194.696 59 197.452 59H199.298ZM213.407 53.28V51.772C213.407 48.054 211.275 45.298 207.505 45.298C203.995 45.298 201.603 47.794 201.603 52.214C201.603 57.7 204.671 59.156 207.869 59.156C210.313 59.156 211.639 58.402 213.017 57.024L210.963 55.022C210.105 55.88 209.377 56.296 207.895 56.296C205.997 56.296 204.931 55.022 204.931 53.28H213.407ZM210.079 50.966H204.931C204.957 50.368 205.035 50.004 205.243 49.51C205.607 48.704 206.361 48.106 207.505 48.106C208.649 48.106 209.403 48.704 209.767 49.51C209.975 50.004 210.053 50.368 210.079 50.966ZM226.429 46.572C225.493 45.636 224.557 45.298 223.231 45.298C221.775 45.298 220.475 45.974 219.825 46.754V45.454H216.523V59H219.903V50.836C219.903 49.12 221.047 48.34 222.087 48.34C222.919 48.34 223.361 48.626 223.881 49.146L226.429 46.572ZM231.761 43.14V40.384H228.303V43.14H231.761ZM231.735 59V45.454H228.355V59H231.735ZM245.759 59V50.082C245.759 46.91 243.783 45.298 239.987 45.298C237.725 45.298 236.425 45.714 235.099 47.17L237.257 49.276C237.959 48.47 238.557 48.158 239.857 48.158C241.651 48.158 242.379 48.808 242.379 50.29V50.966H239.181C236.035 50.966 234.553 52.734 234.553 54.892C234.553 56.088 234.943 57.18 235.671 57.934C236.477 58.74 237.595 59.13 239.129 59.13C240.689 59.13 241.547 58.74 242.457 57.83V59H245.759ZM242.379 54.008C242.379 54.84 242.249 55.386 241.885 55.724C241.287 56.296 240.689 56.374 239.753 56.374C238.427 56.374 237.803 55.75 237.803 54.814C237.803 53.852 238.479 53.28 239.701 53.28H242.379V54.008ZM255.15 59V56.14H253.85C252.992 56.14 252.654 55.724 252.654 54.918V40.488H249.274V55.126C249.274 57.05 250.444 59 253.226 59H255.15ZM268.051 54.736C268.051 52.448 266.699 51.018 264.021 50.758L261.889 50.55C260.693 50.446 260.485 49.874 260.485 49.38C260.485 48.704 261.057 48.08 262.409 48.08C263.579 48.08 264.775 48.288 265.555 48.99L267.635 46.884C266.335 45.662 264.567 45.298 262.461 45.298C259.705 45.298 257.235 46.806 257.235 49.614C257.235 52.11 258.743 53.176 261.187 53.41L263.319 53.618C264.385 53.722 264.749 54.19 264.749 54.866C264.749 55.88 263.527 56.27 262.357 56.27C261.317 56.27 259.861 56.114 258.743 54.996L256.533 57.206C258.249 58.922 260.173 59.156 262.305 59.156C265.503 59.156 268.051 57.726 268.051 54.736Z" fill="#B887DE"/>
    <path d="M49.488 106V94.608H48.272V99.712H42.864V94.608H41.648V106H42.864V100.8H48.272V106H49.488ZM58.6126 102.368V101.84C58.6126 99.504 57.4126 98.032 55.3806 98.032C53.3806 98.032 52.1486 99.52 52.1486 102.064C52.1486 104.848 53.5086 106.096 55.5886 106.096C56.9326 106.096 57.6686 105.68 58.4686 104.88L57.6846 104.192C57.0606 104.816 56.5326 105.088 55.6206 105.088C54.1166 105.088 53.3006 104.096 53.3006 102.368H58.6126ZM57.4606 101.504H53.3006C53.3326 100.864 53.3646 100.624 53.5406 100.192C53.8446 99.472 54.5486 99.008 55.3806 99.008C56.2126 99.008 56.9166 99.472 57.2206 100.192C57.3966 100.624 57.4286 100.864 57.4606 101.504ZM66.313 98.768C65.753 98.208 65.177 98.032 64.425 98.032C63.513 98.032 62.649 98.432 62.217 99.088V98.128H61.065V106H62.217V101.168C62.217 99.968 62.953 99.056 64.105 99.056C64.713 99.056 65.033 99.2 65.465 99.632L66.313 98.768ZM73.2845 102.368V101.84C73.2845 99.504 72.0845 98.032 70.0525 98.032C68.0525 98.032 66.8205 99.52 66.8205 102.064C66.8205 104.848 68.1805 106.096 70.2605 106.096C71.6045 106.096 72.3405 105.68 73.1405 104.88L72.3565 104.192C71.7325 104.816 71.2045 105.088 70.2925 105.088C68.7885 105.088 67.9725 104.096 67.9725 102.368H73.2845ZM72.1325 101.504H67.9725C68.0045 100.864 68.0365 100.624 68.2125 100.192C68.5165 99.472 69.2205 99.008 70.0525 99.008C70.8845 99.008 71.5885 99.472 71.8925 100.192C72.0685 100.624 72.1005 100.864 72.1325 101.504ZM77.1129 107.04V104.592H75.7049V108.304L77.1129 107.04ZM89.476 98.128H88.228L86.084 104.448L83.924 98.128H82.676L85.508 105.84L84.948 107.376C84.692 108.096 84.452 108.352 83.652 108.352H83.3V109.376H83.796C84.356 109.376 84.916 109.232 85.332 108.832C85.556 108.624 85.732 108.336 85.892 107.904L89.476 98.128ZM96.956 102.064C96.956 100.848 96.796 99.744 95.996 98.928C95.452 98.384 94.7 98.032 93.74 98.032C92.78 98.032 92.028 98.384 91.484 98.928C90.684 99.744 90.524 100.848 90.524 102.064C90.524 103.28 90.684 104.384 91.484 105.2C92.028 105.744 92.78 106.096 93.74 106.096C94.7 106.096 95.452 105.744 95.996 105.2C96.796 104.384 96.956 103.28 96.956 102.064ZM95.804 102.064C95.804 102.944 95.756 103.92 95.18 104.496C94.812 104.864 94.3 105.072 93.74 105.072C93.18 105.072 92.684 104.864 92.316 104.496C91.74 103.92 91.676 102.944 91.676 102.064C91.676 101.184 91.74 100.208 92.316 99.632C92.684 99.264 93.18 99.056 93.74 99.056C94.3 99.056 94.812 99.264 95.18 99.632C95.756 100.208 95.804 101.184 95.804 102.064ZM105.536 106V98.128H104.384V102.976C104.384 104.352 103.6 105.072 102.416 105.072C101.232 105.072 100.496 104.368 100.496 102.976V98.128H99.3444V103.152C99.3444 104.064 99.5844 104.816 100.144 105.36C100.624 105.84 101.328 106.096 102.176 106.096C103.056 106.096 103.84 105.76 104.4 105.12V106H105.536ZM109.641 97.328V94.608H108.377V97.328H109.641ZM115.287 106V105.008H114.663C113.863 105.008 113.607 104.624 113.607 103.856V94.608H112.455V103.904C112.455 105.104 113.079 106 114.455 106H115.287ZM120.037 106V105.008H119.413C118.613 105.008 118.357 104.624 118.357 103.856V94.608H117.205V103.904C117.205 105.104 117.829 106 119.205 106H120.037ZM129.059 99.056V98.176H127.379V96.72C127.379 96 127.699 95.568 128.435 95.568H129.059V94.576H128.227C126.883 94.576 126.227 95.52 126.227 96.688V98.176H125.219V99.056H126.227V106H127.379V99.056H129.059ZM132.235 95.888V94.592H130.939V95.888H132.235ZM132.155 106V98.128H131.003V106H132.155ZM141.241 106V100.96C141.241 100.048 140.985 99.312 140.425 98.768C139.945 98.288 139.257 98.032 138.409 98.032C137.529 98.032 136.761 98.352 136.201 98.992V98.128H135.049V106H136.201V101.152C136.201 99.776 136.969 99.056 138.153 99.056C139.337 99.056 140.089 99.76 140.089 101.152V106H141.241ZM149.874 106V94.608H148.722V99.04C148.082 98.224 147.362 98.032 146.498 98.032C145.698 98.032 144.994 98.304 144.578 98.72C143.778 99.52 143.618 100.832 143.618 102.064C143.618 103.296 143.778 104.608 144.578 105.408C144.994 105.824 145.698 106.096 146.498 106.096C147.362 106.096 148.098 105.888 148.738 105.056V106H149.874ZM148.722 102.064C148.722 103.6 148.466 105.072 146.754 105.072C145.042 105.072 144.77 103.6 144.77 102.064C144.77 100.528 145.042 99.056 146.754 99.056C148.466 99.056 148.722 100.528 148.722 102.064ZM162.353 106V100.656C162.353 98.944 161.313 98.032 159.201 98.032C157.921 98.032 157.121 98.288 156.417 99.2L157.201 99.92C157.665 99.264 158.177 99.024 159.185 99.024C160.625 99.024 161.201 99.6 161.201 100.752V101.504H158.833C157.073 101.504 156.113 102.4 156.113 103.776C156.113 104.4 156.321 104.992 156.705 105.376C157.201 105.888 157.841 106.096 158.929 106.096C159.985 106.096 160.561 105.888 161.201 105.248V106H162.353ZM161.201 103.216C161.201 103.872 161.073 104.32 160.801 104.576C160.305 105.056 159.713 105.104 159.041 105.104C157.793 105.104 157.233 104.672 157.233 103.76C157.233 102.848 157.809 102.368 158.993 102.368H161.201V103.216ZM179.111 98.128H177.863L176.071 104.448L173.991 98.128H172.999L170.935 104.448L169.127 98.128H167.879L170.375 106H171.447L173.495 99.888L175.559 106H176.631L179.111 98.128ZM181.953 95.888V94.592H180.657V95.888H181.953ZM181.873 106V98.128H180.721V106H181.873ZM190.608 106V94.608H189.456V99.04C188.816 98.224 188.096 98.032 187.232 98.032C186.432 98.032 185.728 98.304 185.312 98.72C184.512 99.52 184.352 100.832 184.352 102.064C184.352 103.296 184.512 104.608 185.312 105.408C185.728 105.824 186.432 106.096 187.232 106.096C188.096 106.096 188.832 105.888 189.472 105.056V106H190.608ZM189.456 102.064C189.456 103.6 189.2 105.072 187.488 105.072C185.776 105.072 185.504 103.6 185.504 102.064C185.504 100.528 185.776 99.056 187.488 99.056C189.2 99.056 189.456 100.528 189.456 102.064ZM199.519 102.368V101.84C199.519 99.504 198.319 98.032 196.287 98.032C194.287 98.032 193.055 99.52 193.055 102.064C193.055 104.848 194.415 106.096 196.495 106.096C197.839 106.096 198.575 105.68 199.375 104.88L198.591 104.192C197.967 104.816 197.439 105.088 196.527 105.088C195.023 105.088 194.207 104.096 194.207 102.368H199.519ZM198.367 101.504H194.207C194.239 100.864 194.271 100.624 194.447 100.192C194.751 99.472 195.455 99.008 196.287 99.008C197.119 99.008 197.823 99.472 198.127 100.192C198.303 100.624 198.335 100.864 198.367 101.504ZM211.492 98.128H210.244L208.084 104.448L205.94 98.128H204.692L207.572 106H208.596L211.492 98.128ZM218.572 106V100.656C218.572 98.944 217.532 98.032 215.42 98.032C214.14 98.032 213.34 98.288 212.636 99.2L213.42 99.92C213.884 99.264 214.396 99.024 215.404 99.024C216.844 99.024 217.42 99.6 217.42 100.752V101.504H215.052C213.292 101.504 212.332 102.4 212.332 103.776C212.332 104.4 212.54 104.992 212.924 105.376C213.42 105.888 214.06 106.096 215.148 106.096C216.204 106.096 216.78 105.888 217.42 105.248V106H218.572ZM217.42 103.216C217.42 103.872 217.292 104.32 217.02 104.576C216.524 105.056 215.932 105.104 215.26 105.104C214.012 105.104 213.452 104.672 213.452 103.76C213.452 102.848 214.028 102.368 215.212 102.368H217.42V103.216ZM226.626 98.768C226.066 98.208 225.49 98.032 224.738 98.032C223.826 98.032 222.962 98.432 222.53 99.088V98.128H221.378V106H222.53V101.168C222.53 99.968 223.266 99.056 224.418 99.056C225.026 99.056 225.346 99.2 225.778 99.632L226.626 98.768ZM229.344 95.888V94.592H228.048V95.888H229.344ZM229.264 106V98.128H228.112V106H229.264ZM238.191 102.368V101.84C238.191 99.504 236.991 98.032 234.959 98.032C232.959 98.032 231.727 99.52 231.727 102.064C231.727 104.848 233.087 106.096 235.167 106.096C236.511 106.096 237.247 105.68 238.047 104.88L237.263 104.192C236.639 104.816 236.111 105.088 235.199 105.088C233.695 105.088 232.879 104.096 232.879 102.368H238.191ZM237.039 101.504H232.879C232.911 100.864 232.943 100.624 233.119 100.192C233.423 99.472 234.127 99.008 234.959 99.008C235.791 99.008 236.495 99.472 236.799 100.192C236.975 100.624 237.007 100.864 237.039 101.504ZM243.667 106V105.008H243.059C242.323 105.008 241.987 104.576 241.987 103.856V99.056H243.667V98.176H241.987V95.712H240.835V98.176H239.843V99.056H240.835V103.888C240.835 105.056 241.507 106 242.851 106H243.667ZM251.492 98.128H250.244L248.1 104.448L245.94 98.128H244.692L247.524 105.84L246.964 107.376C246.708 108.096 246.468 108.352 245.668 108.352H245.316V109.376H245.812C246.372 109.376 246.932 109.232 247.348 108.832C247.572 108.624 247.748 108.336 247.908 107.904L251.492 98.128ZM263.112 102.064C263.112 100.848 262.952 99.744 262.152 98.928C261.608 98.384 260.856 98.032 259.896 98.032C258.936 98.032 258.184 98.384 257.64 98.928C256.84 99.744 256.68 100.848 256.68 102.064C256.68 103.28 256.84 104.384 257.64 105.2C258.184 105.744 258.936 106.096 259.896 106.096C260.856 106.096 261.608 105.744 262.152 105.2C262.952 104.384 263.112 103.28 263.112 102.064ZM261.96 102.064C261.96 102.944 261.912 103.92 261.336 104.496C260.968 104.864 260.456 105.072 259.896 105.072C259.336 105.072 258.84 104.864 258.472 104.496C257.896 103.92 257.832 102.944 257.832 102.064C257.832 101.184 257.896 100.208 258.472 99.632C258.84 99.264 259.336 99.056 259.896 99.056C260.456 99.056 260.968 99.264 261.336 99.632C261.912 100.208 261.96 101.184 261.96 102.064ZM268.669 99.056V98.176H266.989V96.72C266.989 96 267.309 95.568 268.045 95.568H268.669V94.576H267.837C266.493 94.576 265.837 95.52 265.837 96.688V98.176H264.829V99.056H265.837V106H266.989V99.056H268.669ZM46.688 122.768C46.128 122.208 45.552 122.032 44.8 122.032C43.888 122.032 43.024 122.432 42.592 123.088V122.128H41.44V130H42.592V125.168C42.592 123.968 43.328 123.056 44.48 123.056C45.088 123.056 45.408 123.2 45.84 123.632L46.688 122.768ZM53.6595 126.368V125.84C53.6595 123.504 52.4595 122.032 50.4275 122.032C48.4275 122.032 47.1955 123.52 47.1955 126.064C47.1955 128.848 48.5555 130.096 50.6355 130.096C51.9795 130.096 52.7155 129.68 53.5155 128.88L52.7315 128.192C52.1075 128.816 51.5795 129.088 50.6675 129.088C49.1635 129.088 48.3475 128.096 48.3475 126.368H53.6595ZM52.5075 125.504H48.3475C48.3795 124.864 48.4115 124.624 48.5875 124.192C48.8915 123.472 49.5955 123.008 50.4275 123.008C51.2595 123.008 51.9635 123.472 52.2675 124.192C52.4435 124.624 52.4755 124.864 52.5075 125.504ZM61.7919 127.696C61.7919 126.224 60.8479 125.696 59.4719 125.568L58.2079 125.456C57.2159 125.376 56.8319 124.976 56.8319 124.304C56.8319 123.504 57.4399 123.008 58.5919 123.008C59.4079 123.008 60.1279 123.2 60.6879 123.632L61.4399 122.88C60.7359 122.304 59.7279 122.032 58.6079 122.032C56.9279 122.032 55.7119 122.896 55.7119 124.336C55.7119 125.632 56.5279 126.32 58.0639 126.448L59.3599 126.56C60.2719 126.64 60.6719 127.024 60.6719 127.712C60.6719 128.64 59.8719 129.104 58.5759 129.104C57.5999 129.104 56.7519 128.848 56.1279 128.192L55.3599 128.96C56.2239 129.792 57.2639 130.096 58.5919 130.096C60.4959 130.096 61.7919 129.216 61.7919 127.696ZM70.0654 126.064C70.0654 124.848 69.9054 123.744 69.1054 122.928C68.5614 122.384 67.8094 122.032 66.8494 122.032C65.8894 122.032 65.1374 122.384 64.5934 122.928C63.7934 123.744 63.6334 124.848 63.6334 126.064C63.6334 127.28 63.7934 128.384 64.5934 129.2C65.1374 129.744 65.8894 130.096 66.8494 130.096C67.8094 130.096 68.5614 129.744 69.1054 129.2C69.9054 128.384 70.0654 127.28 70.0654 126.064ZM68.9134 126.064C68.9134 126.944 68.8654 127.92 68.2894 128.496C67.9214 128.864 67.4094 129.072 66.8494 129.072C66.2894 129.072 65.7934 128.864 65.4254 128.496C64.8494 127.92 64.7854 126.944 64.7854 126.064C64.7854 125.184 64.8494 124.208 65.4254 123.632C65.7934 123.264 66.2894 123.056 66.8494 123.056C67.4094 123.056 67.9214 123.264 68.2894 123.632C68.8654 124.208 68.9134 125.184 68.9134 126.064ZM78.6458 130V122.128H77.4938V126.976C77.4938 128.352 76.7098 129.072 75.5258 129.072C74.3418 129.072 73.6058 128.368 73.6058 126.976V122.128H72.4538V127.152C72.4538 128.064 72.6938 128.816 73.2538 129.36C73.7338 129.84 74.4378 130.096 75.2858 130.096C76.1658 130.096 76.9498 129.76 77.5098 129.12V130H78.6458ZM86.7661 122.768C86.2061 122.208 85.6301 122.032 84.8781 122.032C83.9661 122.032 83.1021 122.432 82.6701 123.088V122.128H81.5181V130H82.6701V125.168C82.6701 123.968 83.4061 123.056 84.5581 123.056C85.1661 123.056 85.4861 123.2 85.9181 123.632L86.7661 122.768ZM93.3536 128.928L92.5696 128.176C91.9776 128.832 91.5136 129.072 90.7616 129.072C89.9936 129.072 89.3536 128.768 88.9376 128.176C88.5696 127.664 88.4256 127.056 88.4256 126.064C88.4256 125.072 88.5696 124.464 88.9376 123.952C89.3536 123.36 89.9936 123.056 90.7616 123.056C91.5136 123.056 91.9776 123.28 92.5696 123.936L93.3536 123.2C92.5376 122.32 91.8496 122.032 90.7616 122.032C88.7776 122.032 87.2736 123.376 87.2736 126.064C87.2736 128.752 88.7776 130.096 90.7616 130.096C91.8496 130.096 92.5376 129.808 93.3536 128.928ZM101.347 126.368V125.84C101.347 123.504 100.147 122.032 98.115 122.032C96.115 122.032 94.883 123.52 94.883 126.064C94.883 128.848 96.243 130.096 98.323 130.096C99.667 130.096 100.403 129.68 101.203 128.88L100.419 128.192C99.795 128.816 99.267 129.088 98.355 129.088C96.851 129.088 96.035 128.096 96.035 126.368H101.347ZM100.195 125.504H96.035C96.067 124.864 96.099 124.624 96.275 124.192C96.579 123.472 97.283 123.008 98.115 123.008C98.947 123.008 99.651 123.472 99.955 124.192C100.131 124.624 100.163 124.864 100.195 125.504ZM109.479 127.696C109.479 126.224 108.535 125.696 107.159 125.568L105.895 125.456C104.903 125.376 104.519 124.976 104.519 124.304C104.519 123.504 105.127 123.008 106.279 123.008C107.095 123.008 107.815 123.2 108.375 123.632L109.127 122.88C108.423 122.304 107.415 122.032 106.295 122.032C104.615 122.032 103.399 122.896 103.399 124.336C103.399 125.632 104.215 126.32 105.751 126.448L107.047 126.56C107.959 126.64 108.359 127.024 108.359 127.712C108.359 128.64 107.559 129.104 106.263 129.104C105.287 129.104 104.439 128.848 103.815 128.192L103.047 128.96C103.911 129.792 104.951 130.096 106.279 130.096C108.183 130.096 109.479 129.216 109.479 127.696ZM118.745 130V129.008H118.137C117.401 129.008 117.065 128.576 117.065 127.856V123.056H118.745V122.176H117.065V119.712H115.913V122.176H114.921V123.056H115.913V127.888C115.913 129.056 116.585 130 117.929 130H118.745ZM126.925 126.064C126.925 124.848 126.765 123.744 125.965 122.928C125.421 122.384 124.669 122.032 123.709 122.032C122.749 122.032 121.997 122.384 121.453 122.928C120.653 123.744 120.493 124.848 120.493 126.064C120.493 127.28 120.653 128.384 121.453 129.2C121.997 129.744 122.749 130.096 123.709 130.096C124.669 130.096 125.421 129.744 125.965 129.2C126.765 128.384 126.925 127.28 126.925 126.064ZM125.773 126.064C125.773 126.944 125.725 127.92 125.149 128.496C124.781 128.864 124.269 129.072 123.709 129.072C123.149 129.072 122.653 128.864 122.285 128.496C121.709 127.92 121.645 126.944 121.645 126.064C121.645 125.184 121.709 124.208 122.285 123.632C122.653 123.264 123.149 123.056 123.709 123.056C124.269 123.056 124.781 123.264 125.149 123.632C125.725 124.208 125.773 125.184 125.773 126.064ZM139.41 126.368V125.84C139.41 123.504 138.21 122.032 136.178 122.032C134.178 122.032 132.946 123.52 132.946 126.064C132.946 128.848 134.306 130.096 136.386 130.096C137.73 130.096 138.466 129.68 139.266 128.88L138.482 128.192C137.858 128.816 137.33 129.088 136.418 129.088C134.914 129.088 134.098 128.096 134.098 126.368H139.41ZM138.258 125.504H134.098C134.13 124.864 134.162 124.624 134.338 124.192C134.642 123.472 135.346 123.008 136.178 123.008C137.01 123.008 137.714 123.472 138.018 124.192C138.194 124.624 138.226 124.864 138.258 125.504ZM148.054 130V124.96C148.054 124.048 147.798 123.312 147.238 122.768C146.758 122.288 146.07 122.032 145.222 122.032C144.342 122.032 143.574 122.352 143.014 122.992V122.128H141.862V130H143.014V125.152C143.014 123.776 143.782 123.056 144.966 123.056C146.15 123.056 146.902 123.76 146.902 125.152V130H148.054ZM157.038 130V124.944C157.038 123.168 155.982 122.032 154.206 122.032C153.326 122.032 152.574 122.336 151.998 122.992V118.608H150.846V130H151.998V125.136C151.998 123.776 152.782 123.056 153.966 123.056C155.15 123.056 155.886 123.76 155.886 125.136V130H157.038ZM165.447 130V124.656C165.447 122.944 164.407 122.032 162.295 122.032C161.015 122.032 160.215 122.288 159.511 123.2L160.295 123.92C160.759 123.264 161.271 123.024 162.279 123.024C163.719 123.024 164.295 123.6 164.295 124.752V125.504H161.927C160.167 125.504 159.207 126.4 159.207 127.776C159.207 128.4 159.415 128.992 159.799 129.376C160.295 129.888 160.935 130.096 162.023 130.096C163.079 130.096 163.655 129.888 164.295 129.248V130H165.447ZM164.295 127.216C164.295 127.872 164.167 128.32 163.895 128.576C163.399 129.056 162.807 129.104 162.135 129.104C160.887 129.104 160.327 128.672 160.327 127.76C160.327 126.848 160.903 126.368 162.087 126.368H164.295V127.216ZM174.445 130V124.96C174.445 124.048 174.189 123.312 173.629 122.768C173.149 122.288 172.461 122.032 171.613 122.032C170.733 122.032 169.965 122.352 169.405 122.992V122.128H168.253V130H169.405V125.152C169.405 123.776 170.173 123.056 171.357 123.056C172.541 123.056 173.293 123.76 173.293 125.152V130H174.445ZM182.885 128.928L182.101 128.176C181.509 128.832 181.045 129.072 180.293 129.072C179.525 129.072 178.885 128.768 178.469 128.176C178.101 127.664 177.957 127.056 177.957 126.064C177.957 125.072 178.101 124.464 178.469 123.952C178.885 123.36 179.525 123.056 180.293 123.056C181.045 123.056 181.509 123.28 182.101 123.936L182.885 123.2C182.069 122.32 181.381 122.032 180.293 122.032C178.309 122.032 176.805 123.376 176.805 126.064C176.805 128.752 178.309 130.096 180.293 130.096C181.381 130.096 182.069 129.808 182.885 128.928ZM190.878 126.368V125.84C190.878 123.504 189.678 122.032 187.646 122.032C185.646 122.032 184.414 123.52 184.414 126.064C184.414 128.848 185.774 130.096 187.854 130.096C189.198 130.096 189.934 129.68 190.734 128.88L189.95 128.192C189.326 128.816 188.798 129.088 187.886 129.088C186.382 129.088 185.566 128.096 185.566 126.368H190.878ZM189.726 125.504H185.566C185.598 124.864 185.63 124.624 185.806 124.192C186.11 123.472 186.814 123.008 187.646 123.008C188.478 123.008 189.182 123.472 189.486 124.192C189.662 124.624 189.694 124.864 189.726 125.504ZM202.851 122.128H201.603L199.459 128.448L197.299 122.128H196.051L198.883 129.84L198.323 131.376C198.067 132.096 197.827 132.352 197.027 132.352H196.675V133.376H197.171C197.731 133.376 198.291 133.232 198.707 132.832C198.931 132.624 199.107 132.336 199.267 131.904L202.851 122.128ZM210.331 126.064C210.331 124.848 210.171 123.744 209.371 122.928C208.827 122.384 208.075 122.032 207.115 122.032C206.155 122.032 205.403 122.384 204.859 122.928C204.059 123.744 203.899 124.848 203.899 126.064C203.899 127.28 204.059 128.384 204.859 129.2C205.403 129.744 206.155 130.096 207.115 130.096C208.075 130.096 208.827 129.744 209.371 129.2C210.171 128.384 210.331 127.28 210.331 126.064ZM209.179 126.064C209.179 126.944 209.131 127.92 208.555 128.496C208.187 128.864 207.675 129.072 207.115 129.072C206.555 129.072 206.059 128.864 205.691 128.496C205.115 127.92 205.051 126.944 205.051 126.064C205.051 125.184 205.115 124.208 205.691 123.632C206.059 123.264 206.555 123.056 207.115 123.056C207.675 123.056 208.187 123.264 208.555 123.632C209.131 124.208 209.179 125.184 209.179 126.064ZM218.911 130V122.128H217.759V126.976C217.759 128.352 216.975 129.072 215.791 129.072C214.607 129.072 213.871 128.368 213.871 126.976V122.128H212.719V127.152C212.719 128.064 212.959 128.816 213.519 129.36C213.999 129.84 214.703 130.096 215.551 130.096C216.431 130.096 217.215 129.76 217.775 129.12V130H218.911ZM227.032 122.768C226.472 122.208 225.896 122.032 225.144 122.032C224.232 122.032 223.368 122.432 222.936 123.088V122.128H221.784V130H222.936V125.168C222.936 123.968 223.672 123.056 224.824 123.056C225.432 123.056 225.752 123.2 226.184 123.632L227.032 122.768ZM239.111 130L235.975 125.136L238.647 122.128H237.207L233.655 126.224V118.608H232.503V130H233.655V127.728L235.191 125.968L237.687 130H239.111ZM247.273 130V124.96C247.273 124.048 247.017 123.312 246.457 122.768C245.977 122.288 245.289 122.032 244.441 122.032C243.561 122.032 242.793 122.352 242.233 122.992V122.128H241.081V130H242.233V125.152C242.233 123.776 243.001 123.056 244.185 123.056C245.369 123.056 246.121 123.76 246.121 125.152V130H247.273ZM256.081 126.064C256.081 124.848 255.921 123.744 255.121 122.928C254.577 122.384 253.825 122.032 252.865 122.032C251.905 122.032 251.153 122.384 250.609 122.928C249.809 123.744 249.649 124.848 249.649 126.064C249.649 127.28 249.809 128.384 250.609 129.2C251.153 129.744 251.905 130.096 252.865 130.096C253.825 130.096 254.577 129.744 255.121 129.2C255.921 128.384 256.081 127.28 256.081 126.064ZM254.929 126.064C254.929 126.944 254.881 127.92 254.305 128.496C253.937 128.864 253.425 129.072 252.865 129.072C252.305 129.072 251.809 128.864 251.441 128.496C250.865 127.92 250.801 126.944 250.801 126.064C250.801 125.184 250.865 124.208 251.441 123.632C251.809 123.264 252.305 123.056 252.865 123.056C253.425 123.056 253.937 123.264 254.305 123.632C254.881 124.208 254.929 125.184 254.929 126.064ZM268.439 122.128H267.191L265.399 128.448L263.319 122.128H262.327L260.263 128.448L258.455 122.128H257.207L259.703 130H260.775L262.823 123.888L264.887 130H265.959L268.439 122.128ZM272.849 130V129.008H272.225C271.425 129.008 271.169 128.624 271.169 127.856V118.608H270.017V127.904C270.017 129.104 270.641 130 272.017 130H272.849ZM280.425 126.368V125.84C280.425 123.504 279.225 122.032 277.193 122.032C275.193 122.032 273.961 123.52 273.961 126.064C273.961 128.848 275.321 130.096 277.401 130.096C278.745 130.096 279.481 129.68 280.281 128.88L279.497 128.192C278.873 128.816 278.345 129.088 277.433 129.088C275.929 129.088 275.113 128.096 275.113 126.368H280.425ZM279.273 125.504H275.113C275.145 124.864 275.177 124.624 275.353 124.192C275.657 123.472 276.361 123.008 277.193 123.008C278.025 123.008 278.729 123.472 279.033 124.192C279.209 124.624 279.241 124.864 279.273 125.504ZM288.718 130V118.608H287.566V123.04C286.926 122.224 286.206 122.032 285.342 122.032C284.542 122.032 283.838 122.304 283.422 122.72C282.622 123.52 282.462 124.832 282.462 126.064C282.462 127.296 282.622 128.608 283.422 129.408C283.838 129.824 284.542 130.096 285.342 130.096C286.206 130.096 286.942 129.888 287.582 129.056V130H288.718ZM287.566 126.064C287.566 127.6 287.31 129.072 285.598 129.072C283.886 129.072 283.614 127.6 283.614 126.064C283.614 124.528 283.886 123.056 285.598 123.056C287.31 123.056 287.566 124.528 287.566 126.064ZM297.404 130.24V122.128H296.268V123.056C295.628 122.224 294.924 122.032 294.06 122.032C293.26 122.032 292.556 122.304 292.14 122.72C291.356 123.504 291.18 124.72 291.18 126C291.18 127.28 291.356 128.496 292.14 129.28C292.556 129.696 293.244 129.984 294.044 129.984C294.892 129.984 295.612 129.776 296.252 128.96V130.192C296.252 131.536 295.612 132.608 294.092 132.608C293.18 132.608 292.78 132.336 292.204 131.824L291.452 132.56C292.284 133.312 292.94 133.616 294.124 133.616C296.188 133.616 297.404 132.192 297.404 130.24ZM296.252 126C296.252 127.472 296.012 128.944 294.3 128.944C292.588 128.944 292.332 127.472 292.332 126C292.332 124.528 292.588 123.056 294.3 123.056C296.012 123.056 296.252 124.528 296.252 126ZM306.316 126.368V125.84C306.316 123.504 305.116 122.032 303.084 122.032C301.084 122.032 299.852 123.52 299.852 126.064C299.852 128.848 301.212 130.096 303.292 130.096C304.636 130.096 305.372 129.68 306.172 128.88L305.388 128.192C304.764 128.816 304.236 129.088 303.324 129.088C301.82 129.088 301.004 128.096 301.004 126.368H306.316ZM305.164 125.504H301.004C301.036 124.864 301.068 124.624 301.244 124.192C301.548 123.472 302.252 123.008 303.084 123.008C303.916 123.008 304.62 123.472 304.924 124.192C305.1 124.624 305.132 124.864 305.164 125.504ZM47.056 154V148.656C47.056 146.944 46.016 146.032 43.904 146.032C42.624 146.032 41.824 146.288 41.12 147.2L41.904 147.92C42.368 147.264 42.88 147.024 43.888 147.024C45.328 147.024 45.904 147.6 45.904 148.752V149.504H43.536C41.776 149.504 40.816 150.4 40.816 151.776C40.816 152.4 41.024 152.992 41.408 153.376C41.904 153.888 42.544 154.096 43.632 154.096C44.688 154.096 45.264 153.888 45.904 153.248V154H47.056ZM45.904 151.216C45.904 151.872 45.776 152.32 45.504 152.576C45.008 153.056 44.416 153.104 43.744 153.104C42.496 153.104 41.936 152.672 41.936 151.76C41.936 150.848 42.512 150.368 43.696 150.368H45.904V151.216ZM56.0539 154V148.96C56.0539 148.048 55.7979 147.312 55.2379 146.768C54.7579 146.288 54.0699 146.032 53.2219 146.032C52.3419 146.032 51.5739 146.352 51.0139 146.992V146.128H49.8619V154H51.0139V149.152C51.0139 147.776 51.7819 147.056 52.9659 147.056C54.1499 147.056 54.9019 147.76 54.9019 149.152V154H56.0539ZM64.6863 154V142.608H63.5343V147.04C62.8943 146.224 62.1743 146.032 61.3103 146.032C60.5103 146.032 59.8063 146.304 59.3903 146.72C58.5903 147.52 58.4303 148.832 58.4303 150.064C58.4303 151.296 58.5903 152.608 59.3903 153.408C59.8063 153.824 60.5103 154.096 61.3103 154.096C62.1743 154.096 62.9103 153.888 63.5503 153.056V154H64.6863ZM63.5343 150.064C63.5343 151.6 63.2783 153.072 61.5663 153.072C59.8543 153.072 59.5823 151.6 59.5823 150.064C59.5823 148.528 59.8543 147.056 61.5663 147.056C63.2783 147.056 63.5343 148.528 63.5343 150.064ZM77.7414 154V148.944C77.7414 147.168 76.6854 146.032 74.9094 146.032C74.0294 146.032 73.2774 146.336 72.7014 146.992V142.608H71.5494V154H72.7014V149.136C72.7014 147.776 73.4854 147.056 74.6694 147.056C75.8534 147.056 76.5894 147.76 76.5894 149.136V154H77.7414ZM86.5658 150.368V149.84C86.5658 147.504 85.3658 146.032 83.3338 146.032C81.3338 146.032 80.1018 147.52 80.1018 150.064C80.1018 152.848 81.4618 154.096 83.5418 154.096C84.8858 154.096 85.6218 153.68 86.4218 152.88L85.6378 152.192C85.0138 152.816 84.4858 153.088 83.5738 153.088C82.0698 153.088 81.2538 152.096 81.2538 150.368H86.5658ZM85.4138 149.504H81.2538C81.2858 148.864 81.3178 148.624 81.4938 148.192C81.7978 147.472 82.5018 147.008 83.3338 147.008C84.1658 147.008 84.8698 147.472 85.1738 148.192C85.3498 148.624 85.3818 148.864 85.4138 149.504ZM91.8181 154V153.008H91.1941C90.3941 153.008 90.1381 152.624 90.1381 151.856V142.608H88.9861V151.904C88.9861 153.104 89.6101 154 90.9861 154H91.8181ZM100.024 150.064C100.024 148.832 99.8641 147.52 99.0641 146.72C98.6481 146.304 97.9441 146.032 97.1441 146.032C96.2801 146.032 95.5601 146.224 94.9201 147.056V146.128H93.7681V157.52H94.9201V153.072C95.5601 153.888 96.2801 154.096 97.1441 154.096C97.9441 154.096 98.6481 153.824 99.0641 153.408C99.8641 152.608 100.024 151.296 100.024 150.064ZM98.8721 150.064C98.8721 151.6 98.6161 153.072 96.9041 153.072C95.1921 153.072 94.9201 151.6 94.9201 150.064C94.9201 148.528 95.1921 147.056 96.9041 147.056C98.6161 147.056 98.8721 148.528 98.8721 150.064ZM112.007 146.128H110.759L108.615 152.448L106.455 146.128H105.207L108.039 153.84L107.479 155.376C107.223 156.096 106.983 156.352 106.183 156.352H105.831V157.376H106.327C106.887 157.376 107.447 157.232 107.863 156.832C108.087 156.624 108.263 156.336 108.423 155.904L112.007 146.128ZM119.487 150.064C119.487 148.848 119.327 147.744 118.527 146.928C117.983 146.384 117.231 146.032 116.271 146.032C115.311 146.032 114.559 146.384 114.015 146.928C113.215 147.744 113.055 148.848 113.055 150.064C113.055 151.28 113.215 152.384 114.015 153.2C114.559 153.744 115.311 154.096 116.271 154.096C117.231 154.096 117.983 153.744 118.527 153.2C119.327 152.384 119.487 151.28 119.487 150.064ZM118.335 150.064C118.335 150.944 118.287 151.92 117.711 152.496C117.343 152.864 116.831 153.072 116.271 153.072C115.711 153.072 115.215 152.864 114.847 152.496C114.271 151.92 114.207 150.944 114.207 150.064C114.207 149.184 114.271 148.208 114.847 147.632C115.215 147.264 115.711 147.056 116.271 147.056C116.831 147.056 117.343 147.264 117.711 147.632C118.287 148.208 118.335 149.184 118.335 150.064ZM128.068 154V146.128H126.916V150.976C126.916 152.352 126.132 153.072 124.948 153.072C123.764 153.072 123.028 152.368 123.028 150.976V146.128H121.876V151.152C121.876 152.064 122.116 152.816 122.676 153.36C123.156 153.84 123.86 154.096 124.708 154.096C125.588 154.096 126.372 153.76 126.932 153.12V154H128.068ZM140.54 154V148.656C140.54 146.944 139.5 146.032 137.388 146.032C136.108 146.032 135.308 146.288 134.604 147.2L135.388 147.92C135.852 147.264 136.364 147.024 137.372 147.024C138.812 147.024 139.388 147.6 139.388 148.752V149.504H137.02C135.26 149.504 134.3 150.4 134.3 151.776C134.3 152.4 134.508 152.992 134.892 153.376C135.388 153.888 136.028 154.096 137.116 154.096C138.172 154.096 138.748 153.888 139.388 153.248V154H140.54ZM139.388 151.216C139.388 151.872 139.26 152.32 138.988 152.576C138.492 153.056 137.9 153.104 137.228 153.104C135.98 153.104 135.42 152.672 135.42 151.76C135.42 150.848 135.996 150.368 137.18 150.368H139.388V151.216ZM148.994 152.928L148.21 152.176C147.618 152.832 147.154 153.072 146.402 153.072C145.634 153.072 144.994 152.768 144.578 152.176C144.21 151.664 144.066 151.056 144.066 150.064C144.066 149.072 144.21 148.464 144.578 147.952C144.994 147.36 145.634 147.056 146.402 147.056C147.154 147.056 147.618 147.28 148.21 147.936L148.994 147.2C148.178 146.32 147.49 146.032 146.402 146.032C144.418 146.032 142.914 147.376 142.914 150.064C142.914 152.752 144.418 154.096 146.402 154.096C147.49 154.096 148.178 153.808 148.994 152.928ZM157.382 154V148.944C157.382 147.168 156.326 146.032 154.55 146.032C153.67 146.032 152.918 146.336 152.342 146.992V142.608H151.19V154H152.342V149.136C152.342 147.776 153.126 147.056 154.31 147.056C155.494 147.056 156.23 147.76 156.23 149.136V154H157.382ZM161.406 143.888V142.592H160.11V143.888H161.406ZM161.326 154V146.128H160.174V154H161.326ZM170.253 150.368V149.84C170.253 147.504 169.053 146.032 167.021 146.032C165.021 146.032 163.789 147.52 163.789 150.064C163.789 152.848 165.149 154.096 167.229 154.096C168.573 154.096 169.309 153.68 170.109 152.88L169.325 152.192C168.701 152.816 168.173 153.088 167.261 153.088C165.757 153.088 164.941 152.096 164.941 150.368H170.253ZM169.101 149.504H164.941C164.973 148.864 165.005 148.624 165.181 148.192C165.485 147.472 166.189 147.008 167.021 147.008C167.853 147.008 168.557 147.472 168.861 148.192C169.037 148.624 169.069 148.864 169.101 149.504ZM178.085 146.128H176.837L174.677 152.448L172.533 146.128H171.285L174.165 154H175.189L178.085 146.128ZM185.581 150.368V149.84C185.581 147.504 184.381 146.032 182.349 146.032C180.349 146.032 179.117 147.52 179.117 150.064C179.117 152.848 180.477 154.096 182.557 154.096C183.901 154.096 184.637 153.68 185.437 152.88L184.653 152.192C184.029 152.816 183.501 153.088 182.589 153.088C181.085 153.088 180.269 152.096 180.269 150.368H185.581ZM184.429 149.504H180.269C180.301 148.864 180.333 148.624 180.509 148.192C180.813 147.472 181.517 147.008 182.349 147.008C183.181 147.008 183.885 147.472 184.189 148.192C184.365 148.624 184.397 148.864 184.429 149.504ZM197.554 146.128H196.306L194.162 152.448L192.002 146.128H190.754L193.586 153.84L193.026 155.376C192.77 156.096 192.53 156.352 191.73 156.352H191.378V157.376H191.874C192.434 157.376 192.994 157.232 193.41 156.832C193.634 156.624 193.81 156.336 193.97 155.904L197.554 146.128ZM205.034 150.064C205.034 148.848 204.874 147.744 204.074 146.928C203.53 146.384 202.778 146.032 201.818 146.032C200.858 146.032 200.106 146.384 199.562 146.928C198.762 147.744 198.602 148.848 198.602 150.064C198.602 151.28 198.762 152.384 199.562 153.2C200.106 153.744 200.858 154.096 201.818 154.096C202.778 154.096 203.53 153.744 204.074 153.2C204.874 152.384 205.034 151.28 205.034 150.064ZM203.882 150.064C203.882 150.944 203.834 151.92 203.258 152.496C202.89 152.864 202.378 153.072 201.818 153.072C201.258 153.072 200.762 152.864 200.394 152.496C199.818 151.92 199.754 150.944 199.754 150.064C199.754 149.184 199.818 148.208 200.394 147.632C200.762 147.264 201.258 147.056 201.818 147.056C202.378 147.056 202.89 147.264 203.258 147.632C203.834 148.208 203.882 149.184 203.882 150.064ZM213.615 154V146.128H212.463V150.976C212.463 152.352 211.679 153.072 210.495 153.072C209.311 153.072 208.575 152.368 208.575 150.976V146.128H207.423V151.152C207.423 152.064 207.663 152.816 208.223 153.36C208.703 153.84 209.407 154.096 210.255 154.096C211.135 154.096 211.919 153.76 212.479 153.12V154H213.615ZM221.735 146.768C221.175 146.208 220.599 146.032 219.847 146.032C218.935 146.032 218.071 146.432 217.639 147.088V146.128H216.487V154H217.639V149.168C217.639 147.968 218.375 147.056 219.527 147.056C220.135 147.056 220.455 147.2 220.887 147.632L221.735 146.768ZM230.006 154V153.008H229.382C228.582 153.008 228.326 152.624 228.326 151.856V142.608H227.174V151.904C227.174 153.104 227.798 154 229.174 154H230.006ZM237.581 150.368V149.84C237.581 147.504 236.381 146.032 234.349 146.032C232.349 146.032 231.117 147.52 231.117 150.064C231.117 152.848 232.477 154.096 234.557 154.096C235.901 154.096 236.637 153.68 237.437 152.88L236.653 152.192C236.029 152.816 235.501 153.088 234.589 153.088C233.085 153.088 232.269 152.096 232.269 150.368H237.581ZM236.429 149.504H232.269C232.301 148.864 232.333 148.624 232.509 148.192C232.813 147.472 233.517 147.008 234.349 147.008C235.181 147.008 235.885 147.472 236.189 148.192C236.365 148.624 236.397 148.864 236.429 149.504ZM245.65 154V148.656C245.65 146.944 244.61 146.032 242.498 146.032C241.218 146.032 240.418 146.288 239.714 147.2L240.498 147.92C240.962 147.264 241.474 147.024 242.482 147.024C243.922 147.024 244.498 147.6 244.498 148.752V149.504H242.13C240.37 149.504 239.41 150.4 239.41 151.776C239.41 152.4 239.618 152.992 240.002 153.376C240.498 153.888 241.138 154.096 242.226 154.096C243.282 154.096 243.858 153.888 244.498 153.248V154H245.65ZM244.498 151.216C244.498 151.872 244.37 152.32 244.098 152.576C243.602 153.056 243.01 153.104 242.338 153.104C241.09 153.104 240.53 152.672 240.53 151.76C240.53 150.848 241.106 150.368 242.29 150.368H244.498V151.216ZM253.704 146.768C253.144 146.208 252.568 146.032 251.816 146.032C250.904 146.032 250.04 146.432 249.608 147.088V146.128H248.456V154H249.608V149.168C249.608 147.968 250.344 147.056 251.496 147.056C252.104 147.056 252.424 147.2 252.856 147.632L253.704 146.768ZM261.382 154V148.96C261.382 148.048 261.126 147.312 260.566 146.768C260.086 146.288 259.398 146.032 258.55 146.032C257.67 146.032 256.902 146.352 256.342 146.992V146.128H255.19V154H256.342V149.152C256.342 147.776 257.11 147.056 258.294 147.056C259.478 147.056 260.23 147.76 260.23 149.152V154H261.382ZM265.406 143.888V142.592H264.11V143.888H265.406ZM265.326 154V146.128H264.174V154H265.326ZM274.413 154V148.96C274.413 148.048 274.157 147.312 273.597 146.768C273.117 146.288 272.429 146.032 271.581 146.032C270.701 146.032 269.933 146.352 269.373 146.992V146.128H268.221V154H269.373V149.152C269.373 147.776 270.141 147.056 271.325 147.056C272.509 147.056 273.261 147.76 273.261 149.152V154H274.413ZM283.014 154.24V146.128H281.878V147.056C281.238 146.224 280.534 146.032 279.67 146.032C278.87 146.032 278.166 146.304 277.75 146.72C276.966 147.504 276.79 148.72 276.79 150C276.79 151.28 276.966 152.496 277.75 153.28C278.166 153.696 278.854 153.984 279.654 153.984C280.502 153.984 281.222 153.776 281.862 152.96V154.192C281.862 155.536 281.222 156.608 279.702 156.608C278.79 156.608 278.39 156.336 277.814 155.824L277.062 156.56C277.894 157.312 278.55 157.616 279.734 157.616C281.798 157.616 283.014 156.192 283.014 154.24ZM281.862 150C281.862 151.472 281.622 152.944 279.91 152.944C278.198 152.944 277.942 151.472 277.942 150C277.942 148.528 278.198 147.056 279.91 147.056C281.622 147.056 281.862 148.528 281.862 150ZM47.248 178.24V170.128H46.112V171.056C45.472 170.224 44.768 170.032 43.904 170.032C43.104 170.032 42.4 170.304 41.984 170.72C41.2 171.504 41.024 172.72 41.024 174C41.024 175.28 41.2 176.496 41.984 177.28C42.4 177.696 43.088 177.984 43.888 177.984C44.736 177.984 45.456 177.776 46.096 176.96V178.192C46.096 179.536 45.456 180.608 43.936 180.608C43.024 180.608 42.624 180.336 42.048 179.824L41.296 180.56C42.128 181.312 42.784 181.616 43.968 181.616C46.032 181.616 47.248 180.192 47.248 178.24ZM46.096 174C46.096 175.472 45.856 176.944 44.144 176.944C42.432 176.944 42.176 175.472 42.176 174C42.176 172.528 42.432 171.056 44.144 171.056C45.856 171.056 46.096 172.528 46.096 174ZM56.1435 174.064C56.1435 172.848 55.9835 171.744 55.1835 170.928C54.6395 170.384 53.8875 170.032 52.9275 170.032C51.9675 170.032 51.2155 170.384 50.6715 170.928C49.8715 171.744 49.7115 172.848 49.7115 174.064C49.7115 175.28 49.8715 176.384 50.6715 177.2C51.2155 177.744 51.9675 178.096 52.9275 178.096C53.8875 178.096 54.6395 177.744 55.1835 177.2C55.9835 176.384 56.1435 175.28 56.1435 174.064ZM54.9915 174.064C54.9915 174.944 54.9435 175.92 54.3675 176.496C53.9995 176.864 53.4875 177.072 52.9275 177.072C52.3675 177.072 51.8715 176.864 51.5035 176.496C50.9275 175.92 50.8635 174.944 50.8635 174.064C50.8635 173.184 50.9275 172.208 51.5035 171.632C51.8715 171.264 52.3675 171.056 52.9275 171.056C53.4875 171.056 53.9995 171.264 54.3675 171.632C54.9435 172.208 54.9915 173.184 54.9915 174.064ZM64.2279 178V172.656C64.2279 170.944 63.1879 170.032 61.0759 170.032C59.7959 170.032 58.9959 170.288 58.2919 171.2L59.0759 171.92C59.5399 171.264 60.0519 171.024 61.0599 171.024C62.4999 171.024 63.0759 171.6 63.0759 172.752V173.504H60.7079C58.9479 173.504 57.9879 174.4 57.9879 175.776C57.9879 176.4 58.1959 176.992 58.5799 177.376C59.0759 177.888 59.7159 178.096 60.8039 178.096C61.8599 178.096 62.4359 177.888 63.0759 177.248V178H64.2279ZM63.0759 175.216C63.0759 175.872 62.9479 176.32 62.6759 176.576C62.1799 177.056 61.5879 177.104 60.9159 177.104C59.6679 177.104 59.1079 176.672 59.1079 175.76C59.1079 174.848 59.6839 174.368 60.8679 174.368H63.0759V175.216ZM69.8338 178V177.008H69.2098C68.4098 177.008 68.1538 176.624 68.1538 175.856V166.608H67.0018V175.904C67.0018 177.104 67.6258 178 69.0018 178H69.8338ZM77.4638 175.696C77.4638 174.224 76.5198 173.696 75.1438 173.568L73.8798 173.456C72.8878 173.376 72.5038 172.976 72.5038 172.304C72.5038 171.504 73.1118 171.008 74.2638 171.008C75.0798 171.008 75.7998 171.2 76.3598 171.632L77.1118 170.88C76.4078 170.304 75.3998 170.032 74.2798 170.032C72.5998 170.032 71.3838 170.896 71.3838 172.336C71.3838 173.632 72.1998 174.32 73.7358 174.448L75.0318 174.56C75.9438 174.64 76.3438 175.024 76.3438 175.712C76.3438 176.64 75.5438 177.104 74.2478 177.104C73.2718 177.104 72.4238 176.848 71.7998 176.192L71.0318 176.96C71.8958 177.792 72.9358 178.096 74.2638 178.096C76.1678 178.096 77.4638 177.216 77.4638 175.696ZM81.1933 178V176.496H79.6893V178H81.1933ZM95.7621 172.304C95.7621 169.888 95.7621 168.768 94.6901 167.696C93.9221 166.928 92.9141 166.512 91.7781 166.512C90.6421 166.512 89.6341 166.928 88.8661 167.696C87.7941 168.768 87.7941 169.888 87.7941 172.304C87.7941 174.72 87.7941 175.84 88.8661 176.912C89.6341 177.68 90.6421 178.096 91.7781 178.096C92.9141 178.096 93.9221 177.68 94.6901 176.912C95.7621 175.84 95.7621 174.72 95.7621 172.304ZM94.5461 172.304C94.5461 174.688 94.4661 175.456 93.7461 176.192C93.2501 176.704 92.5301 177.008 91.7781 177.008C91.0261 177.008 90.3061 176.704 89.8101 176.192C89.0901 175.456 89.0101 174.688 89.0101 172.304C89.0101 169.92 89.0901 169.152 89.8101 168.416C90.3061 167.904 91.0261 167.6 91.7781 167.6C92.5301 167.6 93.2501 167.904 93.7461 168.416C94.4661 169.152 94.5461 169.92 94.5461 172.304ZM104.536 178V170.128H103.384V174.976C103.384 176.352 102.6 177.072 101.416 177.072C100.232 177.072 99.4964 176.368 99.4964 174.976V170.128H98.3444V175.152C98.3444 176.064 98.5844 176.816 99.1444 177.36C99.6244 177.84 100.328 178.096 101.176 178.096C102.056 178.096 102.84 177.76 103.4 177.12V178H104.536ZM112.657 170.768C112.097 170.208 111.521 170.032 110.769 170.032C109.857 170.032 108.993 170.432 108.561 171.088V170.128H107.409V178H108.561V173.168C108.561 171.968 109.297 171.056 110.449 171.056C111.057 171.056 111.377 171.2 111.809 171.632L112.657 170.768ZM129.392 178V172.96C129.392 172.048 129.104 171.312 128.544 170.768C128.064 170.304 127.36 170.032 126.512 170.032C125.408 170.032 124.528 170.48 123.92 171.344C123.44 170.48 122.592 170.032 121.504 170.032C120.624 170.032 119.84 170.352 119.28 170.992V170.128H118.128V178H119.28V173.152C119.28 171.776 120.064 171.056 121.248 171.056C122.432 171.056 123.184 171.76 123.184 173.152V178H124.336V173.024C124.336 171.776 125.152 171.056 126.304 171.056C127.488 171.056 128.24 171.76 128.24 173.152V178H129.392ZM137.806 178V172.656C137.806 170.944 136.766 170.032 134.654 170.032C133.374 170.032 132.574 170.288 131.87 171.2L132.654 171.92C133.118 171.264 133.63 171.024 134.638 171.024C136.078 171.024 136.654 171.6 136.654 172.752V173.504H134.286C132.526 173.504 131.566 174.4 131.566 175.776C131.566 176.4 131.774 176.992 132.158 177.376C132.654 177.888 133.294 178.096 134.382 178.096C135.438 178.096 136.014 177.888 136.654 177.248V178H137.806ZM136.654 175.216C136.654 175.872 136.526 176.32 136.254 176.576C135.758 177.056 135.166 177.104 134.494 177.104C133.246 177.104 132.686 176.672 132.686 175.76C132.686 174.848 133.262 174.368 134.446 174.368H136.654V175.216ZM143.636 178V177.008H143.028C142.292 177.008 141.956 176.576 141.956 175.856V171.056H143.636V170.176H141.956V167.712H140.804V170.176H139.812V171.056H140.804V175.888C140.804 177.056 141.476 178 142.82 178H143.636ZM151.831 174.368V173.84C151.831 171.504 150.631 170.032 148.599 170.032C146.599 170.032 145.367 171.52 145.367 174.064C145.367 176.848 146.727 178.096 148.807 178.096C150.151 178.096 150.887 177.68 151.687 176.88L150.903 176.192C150.279 176.816 149.751 177.088 148.839 177.088C147.335 177.088 146.519 176.096 146.519 174.368H151.831ZM150.679 173.504H146.519C146.551 172.864 146.583 172.624 146.759 172.192C147.063 171.472 147.767 171.008 148.599 171.008C149.431 171.008 150.135 171.472 150.439 172.192C150.615 172.624 150.647 172.864 150.679 173.504ZM159.532 170.768C158.972 170.208 158.396 170.032 157.644 170.032C156.732 170.032 155.868 170.432 155.436 171.088V170.128H154.284V178H155.436V173.168C155.436 171.968 156.172 171.056 157.324 171.056C157.932 171.056 158.252 171.2 158.684 171.632L159.532 170.768ZM162.25 167.888V166.592H160.954V167.888H162.25ZM162.17 178V170.128H161.018V178H162.17ZM170.681 178V172.656C170.681 170.944 169.641 170.032 167.529 170.032C166.249 170.032 165.449 170.288 164.745 171.2L165.529 171.92C165.993 171.264 166.505 171.024 167.513 171.024C168.953 171.024 169.529 171.6 169.529 172.752V173.504H167.161C165.401 173.504 164.441 174.4 164.441 175.776C164.441 176.4 164.649 176.992 165.033 177.376C165.529 177.888 166.169 178.096 167.257 178.096C168.313 178.096 168.889 177.888 169.529 177.248V178H170.681ZM169.529 175.216C169.529 175.872 169.401 176.32 169.129 176.576C168.633 177.056 168.041 177.104 167.369 177.104C166.121 177.104 165.561 176.672 165.561 175.76C165.561 174.848 166.137 174.368 167.321 174.368H169.529V175.216ZM176.287 178V177.008H175.663C174.863 177.008 174.607 176.624 174.607 175.856V166.608H173.455V175.904C173.455 177.104 174.079 178 175.455 178H176.287ZM183.917 175.696C183.917 174.224 182.973 173.696 181.597 173.568L180.333 173.456C179.341 173.376 178.957 172.976 178.957 172.304C178.957 171.504 179.565 171.008 180.717 171.008C181.533 171.008 182.253 171.2 182.813 171.632L183.565 170.88C182.861 170.304 181.853 170.032 180.733 170.032C179.053 170.032 177.837 170.896 177.837 172.336C177.837 173.632 178.653 174.32 180.189 174.448L181.485 174.56C182.397 174.64 182.797 175.024 182.797 175.712C182.797 176.64 181.997 177.104 180.701 177.104C179.725 177.104 178.877 176.848 178.253 176.192L177.485 176.96C178.349 177.792 179.389 178.096 180.717 178.096C182.621 178.096 183.917 177.216 183.917 175.696ZM195.775 178V172.656C195.775 170.944 194.735 170.032 192.623 170.032C191.343 170.032 190.543 170.288 189.839 171.2L190.623 171.92C191.087 171.264 191.599 171.024 192.607 171.024C194.047 171.024 194.623 171.6 194.623 172.752V173.504H192.255C190.495 173.504 189.535 174.4 189.535 175.776C189.535 176.4 189.743 176.992 190.127 177.376C190.623 177.888 191.263 178.096 192.351 178.096C193.407 178.096 193.983 177.888 194.623 177.248V178H195.775ZM194.623 175.216C194.623 175.872 194.495 176.32 194.223 176.576C193.727 177.056 193.135 177.104 192.463 177.104C191.215 177.104 190.655 176.672 190.655 175.76C190.655 174.848 191.231 174.368 192.415 174.368H194.623V175.216ZM203.829 170.768C203.269 170.208 202.693 170.032 201.941 170.032C201.029 170.032 200.165 170.432 199.733 171.088V170.128H198.581V178H199.733V173.168C199.733 171.968 200.469 171.056 201.621 171.056C202.229 171.056 202.549 171.2 202.981 171.632L203.829 170.768ZM210.8 174.368V173.84C210.8 171.504 209.6 170.032 207.568 170.032C205.568 170.032 204.336 171.52 204.336 174.064C204.336 176.848 205.696 178.096 207.776 178.096C209.12 178.096 209.856 177.68 210.656 176.88L209.872 176.192C209.248 176.816 208.72 177.088 207.808 177.088C206.304 177.088 205.488 176.096 205.488 174.368H210.8ZM209.648 173.504H205.488C205.52 172.864 205.552 172.624 205.728 172.192C206.032 171.472 206.736 171.008 207.568 171.008C208.4 171.008 209.104 171.472 209.408 172.192C209.584 172.624 209.616 172.864 209.648 173.504ZM223.077 178V166.608H221.925V171.04C221.285 170.224 220.565 170.032 219.701 170.032C218.901 170.032 218.197 170.304 217.781 170.72C216.981 171.52 216.821 172.832 216.821 174.064C216.821 175.296 216.981 176.608 217.781 177.408C218.197 177.824 218.901 178.096 219.701 178.096C220.565 178.096 221.301 177.888 221.941 177.056V178H223.077ZM221.925 174.064C221.925 175.6 221.669 177.072 219.957 177.072C218.245 177.072 217.973 175.6 217.973 174.064C217.973 172.528 218.245 171.056 219.957 171.056C221.669 171.056 221.925 172.528 221.925 174.064ZM231.988 174.368V173.84C231.988 171.504 230.788 170.032 228.756 170.032C226.756 170.032 225.524 171.52 225.524 174.064C225.524 176.848 226.884 178.096 228.964 178.096C230.308 178.096 231.044 177.68 231.844 176.88L231.06 176.192C230.436 176.816 229.908 177.088 228.996 177.088C227.492 177.088 226.676 176.096 226.676 174.368H231.988ZM230.836 173.504H226.676C226.708 172.864 226.74 172.624 226.916 172.192C227.22 171.472 227.924 171.008 228.756 171.008C229.588 171.008 230.292 171.472 230.596 172.192C230.772 172.624 230.804 172.864 230.836 173.504ZM240.12 175.696C240.12 174.224 239.176 173.696 237.8 173.568L236.536 173.456C235.544 173.376 235.16 172.976 235.16 172.304C235.16 171.504 235.768 171.008 236.92 171.008C237.736 171.008 238.456 171.2 239.016 171.632L239.768 170.88C239.064 170.304 238.056 170.032 236.936 170.032C235.256 170.032 234.04 170.896 234.04 172.336C234.04 173.632 234.856 174.32 236.392 174.448L237.688 174.56C238.6 174.64 239 175.024 239 175.712C239 176.64 238.2 177.104 236.904 177.104C235.928 177.104 235.08 176.848 234.456 176.192L233.688 176.96C234.552 177.792 235.592 178.096 236.92 178.096C238.824 178.096 240.12 177.216 240.12 175.696ZM243.61 167.888V166.592H242.314V167.888H243.61ZM243.53 178V170.128H242.378V178H243.53ZM252.232 178.24V170.128H251.096V171.056C250.456 170.224 249.752 170.032 248.888 170.032C248.088 170.032 247.384 170.304 246.968 170.72C246.184 171.504 246.008 172.72 246.008 174C246.008 175.28 246.184 176.496 246.968 177.28C247.384 177.696 248.072 177.984 248.872 177.984C249.72 177.984 250.44 177.776 251.08 176.96V178.192C251.08 179.536 250.44 180.608 248.92 180.608C248.008 180.608 247.608 180.336 247.032 179.824L246.28 180.56C247.112 181.312 247.768 181.616 248.952 181.616C251.016 181.616 252.232 180.192 252.232 178.24ZM251.08 174C251.08 175.472 250.84 176.944 249.128 176.944C247.416 176.944 247.16 175.472 247.16 174C247.16 172.528 247.416 171.056 249.128 171.056C250.84 171.056 251.08 172.528 251.08 174ZM261.304 178V172.96C261.304 172.048 261.048 171.312 260.488 170.768C260.008 170.288 259.32 170.032 258.472 170.032C257.592 170.032 256.824 170.352 256.264 170.992V170.128H255.112V178H256.264V173.152C256.264 171.776 257.032 171.056 258.216 171.056C259.4 171.056 260.152 171.76 260.152 173.152V178H261.304ZM270.128 174.368V173.84C270.128 171.504 268.928 170.032 266.896 170.032C264.896 170.032 263.664 171.52 263.664 174.064C263.664 176.848 265.024 178.096 267.104 178.096C268.448 178.096 269.184 177.68 269.984 176.88L269.2 176.192C268.576 176.816 268.048 177.088 267.136 177.088C265.632 177.088 264.816 176.096 264.816 174.368H270.128ZM268.976 173.504H264.816C264.848 172.864 264.88 172.624 265.056 172.192C265.36 171.472 266.064 171.008 266.896 171.008C267.728 171.008 268.432 171.472 268.736 172.192C268.912 172.624 268.944 172.864 268.976 173.504ZM278.421 178V166.608H277.269V171.04C276.629 170.224 275.909 170.032 275.045 170.032C274.245 170.032 273.541 170.304 273.125 170.72C272.325 171.52 272.165 172.832 272.165 174.064C272.165 175.296 272.325 176.608 273.125 177.408C273.541 177.824 274.245 178.096 275.045 178.096C275.909 178.096 276.645 177.888 277.285 177.056V178H278.421ZM277.269 174.064C277.269 175.6 277.013 177.072 275.301 177.072C273.589 177.072 273.317 175.6 273.317 174.064C273.317 172.528 273.589 171.056 275.301 171.056C277.013 171.056 277.269 172.528 277.269 174.064ZM288.308 178V177.008H287.7C286.964 177.008 286.628 176.576 286.628 175.856V171.056H288.308V170.176H286.628V167.712H285.476V170.176H284.484V171.056H285.476V175.888C285.476 177.056 286.148 178 287.492 178H288.308ZM296.487 174.064C296.487 172.848 296.327 171.744 295.527 170.928C294.983 170.384 294.231 170.032 293.271 170.032C292.311 170.032 291.559 170.384 291.015 170.928C290.215 171.744 290.055 172.848 290.055 174.064C290.055 175.28 290.215 176.384 291.015 177.2C291.559 177.744 292.311 178.096 293.271 178.096C294.231 178.096 294.983 177.744 295.527 177.2C296.327 176.384 296.487 175.28 296.487 174.064ZM295.335 174.064C295.335 174.944 295.287 175.92 294.711 176.496C294.343 176.864 293.831 177.072 293.271 177.072C292.711 177.072 292.215 176.864 291.847 176.496C291.271 175.92 291.207 174.944 291.207 174.064C291.207 173.184 291.271 172.208 291.847 171.632C292.215 171.264 292.711 171.056 293.271 171.056C293.831 171.056 294.343 171.264 294.711 171.632C295.287 172.208 295.335 173.184 295.335 174.064ZM309.196 174.064C309.196 172.832 309.036 171.52 308.236 170.72C307.82 170.304 307.116 170.032 306.316 170.032C305.452 170.032 304.732 170.224 304.092 171.04V166.608H302.94V178H304.092V177.056C304.732 177.888 305.452 178.096 306.316 178.096C307.116 178.096 307.82 177.824 308.236 177.408C309.036 176.608 309.196 175.296 309.196 174.064ZM308.044 174.064C308.044 175.6 307.788 177.072 306.076 177.072C304.364 177.072 304.092 175.6 304.092 174.064C304.092 172.528 304.364 171.056 306.076 171.056C307.788 171.056 308.044 172.528 308.044 174.064ZM317.691 174.368V173.84C317.691 171.504 316.491 170.032 314.459 170.032C312.459 170.032 311.227 171.52 311.227 174.064C311.227 176.848 312.587 178.096 314.667 178.096C316.011 178.096 316.747 177.68 317.547 176.88L316.763 176.192C316.139 176.816 315.611 177.088 314.699 177.088C313.195 177.088 312.379 176.096 312.379 174.368H317.691ZM316.539 173.504H312.379C312.411 172.864 312.443 172.624 312.619 172.192C312.923 171.472 313.627 171.008 314.459 171.008C315.291 171.008 315.995 171.472 316.299 172.192C316.475 172.624 316.507 172.864 316.539 173.504ZM47.472 198.368V197.84C47.472 195.504 46.272 194.032 44.24 194.032C42.24 194.032 41.008 195.52 41.008 198.064C41.008 200.848 42.368 202.096 44.448 202.096C45.792 202.096 46.528 201.68 47.328 200.88L46.544 200.192C45.92 200.816 45.392 201.088 44.48 201.088C42.976 201.088 42.16 200.096 42.16 198.368H47.472ZM46.32 197.504H42.16C42.192 196.864 42.224 196.624 42.4 196.192C42.704 195.472 43.408 195.008 44.24 195.008C45.072 195.008 45.776 195.472 46.08 196.192C46.256 196.624 46.288 196.864 46.32 197.504ZM56.1164 202V196.96C56.1164 196.048 55.8604 195.312 55.3004 194.768C54.8204 194.288 54.1324 194.032 53.2844 194.032C52.4044 194.032 51.6364 194.352 51.0764 194.992V194.128H49.9244V202H51.0764V197.152C51.0764 195.776 51.8444 195.056 53.0284 195.056C54.2124 195.056 54.9644 195.76 54.9644 197.152V202H56.1164ZM64.7168 202.24V194.128H63.5808V195.056C62.9408 194.224 62.2368 194.032 61.3728 194.032C60.5728 194.032 59.8688 194.304 59.4528 194.72C58.6688 195.504 58.4928 196.72 58.4928 198C58.4928 199.28 58.6688 200.496 59.4528 201.28C59.8688 201.696 60.5568 201.984 61.3568 201.984C62.2048 201.984 62.9248 201.776 63.5648 200.96V202.192C63.5648 203.536 62.9248 204.608 61.4048 204.608C60.4928 204.608 60.0928 204.336 59.5168 203.824L58.7648 204.56C59.5968 205.312 60.2528 205.616 61.4368 205.616C63.5008 205.616 64.7168 204.192 64.7168 202.24ZM63.5648 198C63.5648 199.472 63.3248 200.944 61.6128 200.944C59.9008 200.944 59.6448 199.472 59.6448 198C59.6448 196.528 59.9008 195.056 61.6128 195.056C63.3248 195.056 63.5648 196.528 63.5648 198ZM73.2123 202V196.656C73.2123 194.944 72.1723 194.032 70.0603 194.032C68.7803 194.032 67.9803 194.288 67.2763 195.2L68.0603 195.92C68.5243 195.264 69.0363 195.024 70.0443 195.024C71.4843 195.024 72.0603 195.6 72.0603 196.752V197.504H69.6923C67.9323 197.504 66.9723 198.4 66.9723 199.776C66.9723 200.4 67.1803 200.992 67.5643 201.376C68.0603 201.888 68.7003 202.096 69.7883 202.096C70.8443 202.096 71.4203 201.888 72.0603 201.248V202H73.2123ZM72.0603 199.216C72.0603 199.872 71.9323 200.32 71.6603 200.576C71.1643 201.056 70.5723 201.104 69.9003 201.104C68.6523 201.104 68.0923 200.672 68.0923 199.76C68.0923 198.848 68.6683 198.368 69.8523 198.368H72.0603V199.216ZM81.8261 202.24V194.128H80.6901V195.056C80.0501 194.224 79.3461 194.032 78.4821 194.032C77.6821 194.032 76.9781 194.304 76.5621 194.72C75.7781 195.504 75.6021 196.72 75.6021 198C75.6021 199.28 75.7781 200.496 76.5621 201.28C76.9781 201.696 77.6661 201.984 78.4661 201.984C79.3141 201.984 80.0341 201.776 80.6741 200.96V202.192C80.6741 203.536 80.0341 204.608 78.5141 204.608C77.6021 204.608 77.2021 204.336 76.6261 203.824L75.8741 204.56C76.7061 205.312 77.3621 205.616 78.5461 205.616C80.6101 205.616 81.8261 204.192 81.8261 202.24ZM80.6741 198C80.6741 199.472 80.4341 200.944 78.7221 200.944C77.0101 200.944 76.7541 199.472 76.7541 198C76.7541 196.528 77.0101 195.056 78.7221 195.056C80.4341 195.056 80.6741 196.528 80.6741 198ZM85.9376 191.888V190.592H84.6416V191.888H85.9376ZM85.8576 202V194.128H84.7056V202H85.8576ZM94.9445 202V196.96C94.9445 196.048 94.6885 195.312 94.1285 194.768C93.6485 194.288 92.9605 194.032 92.1125 194.032C91.2325 194.032 90.4645 194.352 89.9045 194.992V194.128H88.7525V202H89.9045V197.152C89.9045 195.776 90.6725 195.056 91.8565 195.056C93.0405 195.056 93.7925 195.76 93.7925 197.152V202H94.9445ZM103.545 202.24V194.128H102.409V195.056C101.769 194.224 101.065 194.032 100.201 194.032C99.4009 194.032 98.6969 194.304 98.2809 194.72C97.4969 195.504 97.3209 196.72 97.3209 198C97.3209 199.28 97.4969 200.496 98.2809 201.28C98.6969 201.696 99.3849 201.984 100.185 201.984C101.033 201.984 101.753 201.776 102.393 200.96V202.192C102.393 203.536 101.753 204.608 100.233 204.608C99.3209 204.608 98.9209 204.336 98.3449 203.824L97.5929 204.56C98.4249 205.312 99.0809 205.616 100.265 205.616C102.329 205.616 103.545 204.192 103.545 202.24ZM102.393 198C102.393 199.472 102.153 200.944 100.441 200.944C98.7289 200.944 98.4729 199.472 98.4729 198C98.4729 196.528 98.7289 195.056 100.441 195.056C102.153 195.056 102.393 196.528 102.393 198ZM107.8 203.04V200.592H106.392V204.304L107.8 203.04ZM115.86 191.888V190.592H114.564V191.888H115.86ZM115.78 202V194.128H114.628V202H115.78ZM124.866 202V196.96C124.866 196.048 124.61 195.312 124.05 194.768C123.57 194.288 122.882 194.032 122.034 194.032C121.154 194.032 120.386 194.352 119.826 194.992V194.128H118.674V202H119.826V197.152C119.826 195.776 120.594 195.056 121.778 195.056C122.962 195.056 123.714 195.76 123.714 197.152V202H124.866ZM130.747 195.056V194.176H129.067V192.72C129.067 192 129.387 191.568 130.123 191.568H130.747V190.576H129.915C128.571 190.576 127.915 191.52 127.915 192.688V194.176H126.907V195.056H127.915V202H129.067V195.056H130.747ZM138.409 198.064C138.409 196.848 138.249 195.744 137.449 194.928C136.905 194.384 136.153 194.032 135.193 194.032C134.233 194.032 133.481 194.384 132.937 194.928C132.137 195.744 131.977 196.848 131.977 198.064C131.977 199.28 132.137 200.384 132.937 201.2C133.481 201.744 134.233 202.096 135.193 202.096C136.153 202.096 136.905 201.744 137.449 201.2C138.249 200.384 138.409 199.28 138.409 198.064ZM137.257 198.064C137.257 198.944 137.209 199.92 136.633 200.496C136.265 200.864 135.753 201.072 135.193 201.072C134.633 201.072 134.137 200.864 133.769 200.496C133.193 199.92 133.129 198.944 133.129 198.064C133.129 197.184 133.193 196.208 133.769 195.632C134.137 195.264 134.633 195.056 135.193 195.056C135.753 195.056 136.265 195.264 136.633 195.632C137.209 196.208 137.257 197.184 137.257 198.064ZM146.126 194.768C145.566 194.208 144.99 194.032 144.238 194.032C143.326 194.032 142.462 194.432 142.03 195.088V194.128H140.878V202H142.03V197.168C142.03 195.968 142.766 195.056 143.918 195.056C144.526 195.056 144.846 195.2 145.278 195.632L146.126 194.768ZM158.876 202V196.96C158.876 196.048 158.588 195.312 158.028 194.768C157.548 194.304 156.844 194.032 155.996 194.032C154.892 194.032 154.012 194.48 153.404 195.344C152.924 194.48 152.076 194.032 150.988 194.032C150.108 194.032 149.324 194.352 148.764 194.992V194.128H147.612V202H148.764V197.152C148.764 195.776 149.548 195.056 150.732 195.056C151.916 195.056 152.668 195.76 152.668 197.152V202H153.82V197.024C153.82 195.776 154.636 195.056 155.788 195.056C156.972 195.056 157.724 195.76 157.724 197.152V202H158.876ZM167.29 202V196.656C167.29 194.944 166.25 194.032 164.138 194.032C162.858 194.032 162.058 194.288 161.354 195.2L162.138 195.92C162.602 195.264 163.114 195.024 164.122 195.024C165.562 195.024 166.138 195.6 166.138 196.752V197.504H163.77C162.01 197.504 161.05 198.4 161.05 199.776C161.05 200.4 161.258 200.992 161.642 201.376C162.138 201.888 162.778 202.096 163.866 202.096C164.922 202.096 165.498 201.888 166.138 201.248V202H167.29ZM166.138 199.216C166.138 199.872 166.01 200.32 165.738 200.576C165.242 201.056 164.65 201.104 163.978 201.104C162.73 201.104 162.17 200.672 162.17 199.76C162.17 198.848 162.746 198.368 163.93 198.368H166.138V199.216ZM173.12 202V201.008H172.512C171.776 201.008 171.44 200.576 171.44 199.856V195.056H173.12V194.176H171.44V191.712H170.288V194.176H169.296V195.056H170.288V199.888C170.288 201.056 170.96 202 172.304 202H173.12ZM176.641 191.888V190.592H175.345V191.888H176.641ZM176.561 202V194.128H175.409V202H176.561ZM184.992 194.128H183.744L181.584 200.448L179.44 194.128H178.192L181.072 202H182.096L184.992 194.128ZM192.488 198.368V197.84C192.488 195.504 191.288 194.032 189.256 194.032C187.256 194.032 186.024 195.52 186.024 198.064C186.024 200.848 187.384 202.096 189.464 202.096C190.808 202.096 191.544 201.68 192.344 200.88L191.56 200.192C190.936 200.816 190.408 201.088 189.496 201.088C187.992 201.088 187.176 200.096 187.176 198.368H192.488ZM191.336 197.504H187.176C187.208 196.864 187.24 196.624 187.416 196.192C187.72 195.472 188.424 195.008 189.256 195.008C190.088 195.008 190.792 195.472 191.096 196.192C191.272 196.624 191.304 196.864 191.336 197.504ZM196.316 203.04V200.592H194.908V204.304L196.316 203.04ZM208.759 202V196.656C208.759 194.944 207.719 194.032 205.607 194.032C204.327 194.032 203.527 194.288 202.823 195.2L203.607 195.92C204.071 195.264 204.583 195.024 205.591 195.024C207.031 195.024 207.607 195.6 207.607 196.752V197.504H205.239C203.479 197.504 202.519 198.4 202.519 199.776C202.519 200.4 202.727 200.992 203.111 201.376C203.607 201.888 204.247 202.096 205.335 202.096C206.391 202.096 206.967 201.888 207.607 201.248V202H208.759ZM207.607 199.216C207.607 199.872 207.479 200.32 207.207 200.576C206.711 201.056 206.119 201.104 205.447 201.104C204.199 201.104 203.639 200.672 203.639 199.76C203.639 198.848 204.215 198.368 205.399 198.368H207.607V199.216ZM217.757 202V196.96C217.757 196.048 217.501 195.312 216.941 194.768C216.461 194.288 215.773 194.032 214.925 194.032C214.045 194.032 213.277 194.352 212.717 194.992V194.128H211.565V202H212.717V197.152C212.717 195.776 213.485 195.056 214.669 195.056C215.853 195.056 216.605 195.76 216.605 197.152V202H217.757ZM226.389 202V190.608H225.237V195.04C224.597 194.224 223.877 194.032 223.013 194.032C222.213 194.032 221.509 194.304 221.093 194.72C220.293 195.52 220.133 196.832 220.133 198.064C220.133 199.296 220.293 200.608 221.093 201.408C221.509 201.824 222.213 202.096 223.013 202.096C223.877 202.096 224.613 201.888 225.253 201.056V202H226.389ZM225.237 198.064C225.237 199.6 224.981 201.072 223.269 201.072C221.557 201.072 221.285 199.6 221.285 198.064C221.285 196.528 221.557 195.056 223.269 195.056C224.981 195.056 225.237 196.528 225.237 198.064ZM239.285 198.368V197.84C239.285 195.504 238.085 194.032 236.053 194.032C234.053 194.032 232.821 195.52 232.821 198.064C232.821 200.848 234.181 202.096 236.261 202.096C237.605 202.096 238.341 201.68 239.141 200.88L238.357 200.192C237.733 200.816 237.205 201.088 236.293 201.088C234.789 201.088 233.973 200.096 233.973 198.368H239.285ZM238.133 197.504H233.973C234.005 196.864 234.037 196.624 234.213 196.192C234.517 195.472 235.221 195.008 236.053 195.008C236.885 195.008 237.589 195.472 237.893 196.192C238.069 196.624 238.101 196.864 238.133 197.504ZM247.353 202V196.656C247.353 194.944 246.313 194.032 244.201 194.032C242.921 194.032 242.121 194.288 241.417 195.2L242.201 195.92C242.665 195.264 243.177 195.024 244.185 195.024C245.625 195.024 246.201 195.6 246.201 196.752V197.504H243.833C242.073 197.504 241.113 198.4 241.113 199.776C241.113 200.4 241.321 200.992 241.705 201.376C242.201 201.888 242.841 202.096 243.929 202.096C244.985 202.096 245.561 201.888 246.201 201.248V202H247.353ZM246.201 199.216C246.201 199.872 246.073 200.32 245.801 200.576C245.305 201.056 244.713 201.104 244.041 201.104C242.793 201.104 242.233 200.672 242.233 199.76C242.233 198.848 242.809 198.368 243.993 198.368H246.201V199.216ZM255.839 199.696C255.839 198.224 254.895 197.696 253.519 197.568L252.255 197.456C251.263 197.376 250.879 196.976 250.879 196.304C250.879 195.504 251.487 195.008 252.639 195.008C253.455 195.008 254.175 195.2 254.735 195.632L255.487 194.88C254.783 194.304 253.775 194.032 252.655 194.032C250.975 194.032 249.759 194.896 249.759 196.336C249.759 197.632 250.575 198.32 252.111 198.448L253.407 198.56C254.319 198.64 254.719 199.024 254.719 199.712C254.719 200.64 253.919 201.104 252.623 201.104C251.647 201.104 250.799 200.848 250.175 200.192L249.407 200.96C250.271 201.792 251.311 202.096 252.639 202.096C254.543 202.096 255.839 201.216 255.839 199.696ZM263.632 194.128H262.384L260.24 200.448L258.08 194.128H256.832L259.664 201.84L259.104 203.376C258.848 204.096 258.608 204.352 257.808 204.352H257.456V205.376H257.952C258.512 205.376 259.072 205.232 259.488 204.832C259.712 204.624 259.888 204.336 260.048 203.904L263.632 194.128ZM272.261 202V201.008H271.653C270.917 201.008 270.581 200.576 270.581 199.856V195.056H272.261V194.176H270.581V191.712H269.429V194.176H268.437V195.056H269.429V199.888C269.429 201.056 270.101 202 271.445 202H272.261ZM280.44 198.064C280.44 196.848 280.28 195.744 279.48 194.928C278.936 194.384 278.184 194.032 277.224 194.032C276.264 194.032 275.512 194.384 274.968 194.928C274.168 195.744 274.008 196.848 274.008 198.064C274.008 199.28 274.168 200.384 274.968 201.2C275.512 201.744 276.264 202.096 277.224 202.096C278.184 202.096 278.936 201.744 279.48 201.2C280.28 200.384 280.44 199.28 280.44 198.064ZM279.288 198.064C279.288 198.944 279.24 199.92 278.664 200.496C278.296 200.864 277.784 201.072 277.224 201.072C276.664 201.072 276.168 200.864 275.8 200.496C275.224 199.92 275.16 198.944 275.16 198.064C275.16 197.184 275.224 196.208 275.8 195.632C276.168 195.264 276.664 195.056 277.224 195.056C277.784 195.056 278.296 195.264 278.664 195.632C279.24 196.208 279.288 197.184 279.288 198.064ZM47.552 226V218.128H46.4V222.976C46.4 224.352 45.616 225.072 44.432 225.072C43.248 225.072 42.512 224.368 42.512 222.976V218.128H41.36V223.152C41.36 224.064 41.6 224.816 42.16 225.36C42.64 225.84 43.344 226.096 44.192 226.096C45.072 226.096 45.856 225.76 46.416 225.12V226H47.552ZM56.6164 226V220.96C56.6164 220.048 56.3604 219.312 55.8004 218.768C55.3204 218.288 54.6324 218.032 53.7844 218.032C52.9044 218.032 52.1364 218.352 51.5764 218.992V218.128H50.4244V226H51.5764V221.152C51.5764 219.776 52.3444 219.056 53.5284 219.056C54.7124 219.056 55.4644 219.76 55.4644 221.152V226H56.6164ZM65.2488 226V214.608H64.0968V219.04C63.4568 218.224 62.7368 218.032 61.8728 218.032C61.0728 218.032 60.3688 218.304 59.9528 218.72C59.1528 219.52 58.9928 220.832 58.9928 222.064C58.9928 223.296 59.1528 224.608 59.9528 225.408C60.3688 225.824 61.0728 226.096 61.8728 226.096C62.7368 226.096 63.4728 225.888 64.1128 225.056V226H65.2488ZM64.0968 222.064C64.0968 223.6 63.8408 225.072 62.1288 225.072C60.4168 225.072 60.1448 223.6 60.1448 222.064C60.1448 220.528 60.4168 219.056 62.1288 219.056C63.8408 219.056 64.0968 220.528 64.0968 222.064ZM74.1595 222.368V221.84C74.1595 219.504 72.9595 218.032 70.9275 218.032C68.9275 218.032 67.6955 219.52 67.6955 222.064C67.6955 224.848 69.0555 226.096 71.1355 226.096C72.4795 226.096 73.2155 225.68 74.0155 224.88L73.2315 224.192C72.6075 224.816 72.0795 225.088 71.1675 225.088C69.6635 225.088 68.8475 224.096 68.8475 222.368H74.1595ZM73.0075 221.504H68.8475C68.8795 220.864 68.9115 220.624 69.0875 220.192C69.3915 219.472 70.0955 219.008 70.9275 219.008C71.7595 219.008 72.4635 219.472 72.7675 220.192C72.9435 220.624 72.9755 220.864 73.0075 221.504ZM81.8599 218.768C81.2999 218.208 80.7239 218.032 79.9719 218.032C79.0599 218.032 78.1959 218.432 77.7639 219.088V218.128H76.6119V226H77.7639V221.168C77.7639 219.968 78.4999 219.056 79.6519 219.056C80.2599 219.056 80.5799 219.2 81.0119 219.632L81.8599 218.768ZM88.87 223.696C88.87 222.224 87.926 221.696 86.55 221.568L85.286 221.456C84.294 221.376 83.91 220.976 83.91 220.304C83.91 219.504 84.518 219.008 85.67 219.008C86.486 219.008 87.206 219.2 87.766 219.632L88.518 218.88C87.814 218.304 86.806 218.032 85.686 218.032C84.006 218.032 82.79 218.896 82.79 220.336C82.79 221.632 83.606 222.32 85.142 222.448L86.438 222.56C87.35 222.64 87.75 223.024 87.75 223.712C87.75 224.64 86.95 225.104 85.654 225.104C84.678 225.104 83.83 224.848 83.206 224.192L82.438 224.96C83.302 225.792 84.342 226.096 85.67 226.096C87.574 226.096 88.87 225.216 88.87 223.696ZM93.9953 226V225.008H93.3873C92.6513 225.008 92.3153 224.576 92.3153 223.856V219.056H93.9953V218.176H92.3153V215.712H91.1633V218.176H90.1713V219.056H91.1633V223.888C91.1633 225.056 91.8353 226 93.1793 226H93.9953ZM101.775 226V220.656C101.775 218.944 100.735 218.032 98.6228 218.032C97.3428 218.032 96.5428 218.288 95.8388 219.2L96.6228 219.92C97.0868 219.264 97.5988 219.024 98.6068 219.024C100.047 219.024 100.623 219.6 100.623 220.752V221.504H98.2548C96.4948 221.504 95.5348 222.4 95.5348 223.776C95.5348 224.4 95.7428 224.992 96.1268 225.376C96.6228 225.888 97.2628 226.096 98.3508 226.096C99.4068 226.096 99.9828 225.888 100.623 225.248V226H101.775ZM100.623 223.216C100.623 223.872 100.495 224.32 100.223 224.576C99.7268 225.056 99.1348 225.104 98.4628 225.104C97.2148 225.104 96.6548 224.672 96.6548 223.76C96.6548 222.848 97.2308 222.368 98.4148 222.368H100.623V223.216ZM110.773 226V220.96C110.773 220.048 110.517 219.312 109.957 218.768C109.477 218.288 108.789 218.032 107.941 218.032C107.061 218.032 106.293 218.352 105.733 218.992V218.128H104.581V226H105.733V221.152C105.733 219.776 106.501 219.056 107.685 219.056C108.869 219.056 109.621 219.76 109.621 221.152V226H110.773ZM119.405 226V214.608H118.253V219.04C117.613 218.224 116.893 218.032 116.029 218.032C115.229 218.032 114.525 218.304 114.109 218.72C113.309 219.52 113.149 220.832 113.149 222.064C113.149 223.296 113.309 224.608 114.109 225.408C114.525 225.824 115.229 226.096 116.029 226.096C116.893 226.096 117.629 225.888 118.269 225.056V226H119.405ZM118.253 222.064C118.253 223.6 117.997 225.072 116.285 225.072C114.573 225.072 114.301 223.6 114.301 222.064C114.301 220.528 114.573 219.056 116.285 219.056C117.997 219.056 118.253 220.528 118.253 222.064ZM123.66 227.04V224.592H122.252V228.304L123.66 227.04ZM140.455 218.128H139.207L137.415 224.448L135.335 218.128H134.343L132.279 224.448L130.471 218.128H129.223L131.719 226H132.791L134.839 219.888L136.903 226H137.975L140.455 218.128ZM143.297 215.888V214.592H142.001V215.888H143.297ZM143.217 226V218.128H142.065V226H143.217ZM149.136 226V225.008H148.528C147.792 225.008 147.456 224.576 147.456 223.856V219.056H149.136V218.176H147.456V215.712H146.304V218.176H145.312V219.056H146.304V223.888C146.304 225.056 146.976 226 148.32 226H149.136ZM157.616 226V220.944C157.616 219.168 156.56 218.032 154.784 218.032C153.904 218.032 153.152 218.336 152.576 218.992V214.608H151.424V226H152.576V221.136C152.576 219.776 153.36 219.056 154.544 219.056C155.728 219.056 156.464 219.76 156.464 221.136V226H157.616ZM170.009 226V220.656C170.009 218.944 168.969 218.032 166.857 218.032C165.577 218.032 164.777 218.288 164.073 219.2L164.857 219.92C165.321 219.264 165.833 219.024 166.841 219.024C168.281 219.024 168.857 219.6 168.857 220.752V221.504H166.489C164.729 221.504 163.769 222.4 163.769 223.776C163.769 224.4 163.977 224.992 164.361 225.376C164.857 225.888 165.497 226.096 166.585 226.096C167.641 226.096 168.217 225.888 168.857 225.248V226H170.009ZM168.857 223.216C168.857 223.872 168.729 224.32 168.457 224.576C167.961 225.056 167.369 225.104 166.697 225.104C165.449 225.104 164.889 224.672 164.889 223.76C164.889 222.848 165.465 222.368 166.649 222.368H168.857V223.216ZM179.887 219.056V218.176H178.207V216.72C178.207 216 178.527 215.568 179.263 215.568H179.887V214.576H179.055C177.711 214.576 177.055 215.52 177.055 216.688V218.176H176.047V219.056H177.055V226H178.207V219.056H179.887ZM187.55 222.064C187.55 220.848 187.39 219.744 186.59 218.928C186.046 218.384 185.294 218.032 184.334 218.032C183.374 218.032 182.622 218.384 182.078 218.928C181.278 219.744 181.118 220.848 181.118 222.064C181.118 223.28 181.278 224.384 182.078 225.2C182.622 225.744 183.374 226.096 184.334 226.096C185.294 226.096 186.046 225.744 186.59 225.2C187.39 224.384 187.55 223.28 187.55 222.064ZM186.398 222.064C186.398 222.944 186.35 223.92 185.774 224.496C185.406 224.864 184.894 225.072 184.334 225.072C183.774 225.072 183.278 224.864 182.91 224.496C182.334 223.92 182.27 222.944 182.27 222.064C182.27 221.184 182.334 220.208 182.91 219.632C183.278 219.264 183.774 219.056 184.334 219.056C184.894 219.056 185.406 219.264 185.774 219.632C186.35 220.208 186.398 221.184 186.398 222.064ZM195.666 224.928L194.882 224.176C194.29 224.832 193.826 225.072 193.074 225.072C192.306 225.072 191.666 224.768 191.25 224.176C190.882 223.664 190.738 223.056 190.738 222.064C190.738 221.072 190.882 220.464 191.25 219.952C191.666 219.36 192.306 219.056 193.074 219.056C193.826 219.056 194.29 219.28 194.882 219.936L195.666 219.2C194.85 218.32 194.162 218.032 193.074 218.032C191.09 218.032 189.586 219.376 189.586 222.064C189.586 224.752 191.09 226.096 193.074 226.096C194.162 226.096 194.85 225.808 195.666 224.928ZM203.974 226V218.128H202.822V222.976C202.822 224.352 202.038 225.072 200.854 225.072C199.67 225.072 198.934 224.368 198.934 222.976V218.128H197.782V223.152C197.782 224.064 198.022 224.816 198.582 225.36C199.062 225.84 199.766 226.096 200.614 226.096C201.494 226.096 202.278 225.76 202.838 225.12V226H203.974ZM212.526 223.696C212.526 222.224 211.582 221.696 210.206 221.568L208.942 221.456C207.95 221.376 207.566 220.976 207.566 220.304C207.566 219.504 208.174 219.008 209.326 219.008C210.142 219.008 210.862 219.2 211.422 219.632L212.174 218.88C211.47 218.304 210.462 218.032 209.342 218.032C207.662 218.032 206.446 218.896 206.446 220.336C206.446 221.632 207.262 222.32 208.798 222.448L210.094 222.56C211.006 222.64 211.406 223.024 211.406 223.712C211.406 224.64 210.606 225.104 209.31 225.104C208.334 225.104 207.486 224.848 206.862 224.192L206.094 224.96C206.958 225.792 207.998 226.096 209.326 226.096C211.23 226.096 212.526 225.216 212.526 223.696ZM224.784 222.064C224.784 220.848 224.624 219.744 223.824 218.928C223.28 218.384 222.528 218.032 221.568 218.032C220.608 218.032 219.856 218.384 219.312 218.928C218.512 219.744 218.352 220.848 218.352 222.064C218.352 223.28 218.512 224.384 219.312 225.2C219.856 225.744 220.608 226.096 221.568 226.096C222.528 226.096 223.28 225.744 223.824 225.2C224.624 224.384 224.784 223.28 224.784 222.064ZM223.632 222.064C223.632 222.944 223.584 223.92 223.008 224.496C222.64 224.864 222.128 225.072 221.568 225.072C221.008 225.072 220.512 224.864 220.144 224.496C219.568 223.92 219.504 222.944 219.504 222.064C219.504 221.184 219.568 220.208 220.144 219.632C220.512 219.264 221.008 219.056 221.568 219.056C222.128 219.056 222.64 219.264 223.008 219.632C223.584 220.208 223.632 221.184 223.632 222.064ZM233.445 226V220.96C233.445 220.048 233.189 219.312 232.629 218.768C232.149 218.288 231.461 218.032 230.613 218.032C229.733 218.032 228.965 218.352 228.405 218.992V218.128H227.253V226H228.405V221.152C228.405 219.776 229.173 219.056 230.357 219.056C231.541 219.056 232.293 219.76 232.293 221.152V226H233.445ZM246.477 222.064C246.477 220.832 246.317 219.52 245.517 218.72C245.101 218.304 244.397 218.032 243.597 218.032C242.733 218.032 242.013 218.224 241.373 219.056V218.128H240.221V229.52H241.373V225.072C242.013 225.888 242.733 226.096 243.597 226.096C244.397 226.096 245.101 225.824 245.517 225.408C246.317 224.608 246.477 223.296 246.477 222.064ZM245.325 222.064C245.325 223.6 245.069 225.072 243.357 225.072C241.645 225.072 241.373 223.6 241.373 222.064C241.373 220.528 241.645 219.056 243.357 219.056C245.069 219.056 245.325 220.528 245.325 222.064ZM254.188 218.768C253.628 218.208 253.052 218.032 252.3 218.032C251.388 218.032 250.524 218.432 250.092 219.088V218.128H248.94V226H250.092V221.168C250.092 219.968 250.828 219.056 251.98 219.056C252.588 219.056 252.908 219.2 253.34 219.632L254.188 218.768ZM261.134 226V220.656C261.134 218.944 260.094 218.032 257.982 218.032C256.702 218.032 255.902 218.288 255.198 219.2L255.982 219.92C256.446 219.264 256.958 219.024 257.966 219.024C259.406 219.024 259.982 219.6 259.982 220.752V221.504H257.614C255.854 221.504 254.894 222.4 254.894 223.776C254.894 224.4 255.102 224.992 255.486 225.376C255.982 225.888 256.622 226.096 257.71 226.096C258.766 226.096 259.342 225.888 259.982 225.248V226H261.134ZM259.982 223.216C259.982 223.872 259.854 224.32 259.582 224.576C259.086 225.056 258.494 225.104 257.822 225.104C256.574 225.104 256.014 224.672 256.014 223.76C256.014 222.848 256.59 222.368 257.774 222.368H259.982V223.216ZM269.588 224.928L268.804 224.176C268.212 224.832 267.748 225.072 266.996 225.072C266.228 225.072 265.588 224.768 265.172 224.176C264.804 223.664 264.66 223.056 264.66 222.064C264.66 221.072 264.804 220.464 265.172 219.952C265.588 219.36 266.228 219.056 266.996 219.056C267.748 219.056 268.212 219.28 268.804 219.936L269.588 219.2C268.772 218.32 268.084 218.032 266.996 218.032C265.012 218.032 263.508 219.376 263.508 222.064C263.508 224.752 265.012 226.096 266.996 226.096C268.084 226.096 268.772 225.808 269.588 224.928ZM274.808 226V225.008H274.2C273.464 225.008 273.128 224.576 273.128 223.856V219.056H274.808V218.176H273.128V215.712H271.976V218.176H270.984V219.056H271.976V223.888C271.976 225.056 272.648 226 273.992 226H274.808ZM278.328 215.888V214.592H277.032V215.888H278.328ZM278.248 226V218.128H277.096V226H278.248ZM286.791 224.928L286.007 224.176C285.415 224.832 284.951 225.072 284.199 225.072C283.431 225.072 282.791 224.768 282.375 224.176C282.007 223.664 281.863 223.056 281.863 222.064C281.863 221.072 282.007 220.464 282.375 219.952C282.791 219.36 283.431 219.056 284.199 219.056C284.951 219.056 285.415 219.28 286.007 219.936L286.791 219.2C285.975 218.32 285.287 218.032 284.199 218.032C282.215 218.032 280.711 219.376 280.711 222.064C280.711 224.752 282.215 226.096 284.199 226.096C285.287 226.096 285.975 225.808 286.791 224.928ZM294.415 226V220.656C294.415 218.944 293.375 218.032 291.263 218.032C289.983 218.032 289.183 218.288 288.479 219.2L289.263 219.92C289.727 219.264 290.239 219.024 291.247 219.024C292.687 219.024 293.263 219.6 293.263 220.752V221.504H290.895C289.135 221.504 288.175 222.4 288.175 223.776C288.175 224.4 288.383 224.992 288.767 225.376C289.263 225.888 289.903 226.096 290.991 226.096C292.047 226.096 292.623 225.888 293.263 225.248V226H294.415ZM293.263 223.216C293.263 223.872 293.135 224.32 292.863 224.576C292.367 225.056 291.775 225.104 291.103 225.104C289.855 225.104 289.295 224.672 289.295 223.76C289.295 222.848 289.871 222.368 291.055 222.368H293.263V223.216ZM300.021 226V225.008H299.397C298.597 225.008 298.341 224.624 298.341 223.856V214.608H297.189V223.904C297.189 225.104 297.813 226 299.189 226H300.021ZM47.056 250V244.656C47.056 242.944 46.016 242.032 43.904 242.032C42.624 242.032 41.824 242.288 41.12 243.2L41.904 243.92C42.368 243.264 42.88 243.024 43.888 243.024C45.328 243.024 45.904 243.6 45.904 244.752V245.504H43.536C41.776 245.504 40.816 246.4 40.816 247.776C40.816 248.4 41.024 248.992 41.408 249.376C41.904 249.888 42.544 250.096 43.632 250.096C44.688 250.096 45.264 249.888 45.904 249.248V250H47.056ZM45.904 247.216C45.904 247.872 45.776 248.32 45.504 248.576C45.008 249.056 44.416 249.104 43.744 249.104C42.496 249.104 41.936 248.672 41.936 247.76C41.936 246.848 42.512 246.368 43.696 246.368H45.904V247.216ZM56.1179 246.064C56.1179 244.832 55.9579 243.52 55.1579 242.72C54.7419 242.304 54.0379 242.032 53.2379 242.032C52.3739 242.032 51.6539 242.224 51.0139 243.056V242.128H49.8619V253.52H51.0139V249.072C51.6539 249.888 52.3739 250.096 53.2379 250.096C54.0379 250.096 54.7419 249.824 55.1579 249.408C55.9579 248.608 56.1179 247.296 56.1179 246.064ZM54.9659 246.064C54.9659 247.6 54.7099 249.072 52.9979 249.072C51.2859 249.072 51.0139 247.6 51.0139 246.064C51.0139 244.528 51.2859 243.056 52.9979 243.056C54.7099 243.056 54.9659 244.528 54.9659 246.064ZM64.8366 246.064C64.8366 244.832 64.6766 243.52 63.8766 242.72C63.4606 242.304 62.7566 242.032 61.9566 242.032C61.0926 242.032 60.3726 242.224 59.7326 243.056V242.128H58.5806V253.52H59.7326V249.072C60.3726 249.888 61.0926 250.096 61.9566 250.096C62.7566 250.096 63.4606 249.824 63.8766 249.408C64.6766 248.608 64.8366 247.296 64.8366 246.064ZM63.6846 246.064C63.6846 247.6 63.4286 249.072 61.7166 249.072C60.0046 249.072 59.7326 247.6 59.7326 246.064C59.7326 244.528 60.0046 243.056 61.7166 243.056C63.4286 243.056 63.6846 244.528 63.6846 246.064ZM70.0994 250V249.008H69.4754C68.6754 249.008 68.4194 248.624 68.4194 247.856V238.608H67.2674V247.904C67.2674 249.104 67.8914 250 69.2674 250H70.0994ZM73.2814 239.888V238.592H71.9854V239.888H73.2814ZM73.2014 250V242.128H72.0494V250H73.2014ZM81.7443 248.928L80.9603 248.176C80.3683 248.832 79.9043 249.072 79.1523 249.072C78.3843 249.072 77.7443 248.768 77.3283 248.176C76.9603 247.664 76.8163 247.056 76.8163 246.064C76.8163 245.072 76.9603 244.464 77.3283 243.952C77.7443 243.36 78.3843 243.056 79.1523 243.056C79.9043 243.056 80.3683 243.28 80.9603 243.936L81.7443 243.2C80.9283 242.32 80.2403 242.032 79.1523 242.032C77.1683 242.032 75.6643 243.376 75.6643 246.064C75.6643 248.752 77.1683 250.096 79.1523 250.096C80.2403 250.096 80.9283 249.808 81.7443 248.928ZM89.3685 250V244.656C89.3685 242.944 88.3285 242.032 86.2165 242.032C84.9365 242.032 84.1365 242.288 83.4325 243.2L84.2165 243.92C84.6805 243.264 85.1925 243.024 86.2005 243.024C87.6405 243.024 88.2165 243.6 88.2165 244.752V245.504H85.8485C84.0885 245.504 83.1285 246.4 83.1285 247.776C83.1285 248.4 83.3365 248.992 83.7205 249.376C84.2165 249.888 84.8565 250.096 85.9445 250.096C87.0005 250.096 87.5765 249.888 88.2165 249.248V250H89.3685ZM88.2165 247.216C88.2165 247.872 88.0885 248.32 87.8165 248.576C87.3205 249.056 86.7285 249.104 86.0565 249.104C84.8085 249.104 84.2485 248.672 84.2485 247.76C84.2485 246.848 84.8245 246.368 86.0085 246.368H88.2165V247.216ZM95.1984 250V249.008H94.5904C93.8544 249.008 93.5184 248.576 93.5184 247.856V243.056H95.1984V242.176H93.5184V239.712H92.3664V242.176H91.3744V243.056H92.3664V247.888C92.3664 249.056 93.0384 250 94.3824 250H95.1984ZM98.7189 239.888V238.592H97.4229V239.888H98.7189ZM98.6389 250V242.128H97.4869V250H98.6389ZM107.55 246.064C107.55 244.848 107.39 243.744 106.59 242.928C106.046 242.384 105.294 242.032 104.334 242.032C103.374 242.032 102.622 242.384 102.078 242.928C101.278 243.744 101.118 244.848 101.118 246.064C101.118 247.28 101.278 248.384 102.078 249.2C102.622 249.744 103.374 250.096 104.334 250.096C105.294 250.096 106.046 249.744 106.59 249.2C107.39 248.384 107.55 247.28 107.55 246.064ZM106.398 246.064C106.398 246.944 106.35 247.92 105.774 248.496C105.406 248.864 104.894 249.072 104.334 249.072C103.774 249.072 103.278 248.864 102.91 248.496C102.334 247.92 102.27 246.944 102.27 246.064C102.27 245.184 102.334 244.208 102.91 243.632C103.278 243.264 103.774 243.056 104.334 243.056C104.894 243.056 105.406 243.264 105.774 243.632C106.35 244.208 106.398 245.184 106.398 246.064ZM116.21 250V244.96C116.21 244.048 115.954 243.312 115.394 242.768C114.914 242.288 114.226 242.032 113.378 242.032C112.498 242.032 111.73 242.352 111.17 242.992V242.128H110.018V250H111.17V245.152C111.17 243.776 111.938 243.056 113.122 243.056C114.306 243.056 115.058 243.76 115.058 245.152V250H116.21ZM128.603 250V244.656C128.603 242.944 127.563 242.032 125.451 242.032C124.171 242.032 123.371 242.288 122.667 243.2L123.451 243.92C123.915 243.264 124.427 243.024 125.435 243.024C126.875 243.024 127.451 243.6 127.451 244.752V245.504H125.083C123.323 245.504 122.363 246.4 122.363 247.776C122.363 248.4 122.571 248.992 122.955 249.376C123.451 249.888 124.091 250.096 125.179 250.096C126.235 250.096 126.811 249.888 127.451 249.248V250H128.603ZM127.451 247.216C127.451 247.872 127.323 248.32 127.051 248.576C126.555 249.056 125.963 249.104 125.291 249.104C124.043 249.104 123.483 248.672 123.483 247.76C123.483 246.848 124.059 246.368 125.243 246.368H127.451V247.216ZM137.601 250V244.96C137.601 244.048 137.345 243.312 136.785 242.768C136.305 242.288 135.617 242.032 134.769 242.032C133.889 242.032 133.121 242.352 132.561 242.992V242.128H131.409V250H132.561V245.152C132.561 243.776 133.329 243.056 134.513 243.056C135.697 243.056 136.449 243.76 136.449 245.152V250H137.601ZM146.233 250V238.608H145.081V243.04C144.441 242.224 143.721 242.032 142.857 242.032C142.057 242.032 141.353 242.304 140.937 242.72C140.137 243.52 139.977 244.832 139.977 246.064C139.977 247.296 140.137 248.608 140.937 249.408C141.353 249.824 142.057 250.096 142.857 250.096C143.721 250.096 144.457 249.888 145.097 249.056V250H146.233ZM145.081 246.064C145.081 247.6 144.825 249.072 143.113 249.072C141.401 249.072 141.129 247.6 141.129 246.064C141.129 244.528 141.401 243.056 143.113 243.056C144.825 243.056 145.081 244.528 145.081 246.064ZM158.344 242.768C157.784 242.208 157.208 242.032 156.456 242.032C155.544 242.032 154.68 242.432 154.248 243.088V242.128H153.096V250H154.248V245.168C154.248 243.968 154.984 243.056 156.136 243.056C156.744 243.056 157.064 243.2 157.496 243.632L158.344 242.768ZM165.316 246.368V245.84C165.316 243.504 164.116 242.032 162.084 242.032C160.084 242.032 158.852 243.52 158.852 246.064C158.852 248.848 160.212 250.096 162.292 250.096C163.636 250.096 164.372 249.68 165.172 248.88L164.388 248.192C163.764 248.816 163.236 249.088 162.324 249.088C160.82 249.088 160.004 248.096 160.004 246.368H165.316ZM164.164 245.504H160.004C160.036 244.864 160.068 244.624 160.244 244.192C160.548 243.472 161.252 243.008 162.084 243.008C162.916 243.008 163.62 243.472 163.924 244.192C164.1 244.624 164.132 244.864 164.164 245.504ZM173.384 250V244.656C173.384 242.944 172.344 242.032 170.232 242.032C168.952 242.032 168.152 242.288 167.448 243.2L168.232 243.92C168.696 243.264 169.208 243.024 170.216 243.024C171.656 243.024 172.232 243.6 172.232 244.752V245.504H169.864C168.104 245.504 167.144 246.4 167.144 247.776C167.144 248.4 167.352 248.992 167.736 249.376C168.232 249.888 168.872 250.096 169.96 250.096C171.016 250.096 171.592 249.888 172.232 249.248V250H173.384ZM172.232 247.216C172.232 247.872 172.104 248.32 171.832 248.576C171.336 249.056 170.744 249.104 170.072 249.104C168.824 249.104 168.264 248.672 168.264 247.76C168.264 246.848 168.84 246.368 170.024 246.368H172.232V247.216ZM178.99 250V249.008H178.366C177.566 249.008 177.31 248.624 177.31 247.856V238.608H176.158V247.904C176.158 249.104 176.782 250 178.158 250H178.99ZM185.1 246.224V245.152H180.716V246.224H185.1ZM197.721 242.128H196.473L194.681 248.448L192.601 242.128H191.609L189.545 248.448L187.737 242.128H186.489L188.985 250H190.057L192.105 243.888L194.169 250H195.241L197.721 242.128ZM205.269 246.064C205.269 244.848 205.109 243.744 204.309 242.928C203.765 242.384 203.013 242.032 202.053 242.032C201.093 242.032 200.341 242.384 199.797 242.928C198.997 243.744 198.837 244.848 198.837 246.064C198.837 247.28 198.997 248.384 199.797 249.2C200.341 249.744 201.093 250.096 202.053 250.096C203.013 250.096 203.765 249.744 204.309 249.2C205.109 248.384 205.269 247.28 205.269 246.064ZM204.117 246.064C204.117 246.944 204.069 247.92 203.493 248.496C203.125 248.864 202.613 249.072 202.053 249.072C201.493 249.072 200.997 248.864 200.629 248.496C200.053 247.92 199.989 246.944 199.989 246.064C199.989 245.184 200.053 244.208 200.629 243.632C200.997 243.264 201.493 243.056 202.053 243.056C202.613 243.056 203.125 243.264 203.493 243.632C204.069 244.208 204.117 245.184 204.117 246.064ZM212.985 242.768C212.425 242.208 211.849 242.032 211.097 242.032C210.185 242.032 209.321 242.432 208.889 243.088V242.128H207.737V250H208.889V245.168C208.889 243.968 209.625 243.056 210.777 243.056C211.385 243.056 211.705 243.2 212.137 243.632L212.985 242.768ZM217.271 250V249.008H216.647C215.847 249.008 215.591 248.624 215.591 247.856V238.608H214.439V247.904C214.439 249.104 215.063 250 216.439 250H217.271ZM225.061 250V238.608H223.909V243.04C223.269 242.224 222.549 242.032 221.685 242.032C220.885 242.032 220.181 242.304 219.765 242.72C218.965 243.52 218.805 244.832 218.805 246.064C218.805 247.296 218.965 248.608 219.765 249.408C220.181 249.824 220.885 250.096 221.685 250.096C222.549 250.096 223.285 249.888 223.925 249.056V250H225.061ZM223.909 246.064C223.909 247.6 223.653 249.072 221.941 249.072C220.229 249.072 219.957 247.6 219.957 246.064C219.957 244.528 220.229 243.056 221.941 243.056C223.653 243.056 223.909 244.528 223.909 246.064ZM237.172 242.768C236.612 242.208 236.036 242.032 235.284 242.032C234.372 242.032 233.508 242.432 233.076 243.088V242.128H231.924V250H233.076V245.168C233.076 243.968 233.812 243.056 234.964 243.056C235.572 243.056 235.892 243.2 236.324 243.632L237.172 242.768ZM244.144 246.368V245.84C244.144 243.504 242.944 242.032 240.912 242.032C238.912 242.032 237.68 243.52 237.68 246.064C237.68 248.848 239.04 250.096 241.12 250.096C242.464 250.096 243.2 249.68 244 248.88L243.216 248.192C242.592 248.816 242.064 249.088 241.152 249.088C239.648 249.088 238.832 248.096 238.832 246.368H244.144ZM242.992 245.504H238.832C238.864 244.864 238.896 244.624 239.072 244.192C239.376 243.472 240.08 243.008 240.912 243.008C241.744 243.008 242.448 243.472 242.752 244.192C242.928 244.624 242.96 244.864 242.992 245.504ZM249.396 250V249.008H248.772C247.972 249.008 247.716 248.624 247.716 247.856V238.608H246.564V247.904C246.564 249.104 247.188 250 248.564 250H249.396ZM256.972 246.368V245.84C256.972 243.504 255.772 242.032 253.74 242.032C251.74 242.032 250.508 243.52 250.508 246.064C250.508 248.848 251.868 250.096 253.948 250.096C255.292 250.096 256.028 249.68 256.828 248.88L256.044 248.192C255.42 248.816 254.892 249.088 253.98 249.088C252.476 249.088 251.66 248.096 251.66 246.368H256.972ZM255.82 245.504H251.66C251.692 244.864 251.724 244.624 251.9 244.192C252.204 243.472 252.908 243.008 253.74 243.008C254.572 243.008 255.276 243.472 255.58 244.192C255.756 244.624 255.788 244.864 255.82 245.504ZM264.804 242.128H263.556L261.396 248.448L259.252 242.128H258.004L260.884 250H261.908L264.804 242.128ZM271.884 250V244.656C271.884 242.944 270.844 242.032 268.732 242.032C267.452 242.032 266.652 242.288 265.948 243.2L266.732 243.92C267.196 243.264 267.708 243.024 268.716 243.024C270.156 243.024 270.732 243.6 270.732 244.752V245.504H268.364C266.604 245.504 265.644 246.4 265.644 247.776C265.644 248.4 265.852 248.992 266.236 249.376C266.732 249.888 267.372 250.096 268.46 250.096C269.516 250.096 270.092 249.888 270.732 249.248V250H271.884ZM270.732 247.216C270.732 247.872 270.604 248.32 270.332 248.576C269.836 249.056 269.244 249.104 268.572 249.104C267.324 249.104 266.764 248.672 266.764 247.76C266.764 246.848 267.34 246.368 268.524 246.368H270.732V247.216ZM280.882 250V244.96C280.882 244.048 280.626 243.312 280.066 242.768C279.586 242.288 278.898 242.032 278.05 242.032C277.17 242.032 276.402 242.352 275.842 242.992V242.128H274.69V250H275.842V245.152C275.842 243.776 276.61 243.056 277.794 243.056C278.978 243.056 279.73 243.76 279.73 245.152V250H280.882ZM289.322 248.928L288.538 248.176C287.946 248.832 287.482 249.072 286.73 249.072C285.962 249.072 285.322 248.768 284.906 248.176C284.538 247.664 284.394 247.056 284.394 246.064C284.394 245.072 284.538 244.464 284.906 243.952C285.322 243.36 285.962 243.056 286.73 243.056C287.482 243.056 287.946 243.28 288.538 243.936L289.322 243.2C288.506 242.32 287.818 242.032 286.73 242.032C284.746 242.032 283.242 243.376 283.242 246.064C283.242 248.752 284.746 250.096 286.73 250.096C287.818 250.096 288.506 249.808 289.322 248.928ZM297.316 246.368V245.84C297.316 243.504 296.116 242.032 294.084 242.032C292.084 242.032 290.852 243.52 290.852 246.064C290.852 248.848 292.212 250.096 294.292 250.096C295.636 250.096 296.372 249.68 297.172 248.88L296.388 248.192C295.764 248.816 295.236 249.088 294.324 249.088C292.82 249.088 292.004 248.096 292.004 246.368H297.316ZM296.164 245.504H292.004C292.036 244.864 292.068 244.624 292.244 244.192C292.548 243.472 293.252 243.008 294.084 243.008C294.916 243.008 295.62 243.472 295.924 244.192C296.1 244.624 296.132 244.864 296.164 245.504ZM301.24 250V248.496H299.736V250H301.24Z" fill="#B887DE"/>
</svg>
