<svg width="393" height="313" viewBox="0 0 393 313" fill="none" xmlns="http://www.w3.org/2000/svg">
    <path d="M0.5 35C0.5 15.9462 15.9462 0.5 35 0.5H261C280.054 0.5 295.5 15.9462 295.5 35C295.5 54.0538 280.054 69.5 261 69.5H35C15.9462 69.5 0.5 54.0538 0.5 35Z" stroke="#B887DE"/>
    <path d="M0 85C0 54.072 25.0721 29 56 29H313C343.928 29 369 54.0721 369 85V257C369 287.928 343.928 313 313 313H56C25.0721 313 0 287.928 0 257V85Z" fill="#B887DE" fill-opacity="0.1"/>
    <path d="M58.17 59V55.776H49.772V40.488H46.158V59H58.17ZM71.9811 53.28V51.772C71.9811 48.054 69.8491 45.298 66.0791 45.298C62.5691 45.298 60.1771 47.794 60.1771 52.214C60.1771 57.7 63.2451 59.156 66.4431 59.156C68.8871 59.156 70.2131 58.402 71.5911 57.024L69.5371 55.022C68.6791 55.88 67.9511 56.296 66.4691 56.296C64.5711 56.296 63.5051 55.022 63.5051 53.28H71.9811ZM68.6531 50.966H63.5051C63.5311 50.368 63.6091 50.004 63.8171 49.51C64.1811 48.704 64.9351 48.106 66.0791 48.106C67.2231 48.106 67.9771 48.704 68.3411 49.51C68.5491 50.004 68.6271 50.368 68.6531 50.966ZM85.3412 59V50.082C85.3412 46.91 83.3652 45.298 79.5692 45.298C77.3072 45.298 76.0072 45.714 74.6812 47.17L76.8392 49.276C77.5412 48.47 78.1392 48.158 79.4392 48.158C81.2332 48.158 81.9612 48.808 81.9612 50.29V50.966H78.7632C75.6172 50.966 74.1352 52.734 74.1352 54.892C74.1352 56.088 74.5252 57.18 75.2532 57.934C76.0592 58.74 77.1772 59.13 78.7112 59.13C80.2712 59.13 81.1292 58.74 82.0392 57.83V59H85.3412ZM81.9612 54.008C81.9612 54.84 81.8312 55.386 81.4672 55.724C80.8692 56.296 80.2712 56.374 79.3352 56.374C78.0092 56.374 77.3852 55.75 77.3852 54.814C77.3852 53.852 78.0612 53.28 79.2832 53.28H81.9612V54.008ZM98.8919 46.572C97.9559 45.636 97.0199 45.298 95.6939 45.298C94.2379 45.298 92.9379 45.974 92.2879 46.754V45.454H88.9859V59H92.3659V50.836C92.3659 49.12 93.5099 48.34 94.5499 48.34C95.3819 48.34 95.8239 48.626 96.3439 49.146L98.8919 46.572ZM112.076 59V50.342C112.076 48.86 111.79 47.586 110.698 46.494C109.944 45.74 108.852 45.298 107.5 45.298C106.252 45.298 105.004 45.766 104.12 46.702V45.454H100.818V59H104.198V50.81C104.198 48.964 105.394 48.34 106.46 48.34C107.526 48.34 108.696 48.964 108.696 50.81V59H112.076ZM119.128 43.14V40.384H115.67V43.14H119.128ZM119.102 59V45.454H115.722V59H119.102ZM134.14 59V50.342C134.14 48.86 133.854 47.586 132.762 46.494C132.008 45.74 130.916 45.298 129.564 45.298C128.316 45.298 127.068 45.766 126.184 46.702V45.454H122.882V59H126.262V50.81C126.262 48.964 127.458 48.34 128.524 48.34C129.59 48.34 130.76 48.964 130.76 50.81V59H134.14ZM148.421 58.506V45.454H145.145V46.728C144.209 45.688 143.273 45.298 141.843 45.298C140.517 45.298 139.347 45.74 138.593 46.494C137.319 47.768 137.215 49.484 137.215 51.85C137.215 54.216 137.319 55.958 138.593 57.232C139.347 57.986 140.491 58.428 141.817 58.428C143.143 58.428 144.157 58.064 145.041 57.076V58.454C145.041 59.832 144.339 61.262 142.311 61.262C141.167 61.262 140.413 60.95 139.659 60.222L137.553 62.354C138.957 63.706 140.387 64.122 142.467 64.122C146.107 64.122 148.421 61.756 148.421 58.506ZM145.041 51.85C145.041 53.644 144.807 55.386 142.805 55.386C140.803 55.386 140.595 53.644 140.595 51.85C140.595 50.056 140.803 48.34 142.805 48.34C144.807 48.34 145.041 50.056 145.041 51.85ZM175.282 59V40.488H171.72L166.91 50.498L162.074 40.488H158.512V59H162.126V48.21L165.688 55.23H168.132L171.668 48.21V59H175.282ZM189.57 59V50.082C189.57 46.91 187.594 45.298 183.798 45.298C181.536 45.298 180.236 45.714 178.91 47.17L181.068 49.276C181.77 48.47 182.368 48.158 183.668 48.158C185.462 48.158 186.19 48.808 186.19 50.29V50.966H182.992C179.846 50.966 178.364 52.734 178.364 54.892C178.364 56.088 178.754 57.18 179.482 57.934C180.288 58.74 181.406 59.13 182.94 59.13C184.5 59.13 185.358 58.74 186.268 57.83V59H189.57ZM186.19 54.008C186.19 54.84 186.06 55.386 185.696 55.724C185.098 56.296 184.5 56.374 183.564 56.374C182.238 56.374 181.614 55.75 181.614 54.814C181.614 53.852 182.29 53.28 183.512 53.28H186.19V54.008ZM199.298 59V56.14H198.076C197.27 56.14 196.906 55.698 196.906 54.918V48.418H199.298V45.844H196.906V41.84H193.526V45.844H192.096V48.418H193.526V55.126C193.526 57.05 194.696 59 197.452 59H199.298ZM213.407 53.28V51.772C213.407 48.054 211.275 45.298 207.505 45.298C203.995 45.298 201.603 47.794 201.603 52.214C201.603 57.7 204.671 59.156 207.869 59.156C210.313 59.156 211.639 58.402 213.017 57.024L210.963 55.022C210.105 55.88 209.377 56.296 207.895 56.296C205.997 56.296 204.931 55.022 204.931 53.28H213.407ZM210.079 50.966H204.931C204.957 50.368 205.035 50.004 205.243 49.51C205.607 48.704 206.361 48.106 207.505 48.106C208.649 48.106 209.403 48.704 209.767 49.51C209.975 50.004 210.053 50.368 210.079 50.966ZM226.429 46.572C225.493 45.636 224.557 45.298 223.231 45.298C221.775 45.298 220.475 45.974 219.825 46.754V45.454H216.523V59H219.903V50.836C219.903 49.12 221.047 48.34 222.087 48.34C222.919 48.34 223.361 48.626 223.881 49.146L226.429 46.572ZM231.761 43.14V40.384H228.303V43.14H231.761ZM231.735 59V45.454H228.355V59H231.735ZM245.759 59V50.082C245.759 46.91 243.783 45.298 239.987 45.298C237.725 45.298 236.425 45.714 235.099 47.17L237.257 49.276C237.959 48.47 238.557 48.158 239.857 48.158C241.651 48.158 242.379 48.808 242.379 50.29V50.966H239.181C236.035 50.966 234.553 52.734 234.553 54.892C234.553 56.088 234.943 57.18 235.671 57.934C236.477 58.74 237.595 59.13 239.129 59.13C240.689 59.13 241.547 58.74 242.457 57.83V59H245.759ZM242.379 54.008C242.379 54.84 242.249 55.386 241.885 55.724C241.287 56.296 240.689 56.374 239.753 56.374C238.427 56.374 237.803 55.75 237.803 54.814C237.803 53.852 238.479 53.28 239.701 53.28H242.379V54.008ZM255.15 59V56.14H253.85C252.992 56.14 252.654 55.724 252.654 54.918V40.488H249.274V55.126C249.274 57.05 250.444 59 253.226 59H255.15ZM268.051 54.736C268.051 52.448 266.699 51.018 264.021 50.758L261.889 50.55C260.693 50.446 260.485 49.874 260.485 49.38C260.485 48.704 261.057 48.08 262.409 48.08C263.579 48.08 264.775 48.288 265.555 48.99L267.635 46.884C266.335 45.662 264.567 45.298 262.461 45.298C259.705 45.298 257.235 46.806 257.235 49.614C257.235 52.11 258.743 53.176 261.187 53.41L263.319 53.618C264.385 53.722 264.749 54.19 264.749 54.866C264.749 55.88 263.527 56.27 262.357 56.27C261.317 56.27 259.861 56.114 258.743 54.996L256.533 57.206C258.249 58.922 260.173 59.156 262.305 59.156C265.503 59.156 268.051 57.726 268.051 54.736Z" fill="#B887DE"/>
    <path d="M48.72 130V128.912H42.864V124.8H47.856V123.712H42.864V119.696H48.72V118.608H41.648V130H48.72ZM62.2978 130V124.96C62.2978 124.048 62.0098 123.312 61.4498 122.768C60.9698 122.304 60.2658 122.032 59.4178 122.032C58.3138 122.032 57.4338 122.48 56.8258 123.344C56.3458 122.48 55.4978 122.032 54.4098 122.032C53.5298 122.032 52.7458 122.352 52.1858 122.992V122.128H51.0338V130H52.1858V125.152C52.1858 123.776 52.9698 123.056 54.1538 123.056C55.3378 123.056 56.0898 123.76 56.0898 125.152V130H57.2418V125.024C57.2418 123.776 58.0578 123.056 59.2098 123.056C60.3938 123.056 61.1458 123.76 61.1458 125.152V130H62.2978ZM71.3523 126.064C71.3523 124.832 71.1923 123.52 70.3923 122.72C69.9763 122.304 69.2723 122.032 68.4723 122.032C67.6083 122.032 66.8883 122.224 66.2483 123.056V122.128H65.0963V133.52H66.2483V129.072C66.8883 129.888 67.6083 130.096 68.4723 130.096C69.2723 130.096 69.9763 129.824 70.3923 129.408C71.1923 128.608 71.3523 127.296 71.3523 126.064ZM70.2003 126.064C70.2003 127.6 69.9443 129.072 68.2323 129.072C66.5203 129.072 66.2483 127.6 66.2483 126.064C66.2483 124.528 66.5203 123.056 68.2323 123.056C69.9443 123.056 70.2003 124.528 70.2003 126.064ZM79.831 126.064C79.831 124.848 79.671 123.744 78.871 122.928C78.327 122.384 77.575 122.032 76.615 122.032C75.655 122.032 74.903 122.384 74.359 122.928C73.559 123.744 73.399 124.848 73.399 126.064C73.399 127.28 73.559 128.384 74.359 129.2C74.903 129.744 75.655 130.096 76.615 130.096C77.575 130.096 78.327 129.744 78.871 129.2C79.671 128.384 79.831 127.28 79.831 126.064ZM78.679 126.064C78.679 126.944 78.631 127.92 78.055 128.496C77.687 128.864 77.175 129.072 76.615 129.072C76.055 129.072 75.559 128.864 75.191 128.496C74.615 127.92 74.551 126.944 74.551 126.064C74.551 125.184 74.615 124.208 75.191 123.632C75.559 123.264 76.055 123.056 76.615 123.056C77.175 123.056 77.687 123.264 78.055 123.632C78.631 124.208 78.679 125.184 78.679 126.064ZM92.1893 122.128H90.9413L89.1493 128.448L87.0693 122.128H86.0773L84.0133 128.448L82.2053 122.128H80.9573L83.4533 130H84.5253L86.5733 123.888L88.6373 130H89.7093L92.1893 122.128ZM99.7533 126.368V125.84C99.7533 123.504 98.5533 122.032 96.5213 122.032C94.5213 122.032 93.2893 123.52 93.2893 126.064C93.2893 128.848 94.6493 130.096 96.7293 130.096C98.0733 130.096 98.8093 129.68 99.6093 128.88L98.8253 128.192C98.2013 128.816 97.6733 129.088 96.7613 129.088C95.2573 129.088 94.4413 128.096 94.4413 126.368H99.7533ZM98.6013 125.504H94.4413C94.4733 124.864 94.5053 124.624 94.6813 124.192C94.9853 123.472 95.6893 123.008 96.5213 123.008C97.3533 123.008 98.0573 123.472 98.3613 124.192C98.5373 124.624 98.5693 124.864 98.6013 125.504ZM107.454 122.768C106.894 122.208 106.318 122.032 105.566 122.032C104.654 122.032 103.79 122.432 103.358 123.088V122.128H102.206V130H103.358V125.168C103.358 123.968 104.094 123.056 105.246 123.056C105.854 123.056 106.174 123.2 106.606 123.632L107.454 122.768ZM118.46 122.128H117.212L115.068 128.448L112.908 122.128H111.66L114.492 129.84L113.932 131.376C113.676 132.096 113.436 132.352 112.636 132.352H112.284V133.376H112.78C113.34 133.376 113.9 133.232 114.316 132.832C114.54 132.624 114.716 132.336 114.876 131.904L118.46 122.128ZM125.94 126.064C125.94 124.848 125.78 123.744 124.98 122.928C124.436 122.384 123.684 122.032 122.724 122.032C121.764 122.032 121.012 122.384 120.468 122.928C119.668 123.744 119.508 124.848 119.508 126.064C119.508 127.28 119.668 128.384 120.468 129.2C121.012 129.744 121.764 130.096 122.724 130.096C123.684 130.096 124.436 129.744 124.98 129.2C125.78 128.384 125.94 127.28 125.94 126.064ZM124.788 126.064C124.788 126.944 124.74 127.92 124.164 128.496C123.796 128.864 123.284 129.072 122.724 129.072C122.164 129.072 121.668 128.864 121.3 128.496C120.724 127.92 120.66 126.944 120.66 126.064C120.66 125.184 120.724 124.208 121.3 123.632C121.668 123.264 122.164 123.056 122.724 123.056C123.284 123.056 123.796 123.264 124.164 123.632C124.74 124.208 124.788 125.184 124.788 126.064ZM134.521 130V122.128H133.369V126.976C133.369 128.352 132.585 129.072 131.401 129.072C130.217 129.072 129.481 128.368 129.481 126.976V122.128H128.329V127.152C128.329 128.064 128.569 128.816 129.129 129.36C129.609 129.84 130.313 130.096 131.161 130.096C132.041 130.096 132.825 129.76 133.385 129.12V130H134.521ZM142.641 122.768C142.081 122.208 141.505 122.032 140.753 122.032C139.841 122.032 138.977 122.432 138.545 123.088V122.128H137.393V130H138.545V125.168C138.545 123.968 139.281 123.056 140.433 123.056C141.041 123.056 141.361 123.2 141.793 123.632L142.641 122.768ZM150.912 130V129.008H150.288C149.488 129.008 149.232 128.624 149.232 127.856V118.608H148.08V127.904C148.08 129.104 148.704 130 150.08 130H150.912ZM158.488 126.368V125.84C158.488 123.504 157.288 122.032 155.256 122.032C153.256 122.032 152.024 123.52 152.024 126.064C152.024 128.848 153.384 130.096 155.464 130.096C156.808 130.096 157.544 129.68 158.344 128.88L157.56 128.192C156.936 128.816 156.408 129.088 155.496 129.088C153.992 129.088 153.176 128.096 153.176 126.368H158.488ZM157.336 125.504H153.176C153.208 124.864 153.24 124.624 153.416 124.192C153.72 123.472 154.424 123.008 155.256 123.008C156.088 123.008 156.792 123.472 157.096 124.192C157.272 124.624 157.304 124.864 157.336 125.504ZM166.556 130V124.656C166.556 122.944 165.516 122.032 163.404 122.032C162.124 122.032 161.324 122.288 160.62 123.2L161.404 123.92C161.868 123.264 162.38 123.024 163.388 123.024C164.828 123.024 165.404 123.6 165.404 124.752V125.504H163.036C161.276 125.504 160.316 126.4 160.316 127.776C160.316 128.4 160.524 128.992 160.908 129.376C161.404 129.888 162.044 130.096 163.132 130.096C164.188 130.096 164.764 129.888 165.404 129.248V130H166.556ZM165.404 127.216C165.404 127.872 165.276 128.32 165.004 128.576C164.508 129.056 163.916 129.104 163.244 129.104C161.996 129.104 161.436 128.672 161.436 127.76C161.436 126.848 162.012 126.368 163.196 126.368H165.404V127.216ZM174.61 122.768C174.05 122.208 173.474 122.032 172.722 122.032C171.81 122.032 170.946 122.432 170.514 123.088V122.128H169.362V130H170.514V125.168C170.514 123.968 171.25 123.056 172.402 123.056C173.01 123.056 173.33 123.2 173.762 123.632L174.61 122.768ZM182.288 130V124.96C182.288 124.048 182.032 123.312 181.472 122.768C180.992 122.288 180.304 122.032 179.456 122.032C178.576 122.032 177.808 122.352 177.248 122.992V122.128H176.096V130H177.248V125.152C177.248 123.776 178.016 123.056 179.2 123.056C180.384 123.056 181.136 123.76 181.136 125.152V130H182.288ZM186.313 119.888V118.592H185.017V119.888H186.313ZM186.233 130V122.128H185.081V130H186.233ZM195.32 130V124.96C195.32 124.048 195.064 123.312 194.504 122.768C194.024 122.288 193.336 122.032 192.488 122.032C191.608 122.032 190.84 122.352 190.28 122.992V122.128H189.128V130H190.28V125.152C190.28 123.776 191.048 123.056 192.232 123.056C193.416 123.056 194.168 123.76 194.168 125.152V130H195.32ZM203.92 130.24V122.128H202.784V123.056C202.144 122.224 201.44 122.032 200.576 122.032C199.776 122.032 199.072 122.304 198.656 122.72C197.872 123.504 197.696 124.72 197.696 126C197.696 127.28 197.872 128.496 198.656 129.28C199.072 129.696 199.76 129.984 200.56 129.984C201.408 129.984 202.128 129.776 202.768 128.96V130.192C202.768 131.536 202.128 132.608 200.608 132.608C199.696 132.608 199.296 132.336 198.72 131.824L197.968 132.56C198.8 133.312 199.456 133.616 200.64 133.616C202.704 133.616 203.92 132.192 203.92 130.24ZM202.768 126C202.768 127.472 202.528 128.944 200.816 128.944C199.104 128.944 198.848 127.472 198.848 126C198.848 124.528 199.104 123.056 200.816 123.056C202.528 123.056 202.768 124.528 202.768 126ZM220.752 122.128H219.504L217.712 128.448L215.632 122.128H214.64L212.576 128.448L210.768 122.128H209.52L212.016 130H213.088L215.136 123.888L217.2 130H218.272L220.752 122.128ZM223.594 119.888V118.592H222.298V119.888H223.594ZM223.514 130V122.128H222.362V130H223.514ZM229.433 130V129.008H228.825C228.089 129.008 227.753 128.576 227.753 127.856V123.056H229.433V122.176H227.753V119.712H226.601V122.176H225.609V123.056H226.601V127.888C226.601 129.056 227.273 130 228.617 130H229.433ZM237.913 130V124.944C237.913 123.168 236.857 122.032 235.081 122.032C234.201 122.032 233.449 122.336 232.873 122.992V118.608H231.721V130H232.873V125.136C232.873 123.776 233.657 123.056 234.841 123.056C236.025 123.056 236.761 123.76 236.761 125.136V130H237.913ZM250.722 126.368V125.84C250.722 123.504 249.522 122.032 247.49 122.032C245.49 122.032 244.258 123.52 244.258 126.064C244.258 128.848 245.618 130.096 247.698 130.096C249.042 130.096 249.778 129.68 250.578 128.88L249.794 128.192C249.17 128.816 248.642 129.088 247.73 129.088C246.226 129.088 245.41 128.096 245.41 126.368H250.722ZM249.57 125.504H245.41C245.442 124.864 245.474 124.624 245.65 124.192C245.954 123.472 246.658 123.008 247.49 123.008C248.322 123.008 249.026 123.472 249.33 124.192C249.506 124.624 249.538 124.864 249.57 125.504ZM259.366 130V124.96C259.366 124.048 259.11 123.312 258.55 122.768C258.07 122.288 257.382 122.032 256.534 122.032C255.654 122.032 254.886 122.352 254.326 122.992V122.128H253.174V130H254.326V125.152C254.326 123.776 255.094 123.056 256.278 123.056C257.462 123.056 258.214 123.76 258.214 125.152V130H259.366ZM267.967 130.24V122.128H266.831V123.056C266.191 122.224 265.487 122.032 264.623 122.032C263.823 122.032 263.119 122.304 262.703 122.72C261.919 123.504 261.743 124.72 261.743 126C261.743 127.28 261.919 128.496 262.703 129.28C263.119 129.696 263.807 129.984 264.607 129.984C265.455 129.984 266.175 129.776 266.815 128.96V130.192C266.815 131.536 266.175 132.608 264.655 132.608C263.743 132.608 263.343 132.336 262.767 131.824L262.015 132.56C262.847 133.312 263.503 133.616 264.687 133.616C266.751 133.616 267.967 132.192 267.967 130.24ZM266.815 126C266.815 127.472 266.575 128.944 264.863 128.944C263.151 128.944 262.895 127.472 262.895 126C262.895 124.528 263.151 123.056 264.863 123.056C266.575 123.056 266.815 124.528 266.815 126ZM276.462 130V124.656C276.462 122.944 275.422 122.032 273.31 122.032C272.03 122.032 271.23 122.288 270.526 123.2L271.31 123.92C271.774 123.264 272.286 123.024 273.294 123.024C274.734 123.024 275.31 123.6 275.31 124.752V125.504H272.942C271.182 125.504 270.222 126.4 270.222 127.776C270.222 128.4 270.43 128.992 270.814 129.376C271.31 129.888 271.95 130.096 273.038 130.096C274.094 130.096 274.67 129.888 275.31 129.248V130H276.462ZM275.31 127.216C275.31 127.872 275.182 128.32 274.91 128.576C274.414 129.056 273.822 129.104 273.15 129.104C271.902 129.104 271.342 128.672 271.342 127.76C271.342 126.848 271.918 126.368 273.102 126.368H275.31V127.216ZM285.076 130.24V122.128H283.94V123.056C283.3 122.224 282.596 122.032 281.732 122.032C280.932 122.032 280.228 122.304 279.812 122.72C279.028 123.504 278.852 124.72 278.852 126C278.852 127.28 279.028 128.496 279.812 129.28C280.228 129.696 280.916 129.984 281.716 129.984C282.564 129.984 283.284 129.776 283.924 128.96V130.192C283.924 131.536 283.284 132.608 281.764 132.608C280.852 132.608 280.452 132.336 279.876 131.824L279.124 132.56C279.956 133.312 280.612 133.616 281.796 133.616C283.86 133.616 285.076 132.192 285.076 130.24ZM283.924 126C283.924 127.472 283.684 128.944 281.972 128.944C280.26 128.944 280.004 127.472 280.004 126C280.004 124.528 280.26 123.056 281.972 123.056C283.684 123.056 283.924 124.528 283.924 126ZM289.188 119.888V118.592H287.892V119.888H289.188ZM289.108 130V122.128H287.956V130H289.108ZM298.195 130V124.96C298.195 124.048 297.939 123.312 297.379 122.768C296.899 122.288 296.211 122.032 295.363 122.032C294.483 122.032 293.715 122.352 293.155 122.992V122.128H292.003V130H293.155V125.152C293.155 123.776 293.923 123.056 295.107 123.056C296.291 123.056 297.043 123.76 297.043 125.152V130H298.195ZM306.795 130.24V122.128H305.659V123.056C305.019 122.224 304.315 122.032 303.451 122.032C302.651 122.032 301.947 122.304 301.531 122.72C300.747 123.504 300.571 124.72 300.571 126C300.571 127.28 300.747 128.496 301.531 129.28C301.947 129.696 302.635 129.984 303.435 129.984C304.283 129.984 305.003 129.776 305.643 128.96V130.192C305.643 131.536 305.003 132.608 303.483 132.608C302.571 132.608 302.171 132.336 301.595 131.824L300.843 132.56C301.675 133.312 302.331 133.616 303.515 133.616C305.579 133.616 306.795 132.192 306.795 130.24ZM305.643 126C305.643 127.472 305.403 128.944 303.691 128.944C301.979 128.944 301.723 127.472 301.723 126C301.723 124.528 301.979 123.056 303.691 123.056C305.403 123.056 305.643 124.528 305.643 126ZM47.056 154V148.656C47.056 146.944 46.016 146.032 43.904 146.032C42.624 146.032 41.824 146.288 41.12 147.2L41.904 147.92C42.368 147.264 42.88 147.024 43.888 147.024C45.328 147.024 45.904 147.6 45.904 148.752V149.504H43.536C41.776 149.504 40.816 150.4 40.816 151.776C40.816 152.4 41.024 152.992 41.408 153.376C41.904 153.888 42.544 154.096 43.632 154.096C44.688 154.096 45.264 153.888 45.904 153.248V154H47.056ZM45.904 151.216C45.904 151.872 45.776 152.32 45.504 152.576C45.008 153.056 44.416 153.104 43.744 153.104C42.496 153.104 41.936 152.672 41.936 151.76C41.936 150.848 42.512 150.368 43.696 150.368H45.904V151.216ZM56.0539 154V148.96C56.0539 148.048 55.7979 147.312 55.2379 146.768C54.7579 146.288 54.0699 146.032 53.2219 146.032C52.3419 146.032 51.5739 146.352 51.0139 146.992V146.128H49.8619V154H51.0139V149.152C51.0139 147.776 51.7819 147.056 52.9659 147.056C54.1499 147.056 54.9019 147.76 54.9019 149.152V154H56.0539ZM64.6863 154V142.608H63.5343V147.04C62.8943 146.224 62.1743 146.032 61.3103 146.032C60.5103 146.032 59.8063 146.304 59.3903 146.72C58.5903 147.52 58.4303 148.832 58.4303 150.064C58.4303 151.296 58.5903 152.608 59.3903 153.408C59.8063 153.824 60.5103 154.096 61.3103 154.096C62.1743 154.096 62.9103 153.888 63.5503 153.056V154H64.6863ZM63.5343 150.064C63.5343 151.6 63.2783 153.072 61.5663 153.072C59.8543 153.072 59.5823 151.6 59.5823 150.064C59.5823 148.528 59.8543 147.056 61.5663 147.056C63.2783 147.056 63.5343 148.528 63.5343 150.064ZM72.7814 143.888V142.592H71.4854V143.888H72.7814ZM72.7014 154V146.128H71.5494V154H72.7014ZM81.7883 154V148.96C81.7883 148.048 81.5323 147.312 80.9723 146.768C80.4923 146.288 79.8043 146.032 78.9563 146.032C78.0763 146.032 77.3083 146.352 76.7483 146.992V146.128H75.5963V154H76.7483V149.152C76.7483 147.776 77.5163 147.056 78.7003 147.056C79.8843 147.056 80.6363 147.76 80.6363 149.152V154H81.7883ZM87.6686 147.056V146.176H85.9886V144.72C85.9886 144 86.3086 143.568 87.0446 143.568H87.6686V142.576H86.8366C85.4926 142.576 84.8366 143.52 84.8366 144.688V146.176H83.8286V147.056H84.8366V154H85.9886V147.056H87.6686ZM95.331 150.064C95.331 148.848 95.171 147.744 94.371 146.928C93.827 146.384 93.075 146.032 92.115 146.032C91.155 146.032 90.403 146.384 89.859 146.928C89.059 147.744 88.899 148.848 88.899 150.064C88.899 151.28 89.059 152.384 89.859 153.2C90.403 153.744 91.155 154.096 92.115 154.096C93.075 154.096 93.827 153.744 94.371 153.2C95.171 152.384 95.331 151.28 95.331 150.064ZM94.179 150.064C94.179 150.944 94.131 151.92 93.555 152.496C93.187 152.864 92.675 153.072 92.115 153.072C91.555 153.072 91.059 152.864 90.691 152.496C90.115 151.92 90.051 150.944 90.051 150.064C90.051 149.184 90.115 148.208 90.691 147.632C91.059 147.264 91.555 147.056 92.115 147.056C92.675 147.056 93.187 147.264 93.555 147.632C94.131 148.208 94.179 149.184 94.179 150.064ZM103.047 146.768C102.487 146.208 101.911 146.032 101.159 146.032C100.247 146.032 99.3834 146.432 98.9514 147.088V146.128H97.7994V154H98.9514V149.168C98.9514 147.968 99.6874 147.056 100.839 147.056C101.447 147.056 101.767 147.2 102.199 147.632L103.047 146.768ZM115.798 154V148.96C115.798 148.048 115.51 147.312 114.95 146.768C114.47 146.304 113.766 146.032 112.918 146.032C111.814 146.032 110.934 146.48 110.326 147.344C109.846 146.48 108.998 146.032 107.91 146.032C107.03 146.032 106.246 146.352 105.686 146.992V146.128H104.534V154H105.686V149.152C105.686 147.776 106.47 147.056 107.654 147.056C108.838 147.056 109.59 147.76 109.59 149.152V154H110.742V149.024C110.742 147.776 111.558 147.056 112.71 147.056C113.894 147.056 114.646 147.76 114.646 149.152V154H115.798ZM124.212 154V148.656C124.212 146.944 123.172 146.032 121.06 146.032C119.78 146.032 118.98 146.288 118.276 147.2L119.06 147.92C119.524 147.264 120.036 147.024 121.044 147.024C122.484 147.024 123.06 147.6 123.06 148.752V149.504H120.692C118.932 149.504 117.972 150.4 117.972 151.776C117.972 152.4 118.18 152.992 118.564 153.376C119.06 153.888 119.7 154.096 120.788 154.096C121.844 154.096 122.42 153.888 123.06 153.248V154H124.212ZM123.06 151.216C123.06 151.872 122.932 152.32 122.66 152.576C122.164 153.056 121.572 153.104 120.9 153.104C119.652 153.104 119.092 152.672 119.092 151.76C119.092 150.848 119.668 150.368 120.852 150.368H123.06V151.216ZM130.042 154V153.008H129.434C128.698 153.008 128.362 152.576 128.362 151.856V147.056H130.042V146.176H128.362V143.712H127.21V146.176H126.218V147.056H127.21V151.888C127.21 153.056 127.882 154 129.226 154H130.042ZM133.563 143.888V142.592H132.267V143.888H133.563ZM133.483 154V146.128H132.331V154H133.483ZM141.914 146.128H140.666L138.506 152.448L136.362 146.128H135.114L137.994 154H139.018L141.914 146.128ZM149.41 150.368V149.84C149.41 147.504 148.21 146.032 146.178 146.032C144.178 146.032 142.946 147.52 142.946 150.064C142.946 152.848 144.306 154.096 146.386 154.096C147.73 154.096 148.466 153.68 149.266 152.88L148.482 152.192C147.858 152.816 147.33 153.088 146.418 153.088C144.914 153.088 144.098 152.096 144.098 150.368H149.41ZM148.258 149.504H144.098C144.13 148.864 144.162 148.624 144.338 148.192C144.642 147.472 145.346 147.008 146.178 147.008C147.01 147.008 147.714 147.472 148.018 148.192C148.194 148.624 148.226 148.864 148.258 149.504ZM161.094 146.768C160.534 146.208 159.958 146.032 159.206 146.032C158.294 146.032 157.43 146.432 156.998 147.088V146.128H155.846V154H156.998V149.168C156.998 147.968 157.734 147.056 158.886 147.056C159.494 147.056 159.814 147.2 160.246 147.632L161.094 146.768ZM168.066 150.368V149.84C168.066 147.504 166.866 146.032 164.834 146.032C162.834 146.032 161.602 147.52 161.602 150.064C161.602 152.848 162.962 154.096 165.042 154.096C166.386 154.096 167.122 153.68 167.922 152.88L167.138 152.192C166.514 152.816 165.986 153.088 165.074 153.088C163.57 153.088 162.754 152.096 162.754 150.368H168.066ZM166.914 149.504H162.754C162.786 148.864 162.818 148.624 162.994 148.192C163.298 147.472 164.002 147.008 164.834 147.008C165.666 147.008 166.37 147.472 166.674 148.192C166.85 148.624 166.882 148.864 166.914 149.504ZM176.198 151.696C176.198 150.224 175.254 149.696 173.878 149.568L172.614 149.456C171.622 149.376 171.238 148.976 171.238 148.304C171.238 147.504 171.846 147.008 172.998 147.008C173.814 147.008 174.534 147.2 175.094 147.632L175.846 146.88C175.142 146.304 174.134 146.032 173.014 146.032C171.334 146.032 170.118 146.896 170.118 148.336C170.118 149.632 170.934 150.32 172.47 150.448L173.766 150.56C174.678 150.64 175.078 151.024 175.078 151.712C175.078 152.64 174.278 153.104 172.982 153.104C172.006 153.104 171.158 152.848 170.534 152.192L169.766 152.96C170.63 153.792 171.67 154.096 172.998 154.096C174.902 154.096 176.198 153.216 176.198 151.696ZM184.472 150.064C184.472 148.848 184.312 147.744 183.512 146.928C182.968 146.384 182.216 146.032 181.256 146.032C180.296 146.032 179.544 146.384 179 146.928C178.2 147.744 178.04 148.848 178.04 150.064C178.04 151.28 178.2 152.384 179 153.2C179.544 153.744 180.296 154.096 181.256 154.096C182.216 154.096 182.968 153.744 183.512 153.2C184.312 152.384 184.472 151.28 184.472 150.064ZM183.32 150.064C183.32 150.944 183.272 151.92 182.696 152.496C182.328 152.864 181.816 153.072 181.256 153.072C180.696 153.072 180.2 152.864 179.832 152.496C179.256 151.92 179.192 150.944 179.192 150.064C179.192 149.184 179.256 148.208 179.832 147.632C180.2 147.264 180.696 147.056 181.256 147.056C181.816 147.056 182.328 147.264 182.696 147.632C183.272 148.208 183.32 149.184 183.32 150.064ZM193.052 154V146.128H191.9V150.976C191.9 152.352 191.116 153.072 189.932 153.072C188.748 153.072 188.012 152.368 188.012 150.976V146.128H186.86V151.152C186.86 152.064 187.1 152.816 187.66 153.36C188.14 153.84 188.844 154.096 189.692 154.096C190.572 154.096 191.356 153.76 191.916 153.12V154H193.052ZM201.172 146.768C200.612 146.208 200.036 146.032 199.284 146.032C198.372 146.032 197.508 146.432 197.076 147.088V146.128H195.924V154H197.076V149.168C197.076 147.968 197.812 147.056 198.964 147.056C199.572 147.056 199.892 147.2 200.324 147.632L201.172 146.768ZM207.76 152.928L206.976 152.176C206.384 152.832 205.92 153.072 205.168 153.072C204.4 153.072 203.76 152.768 203.344 152.176C202.976 151.664 202.832 151.056 202.832 150.064C202.832 149.072 202.976 148.464 203.344 147.952C203.76 147.36 204.4 147.056 205.168 147.056C205.92 147.056 206.384 147.28 206.976 147.936L207.76 147.2C206.944 146.32 206.256 146.032 205.168 146.032C203.184 146.032 201.68 147.376 201.68 150.064C201.68 152.752 203.184 154.096 205.168 154.096C206.256 154.096 206.944 153.808 207.76 152.928ZM215.753 150.368V149.84C215.753 147.504 214.553 146.032 212.521 146.032C210.521 146.032 209.289 147.52 209.289 150.064C209.289 152.848 210.649 154.096 212.729 154.096C214.073 154.096 214.809 153.68 215.609 152.88L214.825 152.192C214.201 152.816 213.673 153.088 212.761 153.088C211.257 153.088 210.441 152.096 210.441 150.368H215.753ZM214.601 149.504H210.441C210.473 148.864 210.505 148.624 210.681 148.192C210.985 147.472 211.689 147.008 212.521 147.008C213.353 147.008 214.057 147.472 214.361 148.192C214.537 148.624 214.569 148.864 214.601 149.504ZM223.886 151.696C223.886 150.224 222.942 149.696 221.566 149.568L220.302 149.456C219.31 149.376 218.926 148.976 218.926 148.304C218.926 147.504 219.534 147.008 220.686 147.008C221.502 147.008 222.222 147.2 222.782 147.632L223.534 146.88C222.83 146.304 221.822 146.032 220.702 146.032C219.022 146.032 217.806 146.896 217.806 148.336C217.806 149.632 218.622 150.32 220.158 150.448L221.454 150.56C222.366 150.64 222.766 151.024 222.766 151.712C222.766 152.64 221.966 153.104 220.67 153.104C219.694 153.104 218.846 152.848 218.222 152.192L217.454 152.96C218.318 153.792 219.358 154.096 220.686 154.096C222.59 154.096 223.886 153.216 223.886 151.696ZM233.152 154V153.008H232.544C231.808 153.008 231.472 152.576 231.472 151.856V147.056H233.152V146.176H231.472V143.712H230.32V146.176H229.328V147.056H230.32V151.888C230.32 153.056 230.992 154 232.336 154H233.152ZM241.632 154V148.944C241.632 147.168 240.576 146.032 238.8 146.032C237.92 146.032 237.168 146.336 236.592 146.992V142.608H235.44V154H236.592V149.136C236.592 147.776 237.376 147.056 238.56 147.056C239.744 147.056 240.48 147.76 240.48 149.136V154H241.632ZM250.04 154V148.656C250.04 146.944 249 146.032 246.888 146.032C245.608 146.032 244.808 146.288 244.104 147.2L244.888 147.92C245.352 147.264 245.864 147.024 246.872 147.024C248.312 147.024 248.888 147.6 248.888 148.752V149.504H246.52C244.76 149.504 243.8 150.4 243.8 151.776C243.8 152.4 244.008 152.992 244.392 153.376C244.888 153.888 245.528 154.096 246.616 154.096C247.672 154.096 248.248 153.888 248.888 153.248V154H250.04ZM248.888 151.216C248.888 151.872 248.76 152.32 248.488 152.576C247.992 153.056 247.4 153.104 246.728 153.104C245.48 153.104 244.92 152.672 244.92 151.76C244.92 150.848 245.496 150.368 246.68 150.368H248.888V151.216ZM255.87 154V153.008H255.262C254.526 153.008 254.19 152.576 254.19 151.856V147.056H255.87V146.176H254.19V143.712H253.038V146.176H252.046V147.056H253.038V151.888C253.038 153.056 253.71 154 255.054 154H255.87ZM265.231 147.056V146.176H263.551V144.72C263.551 144 263.871 143.568 264.607 143.568H265.231V142.576H264.399C263.055 142.576 262.399 143.52 262.399 144.688V146.176H261.391V147.056H262.399V154H263.551V147.056H265.231ZM272.894 150.064C272.894 148.848 272.734 147.744 271.934 146.928C271.39 146.384 270.638 146.032 269.678 146.032C268.718 146.032 267.966 146.384 267.422 146.928C266.622 147.744 266.462 148.848 266.462 150.064C266.462 151.28 266.622 152.384 267.422 153.2C267.966 153.744 268.718 154.096 269.678 154.096C270.638 154.096 271.39 153.744 271.934 153.2C272.734 152.384 272.894 151.28 272.894 150.064ZM271.742 150.064C271.742 150.944 271.694 151.92 271.118 152.496C270.75 152.864 270.238 153.072 269.678 153.072C269.118 153.072 268.622 152.864 268.254 152.496C267.678 151.92 267.614 150.944 267.614 150.064C267.614 149.184 267.678 148.208 268.254 147.632C268.622 147.264 269.118 147.056 269.678 147.056C270.238 147.056 270.75 147.264 271.118 147.632C271.694 148.208 271.742 149.184 271.742 150.064ZM281.01 152.928L280.226 152.176C279.634 152.832 279.17 153.072 278.418 153.072C277.65 153.072 277.01 152.768 276.594 152.176C276.226 151.664 276.082 151.056 276.082 150.064C276.082 149.072 276.226 148.464 276.594 147.952C277.01 147.36 277.65 147.056 278.418 147.056C279.17 147.056 279.634 147.28 280.226 147.936L281.01 147.2C280.194 146.32 279.506 146.032 278.418 146.032C276.434 146.032 274.93 147.376 274.93 150.064C274.93 152.752 276.434 154.096 278.418 154.096C279.506 154.096 280.194 153.808 281.01 152.928ZM289.318 154V146.128H288.166V150.976C288.166 152.352 287.382 153.072 286.198 153.072C285.014 153.072 284.278 152.368 284.278 150.976V146.128H283.126V151.152C283.126 152.064 283.366 152.816 283.926 153.36C284.406 153.84 285.11 154.096 285.958 154.096C286.838 154.096 287.622 153.76 288.182 153.12V154H289.318ZM297.87 151.696C297.87 150.224 296.926 149.696 295.55 149.568L294.286 149.456C293.294 149.376 292.91 148.976 292.91 148.304C292.91 147.504 293.518 147.008 294.67 147.008C295.486 147.008 296.206 147.2 296.766 147.632L297.518 146.88C296.814 146.304 295.806 146.032 294.686 146.032C293.006 146.032 291.79 146.896 291.79 148.336C291.79 149.632 292.606 150.32 294.142 150.448L295.438 150.56C296.35 150.64 296.75 151.024 296.75 151.712C296.75 152.64 295.95 153.104 294.654 153.104C293.678 153.104 292.83 152.848 292.206 152.192L291.438 152.96C292.302 153.792 293.342 154.096 294.67 154.096C296.574 154.096 297.87 153.216 297.87 151.696ZM310.128 150.064C310.128 148.848 309.968 147.744 309.168 146.928C308.624 146.384 307.872 146.032 306.912 146.032C305.952 146.032 305.2 146.384 304.656 146.928C303.856 147.744 303.696 148.848 303.696 150.064C303.696 151.28 303.856 152.384 304.656 153.2C305.2 153.744 305.952 154.096 306.912 154.096C307.872 154.096 308.624 153.744 309.168 153.2C309.968 152.384 310.128 151.28 310.128 150.064ZM308.976 150.064C308.976 150.944 308.928 151.92 308.352 152.496C307.984 152.864 307.472 153.072 306.912 153.072C306.352 153.072 305.856 152.864 305.488 152.496C304.912 151.92 304.848 150.944 304.848 150.064C304.848 149.184 304.912 148.208 305.488 147.632C305.856 147.264 306.352 147.056 306.912 147.056C307.472 147.056 307.984 147.264 308.352 147.632C308.928 148.208 308.976 149.184 308.976 150.064ZM318.788 154V148.96C318.788 148.048 318.532 147.312 317.972 146.768C317.492 146.288 316.804 146.032 315.956 146.032C315.076 146.032 314.308 146.352 313.748 146.992V146.128H312.596V154H313.748V149.152C313.748 147.776 314.516 147.056 315.7 147.056C316.884 147.056 317.636 147.76 317.636 149.152V154H318.788ZM47.696 174.064C47.696 172.832 47.536 171.52 46.736 170.72C46.32 170.304 45.616 170.032 44.816 170.032C43.952 170.032 43.232 170.224 42.592 171.056V170.128H41.44V181.52H42.592V177.072C43.232 177.888 43.952 178.096 44.816 178.096C45.616 178.096 46.32 177.824 46.736 177.408C47.536 176.608 47.696 175.296 47.696 174.064ZM46.544 174.064C46.544 175.6 46.288 177.072 44.576 177.072C42.864 177.072 42.592 175.6 42.592 174.064C42.592 172.528 42.864 171.056 44.576 171.056C46.288 171.056 46.544 172.528 46.544 174.064ZM55.4068 170.768C54.8468 170.208 54.2708 170.032 53.5188 170.032C52.6068 170.032 51.7428 170.432 51.3108 171.088V170.128H50.1588V178H51.3108V173.168C51.3108 171.968 52.0468 171.056 53.1988 171.056C53.8068 171.056 54.1268 171.2 54.5588 171.632L55.4068 170.768ZM62.3529 178V172.656C62.3529 170.944 61.3129 170.032 59.2009 170.032C57.9209 170.032 57.1209 170.288 56.4169 171.2L57.2009 171.92C57.6649 171.264 58.1769 171.024 59.1849 171.024C60.6249 171.024 61.2009 171.6 61.2009 172.752V173.504H58.8329C57.0729 173.504 56.1129 174.4 56.1129 175.776C56.1129 176.4 56.3209 176.992 56.7049 177.376C57.2009 177.888 57.8409 178.096 58.9289 178.096C59.9849 178.096 60.5609 177.888 61.2009 177.248V178H62.3529ZM61.2009 175.216C61.2009 175.872 61.0729 176.32 60.8009 176.576C60.3049 177.056 59.7129 177.104 59.0409 177.104C57.7929 177.104 57.2329 176.672 57.2329 175.76C57.2329 174.848 57.8089 174.368 58.9929 174.368H61.2009V175.216ZM70.8068 176.928L70.0228 176.176C69.4308 176.832 68.9668 177.072 68.2148 177.072C67.4468 177.072 66.8068 176.768 66.3908 176.176C66.0228 175.664 65.8788 175.056 65.8788 174.064C65.8788 173.072 66.0228 172.464 66.3908 171.952C66.8068 171.36 67.4468 171.056 68.2148 171.056C68.9668 171.056 69.4308 171.28 70.0228 171.936L70.8068 171.2C69.9908 170.32 69.3028 170.032 68.2148 170.032C66.2308 170.032 64.7268 171.376 64.7268 174.064C64.7268 176.752 66.2308 178.096 68.2148 178.096C69.3028 178.096 69.9908 177.808 70.8068 176.928ZM76.0265 178V177.008H75.4185C74.6825 177.008 74.3465 176.576 74.3465 175.856V171.056H76.0265V170.176H74.3465V167.712H73.1945V170.176H72.2025V171.056H73.1945V175.888C73.1945 177.056 73.8665 178 75.2105 178H76.0265ZM79.547 167.888V166.592H78.251V167.888H79.547ZM79.467 178V170.128H78.315V178H79.467ZM88.0099 176.928L87.2259 176.176C86.6339 176.832 86.1699 177.072 85.4179 177.072C84.6499 177.072 84.0099 176.768 83.5939 176.176C83.2259 175.664 83.0819 175.056 83.0819 174.064C83.0819 173.072 83.2259 172.464 83.5939 171.952C84.0099 171.36 84.6499 171.056 85.4179 171.056C86.1699 171.056 86.6339 171.28 87.2259 171.936L88.0099 171.2C87.1939 170.32 86.5059 170.032 85.4179 170.032C83.4339 170.032 81.9299 171.376 81.9299 174.064C81.9299 176.752 83.4339 178.096 85.4179 178.096C86.5059 178.096 87.1939 177.808 88.0099 176.928ZM95.6341 178V172.656C95.6341 170.944 94.5941 170.032 92.4821 170.032C91.2021 170.032 90.4021 170.288 89.6981 171.2L90.4821 171.92C90.9461 171.264 91.4581 171.024 92.4661 171.024C93.9061 171.024 94.4821 171.6 94.4821 172.752V173.504H92.1141C90.3541 173.504 89.3941 174.4 89.3941 175.776C89.3941 176.4 89.6021 176.992 89.9861 177.376C90.4821 177.888 91.1221 178.096 92.2101 178.096C93.2661 178.096 93.8421 177.888 94.4821 177.248V178H95.6341ZM94.4821 175.216C94.4821 175.872 94.3541 176.32 94.0821 176.576C93.5861 177.056 92.9941 177.104 92.3221 177.104C91.0741 177.104 90.5141 176.672 90.5141 175.76C90.5141 174.848 91.0901 174.368 92.2741 174.368H94.4821V175.216ZM101.24 178V177.008H100.616C99.816 177.008 99.56 176.624 99.56 175.856V166.608H98.408V175.904C98.408 177.104 99.032 178 100.408 178H101.24ZM112.79 178V172.656C112.79 170.944 111.75 170.032 109.638 170.032C108.358 170.032 107.558 170.288 106.854 171.2L107.638 171.92C108.102 171.264 108.614 171.024 109.622 171.024C111.062 171.024 111.638 171.6 111.638 172.752V173.504H109.27C107.51 173.504 106.55 174.4 106.55 175.776C106.55 176.4 106.758 176.992 107.142 177.376C107.638 177.888 108.278 178.096 109.366 178.096C110.422 178.096 110.998 177.888 111.638 177.248V178H112.79ZM111.638 175.216C111.638 175.872 111.51 176.32 111.238 176.576C110.742 177.056 110.15 177.104 109.478 177.104C108.23 177.104 107.67 176.672 107.67 175.76C107.67 174.848 108.246 174.368 109.43 174.368H111.638V175.216ZM121.852 174.064C121.852 172.832 121.692 171.52 120.892 170.72C120.476 170.304 119.772 170.032 118.972 170.032C118.108 170.032 117.388 170.224 116.748 171.056V170.128H115.596V181.52H116.748V177.072C117.388 177.888 118.108 178.096 118.972 178.096C119.772 178.096 120.476 177.824 120.892 177.408C121.692 176.608 121.852 175.296 121.852 174.064ZM120.7 174.064C120.7 175.6 120.444 177.072 118.732 177.072C117.02 177.072 116.748 175.6 116.748 174.064C116.748 172.528 117.02 171.056 118.732 171.056C120.444 171.056 120.7 172.528 120.7 174.064ZM130.571 174.064C130.571 172.832 130.411 171.52 129.611 170.72C129.195 170.304 128.491 170.032 127.691 170.032C126.827 170.032 126.107 170.224 125.467 171.056V170.128H124.315V181.52H125.467V177.072C126.107 177.888 126.827 178.096 127.691 178.096C128.491 178.096 129.195 177.824 129.611 177.408C130.411 176.608 130.571 175.296 130.571 174.064ZM129.419 174.064C129.419 175.6 129.163 177.072 127.451 177.072C125.739 177.072 125.467 175.6 125.467 174.064C125.467 172.528 125.739 171.056 127.451 171.056C129.163 171.056 129.419 172.528 129.419 174.064ZM135.834 178V177.008H135.21C134.41 177.008 134.154 176.624 134.154 175.856V166.608H133.002V175.904C133.002 177.104 133.626 178 135.002 178H135.834ZM139.016 167.888V166.592H137.72V167.888H139.016ZM138.936 178V170.128H137.784V178H138.936ZM147.479 176.928L146.695 176.176C146.103 176.832 145.639 177.072 144.887 177.072C144.119 177.072 143.479 176.768 143.063 176.176C142.695 175.664 142.551 175.056 142.551 174.064C142.551 173.072 142.695 172.464 143.063 171.952C143.479 171.36 144.119 171.056 144.887 171.056C145.639 171.056 146.103 171.28 146.695 171.936L147.479 171.2C146.663 170.32 145.975 170.032 144.887 170.032C142.903 170.032 141.399 171.376 141.399 174.064C141.399 176.752 142.903 178.096 144.887 178.096C145.975 178.096 146.663 177.808 147.479 176.928ZM155.103 178V172.656C155.103 170.944 154.063 170.032 151.951 170.032C150.671 170.032 149.871 170.288 149.167 171.2L149.951 171.92C150.415 171.264 150.927 171.024 151.935 171.024C153.375 171.024 153.951 171.6 153.951 172.752V173.504H151.583C149.823 173.504 148.863 174.4 148.863 175.776C148.863 176.4 149.071 176.992 149.455 177.376C149.951 177.888 150.591 178.096 151.679 178.096C152.735 178.096 153.311 177.888 153.951 177.248V178H155.103ZM153.951 175.216C153.951 175.872 153.823 176.32 153.551 176.576C153.055 177.056 152.463 177.104 151.791 177.104C150.543 177.104 149.983 176.672 149.983 175.76C149.983 174.848 150.559 174.368 151.743 174.368H153.951V175.216ZM160.933 178V177.008H160.325C159.589 177.008 159.253 176.576 159.253 175.856V171.056H160.933V170.176H159.253V167.712H158.101V170.176H157.109V171.056H158.101V175.888C158.101 177.056 158.773 178 160.117 178H160.933ZM164.453 167.888V166.592H163.157V167.888H164.453ZM164.373 178V170.128H163.221V178H164.373ZM173.284 174.064C173.284 172.848 173.124 171.744 172.324 170.928C171.78 170.384 171.028 170.032 170.068 170.032C169.108 170.032 168.356 170.384 167.812 170.928C167.012 171.744 166.852 172.848 166.852 174.064C166.852 175.28 167.012 176.384 167.812 177.2C168.356 177.744 169.108 178.096 170.068 178.096C171.028 178.096 171.78 177.744 172.324 177.2C173.124 176.384 173.284 175.28 173.284 174.064ZM172.132 174.064C172.132 174.944 172.084 175.92 171.508 176.496C171.14 176.864 170.628 177.072 170.068 177.072C169.508 177.072 169.012 176.864 168.644 176.496C168.068 175.92 168.004 174.944 168.004 174.064C168.004 173.184 168.068 172.208 168.644 171.632C169.012 171.264 169.508 171.056 170.068 171.056C170.628 171.056 171.14 171.264 171.508 171.632C172.084 172.208 172.132 173.184 172.132 174.064ZM181.945 178V172.96C181.945 172.048 181.689 171.312 181.129 170.768C180.649 170.288 179.961 170.032 179.113 170.032C178.233 170.032 177.465 170.352 176.905 170.992V170.128H175.753V178H176.905V173.152C176.905 171.776 177.673 171.056 178.857 171.056C180.041 171.056 180.793 171.76 180.793 173.152V178H181.945ZM194.337 178V172.656C194.337 170.944 193.297 170.032 191.185 170.032C189.905 170.032 189.105 170.288 188.401 171.2L189.185 171.92C189.649 171.264 190.161 171.024 191.169 171.024C192.609 171.024 193.185 171.6 193.185 172.752V173.504H190.817C189.057 173.504 188.097 174.4 188.097 175.776C188.097 176.4 188.305 176.992 188.689 177.376C189.185 177.888 189.825 178.096 190.913 178.096C191.969 178.096 192.545 177.888 193.185 177.248V178H194.337ZM193.185 175.216C193.185 175.872 193.057 176.32 192.785 176.576C192.289 177.056 191.697 177.104 191.025 177.104C189.777 177.104 189.217 176.672 189.217 175.76C189.217 174.848 189.793 174.368 190.977 174.368H193.185V175.216ZM203.335 178V172.96C203.335 172.048 203.079 171.312 202.519 170.768C202.039 170.288 201.351 170.032 200.503 170.032C199.623 170.032 198.855 170.352 198.295 170.992V170.128H197.143V178H198.295V173.152C198.295 171.776 199.063 171.056 200.247 171.056C201.431 171.056 202.183 171.76 202.183 173.152V178H203.335ZM211.968 178V166.608H210.816V171.04C210.176 170.224 209.456 170.032 208.592 170.032C207.792 170.032 207.088 170.304 206.672 170.72C205.872 171.52 205.712 172.832 205.712 174.064C205.712 175.296 205.872 176.608 206.672 177.408C207.088 177.824 207.792 178.096 208.592 178.096C209.456 178.096 210.192 177.888 210.832 177.056V178H211.968ZM210.816 174.064C210.816 175.6 210.56 177.072 208.848 177.072C207.136 177.072 206.864 175.6 206.864 174.064C206.864 172.528 207.136 171.056 208.848 171.056C210.56 171.056 210.816 172.528 210.816 174.064ZM224.079 170.768C223.519 170.208 222.943 170.032 222.191 170.032C221.279 170.032 220.415 170.432 219.983 171.088V170.128H218.831V178H219.983V173.168C219.983 171.968 220.719 171.056 221.871 171.056C222.479 171.056 222.799 171.2 223.231 171.632L224.079 170.768ZM231.05 174.368V173.84C231.05 171.504 229.85 170.032 227.818 170.032C225.818 170.032 224.586 171.52 224.586 174.064C224.586 176.848 225.946 178.096 228.026 178.096C229.37 178.096 230.106 177.68 230.906 176.88L230.122 176.192C229.498 176.816 228.97 177.088 228.058 177.088C226.554 177.088 225.738 176.096 225.738 174.368H231.05ZM229.898 173.504H225.738C225.77 172.864 225.802 172.624 225.978 172.192C226.282 171.472 226.986 171.008 227.818 171.008C228.65 171.008 229.354 171.472 229.658 172.192C229.834 172.624 229.866 172.864 229.898 173.504ZM239.119 178V172.656C239.119 170.944 238.079 170.032 235.967 170.032C234.687 170.032 233.887 170.288 233.183 171.2L233.967 171.92C234.431 171.264 234.943 171.024 235.951 171.024C237.391 171.024 237.967 171.6 237.967 172.752V173.504H235.599C233.839 173.504 232.879 174.4 232.879 175.776C232.879 176.4 233.087 176.992 233.471 177.376C233.967 177.888 234.607 178.096 235.695 178.096C236.751 178.096 237.327 177.888 237.967 177.248V178H239.119ZM237.967 175.216C237.967 175.872 237.839 176.32 237.567 176.576C237.071 177.056 236.479 177.104 235.807 177.104C234.559 177.104 233.999 176.672 233.999 175.76C233.999 174.848 234.575 174.368 235.759 174.368H237.967V175.216ZM244.724 178V177.008H244.1C243.3 177.008 243.044 176.624 243.044 175.856V166.608H241.892V175.904C241.892 177.104 242.516 178 243.892 178H244.724ZM250.834 174.224V173.152H246.45V174.224H250.834ZM263.455 170.128H262.207L260.415 176.448L258.335 170.128H257.343L255.279 176.448L253.471 170.128H252.223L254.719 178H255.791L257.839 171.888L259.903 178H260.975L263.455 170.128ZM271.003 174.064C271.003 172.848 270.843 171.744 270.043 170.928C269.499 170.384 268.747 170.032 267.787 170.032C266.827 170.032 266.075 170.384 265.531 170.928C264.731 171.744 264.571 172.848 264.571 174.064C264.571 175.28 264.731 176.384 265.531 177.2C266.075 177.744 266.827 178.096 267.787 178.096C268.747 178.096 269.499 177.744 270.043 177.2C270.843 176.384 271.003 175.28 271.003 174.064ZM269.851 174.064C269.851 174.944 269.803 175.92 269.227 176.496C268.859 176.864 268.347 177.072 267.787 177.072C267.227 177.072 266.731 176.864 266.363 176.496C265.787 175.92 265.723 174.944 265.723 174.064C265.723 173.184 265.787 172.208 266.363 171.632C266.731 171.264 267.227 171.056 267.787 171.056C268.347 171.056 268.859 171.264 269.227 171.632C269.803 172.208 269.851 173.184 269.851 174.064ZM278.719 170.768C278.159 170.208 277.583 170.032 276.831 170.032C275.919 170.032 275.055 170.432 274.623 171.088V170.128H273.471V178H274.623V173.168C274.623 171.968 275.359 171.056 276.511 171.056C277.119 171.056 277.439 171.2 277.871 171.632L278.719 170.768ZM283.006 178V177.008H282.382C281.582 177.008 281.326 176.624 281.326 175.856V166.608H280.174V175.904C280.174 177.104 280.798 178 282.174 178H283.006ZM290.796 178V166.608H289.644V171.04C289.004 170.224 288.284 170.032 287.42 170.032C286.62 170.032 285.916 170.304 285.5 170.72C284.7 171.52 284.54 172.832 284.54 174.064C284.54 175.296 284.7 176.608 285.5 177.408C285.916 177.824 286.62 178.096 287.42 178.096C288.284 178.096 289.02 177.888 289.66 177.056V178H290.796ZM289.644 174.064C289.644 175.6 289.388 177.072 287.676 177.072C285.964 177.072 285.692 175.6 285.692 174.064C285.692 172.528 285.964 171.056 287.676 171.056C289.388 171.056 289.644 172.528 289.644 174.064ZM46.688 194.768C46.128 194.208 45.552 194.032 44.8 194.032C43.888 194.032 43.024 194.432 42.592 195.088V194.128H41.44V202H42.592V197.168C42.592 195.968 43.328 195.056 44.48 195.056C45.088 195.056 45.408 195.2 45.84 195.632L46.688 194.768ZM53.6595 198.368V197.84C53.6595 195.504 52.4595 194.032 50.4275 194.032C48.4275 194.032 47.1955 195.52 47.1955 198.064C47.1955 200.848 48.5555 202.096 50.6355 202.096C51.9795 202.096 52.7155 201.68 53.5155 200.88L52.7315 200.192C52.1075 200.816 51.5795 201.088 50.6675 201.088C49.1635 201.088 48.3475 200.096 48.3475 198.368H53.6595ZM52.5075 197.504H48.3475C48.3795 196.864 48.4115 196.624 48.5875 196.192C48.8915 195.472 49.5955 195.008 50.4275 195.008C51.2595 195.008 51.9635 195.472 52.2675 196.192C52.4435 196.624 52.4755 196.864 52.5075 197.504ZM58.9119 202V201.008H58.2879C57.4879 201.008 57.2319 200.624 57.2319 199.856V190.608H56.0799V199.904C56.0799 201.104 56.7039 202 58.0799 202H58.9119ZM66.4876 198.368V197.84C66.4876 195.504 65.2876 194.032 63.2556 194.032C61.2556 194.032 60.0236 195.52 60.0236 198.064C60.0236 200.848 61.3836 202.096 63.4636 202.096C64.8076 202.096 65.5436 201.68 66.3436 200.88L65.5596 200.192C64.9356 200.816 64.4076 201.088 63.4956 201.088C61.9916 201.088 61.1756 200.096 61.1756 198.368H66.4876ZM65.3356 197.504H61.1756C61.2076 196.864 61.2396 196.624 61.4156 196.192C61.7196 195.472 62.4236 195.008 63.2556 195.008C64.0876 195.008 64.7916 195.472 65.0956 196.192C65.2716 196.624 65.3036 196.864 65.3356 197.504ZM74.3198 194.128H73.0718L70.9118 200.448L68.7678 194.128H67.5198L70.3998 202H71.4238L74.3198 194.128ZM81.3998 202V196.656C81.3998 194.944 80.3598 194.032 78.2478 194.032C76.9678 194.032 76.1678 194.288 75.4638 195.2L76.2478 195.92C76.7118 195.264 77.2238 195.024 78.2318 195.024C79.6718 195.024 80.2478 195.6 80.2478 196.752V197.504H77.8798C76.1198 197.504 75.1598 198.4 75.1598 199.776C75.1598 200.4 75.3678 200.992 75.7518 201.376C76.2478 201.888 76.8878 202.096 77.9758 202.096C79.0318 202.096 79.6078 201.888 80.2478 201.248V202H81.3998ZM80.2478 199.216C80.2478 199.872 80.1198 200.32 79.8478 200.576C79.3518 201.056 78.7598 201.104 78.0878 201.104C76.8398 201.104 76.2798 200.672 76.2798 199.76C76.2798 198.848 76.8558 198.368 78.0398 198.368H80.2478V199.216ZM90.3976 202V196.96C90.3976 196.048 90.1416 195.312 89.5816 194.768C89.1016 194.288 88.4136 194.032 87.5656 194.032C86.6856 194.032 85.9176 194.352 85.3576 194.992V194.128H84.2056V202H85.3576V197.152C85.3576 195.776 86.1256 195.056 87.3096 195.056C88.4936 195.056 89.2456 195.76 89.2456 197.152V202H90.3976ZM98.838 200.928L98.054 200.176C97.462 200.832 96.998 201.072 96.246 201.072C95.478 201.072 94.838 200.768 94.422 200.176C94.054 199.664 93.91 199.056 93.91 198.064C93.91 197.072 94.054 196.464 94.422 195.952C94.838 195.36 95.478 195.056 96.246 195.056C96.998 195.056 97.462 195.28 98.054 195.936L98.838 195.2C98.022 194.32 97.334 194.032 96.246 194.032C94.262 194.032 92.758 195.376 92.758 198.064C92.758 200.752 94.262 202.096 96.246 202.096C97.334 202.096 98.022 201.808 98.838 200.928ZM106.831 198.368V197.84C106.831 195.504 105.631 194.032 103.599 194.032C101.599 194.032 100.367 195.52 100.367 198.064C100.367 200.848 101.727 202.096 103.807 202.096C105.151 202.096 105.887 201.68 106.687 200.88L105.903 200.192C105.279 200.816 104.751 201.088 103.839 201.088C102.335 201.088 101.519 200.096 101.519 198.368H106.831ZM105.679 197.504H101.519C101.551 196.864 101.583 196.624 101.759 196.192C102.063 195.472 102.767 195.008 103.599 195.008C104.431 195.008 105.135 195.472 105.439 196.192C105.615 196.624 105.647 196.864 105.679 197.504ZM110.756 202V200.496H109.252V202H110.756Z" fill="#B887DE"/>
</svg>
