<svg width="137" height="273" viewBox="0 0 137 273" fill="none" xmlns="http://www.w3.org/2000/svg">
<circle cx="4.62097" cy="117.693" r="6.00476" fill="#FFB7D5"/>
<circle cx="4.62097" cy="154.923" r="6.00476" fill="#FFB7D5"/>
<circle cx="38.2477" cy="43.2343" r="6.00476" fill="#FFB7D5"/>
<circle cx="38.2477" cy="80.4638" r="6.00476" fill="#FFB7D5"/>
<circle cx="38.2477" cy="117.693" r="6.00476" fill="#FFB7D5"/>
<circle cx="38.2477" cy="154.923" r="6.00476" fill="#FFB7D5"/>
<circle cx="38.2477" cy="192.152" r="6.00476" fill="#FFB7D5"/>
<circle cx="38.2477" cy="229.382" r="6.00476" fill="#FFB7D5"/>
<circle cx="71.8743" cy="43.2343" r="6.00476" fill="#FFB7D5"/>
<circle cx="71.8743" cy="80.4638" r="6.00476" fill="#FFB7D5"/>
<circle cx="71.8743" cy="117.693" r="6.00476" fill="#FFB7D5"/>
<circle cx="71.8743" cy="154.923" r="6.00476" fill="#FFB7D5"/>
<circle cx="71.8743" cy="192.152" r="6.00476" fill="#FFB7D5"/>
<circle cx="71.8743" cy="229.382" r="6.00476" fill="#FFB7D5"/>
<circle cx="105.501" cy="6.00476" r="6.00476" fill="#FFB7D5"/>
<circle cx="105.501" cy="43.2343" r="6.00476" fill="#FFB7D5"/>
<circle cx="105.501" cy="80.4638" r="6.00476" fill="#FFB7D5"/>
<circle cx="105.501" cy="117.693" r="6.00476" fill="#FFB7D5"/>
<circle cx="105.501" cy="154.923" r="6.00476" fill="#FFB7D5"/>
<circle cx="105.501" cy="192.152" r="6.00476" fill="#FFB7D5"/>
<circle cx="105.501" cy="229.382" r="6.00476" fill="#FFB7D5"/>
<circle cx="105.501" cy="266.611" r="6.00476" fill="#FFB7D5"/>
<circle cx="139.128" cy="6.00476" r="6.00476" fill="#FFB7D5"/>
<circle cx="139.128" cy="43.2343" r="6.00476" fill="#FFB7D5"/>
<circle cx="139.128" cy="80.4638" r="6.00476" fill="#FFB7D5"/>
<circle cx="139.128" cy="117.693" r="6.00476" fill="#FFB7D5"/>
<circle cx="139.128" cy="154.923" r="6.00476" fill="#FFB7D5"/>
<circle cx="139.128" cy="192.152" r="6.00476" fill="#FFB7D5"/>
<circle cx="139.128" cy="229.382" r="6.00476" fill="#FFB7D5"/>
<circle cx="139.128" cy="266.611" r="6.00476" fill="#FFB7D5"/>
</svg>
