<svg width="139" height="273" viewBox="0 0 139 273" fill="none" xmlns="http://www.w3.org/2000/svg">
<circle cx="-1.87244" cy="6.00476" r="6.00476" fill="#9AA3F2"/>
<circle cx="-1.87244" cy="43.2343" r="6.00476" fill="#9AA3F2"/>
<circle cx="-1.87244" cy="80.4638" r="6.00476" fill="#9AA3F2"/>
<circle cx="-1.87244" cy="117.693" r="6.00476" fill="#9AA3F2"/>
<circle cx="-1.87244" cy="154.923" r="6.00476" fill="#9AA3F2"/>
<circle cx="-1.87244" cy="192.152" r="6.00476" fill="#9AA3F2"/>
<circle cx="-1.87244" cy="229.382" r="6.00476" fill="#9AA3F2"/>
<circle cx="-1.87244" cy="266.611" r="6.00476" fill="#9AA3F2"/>
<circle cx="31.7543" cy="6.00476" r="6.00476" fill="#9AA3F2"/>
<circle cx="31.7543" cy="43.2343" r="6.00476" fill="#9AA3F2"/>
<circle cx="31.7543" cy="80.4638" r="6.00476" fill="#9AA3F2"/>
<circle cx="31.7543" cy="117.693" r="6.00476" fill="#9AA3F2"/>
<circle cx="31.7543" cy="154.923" r="6.00476" fill="#9AA3F2"/>
<circle cx="31.7543" cy="192.152" r="6.00476" fill="#9AA3F2"/>
<circle cx="31.7543" cy="229.382" r="6.00476" fill="#9AA3F2"/>
<circle cx="31.7543" cy="266.611" r="6.00476" fill="#9AA3F2"/>
<circle cx="65.381" cy="43.2343" r="6.00476" fill="#9AA3F2"/>
<circle cx="65.381" cy="80.4638" r="6.00476" fill="#9AA3F2"/>
<circle cx="65.381" cy="117.693" r="6.00476" fill="#9AA3F2"/>
<circle cx="65.381" cy="154.923" r="6.00476" fill="#9AA3F2"/>
<circle cx="65.381" cy="192.152" r="6.00476" fill="#9AA3F2"/>
<circle cx="65.381" cy="229.382" r="6.00476" fill="#9AA3F2"/>
<circle cx="99.0074" cy="43.2343" r="6.00476" fill="#9AA3F2"/>
<circle cx="99.0074" cy="80.4638" r="6.00476" fill="#9AA3F2"/>
<circle cx="99.0074" cy="117.693" r="6.00476" fill="#9AA3F2"/>
<circle cx="99.0074" cy="154.923" r="6.00476" fill="#9AA3F2"/>
<circle cx="99.0074" cy="192.152" r="6.00476" fill="#9AA3F2"/>
<circle cx="99.0074" cy="229.382" r="6.00476" fill="#9AA3F2"/>
<circle cx="132.634" cy="117.693" r="6.00476" fill="#9AA3F2"/>
<circle cx="132.634" cy="154.923" r="6.00476" fill="#9AA3F2"/>
</svg>
