<svg width="393" height="313" viewBox="0 0 393 313" fill="none" xmlns="http://www.w3.org/2000/svg">
    <path d="M0.5 35C0.5 15.9462 15.9462 0.5 35 0.5H261C280.054 0.5 295.5 15.9462 295.5 35C295.5 54.0538 280.054 69.5 261 69.5H35C15.9462 69.5 0.5 54.0538 0.5 35Z" stroke="#CA7358"/>
    <path d="M0 85C0 54.072 25.0721 29 56 29H313C343.928 29 369 54.0721 369 85V257C369 287.928 343.928 313 313 313H56C25.0721 313 0 287.928 0 257V85Z" fill="#CA7358" fill-opacity="0.1"/>
    <path d="M58.118 53.54C58.118 51.902 57.676 50.55 56.688 49.614C55.908 48.886 54.842 48.418 53.152 48.184L50.968 47.872C50.214 47.768 49.616 47.482 49.252 47.144C48.862 46.78 48.706 46.286 48.706 45.818C48.706 44.544 49.642 43.478 51.566 43.478C52.788 43.478 54.192 43.634 55.362 44.752L57.65 42.49C56.064 40.956 54.218 40.332 51.67 40.332C47.666 40.332 45.222 42.646 45.222 45.948C45.222 47.508 45.664 48.704 46.548 49.588C47.38 50.394 48.55 50.888 50.136 51.122L52.372 51.434C53.23 51.564 53.646 51.746 54.01 52.084C54.4 52.448 54.582 52.994 54.582 53.644C54.582 55.126 53.438 55.932 51.306 55.932C49.59 55.932 48.004 55.542 46.834 54.372L44.494 56.712C46.314 58.558 48.446 59.156 51.254 59.156C55.128 59.156 58.118 57.128 58.118 53.54ZM67.3433 59V56.14H66.1213C65.3153 56.14 64.9513 55.698 64.9513 54.918V48.418H67.3433V45.844H64.9513V41.84H61.5713V45.844H60.1413V48.418H61.5713V55.126C61.5713 57.05 62.7413 59 65.4973 59H67.3433ZM81.502 59V45.454H78.122V53.644C78.122 55.49 76.926 56.114 75.86 56.114C74.794 56.114 73.624 55.49 73.624 53.644V45.454H70.244V54.112C70.244 55.594 70.53 56.868 71.622 57.96C72.376 58.714 73.468 59.156 74.82 59.156C76.068 59.156 77.316 58.688 78.2 57.752V59H81.502ZM96.0943 59V40.488H92.7143V46.65C91.8303 45.662 90.7903 45.298 89.4123 45.298C88.0863 45.298 86.8643 45.766 86.1103 46.52C84.7583 47.872 84.7323 50.186 84.7323 52.214C84.7323 54.242 84.7583 56.582 86.1103 57.934C86.8643 58.688 88.1123 59.156 89.4383 59.156C90.8683 59.156 91.8563 58.766 92.7923 57.726V59H96.0943ZM92.7143 52.214C92.7143 54.424 92.4283 56.114 90.4003 56.114C88.3723 56.114 88.1123 54.424 88.1123 52.214C88.1123 50.004 88.3723 48.34 90.4003 48.34C92.4283 48.34 92.7143 50.004 92.7143 52.214ZM110.72 45.454H107.158L104.454 53.826L101.646 45.454H98.0845L102.712 58.038L102.14 59.702C101.802 60.69 101.412 60.924 100.45 60.924H99.6705V63.966H100.996C102.114 63.966 103.128 63.706 103.908 62.926C104.324 62.51 104.636 61.938 104.922 61.184L110.72 45.454ZM130.105 52.214C130.105 50.186 130.079 47.872 128.727 46.52C127.973 45.766 126.751 45.298 125.425 45.298C123.995 45.298 122.981 45.688 122.045 46.728V45.454H118.769V63.966H122.149V57.804C123.033 58.792 124.047 59.156 125.425 59.156C126.751 59.156 127.973 58.688 128.727 57.934C130.079 56.582 130.105 54.242 130.105 52.214ZM126.725 52.214C126.725 54.424 126.465 56.114 124.437 56.114C122.409 56.114 122.149 54.424 122.149 52.214C122.149 50.004 122.409 48.34 124.437 48.34C126.465 48.34 126.725 50.004 126.725 52.214ZM139.064 59V56.14H137.764C136.906 56.14 136.568 55.724 136.568 54.918V40.488H133.188V55.126C133.188 57.05 134.358 59 137.14 59H139.064ZM152.017 59V50.082C152.017 46.91 150.041 45.298 146.245 45.298C143.983 45.298 142.683 45.714 141.357 47.17L143.515 49.276C144.217 48.47 144.815 48.158 146.115 48.158C147.909 48.158 148.637 48.808 148.637 50.29V50.966H145.439C142.293 50.966 140.811 52.734 140.811 54.892C140.811 56.088 141.201 57.18 141.929 57.934C142.735 58.74 143.853 59.13 145.387 59.13C146.947 59.13 147.805 58.74 148.715 57.83V59H152.017ZM148.637 54.008C148.637 54.84 148.507 55.386 148.143 55.724C147.545 56.296 146.947 56.374 146.011 56.374C144.685 56.374 144.061 55.75 144.061 54.814C144.061 53.852 144.737 53.28 145.959 53.28H148.637V54.008ZM166.92 59V50.342C166.92 48.86 166.634 47.586 165.542 46.494C164.788 45.74 163.696 45.298 162.344 45.298C161.096 45.298 159.848 45.766 158.964 46.702V45.454H155.662V59H159.042V50.81C159.042 48.964 160.238 48.34 161.304 48.34C162.37 48.34 163.54 48.964 163.54 50.81V59H166.92ZM181.824 59V50.342C181.824 48.86 181.538 47.586 180.446 46.494C179.692 45.74 178.6 45.298 177.248 45.298C176 45.298 174.752 45.766 173.868 46.702V45.454H170.566V59H173.946V50.81C173.946 48.964 175.142 48.34 176.208 48.34C177.274 48.34 178.444 48.964 178.444 50.81V59H181.824ZM196.598 53.28V51.772C196.598 48.054 194.466 45.298 190.696 45.298C187.186 45.298 184.794 47.794 184.794 52.214C184.794 57.7 187.862 59.156 191.06 59.156C193.504 59.156 194.83 58.402 196.208 57.024L194.154 55.022C193.296 55.88 192.568 56.296 191.086 56.296C189.188 56.296 188.122 55.022 188.122 53.28H196.598ZM193.27 50.966H188.122C188.148 50.368 188.226 50.004 188.434 49.51C188.798 48.704 189.552 48.106 190.696 48.106C191.84 48.106 192.594 48.704 192.958 49.51C193.166 50.004 193.244 50.368 193.27 50.966ZM209.62 46.572C208.684 45.636 207.748 45.298 206.422 45.298C204.966 45.298 203.666 45.974 203.016 46.754V45.454H199.714V59H203.094V50.836C203.094 49.12 204.238 48.34 205.278 48.34C206.11 48.34 206.552 48.626 207.072 49.146L209.62 46.572Z" fill="#CA7358"/>
    <path d="M48.512 126.864C48.512 125.92 48.176 125.136 47.552 124.608C47.072 124.192 46.544 123.968 45.472 123.808L44.224 123.616C43.632 123.52 43.04 123.296 42.688 122.992C42.336 122.688 42.176 122.24 42.176 121.68C42.176 120.416 43.056 119.568 44.576 119.568C45.776 119.568 46.528 119.904 47.232 120.544L48.016 119.76C47.04 118.88 46.08 118.512 44.624 118.512C42.368 118.512 40.976 119.792 40.976 121.728C40.976 122.64 41.264 123.344 41.84 123.856C42.336 124.288 43.04 124.576 43.936 124.72L45.264 124.928C46.096 125.056 46.384 125.152 46.752 125.472C47.12 125.792 47.296 126.304 47.296 126.896C47.296 128.224 46.272 129.008 44.608 129.008C43.328 129.008 42.448 128.704 41.504 127.76L40.672 128.592C41.744 129.664 42.864 130.096 44.576 130.096C46.944 130.096 48.512 128.864 48.512 126.864ZM53.8703 130V129.008H53.2623C52.5263 129.008 52.1903 128.576 52.1903 127.856V123.056H53.8703V122.176H52.1903V119.712H51.0383V122.176H50.0463V123.056H51.0383V127.888C51.0383 129.056 51.7103 130 53.0543 130H53.8703ZM61.4068 122.768C60.8468 122.208 60.2708 122.032 59.5188 122.032C58.6068 122.032 57.7428 122.432 57.3108 123.088V122.128H56.1588V130H57.3108V125.168C57.3108 123.968 58.0468 123.056 59.1988 123.056C59.8068 123.056 60.1268 123.2 60.5588 123.632L61.4068 122.768ZM68.3783 126.368V125.84C68.3783 123.504 67.1783 122.032 65.1463 122.032C63.1463 122.032 61.9143 123.52 61.9143 126.064C61.9143 128.848 63.2743 130.096 65.3543 130.096C66.6983 130.096 67.4343 129.68 68.2343 128.88L67.4503 128.192C66.8263 128.816 66.2983 129.088 65.3863 129.088C63.8823 129.088 63.0663 128.096 63.0663 126.368H68.3783ZM67.2263 125.504H63.0663C63.0983 124.864 63.1303 124.624 63.3063 124.192C63.6103 123.472 64.3143 123.008 65.1463 123.008C65.9783 123.008 66.6823 123.472 66.9863 124.192C67.1623 124.624 67.1943 124.864 67.2263 125.504ZM76.4466 130V124.656C76.4466 122.944 75.4066 122.032 73.2946 122.032C72.0146 122.032 71.2146 122.288 70.5106 123.2L71.2946 123.92C71.7586 123.264 72.2706 123.024 73.2786 123.024C74.7186 123.024 75.2946 123.6 75.2946 124.752V125.504H72.9266C71.1666 125.504 70.2066 126.4 70.2066 127.776C70.2066 128.4 70.4146 128.992 70.7986 129.376C71.2946 129.888 71.9346 130.096 73.0226 130.096C74.0786 130.096 74.6546 129.888 75.2946 129.248V130H76.4466ZM75.2946 127.216C75.2946 127.872 75.1666 128.32 74.8946 128.576C74.3986 129.056 73.8066 129.104 73.1346 129.104C71.8866 129.104 71.3266 128.672 71.3266 127.76C71.3266 126.848 71.9026 126.368 73.0866 126.368H75.2946V127.216ZM90.5165 130V124.96C90.5165 124.048 90.2285 123.312 89.6685 122.768C89.1885 122.304 88.4845 122.032 87.6365 122.032C86.5325 122.032 85.6525 122.48 85.0445 123.344C84.5645 122.48 83.7165 122.032 82.6285 122.032C81.7485 122.032 80.9645 122.352 80.4045 122.992V122.128H79.2525V130H80.4045V125.152C80.4045 123.776 81.1885 123.056 82.3725 123.056C83.5565 123.056 84.3085 123.76 84.3085 125.152V130H85.4605V125.024C85.4605 123.776 86.2765 123.056 87.4285 123.056C88.6125 123.056 89.3645 123.76 89.3645 125.152V130H90.5165ZM96.115 130V129.008H95.491C94.691 129.008 94.435 128.624 94.435 127.856V118.608H93.283V127.904C93.283 129.104 93.907 130 95.283 130H96.115ZM99.297 119.888V118.592H98.001V119.888H99.297ZM99.217 130V122.128H98.065V130H99.217ZM108.304 130V124.96C108.304 124.048 108.048 123.312 107.488 122.768C107.008 122.288 106.32 122.032 105.472 122.032C104.592 122.032 103.824 122.352 103.264 122.992V122.128H102.112V130H103.264V125.152C103.264 123.776 104.032 123.056 105.216 123.056C106.4 123.056 107.152 123.76 107.152 125.152V130H108.304ZM117.128 126.368V125.84C117.128 123.504 115.928 122.032 113.896 122.032C111.896 122.032 110.664 123.52 110.664 126.064C110.664 128.848 112.024 130.096 114.104 130.096C115.448 130.096 116.184 129.68 116.984 128.88L116.2 128.192C115.576 128.816 115.048 129.088 114.136 129.088C112.632 129.088 111.816 128.096 111.816 126.368H117.128ZM115.976 125.504H111.816C111.848 124.864 111.88 124.624 112.056 124.192C112.36 123.472 113.064 123.008 113.896 123.008C114.728 123.008 115.432 123.472 115.736 124.192C115.912 124.624 115.944 124.864 115.976 125.504ZM129.101 122.128H127.853L125.709 128.448L123.549 122.128H122.301L125.133 129.84L124.573 131.376C124.317 132.096 124.077 132.352 123.277 132.352H122.925V133.376H123.421C123.981 133.376 124.541 133.232 124.957 132.832C125.181 132.624 125.357 132.336 125.517 131.904L129.101 122.128ZM136.581 126.064C136.581 124.848 136.421 123.744 135.621 122.928C135.077 122.384 134.325 122.032 133.365 122.032C132.405 122.032 131.653 122.384 131.109 122.928C130.309 123.744 130.149 124.848 130.149 126.064C130.149 127.28 130.309 128.384 131.109 129.2C131.653 129.744 132.405 130.096 133.365 130.096C134.325 130.096 135.077 129.744 135.621 129.2C136.421 128.384 136.581 127.28 136.581 126.064ZM135.429 126.064C135.429 126.944 135.381 127.92 134.805 128.496C134.437 128.864 133.925 129.072 133.365 129.072C132.805 129.072 132.309 128.864 131.941 128.496C131.365 127.92 131.301 126.944 131.301 126.064C131.301 125.184 131.365 124.208 131.941 123.632C132.309 123.264 132.805 123.056 133.365 123.056C133.925 123.056 134.437 123.264 134.805 123.632C135.381 124.208 135.429 125.184 135.429 126.064ZM145.161 130V122.128H144.009V126.976C144.009 128.352 143.225 129.072 142.041 129.072C140.857 129.072 140.121 128.368 140.121 126.976V122.128H138.969V127.152C138.969 128.064 139.209 128.816 139.769 129.36C140.249 129.84 140.953 130.096 141.801 130.096C142.681 130.096 143.465 129.76 144.025 129.12V130H145.161ZM153.282 122.768C152.722 122.208 152.146 122.032 151.394 122.032C150.482 122.032 149.618 122.432 149.186 123.088V122.128H148.034V130H149.186V125.168C149.186 123.968 149.922 123.056 151.074 123.056C151.682 123.056 152.002 123.2 152.434 123.632L153.282 122.768ZM164.433 127.696C164.433 126.224 163.489 125.696 162.113 125.568L160.849 125.456C159.857 125.376 159.473 124.976 159.473 124.304C159.473 123.504 160.081 123.008 161.233 123.008C162.049 123.008 162.769 123.2 163.329 123.632L164.081 122.88C163.377 122.304 162.369 122.032 161.249 122.032C159.569 122.032 158.353 122.896 158.353 124.336C158.353 125.632 159.169 126.32 160.705 126.448L162.001 126.56C162.913 126.64 163.313 127.024 163.313 127.712C163.313 128.64 162.513 129.104 161.217 129.104C160.241 129.104 159.393 128.848 158.769 128.192L158.001 128.96C158.865 129.792 159.905 130.096 161.233 130.096C163.137 130.096 164.433 129.216 164.433 127.696ZM169.558 130V129.008H168.95C168.214 129.008 167.878 128.576 167.878 127.856V123.056H169.558V122.176H167.878V119.712H166.726V122.176H165.734V123.056H166.726V127.888C166.726 129.056 167.398 130 168.742 130H169.558ZM177.958 130V122.128H176.806V126.976C176.806 128.352 176.022 129.072 174.838 129.072C173.654 129.072 172.918 128.368 172.918 126.976V122.128H171.766V127.152C171.766 128.064 172.006 128.816 172.566 129.36C173.046 129.84 173.75 130.096 174.598 130.096C175.478 130.096 176.262 129.76 176.822 129.12V130H177.958ZM186.671 130V118.608H185.519V123.04C184.879 122.224 184.159 122.032 183.295 122.032C182.495 122.032 181.791 122.304 181.375 122.72C180.575 123.52 180.415 124.832 180.415 126.064C180.415 127.296 180.575 128.608 181.375 129.408C181.791 129.824 182.495 130.096 183.295 130.096C184.159 130.096 184.895 129.888 185.535 129.056V130H186.671ZM185.519 126.064C185.519 127.6 185.263 129.072 183.551 129.072C181.839 129.072 181.567 127.6 181.567 126.064C181.567 124.528 181.839 123.056 183.551 123.056C185.263 123.056 185.519 124.528 185.519 126.064ZM195.085 122.128H193.837L191.693 128.448L189.533 122.128H188.285L191.117 129.84L190.557 131.376C190.301 132.096 190.061 132.352 189.261 132.352H188.909V133.376H189.405C189.965 133.376 190.525 133.232 190.941 132.832C191.165 132.624 191.341 132.336 191.501 131.904L195.085 122.128ZM205.938 122.768C205.378 122.208 204.802 122.032 204.05 122.032C203.138 122.032 202.274 122.432 201.842 123.088V122.128H200.69V130H201.842V125.168C201.842 123.968 202.578 123.056 203.73 123.056C204.338 123.056 204.658 123.2 205.09 123.632L205.938 122.768ZM212.894 126.064C212.894 124.848 212.734 123.744 211.934 122.928C211.39 122.384 210.638 122.032 209.678 122.032C208.718 122.032 207.966 122.384 207.422 122.928C206.622 123.744 206.462 124.848 206.462 126.064C206.462 127.28 206.622 128.384 207.422 129.2C207.966 129.744 208.718 130.096 209.678 130.096C210.638 130.096 211.39 129.744 211.934 129.2C212.734 128.384 212.894 127.28 212.894 126.064ZM211.742 126.064C211.742 126.944 211.694 127.92 211.118 128.496C210.75 128.864 210.238 129.072 209.678 129.072C209.118 129.072 208.622 128.864 208.254 128.496C207.678 127.92 207.614 126.944 207.614 126.064C207.614 125.184 207.678 124.208 208.254 123.632C208.622 123.264 209.118 123.056 209.678 123.056C210.238 123.056 210.75 123.264 211.118 123.632C211.694 124.208 211.742 125.184 211.742 126.064ZM221.474 130V122.128H220.322V126.976C220.322 128.352 219.538 129.072 218.354 129.072C217.17 129.072 216.434 128.368 216.434 126.976V122.128H215.282V127.152C215.282 128.064 215.522 128.816 216.082 129.36C216.562 129.84 217.266 130.096 218.114 130.096C218.994 130.096 219.778 129.76 220.338 129.12V130H221.474ZM227.37 130V129.008H226.762C226.026 129.008 225.69 128.576 225.69 127.856V123.056H227.37V122.176H225.69V119.712H224.538V122.176H223.546V123.056H224.538V127.888C224.538 129.056 225.21 130 226.554 130H227.37ZM230.891 119.888V118.592H229.595V119.888H230.891ZM230.811 130V122.128H229.659V130H230.811ZM239.898 130V124.96C239.898 124.048 239.642 123.312 239.082 122.768C238.602 122.288 237.914 122.032 237.066 122.032C236.186 122.032 235.418 122.352 234.858 122.992V122.128H233.706V130H234.858V125.152C234.858 123.776 235.626 123.056 236.81 123.056C237.994 123.056 238.746 123.76 238.746 125.152V130H239.898ZM248.722 126.368V125.84C248.722 123.504 247.522 122.032 245.49 122.032C243.49 122.032 242.258 123.52 242.258 126.064C242.258 128.848 243.618 130.096 245.698 130.096C247.042 130.096 247.778 129.68 248.578 128.88L247.794 128.192C247.17 128.816 246.642 129.088 245.73 129.088C244.226 129.088 243.41 128.096 243.41 126.368H248.722ZM247.57 125.504H243.41C243.442 124.864 243.474 124.624 243.65 124.192C243.954 123.472 244.658 123.008 245.49 123.008C246.322 123.008 247.026 123.472 247.33 124.192C247.506 124.624 247.538 124.864 247.57 125.504ZM265.127 122.128H263.879L262.087 128.448L260.007 122.128H259.015L256.951 128.448L255.143 122.128H253.895L256.391 130H257.463L259.511 123.888L261.575 130H262.647L265.127 122.128ZM267.969 119.888V118.592H266.673V119.888H267.969ZM267.889 130V122.128H266.737V130H267.889ZM273.808 130V129.008H273.2C272.464 129.008 272.128 128.576 272.128 127.856V123.056H273.808V122.176H272.128V119.712H270.976V122.176H269.984V123.056H270.976V127.888C270.976 129.056 271.648 130 272.992 130H273.808ZM282.288 130V124.944C282.288 123.168 281.232 122.032 279.456 122.032C278.576 122.032 277.824 122.336 277.248 122.992V118.608H276.096V130H277.248V125.136C277.248 123.776 278.032 123.056 279.216 123.056C280.4 123.056 281.136 123.76 281.136 125.136V130H282.288ZM295.081 126.064C295.081 124.848 294.921 123.744 294.121 122.928C293.577 122.384 292.825 122.032 291.865 122.032C290.905 122.032 290.153 122.384 289.609 122.928C288.809 123.744 288.649 124.848 288.649 126.064C288.649 127.28 288.809 128.384 289.609 129.2C290.153 129.744 290.905 130.096 291.865 130.096C292.825 130.096 293.577 129.744 294.121 129.2C294.921 128.384 295.081 127.28 295.081 126.064ZM293.929 126.064C293.929 126.944 293.881 127.92 293.305 128.496C292.937 128.864 292.425 129.072 291.865 129.072C291.305 129.072 290.809 128.864 290.441 128.496C289.865 127.92 289.801 126.944 289.801 126.064C289.801 125.184 289.865 124.208 290.441 123.632C290.809 123.264 291.305 123.056 291.865 123.056C292.425 123.056 292.937 123.264 293.305 123.632C293.881 124.208 293.929 125.184 293.929 126.064ZM303.661 130V122.128H302.509V126.976C302.509 128.352 301.725 129.072 300.541 129.072C299.357 129.072 298.621 128.368 298.621 126.976V122.128H297.469V127.152C297.469 128.064 297.709 128.816 298.269 129.36C298.749 129.84 299.453 130.096 300.301 130.096C301.181 130.096 301.965 129.76 302.525 129.12V130H303.661ZM311.782 122.768C311.222 122.208 310.646 122.032 309.894 122.032C308.982 122.032 308.118 122.432 307.686 123.088V122.128H306.534V130H307.686V125.168C307.686 123.968 308.422 123.056 309.574 123.056C310.182 123.056 310.502 123.2 310.934 123.632L311.782 122.768ZM47.088 152.928L46.304 152.176C45.712 152.832 45.248 153.072 44.496 153.072C43.728 153.072 43.088 152.768 42.672 152.176C42.304 151.664 42.16 151.056 42.16 150.064C42.16 149.072 42.304 148.464 42.672 147.952C43.088 147.36 43.728 147.056 44.496 147.056C45.248 147.056 45.712 147.28 46.304 147.936L47.088 147.2C46.272 146.32 45.584 146.032 44.496 146.032C42.512 146.032 41.008 147.376 41.008 150.064C41.008 152.752 42.512 154.096 44.496 154.096C45.584 154.096 46.272 153.808 47.088 152.928ZM55.3958 154V146.128H54.2438V150.976C54.2438 152.352 53.4598 153.072 52.2758 153.072C51.0918 153.072 50.3558 152.368 50.3558 150.976V146.128H49.2038V151.152C49.2038 152.064 49.4438 152.816 50.0038 153.36C50.4838 153.84 51.1878 154.096 52.0358 154.096C52.9158 154.096 53.6998 153.76 54.2598 153.12V154H55.3958ZM63.9481 151.696C63.9481 150.224 63.0041 149.696 61.6281 149.568L60.3641 149.456C59.3721 149.376 58.9881 148.976 58.9881 148.304C58.9881 147.504 59.5961 147.008 60.7481 147.008C61.5641 147.008 62.2841 147.2 62.8441 147.632L63.5961 146.88C62.8921 146.304 61.8841 146.032 60.7641 146.032C59.0841 146.032 57.8681 146.896 57.8681 148.336C57.8681 149.632 58.6841 150.32 60.2201 150.448L61.5161 150.56C62.4281 150.64 62.8281 151.024 62.8281 151.712C62.8281 152.64 62.0281 153.104 60.7321 153.104C59.7561 153.104 58.9081 152.848 58.2841 152.192L57.5161 152.96C58.3801 153.792 59.4201 154.096 60.7481 154.096C62.6521 154.096 63.9481 153.216 63.9481 151.696ZM69.0734 154V153.008H68.4654C67.7294 153.008 67.3934 152.576 67.3934 151.856V147.056H69.0734V146.176H67.3934V143.712H66.2414V146.176H65.2494V147.056H66.2414V151.888C66.2414 153.056 66.9134 154 68.2574 154H69.0734ZM77.2529 150.064C77.2529 148.848 77.0929 147.744 76.2929 146.928C75.7489 146.384 74.9969 146.032 74.0369 146.032C73.0769 146.032 72.3249 146.384 71.7809 146.928C70.9809 147.744 70.8209 148.848 70.8209 150.064C70.8209 151.28 70.9809 152.384 71.7809 153.2C72.3249 153.744 73.0769 154.096 74.0369 154.096C74.9969 154.096 75.7489 153.744 76.2929 153.2C77.0929 152.384 77.2529 151.28 77.2529 150.064ZM76.1009 150.064C76.1009 150.944 76.0529 151.92 75.4769 152.496C75.1089 152.864 74.5969 153.072 74.0369 153.072C73.4769 153.072 72.9809 152.864 72.6129 152.496C72.0369 151.92 71.9729 150.944 71.9729 150.064C71.9729 149.184 72.0369 148.208 72.6129 147.632C72.9809 147.264 73.4769 147.056 74.0369 147.056C74.5969 147.056 75.1089 147.264 75.4769 147.632C76.0529 148.208 76.1009 149.184 76.1009 150.064ZM90.9853 154V148.96C90.9853 148.048 90.6973 147.312 90.1373 146.768C89.6573 146.304 88.9533 146.032 88.1053 146.032C87.0013 146.032 86.1213 146.48 85.5133 147.344C85.0333 146.48 84.1853 146.032 83.0973 146.032C82.2173 146.032 81.4333 146.352 80.8733 146.992V146.128H79.7213V154H80.8733V149.152C80.8733 147.776 81.6573 147.056 82.8413 147.056C84.0253 147.056 84.7773 147.76 84.7773 149.152V154H85.9293V149.024C85.9293 147.776 86.7453 147.056 87.8973 147.056C89.0813 147.056 89.8333 147.76 89.8333 149.152V154H90.9853ZM95.0158 143.888V142.592H93.7198V143.888H95.0158ZM94.9358 154V146.128H93.7838V154H94.9358ZM102.903 154V152.976H98.5026L102.903 147.104V146.128H97.4306V147.152H101.575L97.1906 153.008V154H102.903ZM110.79 154V148.656C110.79 146.944 109.75 146.032 107.638 146.032C106.358 146.032 105.558 146.288 104.854 147.2L105.638 147.92C106.102 147.264 106.614 147.024 107.622 147.024C109.062 147.024 109.638 147.6 109.638 148.752V149.504H107.27C105.51 149.504 104.55 150.4 104.55 151.776C104.55 152.4 104.758 152.992 105.142 153.376C105.638 153.888 106.278 154.096 107.366 154.096C108.422 154.096 108.998 153.888 109.638 153.248V154H110.79ZM109.638 151.216C109.638 151.872 109.51 152.32 109.238 152.576C108.742 153.056 108.15 153.104 107.478 153.104C106.23 153.104 105.67 152.672 105.67 151.76C105.67 150.848 106.246 150.368 107.43 150.368H109.638V151.216ZM119.852 150.064C119.852 148.832 119.692 147.52 118.892 146.72C118.476 146.304 117.772 146.032 116.972 146.032C116.108 146.032 115.388 146.224 114.748 147.04V142.608H113.596V154H114.748V153.056C115.388 153.888 116.108 154.096 116.972 154.096C117.772 154.096 118.476 153.824 118.892 153.408C119.692 152.608 119.852 151.296 119.852 150.064ZM118.7 150.064C118.7 151.6 118.444 153.072 116.732 153.072C115.02 153.072 114.748 151.6 114.748 150.064C114.748 148.528 115.02 147.056 116.732 147.056C118.444 147.056 118.7 148.528 118.7 150.064ZM125.115 154V153.008H124.491C123.691 153.008 123.435 152.624 123.435 151.856V142.608H122.283V151.904C122.283 153.104 122.907 154 124.283 154H125.115ZM132.691 150.368V149.84C132.691 147.504 131.491 146.032 129.459 146.032C127.459 146.032 126.227 147.52 126.227 150.064C126.227 152.848 127.587 154.096 129.667 154.096C131.011 154.096 131.747 153.68 132.547 152.88L131.763 152.192C131.139 152.816 130.611 153.088 129.699 153.088C128.195 153.088 127.379 152.096 127.379 150.368H132.691ZM131.539 149.504H127.379C127.411 148.864 127.443 148.624 127.619 148.192C127.923 147.472 128.627 147.008 129.459 147.008C130.291 147.008 130.995 147.472 131.299 148.192C131.475 148.624 131.507 148.864 131.539 149.504ZM136.519 155.04V152.592H135.111V156.304L136.519 155.04ZM149.458 154V146.128H148.306V150.976C148.306 152.352 147.522 153.072 146.338 153.072C145.154 153.072 144.418 152.368 144.418 150.976V146.128H143.266V151.152C143.266 152.064 143.506 152.816 144.066 153.36C144.546 153.84 145.25 154.096 146.098 154.096C146.978 154.096 147.762 153.76 148.322 153.12V154H149.458ZM158.011 151.696C158.011 150.224 157.067 149.696 155.691 149.568L154.427 149.456C153.435 149.376 153.051 148.976 153.051 148.304C153.051 147.504 153.659 147.008 154.811 147.008C155.627 147.008 156.347 147.2 156.907 147.632L157.659 146.88C156.955 146.304 155.947 146.032 154.827 146.032C153.147 146.032 151.931 146.896 151.931 148.336C151.931 149.632 152.747 150.32 154.283 150.448L155.579 150.56C156.491 150.64 156.891 151.024 156.891 151.712C156.891 152.64 156.091 153.104 154.795 153.104C153.819 153.104 152.971 152.848 152.347 152.192L151.579 152.96C152.443 153.792 153.483 154.096 154.811 154.096C156.715 154.096 158.011 153.216 158.011 151.696ZM166.3 150.368V149.84C166.3 147.504 165.1 146.032 163.068 146.032C161.068 146.032 159.836 147.52 159.836 150.064C159.836 152.848 161.196 154.096 163.276 154.096C164.62 154.096 165.356 153.68 166.156 152.88L165.372 152.192C164.748 152.816 164.22 153.088 163.308 153.088C161.804 153.088 160.988 152.096 160.988 150.368H166.3ZM165.148 149.504H160.988C161.02 148.864 161.052 148.624 161.228 148.192C161.532 147.472 162.236 147.008 163.068 147.008C163.9 147.008 164.604 147.472 164.908 148.192C165.084 148.624 165.116 148.864 165.148 149.504ZM174.001 146.768C173.441 146.208 172.865 146.032 172.113 146.032C171.201 146.032 170.337 146.432 169.905 147.088V146.128H168.753V154H169.905V149.168C169.905 147.968 170.641 147.056 171.793 147.056C172.401 147.056 172.721 147.2 173.153 147.632L174.001 146.768ZM179.647 150.224V149.152H175.263V150.224H179.647ZM185.387 147.056V146.176H183.707V144.72C183.707 144 184.027 143.568 184.763 143.568H185.387V142.576H184.555C183.211 142.576 182.555 143.52 182.555 144.688V146.176H181.547V147.056H182.555V154H183.707V147.056H185.387ZM192.579 146.768C192.019 146.208 191.443 146.032 190.691 146.032C189.779 146.032 188.915 146.432 188.483 147.088V146.128H187.331V154H188.483V149.168C188.483 147.968 189.219 147.056 190.371 147.056C190.979 147.056 191.299 147.2 191.731 147.632L192.579 146.768ZM195.297 143.888V142.592H194.001V143.888H195.297ZM195.217 154V146.128H194.065V154H195.217ZM204.144 150.368V149.84C204.144 147.504 202.944 146.032 200.912 146.032C198.912 146.032 197.68 147.52 197.68 150.064C197.68 152.848 199.04 154.096 201.12 154.096C202.464 154.096 203.2 153.68 204 152.88L203.216 152.192C202.592 152.816 202.064 153.088 201.152 153.088C199.648 153.088 198.832 152.096 198.832 150.368H204.144ZM202.992 149.504H198.832C198.864 148.864 198.896 148.624 199.072 148.192C199.376 147.472 200.08 147.008 200.912 147.008C201.744 147.008 202.448 147.472 202.752 148.192C202.928 148.624 202.96 148.864 202.992 149.504ZM212.788 154V148.96C212.788 148.048 212.532 147.312 211.972 146.768C211.492 146.288 210.804 146.032 209.956 146.032C209.076 146.032 208.308 146.352 207.748 146.992V146.128H206.596V154H207.748V149.152C207.748 147.776 208.516 147.056 209.7 147.056C210.884 147.056 211.636 147.76 211.636 149.152V154H212.788ZM221.421 154V142.608H220.269V147.04C219.629 146.224 218.909 146.032 218.045 146.032C217.245 146.032 216.541 146.304 216.125 146.72C215.325 147.52 215.165 148.832 215.165 150.064C215.165 151.296 215.325 152.608 216.125 153.408C216.541 153.824 217.245 154.096 218.045 154.096C218.909 154.096 219.645 153.888 220.285 153.056V154H221.421ZM220.269 150.064C220.269 151.6 220.013 153.072 218.301 153.072C216.589 153.072 216.317 151.6 216.317 150.064C216.317 148.528 216.589 147.056 218.301 147.056C220.013 147.056 220.269 148.528 220.269 150.064ZM227.099 154V153.008H226.475C225.675 153.008 225.419 152.624 225.419 151.856V142.608H224.267V151.904C224.267 153.104 224.891 154 226.267 154H227.099ZM234.21 146.128H232.962L230.818 152.448L228.658 146.128H227.41L230.242 153.84L229.682 155.376C229.426 156.096 229.186 156.352 228.386 156.352H228.034V157.376H228.53C229.09 157.376 229.65 157.232 230.066 156.832C230.29 156.624 230.466 156.336 230.626 155.904L234.21 146.128ZM245.495 151.696C245.495 150.224 244.551 149.696 243.175 149.568L241.911 149.456C240.919 149.376 240.535 148.976 240.535 148.304C240.535 147.504 241.143 147.008 242.295 147.008C243.111 147.008 243.831 147.2 244.391 147.632L245.143 146.88C244.439 146.304 243.431 146.032 242.311 146.032C240.631 146.032 239.415 146.896 239.415 148.336C239.415 149.632 240.231 150.32 241.767 150.448L243.063 150.56C243.975 150.64 244.375 151.024 244.375 151.712C244.375 152.64 243.575 153.104 242.279 153.104C241.303 153.104 240.455 152.848 239.831 152.192L239.063 152.96C239.927 153.792 240.967 154.096 242.295 154.096C244.199 154.096 245.495 153.216 245.495 151.696ZM250.62 154V153.008H250.012C249.276 153.008 248.94 152.576 248.94 151.856V147.056H250.62V146.176H248.94V143.712H247.788V146.176H246.796V147.056H247.788V151.888C247.788 153.056 248.46 154 249.804 154H250.62ZM259.021 154V146.128H257.869V150.976C257.869 152.352 257.085 153.072 255.901 153.072C254.717 153.072 253.981 152.368 253.981 150.976V146.128H252.829V151.152C252.829 152.064 253.069 152.816 253.629 153.36C254.109 153.84 254.813 154.096 255.661 154.096C256.541 154.096 257.325 153.76 257.885 153.12V154H259.021ZM267.733 154V142.608H266.581V147.04C265.941 146.224 265.221 146.032 264.357 146.032C263.557 146.032 262.853 146.304 262.437 146.72C261.637 147.52 261.477 148.832 261.477 150.064C261.477 151.296 261.637 152.608 262.437 153.408C262.853 153.824 263.557 154.096 264.357 154.096C265.221 154.096 265.957 153.888 266.597 153.056V154H267.733ZM266.581 150.064C266.581 151.6 266.325 153.072 264.613 153.072C262.901 153.072 262.629 151.6 262.629 150.064C262.629 148.528 262.901 147.056 264.613 147.056C266.325 147.056 266.581 148.528 266.581 150.064ZM276.148 146.128H274.9L272.756 152.448L270.596 146.128H269.348L272.18 153.84L271.62 155.376C271.364 156.096 271.124 156.352 270.324 156.352H269.972V157.376H270.468C271.028 157.376 271.588 157.232 272.004 156.832C272.228 156.624 272.404 156.336 272.564 155.904L276.148 146.128ZM47.696 174.064C47.696 172.832 47.536 171.52 46.736 170.72C46.32 170.304 45.616 170.032 44.816 170.032C43.952 170.032 43.232 170.224 42.592 171.056V170.128H41.44V181.52H42.592V177.072C43.232 177.888 43.952 178.096 44.816 178.096C45.616 178.096 46.32 177.824 46.736 177.408C47.536 176.608 47.696 175.296 47.696 174.064ZM46.544 174.064C46.544 175.6 46.288 177.072 44.576 177.072C42.864 177.072 42.592 175.6 42.592 174.064C42.592 172.528 42.864 171.056 44.576 171.056C46.288 171.056 46.544 172.528 46.544 174.064ZM52.9588 178V177.008H52.3348C51.5348 177.008 51.2788 176.624 51.2788 175.856V166.608H50.1268V175.904C50.1268 177.104 50.7508 178 52.1268 178H52.9588ZM60.5248 178V172.656C60.5248 170.944 59.4848 170.032 57.3728 170.032C56.0928 170.032 55.2928 170.288 54.5888 171.2L55.3728 171.92C55.8368 171.264 56.3488 171.024 57.3568 171.024C58.7968 171.024 59.3728 171.6 59.3728 172.752V173.504H57.0048C55.2448 173.504 54.2848 174.4 54.2848 175.776C54.2848 176.4 54.4928 176.992 54.8768 177.376C55.3728 177.888 56.0128 178.096 57.1008 178.096C58.1568 178.096 58.7328 177.888 59.3728 177.248V178H60.5248ZM59.3728 175.216C59.3728 175.872 59.2448 176.32 58.9728 176.576C58.4768 177.056 57.8848 177.104 57.2128 177.104C55.9648 177.104 55.4048 176.672 55.4048 175.76C55.4048 174.848 55.9808 174.368 57.1648 174.368H59.3728V175.216ZM69.5226 178V172.96C69.5226 172.048 69.2666 171.312 68.7066 170.768C68.2266 170.288 67.5386 170.032 66.6906 170.032C65.8106 170.032 65.0426 170.352 64.4826 170.992V170.128H63.3306V178H64.4826V173.152C64.4826 171.776 65.2506 171.056 66.4346 171.056C67.6186 171.056 68.3706 171.76 68.3706 173.152V178H69.5226ZM78.507 178V172.96C78.507 172.048 78.251 171.312 77.691 170.768C77.211 170.288 76.523 170.032 75.675 170.032C74.795 170.032 74.027 170.352 73.467 170.992V170.128H72.315V178H73.467V173.152C73.467 171.776 74.235 171.056 75.419 171.056C76.603 171.056 77.355 171.76 77.355 173.152V178H78.507ZM87.3314 174.368V173.84C87.3314 171.504 86.1314 170.032 84.0994 170.032C82.0994 170.032 80.8674 171.52 80.8674 174.064C80.8674 176.848 82.2274 178.096 84.3074 178.096C85.6514 178.096 86.3874 177.68 87.1874 176.88L86.4034 176.192C85.7794 176.816 85.2514 177.088 84.3394 177.088C82.8354 177.088 82.0194 176.096 82.0194 174.368H87.3314ZM86.1794 173.504H82.0194C82.0514 172.864 82.0834 172.624 82.2594 172.192C82.5634 171.472 83.2674 171.008 84.0994 171.008C84.9314 171.008 85.6354 171.472 85.9394 172.192C86.1154 172.624 86.1474 172.864 86.1794 173.504ZM95.0318 170.768C94.4718 170.208 93.8958 170.032 93.1438 170.032C92.2318 170.032 91.3678 170.432 90.9358 171.088V170.128H89.7838V178H90.9358V173.168C90.9358 171.968 91.6718 171.056 92.8238 171.056C93.4318 171.056 93.7518 171.2 94.1838 171.632L95.0318 170.768ZM103.591 171.056V170.176H101.911V168.72C101.911 168 102.231 167.568 102.967 167.568H103.591V166.576H102.759C101.414 166.576 100.759 167.52 100.759 168.688V170.176H99.7505V171.056H100.759V178H101.911V171.056H103.591ZM111.253 174.064C111.253 172.848 111.093 171.744 110.293 170.928C109.749 170.384 108.997 170.032 108.037 170.032C107.077 170.032 106.325 170.384 105.781 170.928C104.981 171.744 104.821 172.848 104.821 174.064C104.821 175.28 104.981 176.384 105.781 177.2C106.325 177.744 107.077 178.096 108.037 178.096C108.997 178.096 109.749 177.744 110.293 177.2C111.093 176.384 111.253 175.28 111.253 174.064ZM110.101 174.064C110.101 174.944 110.053 175.92 109.477 176.496C109.109 176.864 108.597 177.072 108.037 177.072C107.477 177.072 106.981 176.864 106.613 176.496C106.037 175.92 105.973 174.944 105.973 174.064C105.973 173.184 106.037 172.208 106.613 171.632C106.981 171.264 107.477 171.056 108.037 171.056C108.597 171.056 109.109 171.264 109.477 171.632C110.053 172.208 110.101 173.184 110.101 174.064ZM118.969 170.768C118.409 170.208 117.833 170.032 117.081 170.032C116.169 170.032 115.305 170.432 114.873 171.088V170.128H113.721V178H114.873V173.168C114.873 171.968 115.609 171.056 116.761 171.056C117.369 171.056 117.689 171.2 118.121 171.632L118.969 170.768ZM130.056 178V172.656C130.056 170.944 129.016 170.032 126.904 170.032C125.624 170.032 124.824 170.288 124.12 171.2L124.904 171.92C125.368 171.264 125.88 171.024 126.888 171.024C128.328 171.024 128.904 171.6 128.904 172.752V173.504H126.536C124.776 173.504 123.816 174.4 123.816 175.776C123.816 176.4 124.024 176.992 124.408 177.376C124.904 177.888 125.544 178.096 126.632 178.096C127.688 178.096 128.264 177.888 128.904 177.248V178H130.056ZM128.904 175.216C128.904 175.872 128.776 176.32 128.504 176.576C128.008 177.056 127.416 177.104 126.744 177.104C125.496 177.104 124.936 176.672 124.936 175.76C124.936 174.848 125.512 174.368 126.696 174.368H128.904V175.216ZM138.51 176.928L137.726 176.176C137.134 176.832 136.67 177.072 135.918 177.072C135.15 177.072 134.51 176.768 134.094 176.176C133.726 175.664 133.582 175.056 133.582 174.064C133.582 173.072 133.726 172.464 134.094 171.952C134.51 171.36 135.15 171.056 135.918 171.056C136.67 171.056 137.134 171.28 137.726 171.936L138.51 171.2C137.694 170.32 137.006 170.032 135.918 170.032C133.934 170.032 132.43 171.376 132.43 174.064C132.43 176.752 133.934 178.096 135.918 178.096C137.006 178.096 137.694 177.808 138.51 176.928ZM146.134 178V172.656C146.134 170.944 145.094 170.032 142.982 170.032C141.702 170.032 140.902 170.288 140.198 171.2L140.982 171.92C141.446 171.264 141.958 171.024 142.966 171.024C144.406 171.024 144.982 171.6 144.982 172.752V173.504H142.614C140.854 173.504 139.894 174.4 139.894 175.776C139.894 176.4 140.102 176.992 140.486 177.376C140.982 177.888 141.622 178.096 142.71 178.096C143.766 178.096 144.342 177.888 144.982 177.248V178H146.134ZM144.982 175.216C144.982 175.872 144.854 176.32 144.582 176.576C144.086 177.056 143.494 177.104 142.822 177.104C141.574 177.104 141.014 176.672 141.014 175.76C141.014 174.848 141.59 174.368 142.774 174.368H144.982V175.216ZM154.78 178V166.608H153.628V171.04C152.988 170.224 152.268 170.032 151.404 170.032C150.604 170.032 149.9 170.304 149.484 170.72C148.684 171.52 148.524 172.832 148.524 174.064C148.524 175.296 148.684 176.608 149.484 177.408C149.9 177.824 150.604 178.096 151.404 178.096C152.268 178.096 153.004 177.888 153.644 177.056V178H154.78ZM153.628 174.064C153.628 175.6 153.372 177.072 151.66 177.072C149.948 177.072 149.676 175.6 149.676 174.064C149.676 172.528 149.948 171.056 151.66 171.056C153.372 171.056 153.628 172.528 153.628 174.064ZM163.691 174.368V173.84C163.691 171.504 162.491 170.032 160.459 170.032C158.459 170.032 157.227 171.52 157.227 174.064C157.227 176.848 158.587 178.096 160.667 178.096C162.011 178.096 162.747 177.68 163.547 176.88L162.763 176.192C162.139 176.816 161.611 177.088 160.699 177.088C159.195 177.088 158.379 176.096 158.379 174.368H163.691ZM162.539 173.504H158.379C158.411 172.864 158.443 172.624 158.619 172.192C158.923 171.472 159.627 171.008 160.459 171.008C161.291 171.008 161.995 171.472 162.299 172.192C162.475 172.624 162.507 172.864 162.539 173.504ZM177.407 178V172.96C177.407 172.048 177.119 171.312 176.559 170.768C176.079 170.304 175.375 170.032 174.527 170.032C173.423 170.032 172.543 170.48 171.935 171.344C171.455 170.48 170.607 170.032 169.519 170.032C168.639 170.032 167.855 170.352 167.295 170.992V170.128H166.143V178H167.295V173.152C167.295 171.776 168.079 171.056 169.263 171.056C170.447 171.056 171.199 171.76 171.199 173.152V178H172.351V173.024C172.351 171.776 173.167 171.056 174.319 171.056C175.503 171.056 176.255 171.76 176.255 173.152V178H177.407ZM181.438 167.888V166.592H180.142V167.888H181.438ZM181.358 178V170.128H180.206V178H181.358ZM189.901 176.928L189.117 176.176C188.525 176.832 188.061 177.072 187.309 177.072C186.541 177.072 185.901 176.768 185.485 176.176C185.117 175.664 184.973 175.056 184.973 174.064C184.973 173.072 185.117 172.464 185.485 171.952C185.901 171.36 186.541 171.056 187.309 171.056C188.061 171.056 188.525 171.28 189.117 171.936L189.901 171.2C189.085 170.32 188.397 170.032 187.309 170.032C185.325 170.032 183.821 171.376 183.821 174.064C183.821 176.752 185.325 178.096 187.309 178.096C188.397 178.096 189.085 177.808 189.901 176.928ZM201.761 175.696C201.761 174.224 200.817 173.696 199.441 173.568L198.177 173.456C197.185 173.376 196.801 172.976 196.801 172.304C196.801 171.504 197.409 171.008 198.561 171.008C199.377 171.008 200.097 171.2 200.657 171.632L201.409 170.88C200.705 170.304 199.697 170.032 198.577 170.032C196.897 170.032 195.681 170.896 195.681 172.336C195.681 173.632 196.497 174.32 198.033 174.448L199.329 174.56C200.241 174.64 200.641 175.024 200.641 175.712C200.641 176.64 199.841 177.104 198.545 177.104C197.569 177.104 196.721 176.848 196.097 176.192L195.329 176.96C196.193 177.792 197.233 178.096 198.561 178.096C200.465 178.096 201.761 177.216 201.761 175.696ZM210.13 178V170.128H208.978V174.976C208.978 176.352 208.194 177.072 207.01 177.072C205.826 177.072 205.09 176.368 205.09 174.976V170.128H203.938V175.152C203.938 176.064 204.178 176.816 204.738 177.36C205.218 177.84 205.922 178.096 206.77 178.096C207.65 178.096 208.434 177.76 208.994 177.12V178H210.13ZM218.651 176.928L217.867 176.176C217.275 176.832 216.811 177.072 216.059 177.072C215.291 177.072 214.651 176.768 214.235 176.176C213.867 175.664 213.723 175.056 213.723 174.064C213.723 173.072 213.867 172.464 214.235 171.952C214.651 171.36 215.291 171.056 216.059 171.056C216.811 171.056 217.275 171.28 217.867 171.936L218.651 171.2C217.835 170.32 217.147 170.032 216.059 170.032C214.075 170.032 212.571 171.376 212.571 174.064C212.571 176.752 214.075 178.096 216.059 178.096C217.147 178.096 217.835 177.808 218.651 176.928ZM226.26 176.928L225.476 176.176C224.884 176.832 224.42 177.072 223.668 177.072C222.9 177.072 222.26 176.768 221.844 176.176C221.476 175.664 221.332 175.056 221.332 174.064C221.332 173.072 221.476 172.464 221.844 171.952C222.26 171.36 222.9 171.056 223.668 171.056C224.42 171.056 224.884 171.28 225.476 171.936L226.26 171.2C225.444 170.32 224.756 170.032 223.668 170.032C221.684 170.032 220.18 171.376 220.18 174.064C220.18 176.752 221.684 178.096 223.668 178.096C224.756 178.096 225.444 177.808 226.26 176.928ZM234.253 174.368V173.84C234.253 171.504 233.053 170.032 231.021 170.032C229.021 170.032 227.789 171.52 227.789 174.064C227.789 176.848 229.149 178.096 231.229 178.096C232.573 178.096 233.309 177.68 234.109 176.88L233.325 176.192C232.701 176.816 232.173 177.088 231.261 177.088C229.757 177.088 228.941 176.096 228.941 174.368H234.253ZM233.101 173.504H228.941C228.973 172.864 229.005 172.624 229.181 172.192C229.485 171.472 230.189 171.008 231.021 171.008C231.853 171.008 232.557 171.472 232.861 172.192C233.037 172.624 233.069 172.864 233.101 173.504ZM242.386 175.696C242.386 174.224 241.442 173.696 240.066 173.568L238.802 173.456C237.81 173.376 237.426 172.976 237.426 172.304C237.426 171.504 238.034 171.008 239.186 171.008C240.002 171.008 240.722 171.2 241.282 171.632L242.034 170.88C241.33 170.304 240.322 170.032 239.202 170.032C237.522 170.032 236.306 170.896 236.306 172.336C236.306 173.632 237.122 174.32 238.658 174.448L239.954 174.56C240.866 174.64 241.266 175.024 241.266 175.712C241.266 176.64 240.466 177.104 239.17 177.104C238.194 177.104 237.346 176.848 236.722 176.192L235.954 176.96C236.818 177.792 237.858 178.096 239.186 178.096C241.09 178.096 242.386 177.216 242.386 175.696ZM250.073 175.696C250.073 174.224 249.129 173.696 247.753 173.568L246.489 173.456C245.497 173.376 245.113 172.976 245.113 172.304C245.113 171.504 245.721 171.008 246.873 171.008C247.689 171.008 248.409 171.2 248.969 171.632L249.721 170.88C249.017 170.304 248.009 170.032 246.889 170.032C245.209 170.032 243.993 170.896 243.993 172.336C243.993 173.632 244.809 174.32 246.345 174.448L247.641 174.56C248.553 174.64 248.953 175.024 248.953 175.712C248.953 176.64 248.153 177.104 246.857 177.104C245.881 177.104 245.033 176.848 244.409 176.192L243.641 176.96C244.505 177.792 245.545 178.096 246.873 178.096C248.777 178.096 250.073 177.216 250.073 175.696ZM253.803 178V176.496H252.299V178H253.803Z" fill="#CA7358"/>
</svg>
