<svg
            width="auto"
            height="auto"
            viewBox="0 0 372 248"
            fill="none"
            xmlns="http://www.w3.org/2000/svg"
          >
            <path
              d="M0.5 35C0.5 15.9462 15.9462 0.5 35 0.5H268C287.054 0.5 302.5 15.9462 302.5 35C302.5 54.0538 287.054 69.5 268 69.5H35C15.9462 69.5 0.5 54.0538 0.5 35Z"
              stroke="#CA7358"
            />
            <path
              d="M0 85C0 54.0721 25.0721 29 56 29H316C346.928 29 372 54.0721 372 85V192C372 222.928 346.928 248 316 248H56C25.072 248 0 222.928 0 192V85Z"
              fill="#CA7358"
              fill-opacity="0.1"
            />
            <path
              d="M60.29 56.7C60.29 54.81 59.78 53.25 58.64 52.17C57.74 51.33 56.51 50.79 54.56 50.52L52.04 50.16C51.17 50.04 50.48 49.71 50.06 49.32C49.61 48.9 49.43 48.33 49.43 47.79C49.43 46.32 50.51 45.09 52.73 45.09C54.14 45.09 55.76 45.27 57.11 46.56L59.75 43.95C57.92 42.18 55.79 41.46 52.85 41.46C48.23 41.46 45.41 44.13 45.41 47.94C45.41 49.74 45.92 51.12 46.94 52.14C47.9 53.07 49.25 53.64 51.08 53.91L53.66 54.27C54.65 54.42 55.13 54.63 55.55 55.02C56 55.44 56.21 56.07 56.21 56.82C56.21 58.53 54.89 59.46 52.43 59.46C50.45 59.46 48.62 59.01 47.27 57.66L44.57 60.36C46.67 62.49 49.13 63.18 52.37 63.18C56.84 63.18 60.29 60.84 60.29 56.7ZM77.9546 45.36V41.64H62.6246V45.36H68.2046V63H72.3746V45.36H77.9546ZM96.7433 55.68V41.64H92.6033V55.53C92.6033 57.99 91.1333 59.46 88.8833 59.46C86.6333 59.46 85.1933 57.99 85.1933 55.53V41.64H81.0233V55.68C81.0233 60.21 84.5033 63.18 88.8833 63.18C93.2633 63.18 96.7433 60.21 96.7433 55.68ZM116.902 52.23C116.902 49.02 117.142 46.08 114.742 43.68C113.332 42.27 111.322 41.64 109.102 41.64H101.392V63H109.102C111.322 63 113.332 62.37 114.742 60.96C117.142 58.56 116.902 55.44 116.902 52.23ZM112.732 52.23C112.732 55.47 112.612 57 111.832 57.96C111.112 58.83 110.152 59.28 108.712 59.28H105.562V45.36H108.712C110.152 45.36 111.112 45.81 111.832 46.68C112.612 47.64 112.732 48.99 112.732 52.23ZM135.455 41.64H130.925L126.995 50.25L123.005 41.64H118.475L124.895 54.24V63H129.035V54.24L135.455 41.64ZM160.345 48.3C160.345 44.67 157.705 41.64 153.295 41.64H145.015V63H149.185V54.96H153.295C157.705 54.96 160.345 51.93 160.345 48.3ZM156.175 48.3C156.175 50.04 154.975 51.21 153.085 51.21H149.185V45.36H153.085C154.975 45.36 156.175 46.56 156.175 48.3ZM177.713 63V59.28H168.023V41.64H163.853V63H177.713ZM197.609 63L189.809 41.64H186.539L178.769 63H183.119L184.409 59.22H191.999L193.259 63H197.609ZM190.889 55.71H185.579L188.279 47.94L190.889 55.71ZM216.59 63V41.64H212.42V54.72L203.96 41.64H200.24V63H204.41V49.89L212.87 63H216.59Z"
              fill="#CA7358"
            />
            <path
              d="M53.408 99.608H52.112L49.888 108.792L47.376 99.608H46.288L43.776 108.792L41.552 99.608H40.256L43.168 111H44.304L46.832 101.88L49.36 111H50.496L53.408 99.608ZM60.0716 111V105.656C60.0716 103.944 59.0316 103.032 56.9196 103.032C55.6396 103.032 54.8396 103.288 54.1356 104.2L54.9196 104.92C55.3836 104.264 55.8956 104.024 56.9036 104.024C58.3436 104.024 58.9196 104.6 58.9196 105.752V106.504H56.5516C54.7916 106.504 53.8316 107.4 53.8316 108.776C53.8316 109.4 54.0396 109.992 54.4236 110.376C54.9196 110.888 55.5596 111.096 56.6476 111.096C57.7036 111.096 58.2796 110.888 58.9196 110.248V111H60.0716ZM58.9196 108.216C58.9196 108.872 58.7916 109.32 58.5196 109.576C58.0236 110.056 57.4316 110.104 56.7596 110.104C55.5116 110.104 54.9516 109.672 54.9516 108.76C54.9516 107.848 55.5276 107.368 56.7116 107.368H58.9196V108.216ZM69.0695 111V105.96C69.0695 105.048 68.8135 104.312 68.2535 103.768C67.7735 103.288 67.0855 103.032 66.2375 103.032C65.3575 103.032 64.5895 103.352 64.0295 103.992V103.128H62.8775V111H64.0295V106.152C64.0295 104.776 64.7975 104.056 65.9815 104.056C67.1655 104.056 67.9175 104.76 67.9175 106.152V111H69.0695ZM74.8859 111V110.008H74.2779C73.5419 110.008 73.2059 109.576 73.2059 108.856V104.056H74.8859V103.176H73.2059V100.712H72.0539V103.176H71.0619V104.056H72.0539V108.888C72.0539 110.056 72.7259 111 74.0699 111H74.8859ZM84.1828 111V110.008H83.5748C82.8388 110.008 82.5028 109.576 82.5028 108.856V104.056H84.1828V103.176H82.5028V100.712H81.3508V103.176H80.3588V104.056H81.3508V108.888C81.3508 110.056 82.0228 111 83.3668 111H84.1828ZM92.3623 107.064C92.3623 105.848 92.2023 104.744 91.4023 103.928C90.8583 103.384 90.1063 103.032 89.1463 103.032C88.1863 103.032 87.4343 103.384 86.8903 103.928C86.0903 104.744 85.9303 105.848 85.9303 107.064C85.9303 108.28 86.0903 109.384 86.8903 110.2C87.4343 110.744 88.1863 111.096 89.1463 111.096C90.1063 111.096 90.8583 110.744 91.4023 110.2C92.2023 109.384 92.3623 108.28 92.3623 107.064ZM91.2103 107.064C91.2103 107.944 91.1623 108.92 90.5863 109.496C90.2183 109.864 89.7063 110.072 89.1463 110.072C88.5863 110.072 88.0903 109.864 87.7223 109.496C87.1463 108.92 87.0823 107.944 87.0823 107.064C87.0823 106.184 87.1463 105.208 87.7223 104.632C88.0903 104.264 88.5863 104.056 89.1463 104.056C89.7063 104.056 90.2183 104.264 90.5863 104.632C91.1623 105.208 91.2103 106.184 91.2103 107.064ZM105.423 111L102.287 106.136L104.959 103.128H103.519L99.967 107.224V99.608H98.815V111H99.967V108.728L101.503 106.968L103.999 111H105.423ZM113.113 107.368V106.84C113.113 104.504 111.913 103.032 109.881 103.032C107.881 103.032 106.649 104.52 106.649 107.064C106.649 109.848 108.009 111.096 110.089 111.096C111.433 111.096 112.169 110.68 112.969 109.88L112.185 109.192C111.561 109.816 111.033 110.088 110.121 110.088C108.617 110.088 107.801 109.096 107.801 107.368H113.113ZM111.961 106.504H107.801C107.833 105.864 107.865 105.624 108.041 105.192C108.345 104.472 109.049 104.008 109.881 104.008C110.713 104.008 111.417 104.472 111.721 105.192C111.897 105.624 111.929 105.864 111.961 106.504ZM121.597 107.368V106.84C121.597 104.504 120.397 103.032 118.365 103.032C116.365 103.032 115.133 104.52 115.133 107.064C115.133 109.848 116.493 111.096 118.573 111.096C119.917 111.096 120.653 110.68 121.453 109.88L120.669 109.192C120.045 109.816 119.517 110.088 118.605 110.088C117.101 110.088 116.285 109.096 116.285 107.368H121.597ZM120.445 106.504H116.285C116.317 105.864 116.349 105.624 116.525 105.192C116.829 104.472 117.533 104.008 118.365 104.008C119.197 104.008 119.901 104.472 120.205 105.192C120.381 105.624 120.413 105.864 120.445 106.504ZM130.305 107.064C130.305 105.832 130.145 104.52 129.345 103.72C128.929 103.304 128.225 103.032 127.425 103.032C126.561 103.032 125.841 103.224 125.201 104.056V103.128H124.049V114.52H125.201V110.072C125.841 110.888 126.561 111.096 127.425 111.096C128.225 111.096 128.929 110.824 129.345 110.408C130.145 109.608 130.305 108.296 130.305 107.064ZM129.153 107.064C129.153 108.6 128.897 110.072 127.185 110.072C125.473 110.072 125.201 108.6 125.201 107.064C125.201 105.528 125.473 104.056 127.185 104.056C128.897 104.056 129.153 105.528 129.153 107.064ZM139.777 111V110.008H139.169C138.433 110.008 138.097 109.576 138.097 108.856V104.056H139.777V103.176H138.097V100.712H136.945V103.176H135.953V104.056H136.945V108.888C136.945 110.056 137.617 111 138.961 111H139.777ZM147.313 103.768C146.753 103.208 146.177 103.032 145.425 103.032C144.513 103.032 143.649 103.432 143.217 104.088V103.128H142.065V111H143.217V106.168C143.217 104.968 143.953 104.056 145.105 104.056C145.713 104.056 146.033 104.2 146.465 104.632L147.313 103.768ZM154.259 111V105.656C154.259 103.944 153.219 103.032 151.107 103.032C149.827 103.032 149.027 103.288 148.323 104.2L149.107 104.92C149.571 104.264 150.083 104.024 151.091 104.024C152.531 104.024 153.107 104.6 153.107 105.752V106.504H150.739C148.979 106.504 148.019 107.4 148.019 108.776C148.019 109.4 148.227 109.992 148.611 110.376C149.107 110.888 149.747 111.096 150.835 111.096C151.891 111.096 152.467 110.888 153.107 110.248V111H154.259ZM153.107 108.216C153.107 108.872 152.979 109.32 152.707 109.576C152.211 110.056 151.619 110.104 150.947 110.104C149.699 110.104 149.139 109.672 149.139 108.76C149.139 107.848 149.715 107.368 150.899 107.368H153.107V108.216ZM162.713 109.928L161.929 109.176C161.337 109.832 160.873 110.072 160.121 110.072C159.353 110.072 158.713 109.768 158.297 109.176C157.929 108.664 157.785 108.056 157.785 107.064C157.785 106.072 157.929 105.464 158.297 104.952C158.713 104.36 159.353 104.056 160.121 104.056C160.873 104.056 161.337 104.28 161.929 104.936L162.713 104.2C161.897 103.32 161.209 103.032 160.121 103.032C158.137 103.032 156.633 104.376 156.633 107.064C156.633 109.752 158.137 111.096 160.121 111.096C161.209 111.096 161.897 110.808 162.713 109.928ZM171.517 111L168.381 106.136L171.053 103.128H169.613L166.061 107.224V99.608H164.909V111H166.061V108.728L167.597 106.968L170.093 111H171.517ZM183.487 107.064C183.487 105.848 183.327 104.744 182.527 103.928C181.983 103.384 181.231 103.032 180.271 103.032C179.311 103.032 178.559 103.384 178.015 103.928C177.215 104.744 177.055 105.848 177.055 107.064C177.055 108.28 177.215 109.384 178.015 110.2C178.559 110.744 179.311 111.096 180.271 111.096C181.231 111.096 181.983 110.744 182.527 110.2C183.327 109.384 183.487 108.28 183.487 107.064ZM182.335 107.064C182.335 107.944 182.287 108.92 181.711 109.496C181.343 109.864 180.831 110.072 180.271 110.072C179.711 110.072 179.215 109.864 178.847 109.496C178.271 108.92 178.207 107.944 178.207 107.064C178.207 106.184 178.271 105.208 178.847 104.632C179.215 104.264 179.711 104.056 180.271 104.056C180.831 104.056 181.343 104.264 181.711 104.632C182.287 105.208 182.335 106.184 182.335 107.064ZM189.044 104.056V103.176H187.364V101.72C187.364 101 187.684 100.568 188.42 100.568H189.044V99.576H188.212C186.868 99.576 186.212 100.52 186.212 101.688V103.176H185.204V104.056H186.212V111H187.364V104.056H189.044ZM200.507 103.128H199.259L197.115 109.448L194.955 103.128H193.707L196.539 110.84L195.979 112.376C195.723 113.096 195.483 113.352 194.683 113.352H194.331V114.376H194.827C195.387 114.376 195.947 114.232 196.363 113.832C196.587 113.624 196.763 113.336 196.923 112.904L200.507 103.128ZM207.987 107.064C207.987 105.848 207.827 104.744 207.027 103.928C206.483 103.384 205.731 103.032 204.771 103.032C203.811 103.032 203.059 103.384 202.515 103.928C201.715 104.744 201.555 105.848 201.555 107.064C201.555 108.28 201.715 109.384 202.515 110.2C203.059 110.744 203.811 111.096 204.771 111.096C205.731 111.096 206.483 110.744 207.027 110.2C207.827 109.384 207.987 108.28 207.987 107.064ZM206.835 107.064C206.835 107.944 206.787 108.92 206.211 109.496C205.843 109.864 205.331 110.072 204.771 110.072C204.211 110.072 203.715 109.864 203.347 109.496C202.771 108.92 202.707 107.944 202.707 107.064C202.707 106.184 202.771 105.208 203.347 104.632C203.715 104.264 204.211 104.056 204.771 104.056C205.331 104.056 205.843 104.264 206.211 104.632C206.787 105.208 206.835 106.184 206.835 107.064ZM216.568 111V103.128H215.416V107.976C215.416 109.352 214.632 110.072 213.448 110.072C212.264 110.072 211.528 109.368 211.528 107.976V103.128H210.376V108.152C210.376 109.064 210.616 109.816 211.176 110.36C211.656 110.84 212.36 111.096 213.208 111.096C214.088 111.096 214.872 110.76 215.432 110.12V111H216.568ZM224.688 103.768C224.128 103.208 223.552 103.032 222.8 103.032C221.888 103.032 221.024 103.432 220.592 104.088V103.128H219.44V111H220.592V106.168C220.592 104.968 221.328 104.056 222.48 104.056C223.088 104.056 223.408 104.2 223.84 104.632L224.688 103.768ZM232.959 111V110.008H232.335C231.535 110.008 231.279 109.624 231.279 108.856V99.608H230.127V108.904C230.127 110.104 230.751 111 232.127 111H232.959ZM240.535 107.368V106.84C240.535 104.504 239.335 103.032 237.303 103.032C235.303 103.032 234.071 104.52 234.071 107.064C234.071 109.848 235.431 111.096 237.511 111.096C238.855 111.096 239.591 110.68 240.391 109.88L239.607 109.192C238.983 109.816 238.455 110.088 237.543 110.088C236.039 110.088 235.223 109.096 235.223 107.368H240.535ZM239.383 106.504H235.223C235.255 105.864 235.287 105.624 235.463 105.192C235.767 104.472 236.471 104.008 237.303 104.008C238.135 104.008 238.839 104.472 239.143 105.192C239.319 105.624 239.351 105.864 239.383 106.504ZM248.603 111V105.656C248.603 103.944 247.563 103.032 245.451 103.032C244.171 103.032 243.371 103.288 242.667 104.2L243.451 104.92C243.915 104.264 244.427 104.024 245.435 104.024C246.875 104.024 247.451 104.6 247.451 105.752V106.504H245.083C243.323 106.504 242.363 107.4 242.363 108.776C242.363 109.4 242.571 109.992 242.955 110.376C243.451 110.888 244.091 111.096 245.179 111.096C246.235 111.096 246.811 110.888 247.451 110.248V111H248.603ZM247.451 108.216C247.451 108.872 247.323 109.32 247.051 109.576C246.555 110.056 245.963 110.104 245.291 110.104C244.043 110.104 243.483 109.672 243.483 108.76C243.483 107.848 244.059 107.368 245.243 107.368H247.451V108.216ZM256.657 103.768C256.097 103.208 255.521 103.032 254.769 103.032C253.857 103.032 252.993 103.432 252.561 104.088V103.128H251.409V111H252.561V106.168C252.561 104.968 253.297 104.056 254.449 104.056C255.057 104.056 255.377 104.2 255.809 104.632L256.657 103.768ZM264.335 111V105.96C264.335 105.048 264.079 104.312 263.519 103.768C263.039 103.288 262.351 103.032 261.503 103.032C260.623 103.032 259.855 103.352 259.295 103.992V103.128H258.143V111H259.295V106.152C259.295 104.776 260.063 104.056 261.247 104.056C262.431 104.056 263.183 104.76 263.183 106.152V111H264.335ZM268.36 100.888V99.592H267.064V100.888H268.36ZM268.28 111V103.128H267.128V111H268.28ZM277.366 111V105.96C277.366 105.048 277.11 104.312 276.55 103.768C276.07 103.288 275.382 103.032 274.534 103.032C273.654 103.032 272.886 103.352 272.326 103.992V103.128H271.174V111H272.326V106.152C272.326 104.776 273.094 104.056 274.278 104.056C275.462 104.056 276.214 104.76 276.214 106.152V111H277.366ZM285.967 111.24V103.128H284.831V104.056C284.191 103.224 283.487 103.032 282.623 103.032C281.823 103.032 281.119 103.304 280.703 103.72C279.919 104.504 279.743 105.72 279.743 107C279.743 108.28 279.919 109.496 280.703 110.28C281.119 110.696 281.807 110.984 282.607 110.984C283.455 110.984 284.175 110.776 284.815 109.96V111.192C284.815 112.536 284.175 113.608 282.655 113.608C281.743 113.608 281.343 113.336 280.767 112.824L280.015 113.56C280.847 114.312 281.503 114.616 282.687 114.616C284.751 114.616 285.967 113.192 285.967 111.24ZM284.815 107C284.815 108.472 284.575 109.944 282.863 109.944C281.151 109.944 280.895 108.472 280.895 107C280.895 105.528 281.151 104.056 282.863 104.056C284.575 104.056 284.815 105.528 284.815 107ZM47.088 133.928L46.304 133.176C45.712 133.832 45.248 134.072 44.496 134.072C43.728 134.072 43.088 133.768 42.672 133.176C42.304 132.664 42.16 132.056 42.16 131.064C42.16 130.072 42.304 129.464 42.672 128.952C43.088 128.36 43.728 128.056 44.496 128.056C45.248 128.056 45.712 128.28 46.304 128.936L47.088 128.2C46.272 127.32 45.584 127.032 44.496 127.032C42.512 127.032 41.008 128.376 41.008 131.064C41.008 133.752 42.512 135.096 44.496 135.096C45.584 135.096 46.272 134.808 47.088 133.928ZM54.8198 127.128H53.5718L51.4278 133.448L49.2678 127.128H48.0198L50.8518 134.84L50.2918 136.376C50.0358 137.096 49.7958 137.352 48.9958 137.352H48.6438V138.376H49.1398C49.6998 138.376 50.2598 138.232 50.6758 137.832C50.8998 137.624 51.0758 137.336 51.2358 136.904L54.8198 127.128ZM61.9318 133.928L61.1478 133.176C60.5558 133.832 60.0918 134.072 59.3398 134.072C58.5718 134.072 57.9318 133.768 57.5158 133.176C57.1478 132.664 57.0038 132.056 57.0038 131.064C57.0038 130.072 57.1478 129.464 57.5158 128.952C57.9318 128.36 58.5718 128.056 59.3398 128.056C60.0918 128.056 60.5558 128.28 61.1478 128.936L61.9318 128.2C61.1158 127.32 60.4278 127.032 59.3398 127.032C57.3558 127.032 55.8518 128.376 55.8518 131.064C55.8518 133.752 57.3558 135.096 59.3398 135.096C60.4278 135.096 61.1158 134.808 61.9318 133.928ZM66.9275 135V134.008H66.3035C65.5035 134.008 65.2475 133.624 65.2475 132.856V123.608H64.0955V132.904C64.0955 134.104 64.7195 135 66.0955 135H66.9275ZM74.5033 131.368V130.84C74.5033 128.504 73.3033 127.032 71.2713 127.032C69.2713 127.032 68.0393 128.52 68.0393 131.064C68.0393 133.848 69.3993 135.096 71.4793 135.096C72.8233 135.096 73.5593 134.68 74.3593 133.88L73.5753 133.192C72.9513 133.816 72.4233 134.088 71.5113 134.088C70.0073 134.088 69.1913 133.096 69.1913 131.368H74.5033ZM73.3513 130.504H69.1913C69.2233 129.864 69.2553 129.624 69.4313 129.192C69.7353 128.472 70.4393 128.008 71.2713 128.008C72.1033 128.008 72.8073 128.472 73.1113 129.192C73.2873 129.624 73.3193 129.864 73.3513 130.504ZM82.7316 126.424C82.7316 124.712 81.4196 123.512 79.7396 123.512C78.0116 123.512 76.7316 124.808 76.7316 126.44H77.8836C77.8836 125.432 78.6036 124.536 79.7396 124.536C80.8116 124.536 81.5796 125.352 81.5796 126.424C81.5796 126.968 81.3556 127.336 81.0516 127.784L79.7556 129.656C79.4196 130.136 79.2596 130.536 79.2596 131.16V131.8H80.4116V131.176C80.4116 130.92 80.5076 130.536 80.6996 130.248L82.0116 128.36C82.4276 127.752 82.7316 127.176 82.7316 126.424ZM80.5236 135V133.656H79.1476V135H80.5236ZM100.861 123.608H99.5651L97.3411 132.792L94.8291 123.608H93.7411L91.2291 132.792L89.0051 123.608H87.7091L90.6211 135H91.7571L94.2851 125.88L96.8131 135H97.9491L100.861 123.608ZM107.941 131.368V130.84C107.941 128.504 106.741 127.032 104.709 127.032C102.709 127.032 101.477 128.52 101.477 131.064C101.477 133.848 102.837 135.096 104.917 135.096C106.261 135.096 106.997 134.68 107.797 133.88L107.013 133.192C106.389 133.816 105.861 134.088 104.949 134.088C103.445 134.088 102.629 133.096 102.629 131.368H107.941ZM106.789 130.504H102.629C102.661 129.864 102.693 129.624 102.869 129.192C103.173 128.472 103.877 128.008 104.709 128.008C105.541 128.008 106.245 128.472 106.549 129.192C106.725 129.624 106.757 129.864 106.789 130.504ZM120.57 135V129.944C120.57 128.168 119.514 127.032 117.738 127.032C116.858 127.032 116.106 127.336 115.53 127.992V123.608H114.378V135H115.53V130.136C115.53 128.776 116.314 128.056 117.498 128.056C118.682 128.056 119.418 128.76 119.418 130.136V135H120.57ZM128.978 135V129.656C128.978 127.944 127.938 127.032 125.826 127.032C124.546 127.032 123.746 127.288 123.042 128.2L123.826 128.92C124.29 128.264 124.802 128.024 125.81 128.024C127.25 128.024 127.826 128.6 127.826 129.752V130.504H125.458C123.698 130.504 122.738 131.4 122.738 132.776C122.738 133.4 122.946 133.992 123.33 134.376C123.826 134.888 124.466 135.096 125.554 135.096C126.61 135.096 127.186 134.888 127.826 134.248V135H128.978ZM127.826 132.216C127.826 132.872 127.698 133.32 127.426 133.576C126.93 134.056 126.338 134.104 125.666 134.104C124.418 134.104 123.858 133.672 123.858 132.76C123.858 131.848 124.434 131.368 125.618 131.368H127.826V132.216ZM137.32 127.128H136.072L133.912 133.448L131.768 127.128H130.52L133.4 135H134.424L137.32 127.128ZM144.816 131.368V130.84C144.816 128.504 143.616 127.032 141.584 127.032C139.584 127.032 138.352 128.52 138.352 131.064C138.352 133.848 139.712 135.096 141.792 135.096C143.136 135.096 143.872 134.68 144.672 133.88L143.888 133.192C143.264 133.816 142.736 134.088 141.824 134.088C140.32 134.088 139.504 133.096 139.504 131.368H144.816ZM143.664 130.504H139.504C139.536 129.864 139.568 129.624 139.744 129.192C140.048 128.472 140.752 128.008 141.584 128.008C142.416 128.008 143.12 128.472 143.424 129.192C143.6 129.624 143.632 129.864 143.664 130.504ZM154.277 135V134.008H153.669C152.933 134.008 152.597 133.576 152.597 132.856V128.056H154.277V127.176H152.597V124.712H151.445V127.176H150.453V128.056H151.445V132.888C151.445 134.056 152.117 135 153.461 135H154.277ZM162.757 135V129.944C162.757 128.168 161.701 127.032 159.925 127.032C159.045 127.032 158.293 127.336 157.717 127.992V123.608H156.565V135H157.717V130.136C157.717 128.776 158.501 128.056 159.685 128.056C160.869 128.056 161.605 128.76 161.605 130.136V135H162.757ZM171.581 131.368V130.84C171.581 128.504 170.381 127.032 168.349 127.032C166.349 127.032 165.117 128.52 165.117 131.064C165.117 133.848 166.477 135.096 168.557 135.096C169.901 135.096 170.637 134.68 171.437 133.88L170.653 133.192C170.029 133.816 169.501 134.088 168.589 134.088C167.085 134.088 166.269 133.096 166.269 131.368H171.581ZM170.429 130.504H166.269C166.301 129.864 166.333 129.624 166.509 129.192C166.813 128.472 167.517 128.008 168.349 128.008C169.181 128.008 169.885 128.472 170.189 129.192C170.365 129.624 170.397 129.864 170.429 130.504ZM183.666 133.928L182.882 133.176C182.29 133.832 181.826 134.072 181.074 134.072C180.306 134.072 179.666 133.768 179.25 133.176C178.882 132.664 178.738 132.056 178.738 131.064C178.738 130.072 178.882 129.464 179.25 128.952C179.666 128.36 180.306 128.056 181.074 128.056C181.826 128.056 182.29 128.28 182.882 128.936L183.666 128.2C182.85 127.32 182.162 127.032 181.074 127.032C179.09 127.032 177.586 128.376 177.586 131.064C177.586 133.752 179.09 135.096 181.074 135.096C182.162 135.096 182.85 134.808 183.666 133.928ZM191.644 131.064C191.644 129.848 191.484 128.744 190.684 127.928C190.14 127.384 189.388 127.032 188.428 127.032C187.468 127.032 186.716 127.384 186.172 127.928C185.372 128.744 185.212 129.848 185.212 131.064C185.212 132.28 185.372 133.384 186.172 134.2C186.716 134.744 187.468 135.096 188.428 135.096C189.388 135.096 190.14 134.744 190.684 134.2C191.484 133.384 191.644 132.28 191.644 131.064ZM190.492 131.064C190.492 131.944 190.444 132.92 189.868 133.496C189.5 133.864 188.988 134.072 188.428 134.072C187.868 134.072 187.372 133.864 187.004 133.496C186.428 132.92 186.364 131.944 186.364 131.064C186.364 130.184 186.428 129.208 187.004 128.632C187.372 128.264 187.868 128.056 188.428 128.056C188.988 128.056 189.5 128.264 189.868 128.632C190.444 129.208 190.492 130.184 190.492 131.064ZM199.36 127.768C198.8 127.208 198.224 127.032 197.472 127.032C196.56 127.032 195.696 127.432 195.264 128.088V127.128H194.112V135H195.264V130.168C195.264 128.968 196 128.056 197.152 128.056C197.76 128.056 198.08 128.2 198.512 128.632L199.36 127.768ZM206.094 127.768C205.534 127.208 204.958 127.032 204.206 127.032C203.294 127.032 202.43 127.432 201.998 128.088V127.128H200.846V135H201.998V130.168C201.998 128.968 202.734 128.056 203.886 128.056C204.494 128.056 204.814 128.2 205.246 128.632L206.094 127.768ZM213.066 131.368V130.84C213.066 128.504 211.866 127.032 209.834 127.032C207.834 127.032 206.602 128.52 206.602 131.064C206.602 133.848 207.962 135.096 210.042 135.096C211.386 135.096 212.122 134.68 212.922 133.88L212.138 133.192C211.514 133.816 210.986 134.088 210.074 134.088C208.57 134.088 207.754 133.096 207.754 131.368H213.066ZM211.914 130.504H207.754C207.786 129.864 207.818 129.624 207.994 129.192C208.298 128.472 209.002 128.008 209.834 128.008C210.666 128.008 211.37 128.472 211.674 129.192C211.85 129.624 211.882 129.864 211.914 130.504ZM221.166 133.928L220.382 133.176C219.79 133.832 219.326 134.072 218.574 134.072C217.806 134.072 217.166 133.768 216.75 133.176C216.382 132.664 216.238 132.056 216.238 131.064C216.238 130.072 216.382 129.464 216.75 128.952C217.166 128.36 217.806 128.056 218.574 128.056C219.326 128.056 219.79 128.28 220.382 128.936L221.166 128.2C220.35 127.32 219.662 127.032 218.574 127.032C216.59 127.032 215.086 128.376 215.086 131.064C215.086 133.752 216.59 135.096 218.574 135.096C219.662 135.096 220.35 134.808 221.166 133.928ZM226.386 135V134.008H225.778C225.042 134.008 224.706 133.576 224.706 132.856V128.056H226.386V127.176H224.706V124.712H223.554V127.176H222.562V128.056H223.554V132.888C223.554 134.056 224.226 135 225.57 135H226.386ZM242.627 127.128H241.379L239.587 133.448L237.507 127.128H236.515L234.451 133.448L232.643 127.128H231.395L233.891 135H234.963L237.011 128.888L239.075 135H240.147L242.627 127.128ZM250.175 131.064C250.175 129.848 250.015 128.744 249.215 127.928C248.671 127.384 247.919 127.032 246.959 127.032C245.999 127.032 245.247 127.384 244.703 127.928C243.903 128.744 243.743 129.848 243.743 131.064C243.743 132.28 243.903 133.384 244.703 134.2C245.247 134.744 245.999 135.096 246.959 135.096C247.919 135.096 248.671 134.744 249.215 134.2C250.015 133.384 250.175 132.28 250.175 131.064ZM249.023 131.064C249.023 131.944 248.975 132.92 248.399 133.496C248.031 133.864 247.519 134.072 246.959 134.072C246.399 134.072 245.903 133.864 245.535 133.496C244.959 132.92 244.895 131.944 244.895 131.064C244.895 130.184 244.959 129.208 245.535 128.632C245.903 128.264 246.399 128.056 246.959 128.056C247.519 128.056 248.031 128.264 248.399 128.632C248.975 129.208 249.023 130.184 249.023 131.064ZM257.891 127.768C257.331 127.208 256.755 127.032 256.003 127.032C255.091 127.032 254.227 127.432 253.795 128.088V127.128H252.643V135H253.795V130.168C253.795 128.968 254.531 128.056 255.683 128.056C256.291 128.056 256.611 128.2 257.043 128.632L257.891 127.768ZM265.986 135L262.85 130.136L265.522 127.128H264.082L260.53 131.224V123.608H259.378V135H260.53V132.728L262.066 130.968L264.562 135H265.986ZM273.636 132.696C273.636 131.224 272.692 130.696 271.316 130.568L270.052 130.456C269.06 130.376 268.676 129.976 268.676 129.304C268.676 128.504 269.284 128.008 270.436 128.008C271.252 128.008 271.972 128.2 272.532 128.632L273.284 127.88C272.58 127.304 271.572 127.032 270.452 127.032C268.772 127.032 267.556 127.896 267.556 129.336C267.556 130.632 268.372 131.32 269.908 131.448L271.204 131.56C272.116 131.64 272.516 132.024 272.516 132.712C272.516 133.64 271.716 134.104 270.42 134.104C269.444 134.104 268.596 133.848 267.972 133.192L267.204 133.96C268.068 134.792 269.108 135.096 270.436 135.096C272.34 135.096 273.636 134.216 273.636 132.696ZM282.085 135V129.944C282.085 128.168 281.029 127.032 279.253 127.032C278.373 127.032 277.621 127.336 277.045 127.992V123.608H275.893V135H277.045V130.136C277.045 128.776 277.829 128.056 279.013 128.056C280.197 128.056 280.933 128.76 280.933 130.136V135H282.085ZM290.91 131.368V130.84C290.91 128.504 289.71 127.032 287.678 127.032C285.678 127.032 284.446 128.52 284.446 131.064C284.446 133.848 285.806 135.096 287.886 135.096C289.23 135.096 289.966 134.68 290.766 133.88L289.982 133.192C289.358 133.816 288.83 134.088 287.918 134.088C286.414 134.088 285.598 133.096 285.598 131.368H290.91ZM289.758 130.504H285.598C285.63 129.864 285.662 129.624 285.838 129.192C286.142 128.472 286.846 128.008 287.678 128.008C288.51 128.008 289.214 128.472 289.518 129.192C289.694 129.624 289.726 129.864 289.758 130.504ZM299.394 131.368V130.84C299.394 128.504 298.194 127.032 296.162 127.032C294.162 127.032 292.93 128.52 292.93 131.064C292.93 133.848 294.29 135.096 296.37 135.096C297.714 135.096 298.45 134.68 299.25 133.88L298.466 133.192C297.842 133.816 297.314 134.088 296.402 134.088C294.898 134.088 294.082 133.096 294.082 131.368H299.394ZM298.242 130.504H294.082C294.114 129.864 294.146 129.624 294.322 129.192C294.626 128.472 295.33 128.008 296.162 128.008C296.994 128.008 297.698 128.472 298.002 129.192C298.178 129.624 298.21 129.864 298.242 130.504ZM304.87 135V134.008H304.262C303.526 134.008 303.19 133.576 303.19 132.856V128.056H304.87V127.176H303.19V124.712H302.038V127.176H301.046V128.056H302.038V132.888C302.038 134.056 302.71 135 304.054 135H304.87ZM44.528 152.056V151.176H42.848V149.72C42.848 149 43.168 148.568 43.904 148.568H44.528V147.576H43.696C42.352 147.576 41.696 148.52 41.696 149.688V151.176H40.688V152.056H41.696V159H42.848V152.056H44.528ZM52.1904 155.064C52.1904 153.848 52.0304 152.744 51.2304 151.928C50.6864 151.384 49.9344 151.032 48.9744 151.032C48.0144 151.032 47.2624 151.384 46.7184 151.928C45.9184 152.744 45.7584 153.848 45.7584 155.064C45.7584 156.28 45.9184 157.384 46.7184 158.2C47.2624 158.744 48.0144 159.096 48.9744 159.096C49.9344 159.096 50.6864 158.744 51.2304 158.2C52.0304 157.384 52.1904 156.28 52.1904 155.064ZM51.0384 155.064C51.0384 155.944 50.9904 156.92 50.4144 157.496C50.0464 157.864 49.5344 158.072 48.9744 158.072C48.4144 158.072 47.9184 157.864 47.5504 157.496C46.9744 156.92 46.9104 155.944 46.9104 155.064C46.9104 154.184 46.9744 153.208 47.5504 152.632C47.9184 152.264 48.4144 152.056 48.9744 152.056C49.5344 152.056 50.0464 152.264 50.4144 152.632C50.9904 153.208 51.0384 154.184 51.0384 155.064ZM59.9068 151.768C59.3468 151.208 58.7708 151.032 58.0188 151.032C57.1068 151.032 56.2428 151.432 55.8108 152.088V151.128H54.6588V159H55.8108V154.168C55.8108 152.968 56.5468 152.056 57.6988 152.056C58.3068 152.056 58.6268 152.2 59.0588 152.632L59.9068 151.768ZM68.4015 159V158.008H67.7935C67.0575 158.008 66.7215 157.576 66.7215 156.856V152.056H68.4015V151.176H66.7215V148.712H65.5695V151.176H64.5775V152.056H65.5695V156.888C65.5695 158.056 66.2415 159 67.5855 159H68.4015ZM76.882 159V153.944C76.882 152.168 75.826 151.032 74.05 151.032C73.17 151.032 72.418 151.336 71.842 151.992V147.608H70.69V159H71.842V154.136C71.842 152.776 72.626 152.056 73.81 152.056C74.994 152.056 75.73 152.76 75.73 154.136V159H76.882ZM85.2904 159V153.656C85.2904 151.944 84.2504 151.032 82.1384 151.032C80.8584 151.032 80.0584 151.288 79.3544 152.2L80.1384 152.92C80.6024 152.264 81.1144 152.024 82.1224 152.024C83.5624 152.024 84.1384 152.6 84.1384 153.752V154.504H81.7704C80.0104 154.504 79.0504 155.4 79.0504 156.776C79.0504 157.4 79.2584 157.992 79.6424 158.376C80.1384 158.888 80.7784 159.096 81.8664 159.096C82.9224 159.096 83.4984 158.888 84.1384 158.248V159H85.2904ZM84.1384 156.216C84.1384 156.872 84.0104 157.32 83.7384 157.576C83.2424 158.056 82.6504 158.104 81.9784 158.104C80.7304 158.104 80.1704 157.672 80.1704 156.76C80.1704 155.848 80.7464 155.368 81.9304 155.368H84.1384V156.216ZM91.1203 159V158.008H90.5123C89.7763 158.008 89.4403 157.576 89.4403 156.856V152.056H91.1203V151.176H89.4403V148.712H88.2883V151.176H87.2963V152.056H88.2883V156.888C88.2883 158.056 88.9603 159 90.3043 159H91.1203ZM95.4088 147.608H94.0807L94.2408 155.8H95.2328L95.4088 147.608ZM95.4248 159V157.656H94.0488V159H95.4248ZM110.2 153.304C110.2 150.888 110.2 149.768 109.128 148.696C108.36 147.928 107.352 147.512 106.216 147.512C105.08 147.512 104.072 147.928 103.304 148.696C102.232 149.768 102.232 150.888 102.232 153.304C102.232 155.72 102.232 156.84 103.304 157.912C104.072 158.68 105.08 159.096 106.216 159.096C107.352 159.096 108.36 158.68 109.128 157.912C110.2 156.84 110.2 155.72 110.2 153.304ZM108.984 153.304C108.984 155.688 108.904 156.456 108.184 157.192C107.688 157.704 106.968 158.008 106.216 158.008C105.464 158.008 104.744 157.704 104.248 157.192C103.528 156.456 103.448 155.688 103.448 153.304C103.448 150.92 103.528 150.152 104.248 149.416C104.744 148.904 105.464 148.6 106.216 148.6C106.968 148.6 107.688 148.904 108.184 149.416C108.904 150.152 108.984 150.92 108.984 153.304ZM118.974 159V151.128H117.822V155.976C117.822 157.352 117.038 158.072 115.854 158.072C114.67 158.072 113.934 157.368 113.934 155.976V151.128H112.782V156.152C112.782 157.064 113.022 157.816 113.582 158.36C114.062 158.84 114.766 159.096 115.614 159.096C116.494 159.096 117.278 158.76 117.838 158.12V159H118.974ZM127.094 151.768C126.534 151.208 125.958 151.032 125.206 151.032C124.294 151.032 123.43 151.432 122.998 152.088V151.128H121.846V159H122.998V154.168C122.998 152.968 123.734 152.056 124.886 152.056C125.494 152.056 125.814 152.2 126.246 152.632L127.094 151.768ZM142.533 151.128H141.285L139.493 157.448L137.413 151.128H136.421L134.357 157.448L132.549 151.128H131.301L133.797 159H134.869L136.917 152.888L138.981 159H140.053L142.533 151.128ZM150.097 155.368V154.84C150.097 152.504 148.897 151.032 146.865 151.032C144.865 151.032 143.633 152.52 143.633 155.064C143.633 157.848 144.993 159.096 147.073 159.096C148.417 159.096 149.153 158.68 149.953 157.88L149.169 157.192C148.545 157.816 148.017 158.088 147.105 158.088C145.601 158.088 144.785 157.096 144.785 155.368H150.097ZM148.945 154.504H144.785C144.817 153.864 144.849 153.624 145.025 153.192C145.329 152.472 146.033 152.008 146.865 152.008C147.697 152.008 148.401 152.472 148.705 153.192C148.881 153.624 148.913 153.864 148.945 154.504ZM158.805 155.064C158.805 153.832 158.645 152.52 157.845 151.72C157.429 151.304 156.725 151.032 155.925 151.032C155.061 151.032 154.341 151.224 153.701 152.04V147.608H152.549V159H153.701V158.056C154.341 158.888 155.061 159.096 155.925 159.096C156.725 159.096 157.429 158.824 157.845 158.408C158.645 157.608 158.805 156.296 158.805 155.064ZM157.653 155.064C157.653 156.6 157.397 158.072 155.685 158.072C153.973 158.072 153.701 156.6 153.701 155.064C153.701 153.528 153.973 152.056 155.685 152.056C157.397 152.056 157.653 153.528 157.653 155.064ZM171.509 155.064C171.509 153.832 171.349 152.52 170.549 151.72C170.133 151.304 169.429 151.032 168.629 151.032C167.765 151.032 167.045 151.224 166.405 152.056V151.128H165.253V162.52H166.405V158.072C167.045 158.888 167.765 159.096 168.629 159.096C169.429 159.096 170.133 158.824 170.549 158.408C171.349 157.608 171.509 156.296 171.509 155.064ZM170.357 155.064C170.357 156.6 170.101 158.072 168.389 158.072C166.677 158.072 166.405 156.6 166.405 155.064C166.405 153.528 166.677 152.056 168.389 152.056C170.101 152.056 170.357 153.528 170.357 155.064ZM179.587 159V153.656C179.587 151.944 178.547 151.032 176.435 151.032C175.155 151.032 174.355 151.288 173.651 152.2L174.435 152.92C174.899 152.264 175.411 152.024 176.419 152.024C177.859 152.024 178.435 152.6 178.435 153.752V154.504H176.067C174.307 154.504 173.347 155.4 173.347 156.776C173.347 157.4 173.555 157.992 173.939 158.376C174.435 158.888 175.075 159.096 176.163 159.096C177.219 159.096 177.795 158.888 178.435 158.248V159H179.587ZM178.435 156.216C178.435 156.872 178.307 157.32 178.035 157.576C177.539 158.056 176.947 158.104 176.275 158.104C175.027 158.104 174.467 157.672 174.467 156.76C174.467 155.848 175.043 155.368 176.227 155.368H178.435V156.216ZM188.201 159.24V151.128H187.065V152.056C186.425 151.224 185.721 151.032 184.857 151.032C184.057 151.032 183.353 151.304 182.937 151.72C182.153 152.504 181.977 153.72 181.977 155C181.977 156.28 182.153 157.496 182.937 158.28C183.353 158.696 184.041 158.984 184.841 158.984C185.689 158.984 186.409 158.776 187.049 157.96V159.192C187.049 160.536 186.409 161.608 184.889 161.608C183.977 161.608 183.577 161.336 183.001 160.824L182.249 161.56C183.081 162.312 183.737 162.616 184.921 162.616C186.985 162.616 188.201 161.192 188.201 159.24ZM187.049 155C187.049 156.472 186.809 157.944 185.097 157.944C183.385 157.944 183.129 156.472 183.129 155C183.129 153.528 183.385 152.056 185.097 152.056C186.809 152.056 187.049 153.528 187.049 155ZM197.113 155.368V154.84C197.113 152.504 195.913 151.032 193.881 151.032C191.881 151.032 190.649 152.52 190.649 155.064C190.649 157.848 192.009 159.096 194.089 159.096C195.433 159.096 196.169 158.68 196.969 157.88L196.185 157.192C195.561 157.816 195.033 158.088 194.121 158.088C192.617 158.088 191.801 157.096 191.801 155.368H197.113ZM195.961 154.504H191.801C191.833 153.864 191.865 153.624 192.041 153.192C192.345 152.472 193.049 152.008 193.881 152.008C194.713 152.008 195.417 152.472 195.721 153.192C195.897 153.624 195.929 153.864 195.961 154.504ZM205.245 156.696C205.245 155.224 204.301 154.696 202.925 154.568L201.661 154.456C200.669 154.376 200.285 153.976 200.285 153.304C200.285 152.504 200.893 152.008 202.045 152.008C202.861 152.008 203.581 152.2 204.141 152.632L204.893 151.88C204.189 151.304 203.181 151.032 202.061 151.032C200.381 151.032 199.165 151.896 199.165 153.336C199.165 154.632 199.981 155.32 201.517 155.448L202.813 155.56C203.725 155.64 204.125 156.024 204.125 156.712C204.125 157.64 203.325 158.104 202.029 158.104C201.053 158.104 200.205 157.848 199.581 157.192L198.813 157.96C199.677 158.792 200.717 159.096 202.045 159.096C203.949 159.096 205.245 158.216 205.245 156.696ZM217.503 155.064C217.503 153.848 217.343 152.744 216.543 151.928C215.999 151.384 215.247 151.032 214.287 151.032C213.327 151.032 212.575 151.384 212.031 151.928C211.231 152.744 211.071 153.848 211.071 155.064C211.071 156.28 211.231 157.384 212.031 158.2C212.575 158.744 213.327 159.096 214.287 159.096C215.247 159.096 215.999 158.744 216.543 158.2C217.343 157.384 217.503 156.28 217.503 155.064ZM216.351 155.064C216.351 155.944 216.303 156.92 215.727 157.496C215.359 157.864 214.847 158.072 214.287 158.072C213.727 158.072 213.231 157.864 212.863 157.496C212.287 156.92 212.223 155.944 212.223 155.064C212.223 154.184 212.287 153.208 212.863 152.632C213.231 152.264 213.727 152.056 214.287 152.056C214.847 152.056 215.359 152.264 215.727 152.632C216.303 153.208 216.351 154.184 216.351 155.064ZM223.059 152.056V151.176H221.379V149.72C221.379 149 221.699 148.568 222.435 148.568H223.059V147.576H222.227C220.883 147.576 220.227 148.52 220.227 149.688V151.176H219.219V152.056H220.227V159H221.379V152.056H223.059ZM228.091 152.056V151.176H226.411V149.72C226.411 149 226.731 148.568 227.467 148.568H228.091V147.576H227.259C225.914 147.576 225.259 148.52 225.259 149.688V151.176H224.251V152.056H225.259V159H226.411V152.056H228.091ZM235.769 155.368V154.84C235.769 152.504 234.569 151.032 232.537 151.032C230.537 151.032 229.305 152.52 229.305 155.064C229.305 157.848 230.665 159.096 232.745 159.096C234.089 159.096 234.825 158.68 235.625 157.88L234.841 157.192C234.217 157.816 233.689 158.088 232.777 158.088C231.273 158.088 230.457 157.096 230.457 155.368H235.769ZM234.617 154.504H230.457C230.489 153.864 230.521 153.624 230.697 153.192C231.001 152.472 231.705 152.008 232.537 152.008C233.369 152.008 234.073 152.472 234.377 153.192C234.553 153.624 234.585 153.864 234.617 154.504ZM243.469 151.768C242.909 151.208 242.333 151.032 241.581 151.032C240.669 151.032 239.805 151.432 239.373 152.088V151.128H238.221V159H239.373V154.168C239.373 152.968 240.109 152.056 241.261 152.056C241.869 152.056 242.189 152.2 242.621 152.632L243.469 151.768ZM254.556 159V153.656C254.556 151.944 253.516 151.032 251.404 151.032C250.124 151.032 249.324 151.288 248.62 152.2L249.404 152.92C249.868 152.264 250.38 152.024 251.388 152.024C252.828 152.024 253.404 152.6 253.404 153.752V154.504H251.036C249.276 154.504 248.316 155.4 248.316 156.776C248.316 157.4 248.524 157.992 248.908 158.376C249.404 158.888 250.044 159.096 251.132 159.096C252.188 159.096 252.764 158.888 253.404 158.248V159H254.556ZM253.404 156.216C253.404 156.872 253.276 157.32 253.004 157.576C252.508 158.056 251.916 158.104 251.244 158.104C249.996 158.104 249.436 157.672 249.436 156.76C249.436 155.848 250.012 155.368 251.196 155.368H253.404V156.216ZM264.434 152.056V151.176H262.754V149.72C262.754 149 263.074 148.568 263.81 148.568H264.434V147.576H263.602C262.258 147.576 261.602 148.52 261.602 149.688V151.176H260.594V152.056H261.602V159H262.754V152.056H264.434ZM272.49 159V151.128H271.338V155.976C271.338 157.352 270.554 158.072 269.37 158.072C268.186 158.072 267.45 157.368 267.45 155.976V151.128H266.298V156.152C266.298 157.064 266.538 157.816 267.098 158.36C267.578 158.84 268.282 159.096 269.13 159.096C270.01 159.096 270.794 158.76 271.354 158.12V159H272.49ZM281.554 159V153.96C281.554 153.048 281.298 152.312 280.738 151.768C280.258 151.288 279.57 151.032 278.722 151.032C277.842 151.032 277.074 151.352 276.514 151.992V151.128H275.362V159H276.514V154.152C276.514 152.776 277.282 152.056 278.466 152.056C279.65 152.056 280.402 152.76 280.402 154.152V159H281.554ZM293.947 159V153.656C293.947 151.944 292.907 151.032 290.795 151.032C289.515 151.032 288.715 151.288 288.011 152.2L288.795 152.92C289.259 152.264 289.771 152.024 290.779 152.024C292.219 152.024 292.795 152.6 292.795 153.752V154.504H290.427C288.667 154.504 287.707 155.4 287.707 156.776C287.707 157.4 287.915 157.992 288.299 158.376C288.795 158.888 289.435 159.096 290.523 159.096C291.579 159.096 292.155 158.888 292.795 158.248V159H293.947ZM292.795 156.216C292.795 156.872 292.667 157.32 292.395 157.576C291.899 158.056 291.307 158.104 290.635 158.104C289.387 158.104 288.827 157.672 288.827 156.76C288.827 155.848 289.403 155.368 290.587 155.368H292.795V156.216ZM302.945 159V153.96C302.945 153.048 302.689 152.312 302.129 151.768C301.649 151.288 300.961 151.032 300.113 151.032C299.233 151.032 298.465 151.352 297.905 151.992V151.128H296.753V159H297.905V154.152C297.905 152.776 298.673 152.056 299.857 152.056C301.041 152.056 301.793 152.76 301.793 154.152V159H302.945ZM311.577 159V147.608H310.425V152.04C309.785 151.224 309.065 151.032 308.201 151.032C307.401 151.032 306.697 151.304 306.281 151.72C305.481 152.52 305.321 153.832 305.321 155.064C305.321 156.296 305.481 157.608 306.281 158.408C306.697 158.824 307.401 159.096 308.201 159.096C309.065 159.096 309.801 158.888 310.441 158.056V159H311.577ZM310.425 155.064C310.425 156.6 310.169 158.072 308.457 158.072C306.745 158.072 306.473 156.6 306.473 155.064C306.473 153.528 306.745 152.056 308.457 152.056C310.169 152.056 310.425 153.528 310.425 155.064ZM47.472 179.368V178.84C47.472 176.504 46.272 175.032 44.24 175.032C42.24 175.032 41.008 176.52 41.008 179.064C41.008 181.848 42.368 183.096 44.448 183.096C45.792 183.096 46.528 182.68 47.328 181.88L46.544 181.192C45.92 181.816 45.392 182.088 44.48 182.088C42.976 182.088 42.16 181.096 42.16 179.368H47.472ZM46.32 178.504H42.16C42.192 177.864 42.224 177.624 42.4 177.192C42.704 176.472 43.408 176.008 44.24 176.008C45.072 176.008 45.776 176.472 46.08 177.192C46.256 177.624 46.288 177.864 46.32 178.504ZM55.5404 183V177.656C55.5404 175.944 54.5004 175.032 52.3884 175.032C51.1084 175.032 50.3084 175.288 49.6044 176.2L50.3884 176.92C50.8524 176.264 51.3644 176.024 52.3724 176.024C53.8124 176.024 54.3884 176.6 54.3884 177.752V178.504H52.0204C50.2604 178.504 49.3004 179.4 49.3004 180.776C49.3004 181.4 49.5084 181.992 49.8924 182.376C50.3884 182.888 51.0284 183.096 52.1164 183.096C53.1724 183.096 53.7484 182.888 54.3884 182.248V183H55.5404ZM54.3884 180.216C54.3884 180.872 54.2604 181.32 53.9884 181.576C53.4924 182.056 52.9004 182.104 52.2284 182.104C50.9804 182.104 50.4204 181.672 50.4204 180.76C50.4204 179.848 50.9964 179.368 52.1804 179.368H54.3884V180.216ZM64.0263 180.696C64.0263 179.224 63.0823 178.696 61.7063 178.568L60.4423 178.456C59.4503 178.376 59.0663 177.976 59.0663 177.304C59.0663 176.504 59.6743 176.008 60.8263 176.008C61.6423 176.008 62.3623 176.2 62.9223 176.632L63.6743 175.88C62.9703 175.304 61.9623 175.032 60.8423 175.032C59.1623 175.032 57.9463 175.896 57.9463 177.336C57.9463 178.632 58.7623 179.32 60.2983 179.448L61.5943 179.56C62.5063 179.64 62.9063 180.024 62.9063 180.712C62.9063 181.64 62.1063 182.104 60.8103 182.104C59.8343 182.104 58.9863 181.848 58.3623 181.192L57.5943 181.96C58.4583 182.792 59.4983 183.096 60.8263 183.096C62.7303 183.096 64.0263 182.216 64.0263 180.696ZM71.8198 175.128H70.5718L68.4278 181.448L66.2678 175.128H65.0198L67.8518 182.84L67.2918 184.376C67.0358 185.096 66.7958 185.352 65.9958 185.352H65.6438V186.376H66.1398C66.6998 186.376 67.2598 186.232 67.6758 185.832C67.8998 185.624 68.0758 185.336 68.2358 184.904L71.8198 175.128ZM87.3924 175.128H86.1444L84.3524 181.448L82.2724 175.128H81.2804L79.2164 181.448L77.4084 175.128H76.1604L78.6564 183H79.7284L81.7764 176.888L83.8404 183H84.9124L87.3924 175.128ZM94.6185 183V177.656C94.6185 175.944 93.5785 175.032 91.4665 175.032C90.1865 175.032 89.3865 175.288 88.6825 176.2L89.4665 176.92C89.9305 176.264 90.4425 176.024 91.4505 176.024C92.8905 176.024 93.4665 176.6 93.4665 177.752V178.504H91.0985C89.3385 178.504 88.3785 179.4 88.3785 180.776C88.3785 181.4 88.5865 181.992 88.9705 182.376C89.4665 182.888 90.1065 183.096 91.1945 183.096C92.2505 183.096 92.8265 182.888 93.4665 182.248V183H94.6185ZM93.4665 180.216C93.4665 180.872 93.3385 181.32 93.0665 181.576C92.5705 182.056 91.9785 182.104 91.3065 182.104C90.0585 182.104 89.4985 181.672 89.4985 180.76C89.4985 179.848 90.0745 179.368 91.2585 179.368H93.4665V180.216ZM102.96 175.128H101.712L99.5684 181.448L97.4084 175.128H96.1604L98.9924 182.84L98.4324 184.376C98.1764 185.096 97.9364 185.352 97.1364 185.352H96.7844V186.376H97.2804C97.8404 186.376 98.4004 186.232 98.8164 185.832C99.0404 185.624 99.2164 185.336 99.3764 184.904L102.96 175.128ZM111.589 183V182.008H110.981C110.245 182.008 109.909 181.576 109.909 180.856V176.056H111.589V175.176H109.909V172.712H108.757V175.176H107.765V176.056H108.757V180.888C108.757 182.056 109.429 183 110.773 183H111.589ZM119.769 179.064C119.769 177.848 119.609 176.744 118.809 175.928C118.265 175.384 117.513 175.032 116.553 175.032C115.593 175.032 114.841 175.384 114.297 175.928C113.497 176.744 113.337 177.848 113.337 179.064C113.337 180.28 113.497 181.384 114.297 182.2C114.841 182.744 115.593 183.096 116.553 183.096C117.513 183.096 118.265 182.744 118.809 182.2C119.609 181.384 119.769 180.28 119.769 179.064ZM118.617 179.064C118.617 179.944 118.569 180.92 117.993 181.496C117.625 181.864 117.113 182.072 116.553 182.072C115.993 182.072 115.497 181.864 115.129 181.496C114.553 180.92 114.489 179.944 114.489 179.064C114.489 178.184 114.553 177.208 115.129 176.632C115.497 176.264 115.993 176.056 116.553 176.056C117.113 176.056 117.625 176.264 117.993 176.632C118.569 177.208 118.617 178.184 118.617 179.064ZM132.829 183L129.693 178.136L132.365 175.128H130.925L127.373 179.224V171.608H126.221V183H127.373V180.728L128.909 178.968L131.405 183H132.829ZM140.519 179.368V178.84C140.519 176.504 139.319 175.032 137.287 175.032C135.287 175.032 134.055 176.52 134.055 179.064C134.055 181.848 135.415 183.096 137.495 183.096C138.839 183.096 139.575 182.68 140.375 181.88L139.591 181.192C138.967 181.816 138.439 182.088 137.527 182.088C136.023 182.088 135.207 181.096 135.207 179.368H140.519ZM139.367 178.504H135.207C135.239 177.864 135.271 177.624 135.447 177.192C135.751 176.472 136.455 176.008 137.287 176.008C138.119 176.008 138.823 176.472 139.127 177.192C139.303 177.624 139.335 177.864 139.367 178.504ZM149.003 179.368V178.84C149.003 176.504 147.803 175.032 145.771 175.032C143.771 175.032 142.539 176.52 142.539 179.064C142.539 181.848 143.899 183.096 145.979 183.096C147.323 183.096 148.059 182.68 148.859 181.88L148.075 181.192C147.451 181.816 146.923 182.088 146.011 182.088C144.507 182.088 143.691 181.096 143.691 179.368H149.003ZM147.851 178.504H143.691C143.723 177.864 143.755 177.624 143.931 177.192C144.235 176.472 144.939 176.008 145.771 176.008C146.603 176.008 147.307 176.472 147.611 177.192C147.787 177.624 147.819 177.864 147.851 178.504ZM157.712 179.064C157.712 177.832 157.552 176.52 156.752 175.72C156.336 175.304 155.632 175.032 154.832 175.032C153.968 175.032 153.248 175.224 152.608 176.056V175.128H151.456V186.52H152.608V182.072C153.248 182.888 153.968 183.096 154.832 183.096C155.632 183.096 156.336 182.824 156.752 182.408C157.552 181.608 157.712 180.296 157.712 179.064ZM156.56 179.064C156.56 180.6 156.304 182.072 154.592 182.072C152.88 182.072 152.608 180.6 152.608 179.064C152.608 177.528 152.88 176.056 154.592 176.056C156.304 176.056 156.56 177.528 156.56 179.064ZM167.183 183V182.008H166.575C165.839 182.008 165.503 181.576 165.503 180.856V176.056H167.183V175.176H165.503V172.712H164.351V175.176H163.359V176.056H164.351V180.888C164.351 182.056 165.023 183 166.367 183H167.183ZM174.719 175.768C174.159 175.208 173.583 175.032 172.831 175.032C171.919 175.032 171.055 175.432 170.623 176.088V175.128H169.471V183H170.623V178.168C170.623 176.968 171.359 176.056 172.511 176.056C173.119 176.056 173.439 176.2 173.871 176.632L174.719 175.768ZM181.665 183V177.656C181.665 175.944 180.625 175.032 178.513 175.032C177.233 175.032 176.433 175.288 175.729 176.2L176.513 176.92C176.977 176.264 177.489 176.024 178.497 176.024C179.937 176.024 180.513 176.6 180.513 177.752V178.504H178.145C176.385 178.504 175.425 179.4 175.425 180.776C175.425 181.4 175.633 181.992 176.017 182.376C176.513 182.888 177.153 183.096 178.241 183.096C179.297 183.096 179.873 182.888 180.513 182.248V183H181.665ZM180.513 180.216C180.513 180.872 180.385 181.32 180.113 181.576C179.617 182.056 179.025 182.104 178.353 182.104C177.105 182.104 176.545 181.672 176.545 180.76C176.545 179.848 177.121 179.368 178.305 179.368H180.513V180.216ZM190.119 181.928L189.335 181.176C188.743 181.832 188.279 182.072 187.527 182.072C186.759 182.072 186.119 181.768 185.703 181.176C185.335 180.664 185.191 180.056 185.191 179.064C185.191 178.072 185.335 177.464 185.703 176.952C186.119 176.36 186.759 176.056 187.527 176.056C188.279 176.056 188.743 176.28 189.335 176.936L190.119 176.2C189.303 175.32 188.615 175.032 187.527 175.032C185.543 175.032 184.039 176.376 184.039 179.064C184.039 181.752 185.543 183.096 187.527 183.096C188.615 183.096 189.303 182.808 190.119 181.928ZM198.923 183L195.787 178.136L198.459 175.128H197.019L193.467 179.224V171.608H192.315V183H193.467V180.728L195.003 178.968L197.499 183H198.923ZM206.11 172.888V171.592H204.814V172.888H206.11ZM206.03 183V175.128H204.878V183H206.03ZM215.116 183V177.96C215.116 177.048 214.86 176.312 214.3 175.768C213.82 175.288 213.132 175.032 212.284 175.032C211.404 175.032 210.636 175.352 210.076 175.992V175.128H208.924V183H210.076V178.152C210.076 176.776 210.844 176.056 212.028 176.056C213.212 176.056 213.964 176.76 213.964 178.152V183H215.116ZM227.509 183V177.656C227.509 175.944 226.469 175.032 224.357 175.032C223.077 175.032 222.277 175.288 221.573 176.2L222.357 176.92C222.821 176.264 223.333 176.024 224.341 176.024C225.781 176.024 226.357 176.6 226.357 177.752V178.504H223.989C222.229 178.504 221.269 179.4 221.269 180.776C221.269 181.4 221.477 181.992 221.861 182.376C222.357 182.888 222.997 183.096 224.085 183.096C225.141 183.096 225.717 182.888 226.357 182.248V183H227.509ZM226.357 180.216C226.357 180.872 226.229 181.32 225.957 181.576C225.461 182.056 224.869 182.104 224.197 182.104C222.949 182.104 222.389 181.672 222.389 180.76C222.389 179.848 222.965 179.368 224.149 179.368H226.357V180.216ZM244.267 175.128H243.019L241.227 181.448L239.147 175.128H238.155L236.091 181.448L234.283 175.128H233.035L235.531 183H236.603L238.651 176.888L240.715 183H241.787L244.267 175.128ZM251.494 183V177.656C251.494 175.944 250.454 175.032 248.342 175.032C247.062 175.032 246.262 175.288 245.558 176.2L246.342 176.92C246.806 176.264 247.318 176.024 248.326 176.024C249.766 176.024 250.342 176.6 250.342 177.752V178.504H247.974C246.214 178.504 245.254 179.4 245.254 180.776C245.254 181.4 245.462 181.992 245.846 182.376C246.342 182.888 246.982 183.096 248.07 183.096C249.126 183.096 249.702 182.888 250.342 182.248V183H251.494ZM250.342 180.216C250.342 180.872 250.214 181.32 249.942 181.576C249.446 182.056 248.854 182.104 248.182 182.104C246.934 182.104 246.374 181.672 246.374 180.76C246.374 179.848 246.95 179.368 248.134 179.368H250.342V180.216ZM259.835 175.128H258.587L256.443 181.448L254.283 175.128H253.035L255.867 182.84L255.307 184.376C255.051 185.096 254.811 185.352 254.011 185.352H253.659V186.376H254.155C254.715 186.376 255.275 186.232 255.691 185.832C255.915 185.624 256.091 185.336 256.251 184.904L259.835 175.128ZM268.464 183V182.008H267.856C267.12 182.008 266.784 181.576 266.784 180.856V176.056H268.464V175.176H266.784V172.712H265.632V175.176H264.64V176.056H265.632V180.888C265.632 182.056 266.304 183 267.648 183H268.464ZM276.945 183V177.944C276.945 176.168 275.889 175.032 274.113 175.032C273.233 175.032 272.481 175.336 271.905 175.992V171.608H270.753V183H271.905V178.136C271.905 176.776 272.689 176.056 273.873 176.056C275.057 176.056 275.793 176.76 275.793 178.136V183H276.945ZM285.353 183V177.656C285.353 175.944 284.313 175.032 282.201 175.032C280.921 175.032 280.121 175.288 279.417 176.2L280.201 176.92C280.665 176.264 281.177 176.024 282.185 176.024C283.625 176.024 284.201 176.6 284.201 177.752V178.504H281.833C280.073 178.504 279.113 179.4 279.113 180.776C279.113 181.4 279.321 181.992 279.705 182.376C280.201 182.888 280.841 183.096 281.929 183.096C282.985 183.096 283.561 182.888 284.201 182.248V183H285.353ZM284.201 180.216C284.201 180.872 284.073 181.32 283.801 181.576C283.305 182.056 282.713 182.104 282.041 182.104C280.793 182.104 280.233 181.672 280.233 180.76C280.233 179.848 280.809 179.368 281.993 179.368H284.201V180.216ZM291.183 183V182.008H290.575C289.839 182.008 289.503 181.576 289.503 180.856V176.056H291.183V175.176H289.503V172.712H288.351V175.176H287.359V176.056H288.351V180.888C288.351 182.056 289.023 183 290.367 183H291.183ZM298.688 172.888V171.592H297.392V172.888H298.688ZM298.608 183V175.128H297.456V183H298.608ZM307.183 180.696C307.183 179.224 306.239 178.696 304.863 178.568L303.599 178.456C302.607 178.376 302.223 177.976 302.223 177.304C302.223 176.504 302.831 176.008 303.983 176.008C304.799 176.008 305.519 176.2 306.079 176.632L306.831 175.88C306.127 175.304 305.119 175.032 303.999 175.032C302.319 175.032 301.103 175.896 301.103 177.336C301.103 178.632 301.919 179.32 303.455 179.448L304.751 179.56C305.663 179.64 306.063 180.024 306.063 180.712C306.063 181.64 305.263 182.104 303.967 182.104C302.991 182.104 302.143 181.848 301.519 181.192L300.751 181.96C301.615 182.792 302.655 183.096 303.983 183.096C305.887 183.096 307.183 182.216 307.183 180.696ZM47.696 203.064C47.696 201.832 47.536 200.52 46.736 199.72C46.32 199.304 45.616 199.032 44.816 199.032C43.952 199.032 43.232 199.224 42.592 200.04V195.608H41.44V207H42.592V206.056C43.232 206.888 43.952 207.096 44.816 207.096C45.616 207.096 46.32 206.824 46.736 206.408C47.536 205.608 47.696 204.296 47.696 203.064ZM46.544 203.064C46.544 204.6 46.288 206.072 44.576 206.072C42.864 206.072 42.592 204.6 42.592 203.064C42.592 201.528 42.864 200.056 44.576 200.056C46.288 200.056 46.544 201.528 46.544 203.064ZM56.1748 203.064C56.1748 201.848 56.0148 200.744 55.2148 199.928C54.6708 199.384 53.9188 199.032 52.9588 199.032C51.9988 199.032 51.2468 199.384 50.7028 199.928C49.9028 200.744 49.7428 201.848 49.7428 203.064C49.7428 204.28 49.9028 205.384 50.7028 206.2C51.2468 206.744 51.9988 207.096 52.9588 207.096C53.9188 207.096 54.6708 206.744 55.2148 206.2C56.0148 205.384 56.1748 204.28 56.1748 203.064ZM55.0228 203.064C55.0228 203.944 54.9748 204.92 54.3988 205.496C54.0308 205.864 53.5188 206.072 52.9588 206.072C52.3988 206.072 51.9028 205.864 51.5348 205.496C50.9588 204.92 50.8948 203.944 50.8948 203.064C50.8948 202.184 50.9588 201.208 51.5348 200.632C51.9028 200.264 52.3988 200.056 52.9588 200.056C53.5188 200.056 54.0308 200.264 54.3988 200.632C54.9748 201.208 55.0228 202.184 55.0228 203.064ZM63.8911 199.768C63.3311 199.208 62.7551 199.032 62.0031 199.032C61.0911 199.032 60.2271 199.432 59.7951 200.088V199.128H58.6431V207H59.7951V202.168C59.7951 200.968 60.5311 200.056 61.6831 200.056C62.2911 200.056 62.6111 200.2 63.0431 200.632L63.8911 199.768ZM66.6095 196.888V195.592H65.3135V196.888H66.6095ZM66.5295 207V199.128H65.3775V207H66.5295ZM75.6164 207V201.96C75.6164 201.048 75.3604 200.312 74.8004 199.768C74.3204 199.288 73.6324 199.032 72.7844 199.032C71.9044 199.032 71.1364 199.352 70.5764 199.992V199.128H69.4244V207H70.5764V202.152C70.5764 200.776 71.3444 200.056 72.5284 200.056C73.7124 200.056 74.4644 200.76 74.4644 202.152V207H75.6164ZM84.2168 207.24V199.128H83.0808V200.056C82.4408 199.224 81.7368 199.032 80.8728 199.032C80.0728 199.032 79.3688 199.304 78.9528 199.72C78.1688 200.504 77.9928 201.72 77.9928 203C77.9928 204.28 78.1688 205.496 78.9528 206.28C79.3688 206.696 80.0568 206.984 80.8568 206.984C81.7048 206.984 82.4248 206.776 83.0648 205.96V207.192C83.0648 208.536 82.4248 209.608 80.9048 209.608C79.9928 209.608 79.5928 209.336 79.0168 208.824L78.2648 209.56C79.0968 210.312 79.7528 210.616 80.9368 210.616C83.0008 210.616 84.2168 209.192 84.2168 207.24ZM83.0648 203C83.0648 204.472 82.8248 205.944 81.1128 205.944C79.4008 205.944 79.1448 204.472 79.1448 203C79.1448 201.528 79.4008 200.056 81.1128 200.056C82.8248 200.056 83.0648 201.528 83.0648 203ZM96.6966 207V201.656C96.6966 199.944 95.6566 199.032 93.5446 199.032C92.2646 199.032 91.4646 199.288 90.7606 200.2L91.5446 200.92C92.0086 200.264 92.5206 200.024 93.5286 200.024C94.9686 200.024 95.5446 200.6 95.5446 201.752V202.504H93.1766C91.4166 202.504 90.4566 203.4 90.4566 204.776C90.4566 205.4 90.6646 205.992 91.0486 206.376C91.5446 206.888 92.1846 207.096 93.2726 207.096C94.3286 207.096 94.9046 206.888 95.5446 206.248V207H96.6966ZM95.5446 204.216C95.5446 204.872 95.4166 205.32 95.1446 205.576C94.6486 206.056 94.0566 206.104 93.3846 206.104C92.1366 206.104 91.5766 205.672 91.5766 204.76C91.5766 203.848 92.1526 203.368 93.3366 203.368H95.5446V204.216ZM105.695 207V201.96C105.695 201.048 105.439 200.312 104.879 199.768C104.399 199.288 103.711 199.032 102.863 199.032C101.983 199.032 101.215 199.352 100.655 199.992V199.128H99.5025V207H100.655V202.152C100.655 200.776 101.423 200.056 102.607 200.056C103.791 200.056 104.543 200.76 104.543 202.152V207H105.695ZM114.327 207V195.608H113.175V200.04C112.535 199.224 111.815 199.032 110.951 199.032C110.151 199.032 109.447 199.304 109.031 199.72C108.231 200.52 108.071 201.832 108.071 203.064C108.071 204.296 108.231 205.608 109.031 206.408C109.447 206.824 110.151 207.096 110.951 207.096C111.815 207.096 112.551 206.888 113.191 206.056V207H114.327ZM113.175 203.064C113.175 204.6 112.919 206.072 111.207 206.072C109.495 206.072 109.223 204.6 109.223 203.064C109.223 201.528 109.495 200.056 111.207 200.056C112.919 200.056 113.175 201.528 113.175 203.064ZM127.446 203.064C127.446 201.832 127.286 200.52 126.486 199.72C126.07 199.304 125.366 199.032 124.566 199.032C123.702 199.032 122.982 199.224 122.342 200.056V199.128H121.19V210.52H122.342V206.072C122.982 206.888 123.702 207.096 124.566 207.096C125.366 207.096 126.07 206.824 126.486 206.408C127.286 205.608 127.446 204.296 127.446 203.064ZM126.294 203.064C126.294 204.6 126.038 206.072 124.326 206.072C122.614 206.072 122.342 204.6 122.342 203.064C122.342 201.528 122.614 200.056 124.326 200.056C126.038 200.056 126.294 201.528 126.294 203.064ZM132.709 207V206.008H132.085C131.285 206.008 131.029 205.624 131.029 204.856V195.608H129.877V204.904C129.877 206.104 130.501 207 131.877 207H132.709ZM140.285 203.368V202.84C140.285 200.504 139.085 199.032 137.053 199.032C135.053 199.032 133.821 200.52 133.821 203.064C133.821 205.848 135.181 207.096 137.261 207.096C138.605 207.096 139.341 206.68 140.141 205.88L139.357 205.192C138.733 205.816 138.205 206.088 137.293 206.088C135.789 206.088 134.973 205.096 134.973 203.368H140.285ZM139.133 202.504H134.973C135.005 201.864 135.037 201.624 135.213 201.192C135.517 200.472 136.221 200.008 137.053 200.008C137.885 200.008 138.589 200.472 138.893 201.192C139.069 201.624 139.101 201.864 139.133 202.504ZM148.353 207V201.656C148.353 199.944 147.313 199.032 145.201 199.032C143.921 199.032 143.121 199.288 142.417 200.2L143.201 200.92C143.665 200.264 144.177 200.024 145.185 200.024C146.625 200.024 147.201 200.6 147.201 201.752V202.504H144.833C143.073 202.504 142.113 203.4 142.113 204.776C142.113 205.4 142.321 205.992 142.705 206.376C143.201 206.888 143.841 207.096 144.929 207.096C145.985 207.096 146.561 206.888 147.201 206.248V207H148.353ZM147.201 204.216C147.201 204.872 147.073 205.32 146.801 205.576C146.305 206.056 145.713 206.104 145.041 206.104C143.793 206.104 143.233 205.672 143.233 204.76C143.233 203.848 143.809 203.368 144.993 203.368H147.201V204.216ZM156.839 204.696C156.839 203.224 155.895 202.696 154.519 202.568L153.255 202.456C152.263 202.376 151.879 201.976 151.879 201.304C151.879 200.504 152.487 200.008 153.639 200.008C154.455 200.008 155.175 200.2 155.735 200.632L156.487 199.88C155.783 199.304 154.775 199.032 153.655 199.032C151.975 199.032 150.759 199.896 150.759 201.336C150.759 202.632 151.575 203.32 153.111 203.448L154.407 203.56C155.319 203.64 155.719 204.024 155.719 204.712C155.719 205.64 154.919 206.104 153.623 206.104C152.647 206.104 151.799 205.848 151.175 205.192L150.407 205.96C151.271 206.792 152.311 207.096 153.639 207.096C155.543 207.096 156.839 206.216 156.839 204.696ZM160.328 196.888V195.592H159.032V196.888H160.328ZM160.248 207V199.128H159.096V207H160.248ZM169.335 207V201.96C169.335 201.048 169.079 200.312 168.519 199.768C168.039 199.288 167.351 199.032 166.503 199.032C165.623 199.032 164.855 199.352 164.295 199.992V199.128H163.143V207H164.295V202.152C164.295 200.776 165.063 200.056 166.247 200.056C167.431 200.056 168.183 200.76 168.183 202.152V207H169.335ZM177.936 207.24V199.128H176.8V200.056C176.16 199.224 175.456 199.032 174.592 199.032C173.792 199.032 173.088 199.304 172.672 199.72C171.888 200.504 171.712 201.72 171.712 203C171.712 204.28 171.888 205.496 172.672 206.28C173.088 206.696 173.776 206.984 174.576 206.984C175.424 206.984 176.144 206.776 176.784 205.96V207.192C176.784 208.536 176.144 209.608 174.624 209.608C173.712 209.608 173.312 209.336 172.736 208.824L171.984 209.56C172.816 210.312 173.472 210.616 174.656 210.616C176.72 210.616 177.936 209.192 177.936 207.24ZM176.784 203C176.784 204.472 176.544 205.944 174.832 205.944C173.12 205.944 172.864 204.472 172.864 203C172.864 201.528 173.12 200.056 174.832 200.056C176.544 200.056 176.784 201.528 176.784 203ZM187.823 207V206.008H187.215C186.479 206.008 186.143 205.576 186.143 204.856V200.056H187.823V199.176H186.143V196.712H184.991V199.176H183.999V200.056H184.991V204.888C184.991 206.056 185.663 207 187.007 207H187.823ZM196.003 203.064C196.003 201.848 195.843 200.744 195.043 199.928C194.499 199.384 193.747 199.032 192.787 199.032C191.827 199.032 191.075 199.384 190.531 199.928C189.731 200.744 189.571 201.848 189.571 203.064C189.571 204.28 189.731 205.384 190.531 206.2C191.075 206.744 191.827 207.096 192.787 207.096C193.747 207.096 194.499 206.744 195.043 206.2C195.843 205.384 196.003 204.28 196.003 203.064ZM194.851 203.064C194.851 203.944 194.803 204.92 194.227 205.496C193.859 205.864 193.347 206.072 192.787 206.072C192.227 206.072 191.731 205.864 191.363 205.496C190.787 204.92 190.723 203.944 190.723 203.064C190.723 202.184 190.787 201.208 191.363 200.632C191.731 200.264 192.227 200.056 192.787 200.056C193.347 200.056 193.859 200.264 194.227 200.632C194.803 201.208 194.851 202.184 194.851 203.064ZM205.48 207V206.008H204.872C204.136 206.008 203.8 205.576 203.8 204.856V200.056H205.48V199.176H203.8V196.712H202.648V199.176H201.656V200.056H202.648V204.888C202.648 206.056 203.32 207 204.664 207H205.48ZM213.96 207V201.944C213.96 200.168 212.904 199.032 211.128 199.032C210.248 199.032 209.496 199.336 208.92 199.992V195.608H207.768V207H208.92V202.136C208.92 200.776 209.704 200.056 210.888 200.056C212.072 200.056 212.808 200.76 212.808 202.136V207H213.96ZM222.785 203.368V202.84C222.785 200.504 221.585 199.032 219.553 199.032C217.553 199.032 216.321 200.52 216.321 203.064C216.321 205.848 217.681 207.096 219.761 207.096C221.105 207.096 221.841 206.68 222.641 205.88L221.857 205.192C221.233 205.816 220.705 206.088 219.793 206.088C218.289 206.088 217.473 205.096 217.473 203.368H222.785ZM221.633 202.504H217.473C217.505 201.864 217.537 201.624 217.713 201.192C218.017 200.472 218.721 200.008 219.553 200.008C220.385 200.008 221.089 200.472 221.393 201.192C221.569 201.624 221.601 201.864 221.633 202.504ZM235.253 203.368V202.84C235.253 200.504 234.053 199.032 232.021 199.032C230.021 199.032 228.789 200.52 228.789 203.064C228.789 205.848 230.149 207.096 232.229 207.096C233.573 207.096 234.309 206.68 235.109 205.88L234.325 205.192C233.701 205.816 233.173 206.088 232.261 206.088C230.757 206.088 229.941 205.096 229.941 203.368H235.253ZM234.101 202.504H229.941C229.973 201.864 230.005 201.624 230.181 201.192C230.485 200.472 231.189 200.008 232.021 200.008C232.853 200.008 233.557 200.472 233.861 201.192C234.037 201.624 234.069 201.864 234.101 202.504ZM243.085 199.128H241.837L239.693 205.448L237.533 199.128H236.285L239.117 206.84L238.557 208.376C238.301 209.096 238.061 209.352 237.261 209.352H236.909V210.376H237.405C237.965 210.376 238.525 210.232 238.941 209.832C239.165 209.624 239.341 209.336 239.501 208.904L243.085 199.128ZM250.581 203.368V202.84C250.581 200.504 249.381 199.032 247.349 199.032C245.349 199.032 244.117 200.52 244.117 203.064C244.117 205.848 245.477 207.096 247.557 207.096C248.901 207.096 249.637 206.68 250.437 205.88L249.653 205.192C249.029 205.816 248.501 206.088 247.589 206.088C246.085 206.088 245.269 205.096 245.269 203.368H250.581ZM249.429 202.504H245.269C245.301 201.864 245.333 201.624 245.509 201.192C245.813 200.472 246.517 200.008 247.349 200.008C248.181 200.008 248.885 200.472 249.189 201.192C249.365 201.624 249.397 201.864 249.429 202.504ZM254.506 207V205.496H253.002V207H254.506Z"
              fill="#CA7358"
            />
          </svg>