<svg width="393" height="313" viewBox="0 0 393 313" fill="none" xmlns="http://www.w3.org/2000/svg">
    <path d="M0.5 35C0.5 15.9462 15.9462 0.5 35 0.5H261C280.054 0.5 295.5 15.9462 295.5 35C295.5 54.0538 280.054 69.5 261 69.5H35C15.9462 69.5 0.5 54.0538 0.5 35Z" stroke="#3886D1"/>
    <path d="M0 85C0 54.072 25.0721 29 56 29H313C343.928 29 369 54.0721 369 85V257C369 287.928 343.928 313 313 313H56C25.0721 313 0 287.928 0 257V85Z" fill="#3886D1" fill-opacity="0.1"/>
    <path d="M59.34 51.408V48.704H52.346V51.72H55.752V52.422C55.752 53.384 55.518 54.216 54.92 54.892C54.322 55.542 53.438 55.932 52.346 55.932C51.358 55.932 50.552 55.568 50.032 54.97C49.33 54.19 49.148 53.306 49.148 49.744C49.148 46.182 49.33 45.324 50.032 44.544C50.552 43.946 51.358 43.556 52.346 43.556C54.192 43.556 55.258 44.518 55.674 46.26H59.314C58.82 43.14 56.636 40.332 52.346 40.332C50.266 40.332 48.654 41.06 47.354 42.36C45.482 44.232 45.534 46.546 45.534 49.744C45.534 52.942 45.482 55.256 47.354 57.128C48.654 58.428 50.318 59.156 52.346 59.156C54.322 59.156 56.09 58.584 57.572 57.05C58.872 55.698 59.34 54.086 59.34 51.408ZM73.0014 59V50.082C73.0014 46.91 71.0254 45.298 67.2294 45.298C64.9674 45.298 63.6674 45.714 62.3414 47.17L64.4994 49.276C65.2014 48.47 65.7994 48.158 67.0994 48.158C68.8934 48.158 69.6214 48.808 69.6214 50.29V50.966H66.4234C63.2774 50.966 61.7954 52.734 61.7954 54.892C61.7954 56.088 62.1854 57.18 62.9134 57.934C63.7194 58.74 64.8374 59.13 66.3714 59.13C67.9314 59.13 68.7894 58.74 69.6994 57.83V59H73.0014ZM69.6214 54.008C69.6214 54.84 69.4914 55.386 69.1274 55.724C68.5294 56.296 67.9314 56.374 66.9954 56.374C65.6694 56.374 65.0454 55.75 65.0454 54.814C65.0454 53.852 65.7214 53.28 66.9434 53.28H69.6214V54.008ZM95.782 59V50.342C95.782 48.86 95.392 47.586 94.3 46.494C93.546 45.74 92.324 45.298 90.972 45.298C89.282 45.298 88.06 45.818 86.916 47.014C86.058 45.844 84.836 45.298 83.328 45.298C82.08 45.298 80.832 45.792 79.948 46.702V45.454H76.646V59H80.026V50.81C80.026 48.964 81.222 48.34 82.288 48.34C83.354 48.34 84.524 48.964 84.524 50.81V59H87.904V50.732C87.904 48.964 89.126 48.34 90.166 48.34C91.232 48.34 92.402 48.964 92.402 50.81V59H95.782ZM110.549 53.28V51.772C110.549 48.054 108.417 45.298 104.647 45.298C101.137 45.298 98.7454 47.794 98.7454 52.214C98.7454 57.7 101.813 59.156 105.011 59.156C107.455 59.156 108.781 58.402 110.159 57.024L108.105 55.022C107.247 55.88 106.519 56.296 105.037 56.296C103.139 56.296 102.073 55.022 102.073 53.28H110.549ZM107.221 50.966H102.073C102.099 50.368 102.177 50.004 102.385 49.51C102.749 48.704 103.503 48.106 104.647 48.106C105.791 48.106 106.545 48.704 106.909 49.51C107.117 50.004 107.195 50.368 107.221 50.966Z" fill="#3886D1"/>
    <path d="M49.584 106L45.408 94.608H44.384L40.192 106H41.488L42.4 103.424H47.376L48.288 106H49.584ZM47.024 102.368H42.768L44.912 96.352L47.024 102.368ZM66.4696 106V100.96C66.4696 100.048 66.1816 99.312 65.6216 98.768C65.1416 98.304 64.4376 98.032 63.5896 98.032C62.4856 98.032 61.6056 98.48 60.9976 99.344C60.5176 98.48 59.6696 98.032 58.5816 98.032C57.7016 98.032 56.9176 98.352 56.3576 98.992V98.128H55.2056V106H56.3576V101.152C56.3576 99.776 57.1416 99.056 58.3256 99.056C59.5096 99.056 60.2616 99.76 60.2616 101.152V106H61.4136V101.024C61.4136 99.776 62.2296 99.056 63.3816 99.056C64.5656 99.056 65.3176 99.76 65.3176 101.152V106H66.4696ZM70.5001 95.888V94.592H69.2041V95.888H70.5001ZM70.4201 106V98.128H69.2681V106H70.4201ZM79.507 106V100.96C79.507 100.048 79.251 99.312 78.691 98.768C78.211 98.288 77.523 98.032 76.675 98.032C75.795 98.032 75.027 98.352 74.467 98.992V98.128H73.315V106H74.467V101.152C74.467 99.776 75.235 99.056 76.419 99.056C77.603 99.056 78.355 99.76 78.355 101.152V106H79.507ZM83.5314 95.888V94.592H82.2354V95.888H83.5314ZM83.4514 106V98.128H82.2994V106H83.4514ZM93.4186 99.056V98.176H91.7386V96.72C91.7386 96 92.0586 95.568 92.7946 95.568H93.4186V94.576H92.5866C91.2426 94.576 90.5866 95.52 90.5866 96.688V98.176H89.5786V99.056H90.5866V106H91.7386V99.056H93.4186ZM101.474 106V98.128H100.322V102.976C100.322 104.352 99.5379 105.072 98.3539 105.072C97.1699 105.072 96.4339 104.368 96.4339 102.976V98.128H95.2819V103.152C95.2819 104.064 95.5219 104.816 96.0819 105.36C96.5619 105.84 97.2659 106.096 98.1139 106.096C98.9939 106.096 99.7779 105.76 100.338 105.12V106H101.474ZM110.538 106V100.96C110.538 100.048 110.282 99.312 109.722 98.768C109.242 98.288 108.554 98.032 107.706 98.032C106.826 98.032 106.058 98.352 105.498 98.992V98.128H104.346V106H105.498V101.152C105.498 99.776 106.266 99.056 107.45 99.056C108.634 99.056 109.386 99.76 109.386 101.152V106H110.538ZM122.851 98.128H121.603L119.459 104.448L117.299 98.128H116.051L118.883 105.84L118.323 107.376C118.067 108.096 117.827 108.352 117.027 108.352H116.675V109.376H117.171C117.731 109.376 118.291 109.232 118.707 108.832C118.931 108.624 119.107 108.336 119.267 107.904L122.851 98.128ZM130.347 102.368V101.84C130.347 99.504 129.147 98.032 127.115 98.032C125.115 98.032 123.883 99.52 123.883 102.064C123.883 104.848 125.243 106.096 127.323 106.096C128.667 106.096 129.403 105.68 130.203 104.88L129.419 104.192C128.795 104.816 128.267 105.088 127.355 105.088C125.851 105.088 125.035 104.096 125.035 102.368H130.347ZM129.195 101.504H125.035C125.067 100.864 125.099 100.624 125.275 100.192C125.579 99.472 126.283 99.008 127.115 99.008C127.947 99.008 128.651 99.472 128.955 100.192C129.131 100.624 129.163 100.864 129.195 101.504ZM135.823 106V105.008H135.215C134.479 105.008 134.143 104.576 134.143 103.856V99.056H135.823V98.176H134.143V95.712H132.991V98.176H131.999V99.056H132.991V103.888C132.991 105.056 133.663 106 135.007 106H135.823ZM143.328 95.888V94.592H142.032V95.888H143.328ZM143.248 106V98.128H142.096V106H143.248ZM152.335 106V100.96C152.335 100.048 152.079 99.312 151.519 98.768C151.039 98.288 150.351 98.032 149.503 98.032C148.623 98.032 147.855 98.352 147.295 98.992V98.128H146.143V106H147.295V101.152C147.295 99.776 148.063 99.056 149.247 99.056C150.431 99.056 151.183 99.76 151.183 101.152V106H152.335ZM158.152 106V105.008H157.544C156.808 105.008 156.472 104.576 156.472 103.856V99.056H158.152V98.176H156.472V95.712H155.32V98.176H154.328V99.056H155.32V103.888C155.32 105.056 155.992 106 157.336 106H158.152ZM166.347 102.368V101.84C166.347 99.504 165.147 98.032 163.115 98.032C161.115 98.032 159.883 99.52 159.883 102.064C159.883 104.848 161.243 106.096 163.323 106.096C164.667 106.096 165.403 105.68 166.203 104.88L165.419 104.192C164.795 104.816 164.267 105.088 163.355 105.088C161.851 105.088 161.035 104.096 161.035 102.368H166.347ZM165.195 101.504H161.035C161.067 100.864 161.099 100.624 161.275 100.192C161.579 99.472 162.283 99.008 163.115 99.008C163.947 99.008 164.651 99.472 164.955 100.192C165.131 100.624 165.163 100.864 165.195 101.504ZM174.047 98.768C173.487 98.208 172.911 98.032 172.159 98.032C171.247 98.032 170.383 98.432 169.951 99.088V98.128H168.799V106H169.951V101.168C169.951 99.968 170.687 99.056 171.839 99.056C172.447 99.056 172.767 99.2 173.199 99.632L174.047 98.768ZM181.019 102.368V101.84C181.019 99.504 179.819 98.032 177.787 98.032C175.787 98.032 174.555 99.52 174.555 102.064C174.555 104.848 175.915 106.096 177.995 106.096C179.339 106.096 180.075 105.68 180.875 104.88L180.091 104.192C179.467 104.816 178.939 105.088 178.027 105.088C176.523 105.088 175.707 104.096 175.707 102.368H181.019ZM179.867 101.504H175.707C175.739 100.864 175.771 100.624 175.947 100.192C176.251 99.472 176.955 99.008 177.787 99.008C178.619 99.008 179.323 99.472 179.627 100.192C179.803 100.624 179.835 100.864 179.867 101.504ZM189.151 103.696C189.151 102.224 188.207 101.696 186.831 101.568L185.567 101.456C184.575 101.376 184.191 100.976 184.191 100.304C184.191 99.504 184.799 99.008 185.951 99.008C186.767 99.008 187.487 99.2 188.047 99.632L188.799 98.88C188.095 98.304 187.087 98.032 185.967 98.032C184.287 98.032 183.071 98.896 183.071 100.336C183.071 101.632 183.887 102.32 185.423 102.448L186.719 102.56C187.631 102.64 188.031 103.024 188.031 103.712C188.031 104.64 187.231 105.104 185.935 105.104C184.959 105.104 184.111 104.848 183.487 104.192L182.719 104.96C183.583 105.792 184.623 106.096 185.951 106.096C187.855 106.096 189.151 105.216 189.151 103.696ZM194.277 106V105.008H193.669C192.933 105.008 192.597 104.576 192.597 103.856V99.056H194.277V98.176H192.597V95.712H191.445V98.176H190.453V99.056H191.445V103.888C191.445 105.056 192.117 106 193.461 106H194.277ZM197.797 95.888V94.592H196.501V95.888H197.797ZM197.717 106V98.128H196.565V106H197.717ZM206.804 106V100.96C206.804 100.048 206.548 99.312 205.988 98.768C205.508 98.288 204.82 98.032 203.972 98.032C203.092 98.032 202.324 98.352 201.764 98.992V98.128H200.612V106H201.764V101.152C201.764 99.776 202.532 99.056 203.716 99.056C204.9 99.056 205.652 99.76 205.652 101.152V106H206.804ZM215.404 106.24V98.128H214.268V99.056C213.628 98.224 212.924 98.032 212.06 98.032C211.26 98.032 210.556 98.304 210.14 98.72C209.356 99.504 209.18 100.72 209.18 102C209.18 103.28 209.356 104.496 210.14 105.28C210.556 105.696 211.244 105.984 212.044 105.984C212.892 105.984 213.612 105.776 214.252 104.96V106.192C214.252 107.536 213.612 108.608 212.092 108.608C211.18 108.608 210.78 108.336 210.204 107.824L209.452 108.56C210.284 109.312 210.94 109.616 212.124 109.616C214.188 109.616 215.404 108.192 215.404 106.24ZM214.252 102C214.252 103.472 214.012 104.944 212.3 104.944C210.588 104.944 210.332 103.472 210.332 102C210.332 100.528 210.588 99.056 212.3 99.056C214.012 99.056 214.252 100.528 214.252 102ZM228.076 106.24V98.128H226.94V99.056C226.3 98.224 225.596 98.032 224.732 98.032C223.932 98.032 223.228 98.304 222.812 98.72C222.028 99.504 221.852 100.72 221.852 102C221.852 103.28 222.028 104.496 222.812 105.28C223.228 105.696 223.916 105.984 224.716 105.984C225.564 105.984 226.284 105.776 226.924 104.96V106.192C226.924 107.536 226.284 108.608 224.764 108.608C223.852 108.608 223.452 108.336 222.876 107.824L222.124 108.56C222.956 109.312 223.612 109.616 224.796 109.616C226.86 109.616 228.076 108.192 228.076 106.24ZM226.924 102C226.924 103.472 226.684 104.944 224.972 104.944C223.26 104.944 223.004 103.472 223.004 102C223.004 100.528 223.26 99.056 224.972 99.056C226.684 99.056 226.924 100.528 226.924 102ZM236.572 106V100.656C236.572 98.944 235.532 98.032 233.42 98.032C232.14 98.032 231.34 98.288 230.636 99.2L231.42 99.92C231.884 99.264 232.396 99.024 233.404 99.024C234.844 99.024 235.42 99.6 235.42 100.752V101.504H233.052C231.292 101.504 230.332 102.4 230.332 103.776C230.332 104.4 230.54 104.992 230.924 105.376C231.42 105.888 232.06 106.096 233.148 106.096C234.204 106.096 234.78 105.888 235.42 105.248V106H236.572ZM235.42 103.216C235.42 103.872 235.292 104.32 235.02 104.576C234.524 105.056 233.932 105.104 233.26 105.104C232.012 105.104 231.452 104.672 231.452 103.76C231.452 102.848 232.028 102.368 233.212 102.368H235.42V103.216ZM250.642 106V100.96C250.642 100.048 250.354 99.312 249.794 98.768C249.314 98.304 248.61 98.032 247.762 98.032C246.658 98.032 245.778 98.48 245.17 99.344C244.69 98.48 243.842 98.032 242.754 98.032C241.874 98.032 241.09 98.352 240.53 98.992V98.128H239.378V106H240.53V101.152C240.53 99.776 241.314 99.056 242.498 99.056C243.682 99.056 244.434 99.76 244.434 101.152V106H245.586V101.024C245.586 99.776 246.402 99.056 247.554 99.056C248.738 99.056 249.49 99.76 249.49 101.152V106H250.642ZM259.472 102.368V101.84C259.472 99.504 258.272 98.032 256.24 98.032C254.24 98.032 253.008 99.52 253.008 102.064C253.008 104.848 254.368 106.096 256.448 106.096C257.792 106.096 258.528 105.68 259.328 104.88L258.544 104.192C257.92 104.816 257.392 105.088 256.48 105.088C254.976 105.088 254.16 104.096 254.16 102.368H259.472ZM258.32 101.504H254.16C254.192 100.864 254.224 100.624 254.4 100.192C254.704 99.472 255.408 99.008 256.24 99.008C257.072 99.008 257.776 99.472 258.08 100.192C258.256 100.624 258.288 100.864 258.32 101.504ZM275.877 98.128H274.629L272.837 104.448L270.757 98.128H269.765L267.701 104.448L265.893 98.128H264.645L267.141 106H268.213L270.261 99.888L272.325 106H273.397L275.877 98.128ZM278.719 95.888V94.592H277.423V95.888H278.719ZM278.639 106V98.128H277.487V106H278.639ZM284.558 106V105.008H283.95C283.214 105.008 282.878 104.576 282.878 103.856V99.056H284.558V98.176H282.878V95.712H281.726V98.176H280.734V99.056H281.726V103.888C281.726 105.056 282.398 106 283.742 106H284.558ZM293.038 106V100.944C293.038 99.168 291.982 98.032 290.206 98.032C289.326 98.032 288.574 98.336 287.998 98.992V94.608H286.846V106H287.998V101.136C287.998 99.776 288.782 99.056 289.966 99.056C291.15 99.056 291.886 99.76 291.886 101.136V106H293.038ZM47.056 130V124.656C47.056 122.944 46.016 122.032 43.904 122.032C42.624 122.032 41.824 122.288 41.12 123.2L41.904 123.92C42.368 123.264 42.88 123.024 43.888 123.024C45.328 123.024 45.904 123.6 45.904 124.752V125.504H43.536C41.776 125.504 40.816 126.4 40.816 127.776C40.816 128.4 41.024 128.992 41.408 129.376C41.904 129.888 42.544 130.096 43.632 130.096C44.688 130.096 45.264 129.888 45.904 129.248V130H47.056ZM45.904 127.216C45.904 127.872 45.776 128.32 45.504 128.576C45.008 129.056 44.416 129.104 43.744 129.104C42.496 129.104 41.936 128.672 41.936 127.76C41.936 126.848 42.512 126.368 43.696 126.368H45.904V127.216ZM56.0539 130V124.96C56.0539 124.048 55.7979 123.312 55.2379 122.768C54.7579 122.288 54.0699 122.032 53.2219 122.032C52.3419 122.032 51.5739 122.352 51.0139 122.992V122.128H49.8619V130H51.0139V125.152C51.0139 123.776 51.7819 123.056 52.9659 123.056C54.1499 123.056 54.9019 123.76 54.9019 125.152V130H56.0539ZM60.0783 119.888V118.592H58.7823V119.888H60.0783ZM59.9983 130V122.128H58.8463V130H59.9983ZM74.1571 130V124.96C74.1571 124.048 73.8691 123.312 73.3091 122.768C72.8291 122.304 72.1251 122.032 71.2771 122.032C70.1731 122.032 69.2931 122.48 68.6851 123.344C68.2051 122.48 67.3571 122.032 66.2691 122.032C65.3891 122.032 64.6051 122.352 64.0451 122.992V122.128H62.8931V130H64.0451V125.152C64.0451 123.776 64.8291 123.056 66.0131 123.056C67.1971 123.056 67.9491 123.76 67.9491 125.152V130H69.1011V125.024C69.1011 123.776 69.9171 123.056 71.0691 123.056C72.2531 123.056 73.0051 123.76 73.0051 125.152V130H74.1571ZM82.5716 130V124.656C82.5716 122.944 81.5316 122.032 79.4196 122.032C78.1396 122.032 77.3396 122.288 76.6356 123.2L77.4196 123.92C77.8836 123.264 78.3956 123.024 79.4036 123.024C80.8436 123.024 81.4196 123.6 81.4196 124.752V125.504H79.0516C77.2916 125.504 76.3316 126.4 76.3316 127.776C76.3316 128.4 76.5396 128.992 76.9236 129.376C77.4196 129.888 78.0596 130.096 79.1476 130.096C80.2036 130.096 80.7796 129.888 81.4196 129.248V130H82.5716ZM81.4196 127.216C81.4196 127.872 81.2916 128.32 81.0196 128.576C80.5236 129.056 79.9316 129.104 79.2596 129.104C78.0116 129.104 77.4516 128.672 77.4516 127.76C77.4516 126.848 78.0276 126.368 79.2116 126.368H81.4196V127.216ZM88.4015 130V129.008H87.7935C87.0575 129.008 86.7215 128.576 86.7215 127.856V123.056H88.4015V122.176H86.7215V119.712H85.5695V122.176H84.5775V123.056H85.5695V127.888C85.5695 129.056 86.2415 130 87.5855 130H88.4015ZM91.922 119.888V118.592H90.626V119.888H91.922ZM91.842 130V122.128H90.69V130H91.842ZM100.753 126.064C100.753 124.848 100.593 123.744 99.7929 122.928C99.2489 122.384 98.4969 122.032 97.5369 122.032C96.5769 122.032 95.8249 122.384 95.2809 122.928C94.4809 123.744 94.3209 124.848 94.3209 126.064C94.3209 127.28 94.4809 128.384 95.2809 129.2C95.8249 129.744 96.5769 130.096 97.5369 130.096C98.4969 130.096 99.2489 129.744 99.7929 129.2C100.593 128.384 100.753 127.28 100.753 126.064ZM99.6009 126.064C99.6009 126.944 99.5529 127.92 98.9769 128.496C98.6089 128.864 98.0969 129.072 97.5369 129.072C96.9769 129.072 96.4809 128.864 96.1129 128.496C95.5369 127.92 95.4729 126.944 95.4729 126.064C95.4729 125.184 95.5369 124.208 96.1129 123.632C96.4809 123.264 96.9769 123.056 97.5369 123.056C98.0969 123.056 98.6089 123.264 98.9769 123.632C99.5529 124.208 99.6009 125.184 99.6009 126.064ZM109.413 130V124.96C109.413 124.048 109.157 123.312 108.597 122.768C108.117 122.288 107.429 122.032 106.581 122.032C105.701 122.032 104.933 122.352 104.373 122.992V122.128H103.221V130H104.373V125.152C104.373 123.776 105.141 123.056 106.325 123.056C107.509 123.056 108.261 123.76 108.261 125.152V130H109.413ZM117.886 127.696C117.886 126.224 116.942 125.696 115.566 125.568L114.302 125.456C113.31 125.376 112.926 124.976 112.926 124.304C112.926 123.504 113.534 123.008 114.686 123.008C115.502 123.008 116.222 123.2 116.782 123.632L117.534 122.88C116.83 122.304 115.822 122.032 114.702 122.032C113.022 122.032 111.806 122.896 111.806 124.336C111.806 125.632 112.622 126.32 114.158 126.448L115.454 126.56C116.366 126.64 116.766 127.024 116.766 127.712C116.766 128.64 115.966 129.104 114.67 129.104C113.694 129.104 112.846 128.848 112.222 128.192L111.454 128.96C112.318 129.792 113.358 130.096 114.686 130.096C116.59 130.096 117.886 129.216 117.886 127.696ZM125.36 119.888V118.592H124.064V119.888H125.36ZM125.28 130V122.128H124.128V130H125.28ZM133.854 127.696C133.854 126.224 132.91 125.696 131.534 125.568L130.27 125.456C129.278 125.376 128.894 124.976 128.894 124.304C128.894 123.504 129.502 123.008 130.654 123.008C131.47 123.008 132.19 123.2 132.75 123.632L133.502 122.88C132.798 122.304 131.79 122.032 130.67 122.032C128.99 122.032 127.774 122.896 127.774 124.336C127.774 125.632 128.59 126.32 130.126 126.448L131.422 126.56C132.334 126.64 132.734 127.024 132.734 127.712C132.734 128.64 131.934 129.104 130.638 129.104C129.662 129.104 128.814 128.848 128.19 128.192L127.422 128.96C128.286 129.792 129.326 130.096 130.654 130.096C132.558 130.096 133.854 129.216 133.854 127.696ZM146.112 126.064C146.112 124.848 145.952 123.744 145.152 122.928C144.608 122.384 143.856 122.032 142.896 122.032C141.936 122.032 141.184 122.384 140.64 122.928C139.84 123.744 139.68 124.848 139.68 126.064C139.68 127.28 139.84 128.384 140.64 129.2C141.184 129.744 141.936 130.096 142.896 130.096C143.856 130.096 144.608 129.744 145.152 129.2C145.952 128.384 146.112 127.28 146.112 126.064ZM144.96 126.064C144.96 126.944 144.912 127.92 144.336 128.496C143.968 128.864 143.456 129.072 142.896 129.072C142.336 129.072 141.84 128.864 141.472 128.496C140.896 127.92 140.832 126.944 140.832 126.064C140.832 125.184 140.896 124.208 141.472 123.632C141.84 123.264 142.336 123.056 142.896 123.056C143.456 123.056 143.968 123.264 144.336 123.632C144.912 124.208 144.96 125.184 144.96 126.064ZM151.669 123.056V122.176H149.989V120.72C149.989 120 150.309 119.568 151.045 119.568H151.669V118.576H150.837C149.493 118.576 148.837 119.52 148.837 120.688V122.176H147.829V123.056H148.837V130H149.989V123.056H151.669ZM156.7 123.056V122.176H155.02V120.72C155.02 120 155.34 119.568 156.076 119.568H156.7V118.576H155.868C154.524 118.576 153.868 119.52 153.868 120.688V122.176H152.86V123.056H153.868V130H155.02V123.056H156.7ZM164.378 126.368V125.84C164.378 123.504 163.178 122.032 161.146 122.032C159.146 122.032 157.914 123.52 157.914 126.064C157.914 128.848 159.274 130.096 161.354 130.096C162.698 130.096 163.434 129.68 164.234 128.88L163.45 128.192C162.826 128.816 162.298 129.088 161.386 129.088C159.882 129.088 159.066 128.096 159.066 126.368H164.378ZM163.226 125.504H159.066C159.098 124.864 159.13 124.624 159.306 124.192C159.61 123.472 160.314 123.008 161.146 123.008C161.978 123.008 162.682 123.472 162.986 124.192C163.162 124.624 163.194 124.864 163.226 125.504ZM172.079 122.768C171.519 122.208 170.943 122.032 170.191 122.032C169.279 122.032 168.415 122.432 167.983 123.088V122.128H166.831V130H167.983V125.168C167.983 123.968 168.719 123.056 169.871 123.056C170.479 123.056 170.799 123.2 171.231 123.632L172.079 122.768ZM179.05 126.368V125.84C179.05 123.504 177.85 122.032 175.818 122.032C173.818 122.032 172.586 123.52 172.586 126.064C172.586 128.848 173.946 130.096 176.026 130.096C177.37 130.096 178.106 129.68 178.906 128.88L178.122 128.192C177.498 128.816 176.97 129.088 176.058 129.088C174.554 129.088 173.738 128.096 173.738 126.368H179.05ZM177.898 125.504H173.738C173.77 124.864 173.802 124.624 173.978 124.192C174.282 123.472 174.986 123.008 175.818 123.008C176.65 123.008 177.354 123.472 177.658 124.192C177.834 124.624 177.866 124.864 177.898 125.504ZM187.343 130V118.608H186.191V123.04C185.551 122.224 184.831 122.032 183.967 122.032C183.167 122.032 182.463 122.304 182.047 122.72C181.247 123.52 181.087 124.832 181.087 126.064C181.087 127.296 181.247 128.608 182.047 129.408C182.463 129.824 183.167 130.096 183.967 130.096C184.831 130.096 185.567 129.888 186.207 129.056V130H187.343ZM186.191 126.064C186.191 127.6 185.935 129.072 184.223 129.072C182.511 129.072 182.239 127.6 182.239 126.064C182.239 124.528 182.511 123.056 184.223 123.056C185.935 123.056 186.191 124.528 186.191 126.064ZM197.23 130V129.008H196.622C195.886 129.008 195.55 128.576 195.55 127.856V123.056H197.23V122.176H195.55V119.712H194.398V122.176H193.406V123.056H194.398V127.888C194.398 129.056 195.07 130 196.414 130H197.23ZM205.409 126.064C205.409 124.848 205.249 123.744 204.449 122.928C203.905 122.384 203.153 122.032 202.193 122.032C201.233 122.032 200.481 122.384 199.937 122.928C199.137 123.744 198.977 124.848 198.977 126.064C198.977 127.28 199.137 128.384 199.937 129.2C200.481 129.744 201.233 130.096 202.193 130.096C203.153 130.096 203.905 129.744 204.449 129.2C205.249 128.384 205.409 127.28 205.409 126.064ZM204.257 126.064C204.257 126.944 204.209 127.92 203.633 128.496C203.265 128.864 202.753 129.072 202.193 129.072C201.633 129.072 201.137 128.864 200.769 128.496C200.193 127.92 200.129 126.944 200.129 126.064C200.129 125.184 200.193 124.208 200.769 123.632C201.137 123.264 201.633 123.056 202.193 123.056C202.753 123.056 203.265 123.264 203.633 123.632C204.209 124.208 204.257 125.184 204.257 126.064ZM218.118 126.064C218.118 124.832 217.958 123.52 217.158 122.72C216.742 122.304 216.038 122.032 215.238 122.032C214.374 122.032 213.654 122.224 213.014 123.04V118.608H211.862V130H213.014V129.056C213.654 129.888 214.374 130.096 215.238 130.096C216.038 130.096 216.742 129.824 217.158 129.408C217.958 128.608 218.118 127.296 218.118 126.064ZM216.966 126.064C216.966 127.6 216.71 129.072 214.998 129.072C213.286 129.072 213.014 127.6 213.014 126.064C213.014 124.528 213.286 123.056 214.998 123.056C216.71 123.056 216.966 124.528 216.966 126.064ZM226.597 126.064C226.597 124.848 226.437 123.744 225.637 122.928C225.093 122.384 224.341 122.032 223.381 122.032C222.421 122.032 221.669 122.384 221.125 122.928C220.325 123.744 220.165 124.848 220.165 126.064C220.165 127.28 220.325 128.384 221.125 129.2C221.669 129.744 222.421 130.096 223.381 130.096C224.341 130.096 225.093 129.744 225.637 129.2C226.437 128.384 226.597 127.28 226.597 126.064ZM225.445 126.064C225.445 126.944 225.397 127.92 224.821 128.496C224.453 128.864 223.941 129.072 223.381 129.072C222.821 129.072 222.325 128.864 221.957 128.496C221.381 127.92 221.317 126.944 221.317 126.064C221.317 125.184 221.381 124.208 221.957 123.632C222.325 123.264 222.821 123.056 223.381 123.056C223.941 123.056 224.453 123.264 224.821 123.632C225.397 124.208 225.445 125.184 225.445 126.064ZM235.081 126.064C235.081 124.848 234.921 123.744 234.121 122.928C233.577 122.384 232.825 122.032 231.865 122.032C230.905 122.032 230.153 122.384 229.609 122.928C228.809 123.744 228.649 124.848 228.649 126.064C228.649 127.28 228.809 128.384 229.609 129.2C230.153 129.744 230.905 130.096 231.865 130.096C232.825 130.096 233.577 129.744 234.121 129.2C234.921 128.384 235.081 127.28 235.081 126.064ZM233.929 126.064C233.929 126.944 233.881 127.92 233.305 128.496C232.937 128.864 232.425 129.072 231.865 129.072C231.305 129.072 230.809 128.864 230.441 128.496C229.865 127.92 229.801 126.944 229.801 126.064C229.801 125.184 229.865 124.208 230.441 123.632C230.809 123.264 231.305 123.056 231.865 123.056C232.425 123.056 232.937 123.264 233.305 123.632C233.881 124.208 233.929 125.184 233.929 126.064ZM243.229 127.696C243.229 126.224 242.285 125.696 240.909 125.568L239.645 125.456C238.653 125.376 238.269 124.976 238.269 124.304C238.269 123.504 238.877 123.008 240.029 123.008C240.845 123.008 241.565 123.2 242.125 123.632L242.877 122.88C242.173 122.304 241.165 122.032 240.045 122.032C238.365 122.032 237.149 122.896 237.149 124.336C237.149 125.632 237.965 126.32 239.501 126.448L240.797 126.56C241.709 126.64 242.109 127.024 242.109 127.712C242.109 128.64 241.309 129.104 240.013 129.104C239.037 129.104 238.189 128.848 237.565 128.192L236.797 128.96C237.661 129.792 238.701 130.096 240.029 130.096C241.933 130.096 243.229 129.216 243.229 127.696ZM248.355 130V129.008H247.747C247.011 129.008 246.675 128.576 246.675 127.856V123.056H248.355V122.176H246.675V119.712H245.523V122.176H244.531V123.056H245.523V127.888C245.523 129.056 246.195 130 247.539 130H248.355ZM260.164 122.128H258.916L256.772 128.448L254.612 122.128H253.364L256.196 129.84L255.636 131.376C255.38 132.096 255.14 132.352 254.34 132.352H253.988V133.376H254.484C255.044 133.376 255.604 133.232 256.02 132.832C256.244 132.624 256.42 132.336 256.58 131.904L260.164 122.128ZM267.644 126.064C267.644 124.848 267.484 123.744 266.684 122.928C266.14 122.384 265.388 122.032 264.428 122.032C263.468 122.032 262.716 122.384 262.172 122.928C261.372 123.744 261.212 124.848 261.212 126.064C261.212 127.28 261.372 128.384 262.172 129.2C262.716 129.744 263.468 130.096 264.428 130.096C265.388 130.096 266.14 129.744 266.684 129.2C267.484 128.384 267.644 127.28 267.644 126.064ZM266.492 126.064C266.492 126.944 266.444 127.92 265.868 128.496C265.5 128.864 264.988 129.072 264.428 129.072C263.868 129.072 263.372 128.864 263.004 128.496C262.428 127.92 262.364 126.944 262.364 126.064C262.364 125.184 262.428 124.208 263.004 123.632C263.372 123.264 263.868 123.056 264.428 123.056C264.988 123.056 265.5 123.264 265.868 123.632C266.444 124.208 266.492 125.184 266.492 126.064ZM276.224 130V122.128H275.072V126.976C275.072 128.352 274.288 129.072 273.104 129.072C271.92 129.072 271.184 128.368 271.184 126.976V122.128H270.032V127.152C270.032 128.064 270.272 128.816 270.832 129.36C271.312 129.84 272.016 130.096 272.864 130.096C273.744 130.096 274.528 129.76 275.088 129.12V130H276.224ZM284.344 122.768C283.784 122.208 283.208 122.032 282.456 122.032C281.544 122.032 280.68 122.432 280.248 123.088V122.128H279.096V130H280.248V125.168C280.248 123.968 280.984 123.056 282.136 123.056C282.744 123.056 283.064 123.2 283.496 123.632L284.344 122.768ZM52.704 154V148.96C52.704 148.048 52.416 147.312 51.856 146.768C51.376 146.304 50.672 146.032 49.824 146.032C48.72 146.032 47.84 146.48 47.232 147.344C46.752 146.48 45.904 146.032 44.816 146.032C43.936 146.032 43.152 146.352 42.592 146.992V146.128H41.44V154H42.592V149.152C42.592 147.776 43.376 147.056 44.56 147.056C45.744 147.056 46.496 147.76 46.496 149.152V154H47.648V149.024C47.648 147.776 48.464 147.056 49.616 147.056C50.8 147.056 51.552 147.76 51.552 149.152V154H52.704ZM61.5185 150.064C61.5185 148.848 61.3585 147.744 60.5585 146.928C60.0145 146.384 59.2625 146.032 58.3025 146.032C57.3425 146.032 56.5905 146.384 56.0465 146.928C55.2465 147.744 55.0865 148.848 55.0865 150.064C55.0865 151.28 55.2465 152.384 56.0465 153.2C56.5905 153.744 57.3425 154.096 58.3025 154.096C59.2625 154.096 60.0145 153.744 60.5585 153.2C61.3585 152.384 61.5185 151.28 61.5185 150.064ZM60.3665 150.064C60.3665 150.944 60.3185 151.92 59.7425 152.496C59.3745 152.864 58.8625 153.072 58.3025 153.072C57.7425 153.072 57.2465 152.864 56.8785 152.496C56.3025 151.92 56.2385 150.944 56.2385 150.064C56.2385 149.184 56.3025 148.208 56.8785 147.632C57.2465 147.264 57.7425 147.056 58.3025 147.056C58.8625 147.056 59.3745 147.264 59.7425 147.632C60.3185 148.208 60.3665 149.184 60.3665 150.064ZM67.0109 154V153.008H66.4029C65.6669 153.008 65.3309 152.576 65.3309 151.856V147.056H67.0109V146.176H65.3309V143.712H64.1789V146.176H63.1869V147.056H64.1789V151.888C64.1789 153.056 64.8509 154 66.1949 154H67.0109ZM70.5314 143.888V142.592H69.2354V143.888H70.5314ZM70.4514 154V146.128H69.2994V154H70.4514ZM78.8823 146.128H77.6343L75.4743 152.448L73.3303 146.128H72.0823L74.9623 154H75.9863L78.8823 146.128ZM85.9623 154V148.656C85.9623 146.944 84.9223 146.032 82.8103 146.032C81.5303 146.032 80.7303 146.288 80.0263 147.2L80.8103 147.92C81.2743 147.264 81.7863 147.024 82.7943 147.024C84.2343 147.024 84.8103 147.6 84.8103 148.752V149.504H82.4423C80.6823 149.504 79.7223 150.4 79.7223 151.776C79.7223 152.4 79.9303 152.992 80.3143 153.376C80.8103 153.888 81.4503 154.096 82.5383 154.096C83.5943 154.096 84.1703 153.888 84.8103 153.248V154H85.9623ZM84.8103 151.216C84.8103 151.872 84.6823 152.32 84.4103 152.576C83.9143 153.056 83.3223 153.104 82.6503 153.104C81.4023 153.104 80.8423 152.672 80.8423 151.76C80.8423 150.848 81.4183 150.368 82.6023 150.368H84.8103V151.216ZM91.7921 154V153.008H91.1841C90.4481 153.008 90.1121 152.576 90.1121 151.856V147.056H91.7921V146.176H90.1121V143.712H88.9601V146.176H87.9681V147.056H88.9601V151.888C88.9601 153.056 89.6321 154 90.9761 154H91.7921ZM95.3126 143.888V142.592H94.0166V143.888H95.3126ZM95.2326 154V146.128H94.0806V154H95.2326ZM104.144 150.064C104.144 148.848 103.984 147.744 103.184 146.928C102.64 146.384 101.888 146.032 100.928 146.032C99.9675 146.032 99.2155 146.384 98.6715 146.928C97.8715 147.744 97.7115 148.848 97.7115 150.064C97.7115 151.28 97.8715 152.384 98.6715 153.2C99.2155 153.744 99.9675 154.096 100.928 154.096C101.888 154.096 102.64 153.744 103.184 153.2C103.984 152.384 104.144 151.28 104.144 150.064ZM102.992 150.064C102.992 150.944 102.944 151.92 102.368 152.496C102 152.864 101.488 153.072 100.928 153.072C100.368 153.072 99.8715 152.864 99.5035 152.496C98.9275 151.92 98.8635 150.944 98.8635 150.064C98.8635 149.184 98.9275 148.208 99.5035 147.632C99.8715 147.264 100.368 147.056 100.928 147.056C101.488 147.056 102 147.264 102.368 147.632C102.944 148.208 102.992 149.184 102.992 150.064ZM112.804 154V148.96C112.804 148.048 112.548 147.312 111.988 146.768C111.508 146.288 110.82 146.032 109.972 146.032C109.092 146.032 108.324 146.352 107.764 146.992V146.128H106.612V154H107.764V149.152C107.764 147.776 108.532 147.056 109.716 147.056C110.9 147.056 111.652 147.76 111.652 149.152V154H112.804ZM116.972 155.04V152.592H115.564V156.304L116.972 155.04ZM125.031 143.888V142.592H123.735V143.888H125.031ZM124.951 154V146.128H123.799V154H124.951ZM134.038 154V148.96C134.038 148.048 133.782 147.312 133.222 146.768C132.742 146.288 132.054 146.032 131.206 146.032C130.326 146.032 129.558 146.352 128.998 146.992V146.128H127.846V154H128.998V149.152C128.998 147.776 129.766 147.056 130.95 147.056C132.134 147.056 132.886 147.76 132.886 149.152V154H134.038ZM142.479 152.928L141.695 152.176C141.103 152.832 140.639 153.072 139.887 153.072C139.119 153.072 138.479 152.768 138.063 152.176C137.695 151.664 137.551 151.056 137.551 150.064C137.551 149.072 137.695 148.464 138.063 147.952C138.479 147.36 139.119 147.056 139.887 147.056C140.639 147.056 141.103 147.28 141.695 147.936L142.479 147.2C141.663 146.32 140.975 146.032 139.887 146.032C137.903 146.032 136.399 147.376 136.399 150.064C136.399 152.752 137.903 154.096 139.887 154.096C140.975 154.096 141.663 153.808 142.479 152.928ZM149.922 146.768C149.362 146.208 148.786 146.032 148.034 146.032C147.122 146.032 146.258 146.432 145.826 147.088V146.128H144.674V154H145.826V149.168C145.826 147.968 146.562 147.056 147.714 147.056C148.322 147.056 148.642 147.2 149.074 147.632L149.922 146.768ZM156.894 150.368V149.84C156.894 147.504 155.694 146.032 153.662 146.032C151.662 146.032 150.43 147.52 150.43 150.064C150.43 152.848 151.79 154.096 153.87 154.096C155.214 154.096 155.95 153.68 156.75 152.88L155.966 152.192C155.342 152.816 154.814 153.088 153.902 153.088C152.398 153.088 151.582 152.096 151.582 150.368H156.894ZM155.742 149.504H151.582C151.614 148.864 151.646 148.624 151.822 148.192C152.126 147.472 152.83 147.008 153.662 147.008C154.494 147.008 155.198 147.472 155.502 148.192C155.678 148.624 155.71 148.864 155.742 149.504ZM164.962 154V148.656C164.962 146.944 163.922 146.032 161.81 146.032C160.53 146.032 159.73 146.288 159.026 147.2L159.81 147.92C160.274 147.264 160.786 147.024 161.794 147.024C163.234 147.024 163.81 147.6 163.81 148.752V149.504H161.442C159.682 149.504 158.722 150.4 158.722 151.776C158.722 152.4 158.93 152.992 159.314 153.376C159.81 153.888 160.45 154.096 161.538 154.096C162.594 154.096 163.17 153.888 163.81 153.248V154H164.962ZM163.81 151.216C163.81 151.872 163.682 152.32 163.41 152.576C162.914 153.056 162.322 153.104 161.65 153.104C160.402 153.104 159.842 152.672 159.842 151.76C159.842 150.848 160.418 150.368 161.602 150.368H163.81V151.216ZM173.448 151.696C173.448 150.224 172.504 149.696 171.128 149.568L169.864 149.456C168.872 149.376 168.488 148.976 168.488 148.304C168.488 147.504 169.096 147.008 170.248 147.008C171.064 147.008 171.784 147.2 172.344 147.632L173.096 146.88C172.392 146.304 171.384 146.032 170.264 146.032C168.584 146.032 167.368 146.896 167.368 148.336C167.368 149.632 168.184 150.32 169.72 150.448L171.016 150.56C171.928 150.64 172.328 151.024 172.328 151.712C172.328 152.64 171.528 153.104 170.232 153.104C169.256 153.104 168.408 152.848 167.784 152.192L167.016 152.96C167.88 153.792 168.92 154.096 170.248 154.096C172.152 154.096 173.448 153.216 173.448 151.696ZM181.738 150.368V149.84C181.738 147.504 180.538 146.032 178.506 146.032C176.506 146.032 175.274 147.52 175.274 150.064C175.274 152.848 176.634 154.096 178.714 154.096C180.058 154.096 180.794 153.68 181.594 152.88L180.81 152.192C180.186 152.816 179.658 153.088 178.746 153.088C177.242 153.088 176.426 152.096 176.426 150.368H181.738ZM180.586 149.504H176.426C176.458 148.864 176.49 148.624 176.666 148.192C176.97 147.472 177.674 147.008 178.506 147.008C179.338 147.008 180.042 147.472 180.346 148.192C180.522 148.624 180.554 148.864 180.586 149.504ZM193.71 146.128H192.462L190.318 152.448L188.158 146.128H186.91L189.742 153.84L189.182 155.376C188.926 156.096 188.686 156.352 187.886 156.352H187.534V157.376H188.03C188.59 157.376 189.15 157.232 189.566 156.832C189.79 156.624 189.966 156.336 190.126 155.904L193.71 146.128ZM201.19 150.064C201.19 148.848 201.03 147.744 200.23 146.928C199.686 146.384 198.934 146.032 197.974 146.032C197.014 146.032 196.262 146.384 195.718 146.928C194.918 147.744 194.758 148.848 194.758 150.064C194.758 151.28 194.918 152.384 195.718 153.2C196.262 153.744 197.014 154.096 197.974 154.096C198.934 154.096 199.686 153.744 200.23 153.2C201.03 152.384 201.19 151.28 201.19 150.064ZM200.038 150.064C200.038 150.944 199.99 151.92 199.414 152.496C199.046 152.864 198.534 153.072 197.974 153.072C197.414 153.072 196.918 152.864 196.55 152.496C195.974 151.92 195.91 150.944 195.91 150.064C195.91 149.184 195.974 148.208 196.55 147.632C196.918 147.264 197.414 147.056 197.974 147.056C198.534 147.056 199.046 147.264 199.414 147.632C199.99 148.208 200.038 149.184 200.038 150.064ZM209.771 154V146.128H208.619V150.976C208.619 152.352 207.835 153.072 206.651 153.072C205.467 153.072 204.731 152.368 204.731 150.976V146.128H203.579V151.152C203.579 152.064 203.819 152.816 204.379 153.36C204.859 153.84 205.563 154.096 206.411 154.096C207.291 154.096 208.075 153.76 208.635 153.12V154H209.771ZM217.891 146.768C217.331 146.208 216.755 146.032 216.003 146.032C215.091 146.032 214.227 146.432 213.795 147.088V146.128H212.643V154H213.795V149.168C213.795 147.968 214.531 147.056 215.683 147.056C216.291 147.056 216.611 147.2 217.043 147.632L217.891 146.768ZM224.594 143.888V142.592H223.298V143.888H224.594ZM224.514 154V146.128H223.362V154H224.514ZM233.601 154V148.96C233.601 148.048 233.345 147.312 232.785 146.768C232.305 146.288 231.617 146.032 230.769 146.032C229.889 146.032 229.121 146.352 228.561 146.992V146.128H227.409V154H228.561V149.152C228.561 147.776 229.329 147.056 230.513 147.056C231.697 147.056 232.449 147.76 232.449 149.152V154H233.601ZM239.417 154V153.008H238.809C238.073 153.008 237.737 152.576 237.737 151.856V147.056H239.417V146.176H237.737V143.712H236.585V146.176H235.593V147.056H236.585V151.888C236.585 153.056 237.257 154 238.601 154H239.417ZM247.613 150.368V149.84C247.613 147.504 246.413 146.032 244.381 146.032C242.381 146.032 241.149 147.52 241.149 150.064C241.149 152.848 242.509 154.096 244.589 154.096C245.933 154.096 246.669 153.68 247.469 152.88L246.685 152.192C246.061 152.816 245.533 153.088 244.621 153.088C243.117 153.088 242.301 152.096 242.301 150.368H247.613ZM246.461 149.504H242.301C242.333 148.864 242.365 148.624 242.541 148.192C242.845 147.472 243.549 147.008 244.381 147.008C245.213 147.008 245.917 147.472 246.221 148.192C246.397 148.624 246.429 148.864 246.461 149.504ZM255.313 146.768C254.753 146.208 254.177 146.032 253.425 146.032C252.513 146.032 251.649 146.432 251.217 147.088V146.128H250.065V154H251.217V149.168C251.217 147.968 251.953 147.056 253.105 147.056C253.713 147.056 254.033 147.2 254.465 147.632L255.313 146.768ZM262.285 150.368V149.84C262.285 147.504 261.085 146.032 259.053 146.032C257.053 146.032 255.821 147.52 255.821 150.064C255.821 152.848 257.181 154.096 259.261 154.096C260.605 154.096 261.341 153.68 262.141 152.88L261.357 152.192C260.733 152.816 260.205 153.088 259.293 153.088C257.789 153.088 256.973 152.096 256.973 150.368H262.285ZM261.133 149.504H256.973C257.005 148.864 257.037 148.624 257.213 148.192C257.517 147.472 258.221 147.008 259.053 147.008C259.885 147.008 260.589 147.472 260.893 148.192C261.069 148.624 261.101 148.864 261.133 149.504ZM270.417 151.696C270.417 150.224 269.473 149.696 268.097 149.568L266.833 149.456C265.841 149.376 265.457 148.976 265.457 148.304C265.457 147.504 266.065 147.008 267.217 147.008C268.033 147.008 268.753 147.2 269.313 147.632L270.065 146.88C269.361 146.304 268.353 146.032 267.233 146.032C265.553 146.032 264.337 146.896 264.337 148.336C264.337 149.632 265.153 150.32 266.689 150.448L267.985 150.56C268.897 150.64 269.297 151.024 269.297 151.712C269.297 152.64 268.497 153.104 267.201 153.104C266.225 153.104 265.377 152.848 264.753 152.192L263.985 152.96C264.849 153.792 265.889 154.096 267.217 154.096C269.121 154.096 270.417 153.216 270.417 151.696ZM275.542 154V153.008H274.934C274.198 153.008 273.862 152.576 273.862 151.856V147.056H275.542V146.176H273.862V143.712H272.71V146.176H271.718V147.056H272.71V151.888C272.71 153.056 273.382 154 274.726 154H275.542ZM287.431 154V148.656C287.431 146.944 286.391 146.032 284.279 146.032C282.999 146.032 282.199 146.288 281.495 147.2L282.279 147.92C282.743 147.264 283.255 147.024 284.263 147.024C285.703 147.024 286.279 147.6 286.279 148.752V149.504H283.911C282.151 149.504 281.191 150.4 281.191 151.776C281.191 152.4 281.399 152.992 281.783 153.376C282.279 153.888 282.919 154.096 284.007 154.096C285.063 154.096 285.639 153.888 286.279 153.248V154H287.431ZM286.279 151.216C286.279 151.872 286.151 152.32 285.879 152.576C285.383 153.056 284.791 153.104 284.119 153.104C282.871 153.104 282.311 152.672 282.311 151.76C282.311 150.848 282.887 150.368 284.071 150.368H286.279V151.216ZM296.429 154V148.96C296.429 148.048 296.173 147.312 295.613 146.768C295.133 146.288 294.445 146.032 293.597 146.032C292.717 146.032 291.949 146.352 291.389 146.992V146.128H290.237V154H291.389V149.152C291.389 147.776 292.157 147.056 293.341 147.056C294.525 147.056 295.277 147.76 295.277 149.152V154H296.429ZM305.061 154V142.608H303.909V147.04C303.269 146.224 302.549 146.032 301.685 146.032C300.885 146.032 300.181 146.304 299.765 146.72C298.965 147.52 298.805 148.832 298.805 150.064C298.805 151.296 298.965 152.608 299.765 153.408C300.181 153.824 300.885 154.096 301.685 154.096C302.549 154.096 303.285 153.888 303.925 153.056V154H305.061ZM303.909 150.064C303.909 151.6 303.653 153.072 301.941 153.072C300.229 153.072 299.957 151.6 299.957 150.064C299.957 148.528 300.229 147.056 301.941 147.056C303.653 147.056 303.909 148.528 303.909 150.064ZM47.056 178V172.656C47.056 170.944 46.016 170.032 43.904 170.032C42.624 170.032 41.824 170.288 41.12 171.2L41.904 171.92C42.368 171.264 42.88 171.024 43.888 171.024C45.328 171.024 45.904 171.6 45.904 172.752V173.504H43.536C41.776 173.504 40.816 174.4 40.816 175.776C40.816 176.4 41.024 176.992 41.408 177.376C41.904 177.888 42.544 178.096 43.632 178.096C44.688 178.096 45.264 177.888 45.904 177.248V178H47.056ZM45.904 175.216C45.904 175.872 45.776 176.32 45.504 176.576C45.008 177.056 44.416 177.104 43.744 177.104C42.496 177.104 41.936 176.672 41.936 175.76C41.936 174.848 42.512 174.368 43.696 174.368H45.904V175.216ZM52.8859 178V177.008H52.2779C51.5419 177.008 51.2059 176.576 51.2059 175.856V171.056H52.8859V170.176H51.2059V167.712H50.0539V170.176H49.0619V171.056H50.0539V175.888C50.0539 177.056 50.7259 178 52.0699 178H52.8859ZM58.1984 178V177.008H57.5904C56.8544 177.008 56.5184 176.576 56.5184 175.856V171.056H58.1984V170.176H56.5184V167.712H55.3664V170.176H54.3744V171.056H55.3664V175.888C55.3664 177.056 56.0384 178 57.3824 178H58.1984ZM66.3939 174.368V173.84C66.3939 171.504 65.1939 170.032 63.1619 170.032C61.1619 170.032 59.9299 171.52 59.9299 174.064C59.9299 176.848 61.2899 178.096 63.3699 178.096C64.7139 178.096 65.4499 177.68 66.2499 176.88L65.4659 176.192C64.8419 176.816 64.3139 177.088 63.4019 177.088C61.8979 177.088 61.0819 176.096 61.0819 174.368H66.3939ZM65.2419 173.504H61.0819C61.1139 172.864 61.1459 172.624 61.3219 172.192C61.6259 171.472 62.3299 171.008 63.1619 171.008C63.9939 171.008 64.6979 171.472 65.0019 172.192C65.1779 172.624 65.2099 172.864 65.2419 173.504ZM75.0383 178V172.96C75.0383 172.048 74.7823 171.312 74.2223 170.768C73.7423 170.288 73.0543 170.032 72.2063 170.032C71.3263 170.032 70.5583 170.352 69.9983 170.992V170.128H68.8463V178H69.9983V173.152C69.9983 171.776 70.7663 171.056 71.9503 171.056C73.1343 171.056 73.8863 171.76 73.8863 173.152V178H75.0383ZM80.8546 178V177.008H80.2466C79.5106 177.008 79.1746 176.576 79.1746 175.856V171.056H80.8546V170.176H79.1746V167.712H78.0226V170.176H77.0306V171.056H78.0226V175.888C78.0226 177.056 78.6946 178 80.0386 178H80.8546ZM84.3751 167.888V166.592H83.0791V167.888H84.3751ZM84.2951 178V170.128H83.1431V178H84.2951ZM92.726 170.128H91.478L89.318 176.448L87.174 170.128H85.926L88.806 178H89.83L92.726 170.128ZM100.222 174.368V173.84C100.222 171.504 99.022 170.032 96.99 170.032C94.99 170.032 93.758 171.52 93.758 174.064C93.758 176.848 95.118 178.096 97.198 178.096C98.542 178.096 99.278 177.68 100.078 176.88L99.294 176.192C98.67 176.816 98.142 177.088 97.23 177.088C95.726 177.088 94.91 176.096 94.91 174.368H100.222ZM99.07 173.504H94.91C94.942 172.864 94.974 172.624 95.15 172.192C95.454 171.472 96.158 171.008 96.99 171.008C97.822 171.008 98.526 171.472 98.83 172.192C99.006 172.624 99.038 172.864 99.07 173.504ZM108.866 178V172.96C108.866 172.048 108.61 171.312 108.05 170.768C107.57 170.288 106.882 170.032 106.034 170.032C105.154 170.032 104.386 170.352 103.826 170.992V170.128H102.674V178H103.826V173.152C103.826 171.776 104.594 171.056 105.778 171.056C106.962 171.056 107.714 171.76 107.714 173.152V178H108.866ZM117.691 174.368V173.84C117.691 171.504 116.491 170.032 114.459 170.032C112.459 170.032 111.227 171.52 111.227 174.064C111.227 176.848 112.587 178.096 114.667 178.096C116.011 178.096 116.747 177.68 117.547 176.88L116.763 176.192C116.139 176.816 115.611 177.088 114.699 177.088C113.195 177.088 112.379 176.096 112.379 174.368H117.691ZM116.539 173.504H112.379C112.411 172.864 112.443 172.624 112.619 172.192C112.923 171.472 113.627 171.008 114.459 171.008C115.291 171.008 115.995 171.472 116.299 172.192C116.475 172.624 116.507 172.864 116.539 173.504ZM125.823 175.696C125.823 174.224 124.879 173.696 123.503 173.568L122.239 173.456C121.247 173.376 120.863 172.976 120.863 172.304C120.863 171.504 121.471 171.008 122.623 171.008C123.439 171.008 124.159 171.2 124.719 171.632L125.471 170.88C124.767 170.304 123.759 170.032 122.639 170.032C120.959 170.032 119.743 170.896 119.743 172.336C119.743 173.632 120.559 174.32 122.095 174.448L123.391 174.56C124.303 174.64 124.703 175.024 124.703 175.712C124.703 176.64 123.903 177.104 122.607 177.104C121.631 177.104 120.783 176.848 120.159 176.192L119.391 176.96C120.255 177.792 121.295 178.096 122.623 178.096C124.527 178.096 125.823 177.216 125.823 175.696ZM133.511 175.696C133.511 174.224 132.567 173.696 131.191 173.568L129.927 173.456C128.935 173.376 128.551 172.976 128.551 172.304C128.551 171.504 129.159 171.008 130.311 171.008C131.127 171.008 131.847 171.2 132.407 171.632L133.159 170.88C132.455 170.304 131.447 170.032 130.327 170.032C128.647 170.032 127.431 170.896 127.431 172.336C127.431 173.632 128.247 174.32 129.783 174.448L131.079 174.56C131.991 174.64 132.391 175.024 132.391 175.712C132.391 176.64 131.591 177.104 130.295 177.104C129.319 177.104 128.471 176.848 127.847 176.192L127.079 176.96C127.943 177.792 128.983 178.096 130.311 178.096C132.215 178.096 133.511 177.216 133.511 175.696ZM140.985 167.888V166.592H139.689V167.888H140.985ZM140.905 178V170.128H139.753V178H140.905ZM149.991 178V172.96C149.991 172.048 149.735 171.312 149.175 170.768C148.695 170.288 148.007 170.032 147.159 170.032C146.279 170.032 145.511 170.352 144.951 170.992V170.128H143.799V178H144.951V173.152C144.951 171.776 145.719 171.056 146.903 171.056C148.087 171.056 148.839 171.76 148.839 173.152V178H149.991ZM159.568 178V177.008H158.944C158.144 177.008 157.888 176.624 157.888 175.856V166.608H156.736V175.904C156.736 177.104 157.36 178 158.736 178H159.568ZM167.144 174.368V173.84C167.144 171.504 165.944 170.032 163.912 170.032C161.912 170.032 160.68 171.52 160.68 174.064C160.68 176.848 162.04 178.096 164.12 178.096C165.464 178.096 166.2 177.68 167 176.88L166.216 176.192C165.592 176.816 165.064 177.088 164.152 177.088C162.648 177.088 161.832 176.096 161.832 174.368H167.144ZM165.992 173.504H161.832C161.864 172.864 161.896 172.624 162.072 172.192C162.376 171.472 163.08 171.008 163.912 171.008C164.744 171.008 165.448 171.472 165.752 172.192C165.928 172.624 165.96 172.864 165.992 173.504ZM175.212 178V172.656C175.212 170.944 174.172 170.032 172.06 170.032C170.78 170.032 169.98 170.288 169.276 171.2L170.06 171.92C170.524 171.264 171.036 171.024 172.044 171.024C173.484 171.024 174.06 171.6 174.06 172.752V173.504H171.692C169.932 173.504 168.972 174.4 168.972 175.776C168.972 176.4 169.18 176.992 169.564 177.376C170.06 177.888 170.7 178.096 171.788 178.096C172.844 178.096 173.42 177.888 174.06 177.248V178H175.212ZM174.06 175.216C174.06 175.872 173.932 176.32 173.66 176.576C173.164 177.056 172.572 177.104 171.9 177.104C170.652 177.104 170.092 176.672 170.092 175.76C170.092 174.848 170.668 174.368 171.852 174.368H174.06V175.216ZM183.266 170.768C182.706 170.208 182.13 170.032 181.378 170.032C180.466 170.032 179.602 170.432 179.17 171.088V170.128H178.018V178H179.17V173.168C179.17 171.968 179.906 171.056 181.058 171.056C181.666 171.056 181.986 171.2 182.418 171.632L183.266 170.768ZM190.945 178V172.96C190.945 172.048 190.689 171.312 190.129 170.768C189.649 170.288 188.961 170.032 188.113 170.032C187.233 170.032 186.465 170.352 185.905 170.992V170.128H184.753V178H185.905V173.152C185.905 171.776 186.673 171.056 187.857 171.056C189.041 171.056 189.793 171.76 189.793 173.152V178H190.945ZM194.969 167.888V166.592H193.673V167.888H194.969ZM194.889 178V170.128H193.737V178H194.889ZM203.976 178V172.96C203.976 172.048 203.72 171.312 203.16 170.768C202.68 170.288 201.992 170.032 201.144 170.032C200.264 170.032 199.496 170.352 198.936 170.992V170.128H197.784V178H198.936V173.152C198.936 171.776 199.704 171.056 200.888 171.056C202.072 171.056 202.824 171.76 202.824 173.152V178H203.976ZM212.576 178.24V170.128H211.44V171.056C210.8 170.224 210.096 170.032 209.232 170.032C208.432 170.032 207.728 170.304 207.312 170.72C206.528 171.504 206.352 172.72 206.352 174C206.352 175.28 206.528 176.496 207.312 177.28C207.728 177.696 208.416 177.984 209.216 177.984C210.064 177.984 210.784 177.776 211.424 176.96V178.192C211.424 179.536 210.784 180.608 209.264 180.608C208.352 180.608 207.952 180.336 207.376 179.824L206.624 180.56C207.456 181.312 208.112 181.616 209.296 181.616C211.36 181.616 212.576 180.192 212.576 178.24ZM211.424 174C211.424 175.472 211.184 176.944 209.472 176.944C207.76 176.944 207.504 175.472 207.504 174C207.504 172.528 207.76 171.056 209.472 171.056C211.184 171.056 211.424 172.528 211.424 174ZM216.832 179.04V176.592H215.424V180.304L216.832 179.04ZM229.275 178V172.656C229.275 170.944 228.235 170.032 226.123 170.032C224.843 170.032 224.043 170.288 223.339 171.2L224.123 171.92C224.587 171.264 225.099 171.024 226.107 171.024C227.547 171.024 228.123 171.6 228.123 172.752V173.504H225.755C223.995 173.504 223.035 174.4 223.035 175.776C223.035 176.4 223.243 176.992 223.627 177.376C224.123 177.888 224.763 178.096 225.851 178.096C226.907 178.096 227.483 177.888 228.123 177.248V178H229.275ZM228.123 175.216C228.123 175.872 227.995 176.32 227.723 176.576C227.227 177.056 226.635 177.104 225.963 177.104C224.715 177.104 224.155 176.672 224.155 175.76C224.155 174.848 224.731 174.368 225.915 174.368H228.123V175.216ZM238.273 178V172.96C238.273 172.048 238.017 171.312 237.457 170.768C236.977 170.288 236.289 170.032 235.441 170.032C234.561 170.032 233.793 170.352 233.233 170.992V170.128H232.081V178H233.233V173.152C233.233 171.776 234.001 171.056 235.185 171.056C236.369 171.056 237.121 171.76 237.121 173.152V178H238.273ZM246.905 178V166.608H245.753V171.04C245.113 170.224 244.393 170.032 243.529 170.032C242.729 170.032 242.025 170.304 241.609 170.72C240.809 171.52 240.649 172.832 240.649 174.064C240.649 175.296 240.809 176.608 241.609 177.408C242.025 177.824 242.729 178.096 243.529 178.096C244.393 178.096 245.129 177.888 245.769 177.056V178H246.905ZM245.753 174.064C245.753 175.6 245.497 177.072 243.785 177.072C242.073 177.072 241.801 175.6 241.801 174.064C241.801 172.528 242.073 171.056 243.785 171.056C245.497 171.056 245.753 172.528 245.753 174.064ZM259.96 178V172.944C259.96 171.168 258.904 170.032 257.128 170.032C256.248 170.032 255.496 170.336 254.92 170.992V166.608H253.768V178H254.92V173.136C254.92 171.776 255.704 171.056 256.888 171.056C258.072 171.056 258.808 171.76 258.808 173.136V178H259.96ZM268.785 174.368V173.84C268.785 171.504 267.585 170.032 265.553 170.032C263.553 170.032 262.321 171.52 262.321 174.064C262.321 176.848 263.681 178.096 265.761 178.096C267.105 178.096 267.841 177.68 268.641 176.88L267.857 176.192C267.233 176.816 266.705 177.088 265.793 177.088C264.289 177.088 263.473 176.096 263.473 174.368H268.785ZM267.633 173.504H263.473C263.505 172.864 263.537 172.624 263.713 172.192C264.017 171.472 264.721 171.008 265.553 171.008C266.385 171.008 267.089 171.472 267.393 172.192C267.569 172.624 267.601 172.864 267.633 173.504ZM274.037 178V177.008H273.413C272.613 177.008 272.357 176.624 272.357 175.856V166.608H271.205V175.904C271.205 177.104 271.829 178 273.205 178H274.037ZM282.243 174.064C282.243 172.832 282.083 171.52 281.283 170.72C280.867 170.304 280.163 170.032 279.363 170.032C278.499 170.032 277.779 170.224 277.139 171.056V170.128H275.987V181.52H277.139V177.072C277.779 177.888 278.499 178.096 279.363 178.096C280.163 178.096 280.867 177.824 281.283 177.408C282.083 176.608 282.243 175.296 282.243 174.064ZM281.091 174.064C281.091 175.6 280.835 177.072 279.123 177.072C277.411 177.072 277.139 175.6 277.139 174.064C277.139 172.528 277.411 171.056 279.123 171.056C280.835 171.056 281.091 172.528 281.091 174.064ZM294.226 170.128H292.978L290.834 176.448L288.674 170.128H287.426L290.258 177.84L289.698 179.376C289.442 180.096 289.202 180.352 288.402 180.352H288.05V181.376H288.546C289.106 181.376 289.666 181.232 290.082 180.832C290.306 180.624 290.482 180.336 290.642 179.904L294.226 170.128ZM301.706 174.064C301.706 172.848 301.546 171.744 300.746 170.928C300.202 170.384 299.45 170.032 298.49 170.032C297.53 170.032 296.778 170.384 296.234 170.928C295.434 171.744 295.274 172.848 295.274 174.064C295.274 175.28 295.434 176.384 296.234 177.2C296.778 177.744 297.53 178.096 298.49 178.096C299.45 178.096 300.202 177.744 300.746 177.2C301.546 176.384 301.706 175.28 301.706 174.064ZM300.554 174.064C300.554 174.944 300.506 175.92 299.93 176.496C299.562 176.864 299.05 177.072 298.49 177.072C297.93 177.072 297.434 176.864 297.066 176.496C296.49 175.92 296.426 174.944 296.426 174.064C296.426 173.184 296.49 172.208 297.066 171.632C297.434 171.264 297.93 171.056 298.49 171.056C299.05 171.056 299.562 171.264 299.93 171.632C300.506 172.208 300.554 173.184 300.554 174.064ZM310.286 178V170.128H309.134V174.976C309.134 176.352 308.35 177.072 307.166 177.072C305.982 177.072 305.246 176.368 305.246 174.976V170.128H304.094V175.152C304.094 176.064 304.334 176.816 304.894 177.36C305.374 177.84 306.078 178.096 306.926 178.096C307.806 178.096 308.59 177.76 309.15 177.12V178H310.286ZM44.24 202V201.008H43.616C42.816 201.008 42.56 200.624 42.56 199.856V190.608H41.408V199.904C41.408 201.104 42.032 202 43.408 202H44.24ZM51.8158 198.368V197.84C51.8158 195.504 50.6158 194.032 48.5838 194.032C46.5838 194.032 45.3518 195.52 45.3518 198.064C45.3518 200.848 46.7118 202.096 48.7918 202.096C50.1358 202.096 50.8718 201.68 51.6718 200.88L50.8878 200.192C50.2638 200.816 49.7358 201.088 48.8238 201.088C47.3198 201.088 46.5038 200.096 46.5038 198.368H51.8158ZM50.6638 197.504H46.5038C46.5358 196.864 46.5678 196.624 46.7438 196.192C47.0478 195.472 47.7518 195.008 48.5838 195.008C49.4158 195.008 50.1198 195.472 50.4238 196.192C50.5998 196.624 50.6318 196.864 50.6638 197.504ZM59.8841 202V196.656C59.8841 194.944 58.8441 194.032 56.7321 194.032C55.4521 194.032 54.6521 194.288 53.9481 195.2L54.7321 195.92C55.1961 195.264 55.7081 195.024 56.7161 195.024C58.1561 195.024 58.7321 195.6 58.7321 196.752V197.504H56.3641C54.6041 197.504 53.6441 198.4 53.6441 199.776C53.6441 200.4 53.8521 200.992 54.2361 201.376C54.7321 201.888 55.3721 202.096 56.4601 202.096C57.5161 202.096 58.0921 201.888 58.7321 201.248V202H59.8841ZM58.7321 199.216C58.7321 199.872 58.6041 200.32 58.3321 200.576C57.8361 201.056 57.2441 201.104 56.5721 201.104C55.3241 201.104 54.7641 200.672 54.7641 199.76C54.7641 198.848 55.3401 198.368 56.5241 198.368H58.7321V199.216ZM67.938 194.768C67.378 194.208 66.802 194.032 66.05 194.032C65.138 194.032 64.274 194.432 63.842 195.088V194.128H62.69V202H63.842V197.168C63.842 195.968 64.578 195.056 65.73 195.056C66.338 195.056 66.658 195.2 67.09 195.632L67.938 194.768ZM75.6164 202V196.96C75.6164 196.048 75.3604 195.312 74.8004 194.768C74.3204 194.288 73.6324 194.032 72.7844 194.032C71.9044 194.032 71.1364 194.352 70.5764 194.992V194.128H69.4244V202H70.5764V197.152C70.5764 195.776 71.3444 195.056 72.5284 195.056C73.7124 195.056 74.4644 195.76 74.4644 197.152V202H75.6164ZM85.4811 195.056V194.176H83.8011V192.72C83.8011 192 84.1211 191.568 84.8571 191.568H85.4811V190.576H84.6491C83.3051 190.576 82.6491 191.52 82.6491 192.688V194.176H81.6411V195.056H82.6491V202H83.8011V195.056H85.4811ZM92.6724 194.768C92.1124 194.208 91.5364 194.032 90.7844 194.032C89.8724 194.032 89.0084 194.432 88.5764 195.088V194.128H87.4244V202H88.5764V197.168C88.5764 195.968 89.3124 195.056 90.4644 195.056C91.0724 195.056 91.3924 195.2 91.8244 195.632L92.6724 194.768ZM99.6279 198.064C99.6279 196.848 99.4679 195.744 98.6679 194.928C98.1239 194.384 97.3719 194.032 96.4119 194.032C95.4519 194.032 94.6999 194.384 94.1559 194.928C93.3559 195.744 93.1959 196.848 93.1959 198.064C93.1959 199.28 93.3559 200.384 94.1559 201.2C94.6999 201.744 95.4519 202.096 96.4119 202.096C97.3719 202.096 98.1239 201.744 98.6679 201.2C99.4679 200.384 99.6279 199.28 99.6279 198.064ZM98.4759 198.064C98.4759 198.944 98.4279 199.92 97.8519 200.496C97.4839 200.864 96.9719 201.072 96.4119 201.072C95.8519 201.072 95.3559 200.864 94.9879 200.496C94.4119 199.92 94.3479 198.944 94.3479 198.064C94.3479 197.184 94.4119 196.208 94.9879 195.632C95.3559 195.264 95.8519 195.056 96.4119 195.056C96.9719 195.056 97.4839 195.264 97.8519 195.632C98.4279 196.208 98.4759 197.184 98.4759 198.064ZM113.36 202V196.96C113.36 196.048 113.072 195.312 112.512 194.768C112.032 194.304 111.328 194.032 110.48 194.032C109.376 194.032 108.496 194.48 107.888 195.344C107.408 194.48 106.56 194.032 105.472 194.032C104.592 194.032 103.808 194.352 103.248 194.992V194.128H102.096V202H103.248V197.152C103.248 195.776 104.032 195.056 105.216 195.056C106.4 195.056 107.152 195.76 107.152 197.152V202H108.304V197.024C108.304 195.776 109.12 195.056 110.272 195.056C111.456 195.056 112.208 195.76 112.208 197.152V202H113.36ZM125.679 194.128H124.431L122.287 200.448L120.127 194.128H118.879L121.711 201.84L121.151 203.376C120.895 204.096 120.655 204.352 119.855 204.352H119.503V205.376H119.999C120.559 205.376 121.119 205.232 121.535 204.832C121.759 204.624 121.935 204.336 122.095 203.904L125.679 194.128ZM133.159 198.064C133.159 196.848 132.999 195.744 132.199 194.928C131.655 194.384 130.903 194.032 129.943 194.032C128.983 194.032 128.231 194.384 127.687 194.928C126.887 195.744 126.727 196.848 126.727 198.064C126.727 199.28 126.887 200.384 127.687 201.2C128.231 201.744 128.983 202.096 129.943 202.096C130.903 202.096 131.655 201.744 132.199 201.2C132.999 200.384 133.159 199.28 133.159 198.064ZM132.007 198.064C132.007 198.944 131.959 199.92 131.383 200.496C131.015 200.864 130.503 201.072 129.943 201.072C129.383 201.072 128.887 200.864 128.519 200.496C127.943 199.92 127.879 198.944 127.879 198.064C127.879 197.184 127.943 196.208 128.519 195.632C128.887 195.264 129.383 195.056 129.943 195.056C130.503 195.056 131.015 195.264 131.383 195.632C131.959 196.208 132.007 197.184 132.007 198.064ZM141.74 202V194.128H140.588V198.976C140.588 200.352 139.804 201.072 138.62 201.072C137.436 201.072 136.7 200.368 136.7 198.976V194.128H135.548V199.152C135.548 200.064 135.788 200.816 136.348 201.36C136.828 201.84 137.532 202.096 138.38 202.096C139.26 202.096 140.044 201.76 140.604 201.12V202H141.74ZM149.86 194.768C149.3 194.208 148.724 194.032 147.972 194.032C147.06 194.032 146.196 194.432 145.764 195.088V194.128H144.612V202H145.764V197.168C145.764 195.968 146.5 195.056 147.652 195.056C148.26 195.056 148.58 195.2 149.012 195.632L149.86 194.768ZM166.595 202V196.96C166.595 196.048 166.307 195.312 165.747 194.768C165.267 194.304 164.563 194.032 163.715 194.032C162.611 194.032 161.731 194.48 161.123 195.344C160.643 194.48 159.795 194.032 158.707 194.032C157.827 194.032 157.043 194.352 156.483 194.992V194.128H155.331V202H156.483V197.152C156.483 195.776 157.267 195.056 158.451 195.056C159.635 195.056 160.387 195.76 160.387 197.152V202H161.539V197.024C161.539 195.776 162.355 195.056 163.507 195.056C164.691 195.056 165.443 195.76 165.443 197.152V202H166.595ZM170.625 191.888V190.592H169.329V191.888H170.625ZM170.545 202V194.128H169.393V202H170.545ZM179.12 199.696C179.12 198.224 178.176 197.696 176.8 197.568L175.536 197.456C174.544 197.376 174.16 196.976 174.16 196.304C174.16 195.504 174.768 195.008 175.92 195.008C176.736 195.008 177.456 195.2 178.016 195.632L178.768 194.88C178.064 194.304 177.056 194.032 175.936 194.032C174.256 194.032 173.04 194.896 173.04 196.336C173.04 197.632 173.856 198.32 175.392 198.448L176.688 198.56C177.6 198.64 178 199.024 178 199.712C178 200.64 177.2 201.104 175.904 201.104C174.928 201.104 174.08 200.848 173.456 200.192L172.688 200.96C173.552 201.792 174.592 202.096 175.92 202.096C177.824 202.096 179.12 201.216 179.12 199.696ZM184.245 202V201.008H183.637C182.901 201.008 182.565 200.576 182.565 199.856V195.056H184.245V194.176H182.565V191.712H181.413V194.176H180.421V195.056H181.413V199.888C181.413 201.056 182.085 202 183.429 202H184.245ZM192.025 202V196.656C192.025 194.944 190.985 194.032 188.873 194.032C187.593 194.032 186.793 194.288 186.089 195.2L186.873 195.92C187.337 195.264 187.849 195.024 188.857 195.024C190.297 195.024 190.873 195.6 190.873 196.752V197.504H188.505C186.745 197.504 185.785 198.4 185.785 199.776C185.785 200.4 185.993 200.992 186.377 201.376C186.873 201.888 187.513 202.096 188.601 202.096C189.657 202.096 190.233 201.888 190.873 201.248V202H192.025ZM190.873 199.216C190.873 199.872 190.745 200.32 190.473 200.576C189.977 201.056 189.385 201.104 188.713 201.104C187.465 201.104 186.905 200.672 186.905 199.76C186.905 198.848 187.481 198.368 188.665 198.368H190.873V199.216ZM201.439 202L198.303 197.136L200.975 194.128H199.535L195.983 198.224V190.608H194.831V202H195.983V199.728L197.519 197.968L200.015 202H201.439ZM209.128 198.368V197.84C209.128 195.504 207.928 194.032 205.896 194.032C203.896 194.032 202.664 195.52 202.664 198.064C202.664 200.848 204.024 202.096 206.104 202.096C207.448 202.096 208.184 201.68 208.984 200.88L208.2 200.192C207.576 200.816 207.048 201.088 206.136 201.088C204.632 201.088 203.816 200.096 203.816 198.368H209.128ZM207.976 197.504H203.816C203.848 196.864 203.88 196.624 204.056 196.192C204.36 195.472 205.064 195.008 205.896 195.008C206.728 195.008 207.432 195.472 207.736 196.192C207.912 196.624 207.944 196.864 207.976 197.504ZM217.261 199.696C217.261 198.224 216.317 197.696 214.941 197.568L213.677 197.456C212.685 197.376 212.301 196.976 212.301 196.304C212.301 195.504 212.909 195.008 214.061 195.008C214.877 195.008 215.597 195.2 216.157 195.632L216.909 194.88C216.205 194.304 215.197 194.032 214.077 194.032C212.397 194.032 211.181 194.896 211.181 196.336C211.181 197.632 211.997 198.32 213.533 198.448L214.829 198.56C215.741 198.64 216.141 199.024 216.141 199.712C216.141 200.64 215.341 201.104 214.045 201.104C213.069 201.104 212.221 200.848 211.597 200.192L210.829 200.96C211.693 201.792 212.733 202.096 214.061 202.096C215.965 202.096 217.261 201.216 217.261 199.696ZM224.735 191.888V190.592H223.439V191.888H224.735ZM224.655 202V194.128H223.503V202H224.655ZM233.741 202V196.96C233.741 196.048 233.485 195.312 232.925 194.768C232.445 194.288 231.757 194.032 230.909 194.032C230.029 194.032 229.261 194.352 228.701 194.992V194.128H227.549V202H228.701V197.152C228.701 195.776 229.469 195.056 230.653 195.056C231.837 195.056 232.589 195.76 232.589 197.152V202H233.741ZM246.134 202V196.656C246.134 194.944 245.094 194.032 242.982 194.032C241.702 194.032 240.902 194.288 240.198 195.2L240.982 195.92C241.446 195.264 241.958 195.024 242.966 195.024C244.406 195.024 244.982 195.6 244.982 196.752V197.504H242.614C240.854 197.504 239.894 198.4 239.894 199.776C239.894 200.4 240.102 200.992 240.486 201.376C240.982 201.888 241.622 202.096 242.71 202.096C243.766 202.096 244.342 201.888 244.982 201.248V202H246.134ZM244.982 199.216C244.982 199.872 244.854 200.32 244.582 200.576C244.086 201.056 243.494 201.104 242.822 201.104C241.574 201.104 241.014 200.672 241.014 199.76C241.014 198.848 241.59 198.368 242.774 198.368H244.982V199.216ZM256.012 195.056V194.176H254.332V192.72C254.332 192 254.652 191.568 255.388 191.568H256.012V190.576H255.18C253.836 190.576 253.18 191.52 253.18 192.688V194.176H252.172V195.056H253.18V202H254.332V195.056H256.012ZM264.068 202V194.128H262.916V198.976C262.916 200.352 262.132 201.072 260.948 201.072C259.764 201.072 259.028 200.368 259.028 198.976V194.128H257.876V199.152C257.876 200.064 258.116 200.816 258.676 201.36C259.156 201.84 259.86 202.096 260.708 202.096C261.588 202.096 262.372 201.76 262.932 201.12V202H264.068ZM273.132 202V196.96C273.132 196.048 272.876 195.312 272.316 194.768C271.836 194.288 271.148 194.032 270.3 194.032C269.42 194.032 268.652 194.352 268.092 194.992V194.128H266.94V202H268.092V197.152C268.092 195.776 268.86 195.056 270.044 195.056C271.228 195.056 271.98 195.76 271.98 197.152V202H273.132ZM285.525 202V196.656C285.525 194.944 284.485 194.032 282.373 194.032C281.093 194.032 280.293 194.288 279.589 195.2L280.373 195.92C280.837 195.264 281.349 195.024 282.357 195.024C283.797 195.024 284.373 195.6 284.373 196.752V197.504H282.005C280.245 197.504 279.285 198.4 279.285 199.776C279.285 200.4 279.493 200.992 279.877 201.376C280.373 201.888 281.013 202.096 282.101 202.096C283.157 202.096 283.733 201.888 284.373 201.248V202H285.525ZM284.373 199.216C284.373 199.872 284.245 200.32 283.973 200.576C283.477 201.056 282.885 201.104 282.213 201.104C280.965 201.104 280.405 200.672 280.405 199.76C280.405 198.848 280.981 198.368 282.165 198.368H284.373V199.216ZM294.523 202V196.96C294.523 196.048 294.267 195.312 293.707 194.768C293.227 194.288 292.539 194.032 291.691 194.032C290.811 194.032 290.043 194.352 289.483 194.992V194.128H288.331V202H289.483V197.152C289.483 195.776 290.251 195.056 291.435 195.056C292.619 195.056 293.371 195.76 293.371 197.152V202H294.523ZM303.155 202V190.608H302.003V195.04C301.363 194.224 300.643 194.032 299.779 194.032C298.979 194.032 298.275 194.304 297.859 194.72C297.059 195.52 296.899 196.832 296.899 198.064C296.899 199.296 297.059 200.608 297.859 201.408C298.275 201.824 298.979 202.096 299.779 202.096C300.643 202.096 301.379 201.888 302.019 201.056V202H303.155ZM302.003 198.064C302.003 199.6 301.747 201.072 300.035 201.072C298.323 201.072 298.051 199.6 298.051 198.064C298.051 196.528 298.323 195.056 300.035 195.056C301.747 195.056 302.003 196.528 302.003 198.064ZM47.472 222.368V221.84C47.472 219.504 46.272 218.032 44.24 218.032C42.24 218.032 41.008 219.52 41.008 222.064C41.008 224.848 42.368 226.096 44.448 226.096C45.792 226.096 46.528 225.68 47.328 224.88L46.544 224.192C45.92 224.816 45.392 225.088 44.48 225.088C42.976 225.088 42.16 224.096 42.16 222.368H47.472ZM46.32 221.504H42.16C42.192 220.864 42.224 220.624 42.4 220.192C42.704 219.472 43.408 219.008 44.24 219.008C45.072 219.008 45.776 219.472 46.08 220.192C46.256 220.624 46.288 220.864 46.32 221.504ZM56.1164 226V220.96C56.1164 220.048 55.8604 219.312 55.3004 218.768C54.8204 218.288 54.1324 218.032 53.2844 218.032C52.4044 218.032 51.6364 218.352 51.0764 218.992V218.128H49.9244V226H51.0764V221.152C51.0764 219.776 51.8444 219.056 53.0284 219.056C54.2124 219.056 54.9644 219.76 54.9644 221.152V226H56.1164ZM64.7168 226.24V218.128H63.5808V219.056C62.9408 218.224 62.2368 218.032 61.3728 218.032C60.5728 218.032 59.8688 218.304 59.4528 218.72C58.6688 219.504 58.4928 220.72 58.4928 222C58.4928 223.28 58.6688 224.496 59.4528 225.28C59.8688 225.696 60.5568 225.984 61.3568 225.984C62.2048 225.984 62.9248 225.776 63.5648 224.96V226.192C63.5648 227.536 62.9248 228.608 61.4048 228.608C60.4928 228.608 60.0928 228.336 59.5168 227.824L58.7648 228.56C59.5968 229.312 60.2528 229.616 61.4368 229.616C63.5008 229.616 64.7168 228.192 64.7168 226.24ZM63.5648 222C63.5648 223.472 63.3248 224.944 61.6128 224.944C59.9008 224.944 59.6448 223.472 59.6448 222C59.6448 220.528 59.9008 219.056 61.6128 219.056C63.3248 219.056 63.5648 220.528 63.5648 222ZM73.2123 226V220.656C73.2123 218.944 72.1723 218.032 70.0603 218.032C68.7803 218.032 67.9803 218.288 67.2763 219.2L68.0603 219.92C68.5243 219.264 69.0363 219.024 70.0443 219.024C71.4843 219.024 72.0603 219.6 72.0603 220.752V221.504H69.6923C67.9323 221.504 66.9723 222.4 66.9723 223.776C66.9723 224.4 67.1803 224.992 67.5643 225.376C68.0603 225.888 68.7003 226.096 69.7883 226.096C70.8443 226.096 71.4203 225.888 72.0603 225.248V226H73.2123ZM72.0603 223.216C72.0603 223.872 71.9323 224.32 71.6603 224.576C71.1643 225.056 70.5723 225.104 69.9003 225.104C68.6523 225.104 68.0923 224.672 68.0923 223.76C68.0923 222.848 68.6683 222.368 69.8523 222.368H72.0603V223.216ZM81.8261 226.24V218.128H80.6901V219.056C80.0501 218.224 79.3461 218.032 78.4821 218.032C77.6821 218.032 76.9781 218.304 76.5621 218.72C75.7781 219.504 75.6021 220.72 75.6021 222C75.6021 223.28 75.7781 224.496 76.5621 225.28C76.9781 225.696 77.6661 225.984 78.4661 225.984C79.3141 225.984 80.0341 225.776 80.6741 224.96V226.192C80.6741 227.536 80.0341 228.608 78.5141 228.608C77.6021 228.608 77.2021 228.336 76.6261 227.824L75.8741 228.56C76.7061 229.312 77.3621 229.616 78.5461 229.616C80.6101 229.616 81.8261 228.192 81.8261 226.24ZM80.6741 222C80.6741 223.472 80.4341 224.944 78.7221 224.944C77.0101 224.944 76.7541 223.472 76.7541 222C76.7541 220.528 77.0101 219.056 78.7221 219.056C80.4341 219.056 80.6741 220.528 80.6741 222ZM85.9376 215.888V214.592H84.6416V215.888H85.9376ZM85.8576 226V218.128H84.7056V226H85.8576ZM94.9445 226V220.96C94.9445 220.048 94.6885 219.312 94.1285 218.768C93.6485 218.288 92.9605 218.032 92.1125 218.032C91.2325 218.032 90.4645 218.352 89.9045 218.992V218.128H88.7525V226H89.9045V221.152C89.9045 219.776 90.6725 219.056 91.8565 219.056C93.0405 219.056 93.7925 219.76 93.7925 221.152V226H94.9445ZM103.545 226.24V218.128H102.409V219.056C101.769 218.224 101.065 218.032 100.201 218.032C99.4009 218.032 98.6969 218.304 98.2809 218.72C97.4969 219.504 97.3209 220.72 97.3209 222C97.3209 223.28 97.4969 224.496 98.2809 225.28C98.6969 225.696 99.3849 225.984 100.185 225.984C101.033 225.984 101.753 225.776 102.393 224.96V226.192C102.393 227.536 101.753 228.608 100.233 228.608C99.3209 228.608 98.9209 228.336 98.3449 227.824L97.5929 228.56C98.4249 229.312 99.0809 229.616 100.265 229.616C102.329 229.616 103.545 228.192 103.545 226.24ZM102.393 222C102.393 223.472 102.153 224.944 100.441 224.944C98.7289 224.944 98.4729 223.472 98.4729 222C98.4729 220.528 98.7289 219.056 100.441 219.056C102.153 219.056 102.393 220.528 102.393 222ZM120.377 218.128H119.129L117.337 224.448L115.257 218.128H114.265L112.201 224.448L110.393 218.128H109.145L111.641 226H112.713L114.761 219.888L116.825 226H117.897L120.377 218.128ZM127.603 226V220.656C127.603 218.944 126.563 218.032 124.451 218.032C123.171 218.032 122.371 218.288 121.667 219.2L122.451 219.92C122.915 219.264 123.427 219.024 124.435 219.024C125.875 219.024 126.451 219.6 126.451 220.752V221.504H124.083C122.323 221.504 121.363 222.4 121.363 223.776C121.363 224.4 121.571 224.992 121.955 225.376C122.451 225.888 123.091 226.096 124.179 226.096C125.235 226.096 125.811 225.888 126.451 225.248V226H127.603ZM126.451 223.216C126.451 223.872 126.323 224.32 126.051 224.576C125.555 225.056 124.963 225.104 124.291 225.104C123.043 225.104 122.483 224.672 122.483 223.76C122.483 222.848 123.059 222.368 124.243 222.368H126.451V223.216ZM135.945 218.128H134.697L132.553 224.448L130.393 218.128H129.145L131.977 225.84L131.417 227.376C131.161 228.096 130.921 228.352 130.121 228.352H129.769V229.376H130.265C130.825 229.376 131.385 229.232 131.801 228.832C132.025 228.624 132.201 228.336 132.361 227.904L135.945 218.128ZM137.943 226V224.496H136.439V226H137.943Z" fill="#3886D1"/>
</svg>
