<svg width="393" height="313" viewBox="0 0 393 313" fill="none" xmlns="http://www.w3.org/2000/svg">
    <path d="M0.5 35C0.5 15.9462 15.9462 0.5 35 0.5H261C280.054 0.5 295.5 15.9462 295.5 35C295.5 54.0538 280.054 69.5 261 69.5H35C15.9462 69.5 0.5 54.0538 0.5 35Z" stroke="#3886D1"/>
    <path d="M0 85C0 54.072 25.0721 29 56 29H313C343.928 29 369 54.0721 369 85V257C369 287.928 343.928 313 313 313H56C25.0721 313 0 287.928 0 257V85Z" fill="#3886D1" fill-opacity="0.1"/>
    <path d="M59.34 51.408V48.704H52.346V51.72H55.752V52.422C55.752 53.384 55.518 54.216 54.92 54.892C54.322 55.542 53.438 55.932 52.346 55.932C51.358 55.932 50.552 55.568 50.032 54.97C49.33 54.19 49.148 53.306 49.148 49.744C49.148 46.182 49.33 45.324 50.032 44.544C50.552 43.946 51.358 43.556 52.346 43.556C54.192 43.556 55.258 44.518 55.674 46.26H59.314C58.82 43.14 56.636 40.332 52.346 40.332C50.266 40.332 48.654 41.06 47.354 42.36C45.482 44.232 45.534 46.546 45.534 49.744C45.534 52.942 45.482 55.256 47.354 57.128C48.654 58.428 50.318 59.156 52.346 59.156C54.322 59.156 56.09 58.584 57.572 57.05C58.872 55.698 59.34 54.086 59.34 51.408ZM73.0014 59V50.082C73.0014 46.91 71.0254 45.298 67.2294 45.298C64.9674 45.298 63.6674 45.714 62.3414 47.17L64.4994 49.276C65.2014 48.47 65.7994 48.158 67.0994 48.158C68.8934 48.158 69.6214 48.808 69.6214 50.29V50.966H66.4234C63.2774 50.966 61.7954 52.734 61.7954 54.892C61.7954 56.088 62.1854 57.18 62.9134 57.934C63.7194 58.74 64.8374 59.13 66.3714 59.13C67.9314 59.13 68.7894 58.74 69.6994 57.83V59H73.0014ZM69.6214 54.008C69.6214 54.84 69.4914 55.386 69.1274 55.724C68.5294 56.296 67.9314 56.374 66.9954 56.374C65.6694 56.374 65.0454 55.75 65.0454 54.814C65.0454 53.852 65.7214 53.28 66.9434 53.28H69.6214V54.008ZM95.782 59V50.342C95.782 48.86 95.392 47.586 94.3 46.494C93.546 45.74 92.324 45.298 90.972 45.298C89.282 45.298 88.06 45.818 86.916 47.014C86.058 45.844 84.836 45.298 83.328 45.298C82.08 45.298 80.832 45.792 79.948 46.702V45.454H76.646V59H80.026V50.81C80.026 48.964 81.222 48.34 82.288 48.34C83.354 48.34 84.524 48.964 84.524 50.81V59H87.904V50.732C87.904 48.964 89.126 48.34 90.166 48.34C91.232 48.34 92.402 48.964 92.402 50.81V59H95.782ZM110.549 53.28V51.772C110.549 48.054 108.417 45.298 104.647 45.298C101.137 45.298 98.7454 47.794 98.7454 52.214C98.7454 57.7 101.813 59.156 105.011 59.156C107.455 59.156 108.781 58.402 110.159 57.024L108.105 55.022C107.247 55.88 106.519 56.296 105.037 56.296C103.139 56.296 102.073 55.022 102.073 53.28H110.549ZM107.221 50.966H102.073C102.099 50.368 102.177 50.004 102.385 49.51C102.749 48.704 103.503 48.106 104.647 48.106C105.791 48.106 106.545 48.704 106.909 49.51C107.117 50.004 107.195 50.368 107.221 50.966Z" fill="#3886D1"/>
    <path d="M49.472 126.848C49.472 125.488 48.704 124.544 47.616 124.144C48.576 123.792 49.296 122.848 49.296 121.648C49.296 119.744 47.92 118.608 45.936 118.608H41.648V130H46.08C48.096 130 49.472 128.912 49.472 126.848ZM48.08 121.664C48.08 123.024 47.104 123.648 45.84 123.648H42.864V119.696H45.84C47.104 119.696 48.08 120.304 48.08 121.664ZM48.256 126.816C48.256 128.096 47.376 128.912 45.968 128.912H42.864V124.736H45.968C47.376 124.736 48.256 125.536 48.256 126.816ZM58.1435 126.064C58.1435 124.848 57.9835 123.744 57.1835 122.928C56.6395 122.384 55.8875 122.032 54.9275 122.032C53.9675 122.032 53.2155 122.384 52.6715 122.928C51.8715 123.744 51.7115 124.848 51.7115 126.064C51.7115 127.28 51.8715 128.384 52.6715 129.2C53.2155 129.744 53.9675 130.096 54.9275 130.096C55.8875 130.096 56.6395 129.744 57.1835 129.2C57.9835 128.384 58.1435 127.28 58.1435 126.064ZM56.9915 126.064C56.9915 126.944 56.9435 127.92 56.3675 128.496C55.9995 128.864 55.4875 129.072 54.9275 129.072C54.3675 129.072 53.8715 128.864 53.5035 128.496C52.9275 127.92 52.8635 126.944 52.8635 126.064C52.8635 125.184 52.9275 124.208 53.5035 123.632C53.8715 123.264 54.3675 123.056 54.9275 123.056C55.4875 123.056 55.9995 123.264 56.3675 123.632C56.9435 124.208 56.9915 125.184 56.9915 126.064ZM66.6279 126.064C66.6279 124.848 66.4679 123.744 65.6679 122.928C65.1239 122.384 64.3719 122.032 63.4119 122.032C62.4519 122.032 61.6999 122.384 61.1559 122.928C60.3559 123.744 60.1959 124.848 60.1959 126.064C60.1959 127.28 60.3559 128.384 61.1559 129.2C61.6999 129.744 62.4519 130.096 63.4119 130.096C64.3719 130.096 65.1239 129.744 65.6679 129.2C66.4679 128.384 66.6279 127.28 66.6279 126.064ZM65.4759 126.064C65.4759 126.944 65.4279 127.92 64.8519 128.496C64.4839 128.864 63.9719 129.072 63.4119 129.072C62.8519 129.072 62.3559 128.864 61.9879 128.496C61.4119 127.92 61.3479 126.944 61.3479 126.064C61.3479 125.184 61.4119 124.208 61.9879 123.632C62.3559 123.264 62.8519 123.056 63.4119 123.056C63.9719 123.056 64.4839 123.264 64.8519 123.632C65.4279 124.208 65.4759 125.184 65.4759 126.064ZM74.7763 127.696C74.7763 126.224 73.8323 125.696 72.4563 125.568L71.1923 125.456C70.2003 125.376 69.8163 124.976 69.8163 124.304C69.8163 123.504 70.4243 123.008 71.5763 123.008C72.3923 123.008 73.1123 123.2 73.6723 123.632L74.4243 122.88C73.7203 122.304 72.7123 122.032 71.5923 122.032C69.9123 122.032 68.6963 122.896 68.6963 124.336C68.6963 125.632 69.5123 126.32 71.0483 126.448L72.3443 126.56C73.2563 126.64 73.6563 127.024 73.6563 127.712C73.6563 128.64 72.8563 129.104 71.5603 129.104C70.5843 129.104 69.7363 128.848 69.1123 128.192L68.3443 128.96C69.2083 129.792 70.2483 130.096 71.5763 130.096C73.4803 130.096 74.7763 129.216 74.7763 127.696ZM79.9015 130V129.008H79.2935C78.5575 129.008 78.2215 128.576 78.2215 127.856V123.056H79.9015V122.176H78.2215V119.712H77.0695V122.176H76.0775V123.056H77.0695V127.888C77.0695 129.056 77.7415 130 79.0855 130H79.9015ZM97.4384 130V124.96C97.4384 124.048 97.1504 123.312 96.5904 122.768C96.1104 122.304 95.4064 122.032 94.5584 122.032C93.4544 122.032 92.5744 122.48 91.9664 123.344C91.4864 122.48 90.6384 122.032 89.5504 122.032C88.6704 122.032 87.8864 122.352 87.3264 122.992V122.128H86.1744V130H87.3264V125.152C87.3264 123.776 88.1104 123.056 89.2944 123.056C90.4784 123.056 91.2304 123.76 91.2304 125.152V130H92.3824V125.024C92.3824 123.776 93.1984 123.056 94.3504 123.056C95.5344 123.056 96.2864 123.76 96.2864 125.152V130H97.4384ZM106.253 126.064C106.253 124.848 106.093 123.744 105.293 122.928C104.749 122.384 103.997 122.032 103.037 122.032C102.077 122.032 101.325 122.384 100.781 122.928C99.9809 123.744 99.8209 124.848 99.8209 126.064C99.8209 127.28 99.9809 128.384 100.781 129.2C101.325 129.744 102.077 130.096 103.037 130.096C103.997 130.096 104.749 129.744 105.293 129.2C106.093 128.384 106.253 127.28 106.253 126.064ZM105.101 126.064C105.101 126.944 105.053 127.92 104.477 128.496C104.109 128.864 103.597 129.072 103.037 129.072C102.477 129.072 101.981 128.864 101.613 128.496C101.037 127.92 100.973 126.944 100.973 126.064C100.973 125.184 101.037 124.208 101.613 123.632C101.981 123.264 102.477 123.056 103.037 123.056C103.597 123.056 104.109 123.264 104.477 123.632C105.053 124.208 105.101 125.184 105.101 126.064ZM111.745 130V129.008H111.137C110.401 129.008 110.065 128.576 110.065 127.856V123.056H111.745V122.176H110.065V119.712H108.913V122.176H107.921V123.056H108.913V127.888C108.913 129.056 109.585 130 110.929 130H111.745ZM115.266 119.888V118.592H113.97V119.888H115.266ZM115.186 130V122.128H114.034V130H115.186ZM123.617 122.128H122.369L120.209 128.448L118.065 122.128H116.817L119.697 130H120.721L123.617 122.128ZM130.697 130V124.656C130.697 122.944 129.657 122.032 127.545 122.032C126.265 122.032 125.465 122.288 124.761 123.2L125.545 123.92C126.009 123.264 126.521 123.024 127.529 123.024C128.969 123.024 129.545 123.6 129.545 124.752V125.504H127.177C125.417 125.504 124.457 126.4 124.457 127.776C124.457 128.4 124.665 128.992 125.049 129.376C125.545 129.888 126.185 130.096 127.273 130.096C128.329 130.096 128.905 129.888 129.545 129.248V130H130.697ZM129.545 127.216C129.545 127.872 129.417 128.32 129.145 128.576C128.649 129.056 128.057 129.104 127.385 129.104C126.137 129.104 125.577 128.672 125.577 127.76C125.577 126.848 126.153 126.368 127.337 126.368H129.545V127.216ZM136.527 130V129.008H135.919C135.183 129.008 134.847 128.576 134.847 127.856V123.056H136.527V122.176H134.847V119.712H133.695V122.176H132.703V123.056H133.695V127.888C133.695 129.056 134.367 130 135.711 130H136.527ZM140.047 119.888V118.592H138.751V119.888H140.047ZM139.967 130V122.128H138.815V130H139.967ZM148.878 126.064C148.878 124.848 148.718 123.744 147.918 122.928C147.374 122.384 146.622 122.032 145.662 122.032C144.702 122.032 143.95 122.384 143.406 122.928C142.606 123.744 142.446 124.848 142.446 126.064C142.446 127.28 142.606 128.384 143.406 129.2C143.95 129.744 144.702 130.096 145.662 130.096C146.622 130.096 147.374 129.744 147.918 129.2C148.718 128.384 148.878 127.28 148.878 126.064ZM147.726 126.064C147.726 126.944 147.678 127.92 147.102 128.496C146.734 128.864 146.222 129.072 145.662 129.072C145.102 129.072 144.606 128.864 144.238 128.496C143.662 127.92 143.598 126.944 143.598 126.064C143.598 125.184 143.662 124.208 144.238 123.632C144.606 123.264 145.102 123.056 145.662 123.056C146.222 123.056 146.734 123.264 147.102 123.632C147.678 124.208 147.726 125.184 147.726 126.064ZM157.538 130V124.96C157.538 124.048 157.282 123.312 156.722 122.768C156.242 122.288 155.554 122.032 154.706 122.032C153.826 122.032 153.058 122.352 152.498 122.992V122.128H151.346V130H152.498V125.152C152.498 123.776 153.266 123.056 154.45 123.056C155.634 123.056 156.386 123.76 156.386 125.152V130H157.538ZM161.707 131.04V128.592H160.299V132.304L161.707 131.04ZM174.15 130V124.656C174.15 122.944 173.11 122.032 170.998 122.032C169.718 122.032 168.918 122.288 168.214 123.2L168.998 123.92C169.462 123.264 169.974 123.024 170.982 123.024C172.422 123.024 172.998 123.6 172.998 124.752V125.504H170.63C168.87 125.504 167.91 126.4 167.91 127.776C167.91 128.4 168.118 128.992 168.502 129.376C168.998 129.888 169.638 130.096 170.726 130.096C171.782 130.096 172.358 129.888 172.998 129.248V130H174.15ZM172.998 127.216C172.998 127.872 172.87 128.32 172.598 128.576C172.102 129.056 171.51 129.104 170.838 129.104C169.59 129.104 169.03 128.672 169.03 127.76C169.03 126.848 169.606 126.368 170.79 126.368H172.998V127.216ZM179.98 130V129.008H179.372C178.636 129.008 178.3 128.576 178.3 127.856V123.056H179.98V122.176H178.3V119.712H177.148V122.176H176.156V123.056H177.148V127.888C177.148 129.056 177.82 130 179.164 130H179.98ZM185.292 130V129.008H184.684C183.948 129.008 183.612 128.576 183.612 127.856V123.056H185.292V122.176H183.612V119.712H182.46V122.176H181.468V123.056H182.46V127.888C182.46 129.056 183.132 130 184.476 130H185.292ZM193.488 126.368V125.84C193.488 123.504 192.288 122.032 190.256 122.032C188.256 122.032 187.024 123.52 187.024 126.064C187.024 128.848 188.384 130.096 190.464 130.096C191.808 130.096 192.544 129.68 193.344 128.88L192.56 128.192C191.936 128.816 191.408 129.088 190.496 129.088C188.992 129.088 188.176 128.096 188.176 126.368H193.488ZM192.336 125.504H188.176C188.208 124.864 188.24 124.624 188.416 124.192C188.72 123.472 189.424 123.008 190.256 123.008C191.088 123.008 191.792 123.472 192.096 124.192C192.272 124.624 192.304 124.864 192.336 125.504ZM202.132 130V124.96C202.132 124.048 201.876 123.312 201.316 122.768C200.836 122.288 200.148 122.032 199.3 122.032C198.42 122.032 197.652 122.352 197.092 122.992V122.128H195.94V130H197.092V125.152C197.092 123.776 197.86 123.056 199.044 123.056C200.228 123.056 200.98 123.76 200.98 125.152V130H202.132ZM207.948 130V129.008H207.34C206.604 129.008 206.268 128.576 206.268 127.856V123.056H207.948V122.176H206.268V119.712H205.116V122.176H204.124V123.056H205.116V127.888C205.116 129.056 205.788 130 207.132 130H207.948ZM211.469 119.888V118.592H210.173V119.888H211.469ZM211.389 130V122.128H210.237V130H211.389ZM219.82 122.128H218.572L216.412 128.448L214.268 122.128H213.02L215.9 130H216.924L219.82 122.128ZM227.316 126.368V125.84C227.316 123.504 226.116 122.032 224.084 122.032C222.084 122.032 220.852 123.52 220.852 126.064C220.852 128.848 222.212 130.096 224.292 130.096C225.636 130.096 226.372 129.68 227.172 128.88L226.388 128.192C225.764 128.816 225.236 129.088 224.324 129.088C222.82 129.088 222.004 128.096 222.004 126.368H227.316ZM226.164 125.504H222.004C222.036 124.864 222.068 124.624 222.244 124.192C222.548 123.472 223.252 123.008 224.084 123.008C224.916 123.008 225.62 123.472 225.924 124.192C226.1 124.624 226.132 124.864 226.164 125.504ZM235.96 130V124.96C235.96 124.048 235.704 123.312 235.144 122.768C234.664 122.288 233.976 122.032 233.128 122.032C232.248 122.032 231.48 122.352 230.92 122.992V122.128H229.768V130H230.92V125.152C230.92 123.776 231.688 123.056 232.872 123.056C234.056 123.056 234.808 123.76 234.808 125.152V130H235.96ZM244.785 126.368V125.84C244.785 123.504 243.585 122.032 241.553 122.032C239.553 122.032 238.321 123.52 238.321 126.064C238.321 128.848 239.681 130.096 241.761 130.096C243.105 130.096 243.841 129.68 244.641 128.88L243.857 128.192C243.233 128.816 242.705 129.088 241.793 129.088C240.289 129.088 239.473 128.096 239.473 126.368H244.785ZM243.633 125.504H239.473C239.505 124.864 239.537 124.624 239.713 124.192C240.017 123.472 240.721 123.008 241.553 123.008C242.385 123.008 243.089 123.472 243.393 124.192C243.569 124.624 243.601 124.864 243.633 125.504ZM252.917 127.696C252.917 126.224 251.973 125.696 250.597 125.568L249.333 125.456C248.341 125.376 247.957 124.976 247.957 124.304C247.957 123.504 248.565 123.008 249.717 123.008C250.533 123.008 251.253 123.2 251.813 123.632L252.565 122.88C251.861 122.304 250.853 122.032 249.733 122.032C248.053 122.032 246.837 122.896 246.837 124.336C246.837 125.632 247.653 126.32 249.189 126.448L250.485 126.56C251.397 126.64 251.797 127.024 251.797 127.712C251.797 128.64 250.997 129.104 249.701 129.104C248.725 129.104 247.877 128.848 247.253 128.192L246.485 128.96C247.349 129.792 248.389 130.096 249.717 130.096C251.621 130.096 252.917 129.216 252.917 127.696ZM260.604 127.696C260.604 126.224 259.66 125.696 258.284 125.568L257.02 125.456C256.028 125.376 255.644 124.976 255.644 124.304C255.644 123.504 256.252 123.008 257.404 123.008C258.22 123.008 258.94 123.2 259.5 123.632L260.252 122.88C259.548 122.304 258.54 122.032 257.42 122.032C255.74 122.032 254.524 122.896 254.524 124.336C254.524 125.632 255.34 126.32 256.876 126.448L258.172 126.56C259.084 126.64 259.484 127.024 259.484 127.712C259.484 128.64 258.684 129.104 257.388 129.104C256.412 129.104 255.564 128.848 254.94 128.192L254.172 128.96C255.036 129.792 256.076 130.096 257.404 130.096C259.308 130.096 260.604 129.216 260.604 127.696ZM264.238 131.04V128.592H262.83V132.304L264.238 131.04ZM276.681 130V124.656C276.681 122.944 275.641 122.032 273.529 122.032C272.249 122.032 271.449 122.288 270.745 123.2L271.529 123.92C271.993 123.264 272.505 123.024 273.513 123.024C274.953 123.024 275.529 123.6 275.529 124.752V125.504H273.161C271.401 125.504 270.441 126.4 270.441 127.776C270.441 128.4 270.649 128.992 271.033 129.376C271.529 129.888 272.169 130.096 273.257 130.096C274.313 130.096 274.889 129.888 275.529 129.248V130H276.681ZM275.529 127.216C275.529 127.872 275.401 128.32 275.129 128.576C274.633 129.056 274.041 129.104 273.369 129.104C272.121 129.104 271.561 128.672 271.561 127.76C271.561 126.848 272.137 126.368 273.321 126.368H275.529V127.216ZM285.679 130V124.96C285.679 124.048 285.423 123.312 284.863 122.768C284.383 122.288 283.695 122.032 282.847 122.032C281.967 122.032 281.199 122.352 280.639 122.992V122.128H279.487V130H280.639V125.152C280.639 123.776 281.407 123.056 282.591 123.056C283.775 123.056 284.527 123.76 284.527 125.152V130H285.679ZM294.311 130V118.608H293.159V123.04C292.519 122.224 291.799 122.032 290.935 122.032C290.135 122.032 289.431 122.304 289.015 122.72C288.215 123.52 288.055 124.832 288.055 126.064C288.055 127.296 288.215 128.608 289.015 129.408C289.431 129.824 290.135 130.096 290.935 130.096C291.799 130.096 292.535 129.888 293.175 129.056V130H294.311ZM293.159 126.064C293.159 127.6 292.903 129.072 291.191 129.072C289.479 129.072 289.207 127.6 289.207 126.064C289.207 124.528 289.479 123.056 291.191 123.056C292.903 123.056 293.159 124.528 293.159 126.064ZM44.24 154V153.008H43.616C42.816 153.008 42.56 152.624 42.56 151.856V142.608H41.408V151.904C41.408 153.104 42.032 154 43.408 154H44.24ZM51.8158 150.368V149.84C51.8158 147.504 50.6158 146.032 48.5838 146.032C46.5838 146.032 45.3518 147.52 45.3518 150.064C45.3518 152.848 46.7118 154.096 48.7918 154.096C50.1358 154.096 50.8718 153.68 51.6718 152.88L50.8878 152.192C50.2638 152.816 49.7358 153.088 48.8238 153.088C47.3198 153.088 46.5038 152.096 46.5038 150.368H51.8158ZM50.6638 149.504H46.5038C46.5358 148.864 46.5678 148.624 46.7438 148.192C47.0478 147.472 47.7518 147.008 48.5838 147.008C49.4158 147.008 50.1198 147.472 50.4238 148.192C50.5998 148.624 50.6318 148.864 50.6638 149.504ZM59.8841 154V148.656C59.8841 146.944 58.8441 146.032 56.7321 146.032C55.4521 146.032 54.6521 146.288 53.9481 147.2L54.7321 147.92C55.1961 147.264 55.7081 147.024 56.7161 147.024C58.1561 147.024 58.7321 147.6 58.7321 148.752V149.504H56.3641C54.6041 149.504 53.6441 150.4 53.6441 151.776C53.6441 152.4 53.8521 152.992 54.2361 153.376C54.7321 153.888 55.3721 154.096 56.4601 154.096C57.5161 154.096 58.0921 153.888 58.7321 153.248V154H59.8841ZM58.7321 151.216C58.7321 151.872 58.6041 152.32 58.3321 152.576C57.8361 153.056 57.2441 153.104 56.5721 153.104C55.3241 153.104 54.7641 152.672 54.7641 151.76C54.7641 150.848 55.3401 150.368 56.5241 150.368H58.7321V151.216ZM67.938 146.768C67.378 146.208 66.802 146.032 66.05 146.032C65.138 146.032 64.274 146.432 63.842 147.088V146.128H62.69V154H63.842V149.168C63.842 147.968 64.578 147.056 65.73 147.056C66.338 147.056 66.658 147.2 67.09 147.632L67.938 146.768ZM75.6164 154V148.96C75.6164 148.048 75.3604 147.312 74.8004 146.768C74.3204 146.288 73.6324 146.032 72.7844 146.032C71.9044 146.032 71.1364 146.352 70.5764 146.992V146.128H69.4244V154H70.5764V149.152C70.5764 147.776 71.3444 147.056 72.5284 147.056C73.7124 147.056 74.4644 147.76 74.4644 149.152V154H75.6164ZM79.6408 143.888V142.592H78.3448V143.888H79.6408ZM79.5608 154V146.128H78.4088V154H79.5608ZM88.6476 154V148.96C88.6476 148.048 88.3916 147.312 87.8316 146.768C87.3516 146.288 86.6636 146.032 85.8156 146.032C84.9356 146.032 84.1676 146.352 83.6076 146.992V146.128H82.4556V154H83.6076V149.152C83.6076 147.776 84.3756 147.056 85.5596 147.056C86.7436 147.056 87.4956 147.76 87.4956 149.152V154H88.6476ZM97.248 154.24V146.128H96.112V147.056C95.472 146.224 94.768 146.032 93.904 146.032C93.104 146.032 92.4 146.304 91.984 146.72C91.2 147.504 91.024 148.72 91.024 150C91.024 151.28 91.2 152.496 91.984 153.28C92.4 153.696 93.088 153.984 93.888 153.984C94.736 153.984 95.456 153.776 96.096 152.96V154.192C96.096 155.536 95.456 156.608 93.936 156.608C93.024 156.608 92.624 156.336 92.048 155.824L91.296 156.56C92.128 157.312 92.784 157.616 93.968 157.616C96.032 157.616 97.248 156.192 97.248 154.24ZM96.096 150C96.096 151.472 95.856 152.944 94.144 152.944C92.432 152.944 92.176 151.472 92.176 150C92.176 148.528 92.432 147.056 94.144 147.056C95.856 147.056 96.096 148.528 96.096 150ZM114.08 146.128H112.832L111.04 152.448L108.96 146.128H107.968L105.904 152.448L104.096 146.128H102.848L105.344 154H106.416L108.464 147.888L110.528 154H111.6L114.08 146.128ZM116.922 143.888V142.592H115.626V143.888H116.922ZM116.842 154V146.128H115.69V154H116.842ZM122.761 154V153.008H122.153C121.417 153.008 121.081 152.576 121.081 151.856V147.056H122.761V146.176H121.081V143.712H119.929V146.176H118.937V147.056H119.929V151.888C119.929 153.056 120.601 154 121.945 154H122.761ZM131.241 154V148.944C131.241 147.168 130.185 146.032 128.409 146.032C127.529 146.032 126.777 146.336 126.201 146.992V142.608H125.049V154H126.201V149.136C126.201 147.776 126.985 147.056 128.169 147.056C129.353 147.056 130.089 147.76 130.089 149.136V154H131.241ZM144.034 150.064C144.034 148.848 143.874 147.744 143.074 146.928C142.53 146.384 141.778 146.032 140.818 146.032C139.858 146.032 139.106 146.384 138.562 146.928C137.762 147.744 137.602 148.848 137.602 150.064C137.602 151.28 137.762 152.384 138.562 153.2C139.106 153.744 139.858 154.096 140.818 154.096C141.778 154.096 142.53 153.744 143.074 153.2C143.874 152.384 144.034 151.28 144.034 150.064ZM142.882 150.064C142.882 150.944 142.834 151.92 142.258 152.496C141.89 152.864 141.378 153.072 140.818 153.072C140.258 153.072 139.762 152.864 139.394 152.496C138.818 151.92 138.754 150.944 138.754 150.064C138.754 149.184 138.818 148.208 139.394 147.632C139.762 147.264 140.258 147.056 140.818 147.056C141.378 147.056 141.89 147.264 142.258 147.632C142.834 148.208 142.882 149.184 142.882 150.064ZM152.615 154V146.128H151.463V150.976C151.463 152.352 150.679 153.072 149.495 153.072C148.311 153.072 147.575 152.368 147.575 150.976V146.128H146.423V151.152C146.423 152.064 146.663 152.816 147.223 153.36C147.703 153.84 148.407 154.096 149.255 154.096C150.135 154.096 150.919 153.76 151.479 153.12V154H152.615ZM160.735 146.768C160.175 146.208 159.599 146.032 158.847 146.032C157.935 146.032 157.071 146.432 156.639 147.088V146.128H155.487V154H156.639V149.168C156.639 147.968 157.375 147.056 158.527 147.056C159.135 147.056 159.455 147.2 159.887 147.632L160.735 146.768ZM169.294 147.056V146.176H167.614V144.72C167.614 144 167.934 143.568 168.67 143.568H169.294V142.576H168.462C167.118 142.576 166.462 143.52 166.462 144.688V146.176H165.454V147.056H166.462V154H167.614V147.056H169.294ZM177.349 154V146.128H176.197V150.976C176.197 152.352 175.413 153.072 174.229 153.072C173.045 153.072 172.309 152.368 172.309 150.976V146.128H171.157V151.152C171.157 152.064 171.397 152.816 171.957 153.36C172.437 153.84 173.141 154.096 173.989 154.096C174.869 154.096 175.653 153.76 176.213 153.12V154H177.349ZM186.413 154V148.96C186.413 148.048 186.157 147.312 185.597 146.768C185.117 146.288 184.429 146.032 183.581 146.032C182.701 146.032 181.933 146.352 181.373 146.992V146.128H180.221V154H181.373V149.152C181.373 147.776 182.141 147.056 183.325 147.056C184.509 147.056 185.261 147.76 185.261 149.152V154H186.413ZM190.582 155.04V152.592H189.174V156.304L190.582 155.04ZM203.025 154V148.656C203.025 146.944 201.985 146.032 199.873 146.032C198.593 146.032 197.793 146.288 197.089 147.2L197.873 147.92C198.337 147.264 198.849 147.024 199.857 147.024C201.297 147.024 201.873 147.6 201.873 148.752V149.504H199.505C197.745 149.504 196.785 150.4 196.785 151.776C196.785 152.4 196.993 152.992 197.377 153.376C197.873 153.888 198.513 154.096 199.601 154.096C200.657 154.096 201.233 153.888 201.873 153.248V154H203.025ZM201.873 151.216C201.873 151.872 201.745 152.32 201.473 152.576C200.977 153.056 200.385 153.104 199.713 153.104C198.465 153.104 197.905 152.672 197.905 151.76C197.905 150.848 198.481 150.368 199.665 150.368H201.873V151.216ZM212.023 154V148.96C212.023 148.048 211.767 147.312 211.207 146.768C210.727 146.288 210.039 146.032 209.191 146.032C208.311 146.032 207.543 146.352 206.983 146.992V146.128H205.831V154H206.983V149.152C206.983 147.776 207.751 147.056 208.935 147.056C210.119 147.056 210.871 147.76 210.871 149.152V154H212.023ZM216.047 143.888V142.592H214.751V143.888H216.047ZM215.967 154V146.128H214.815V154H215.967ZM230.126 154V148.96C230.126 148.048 229.838 147.312 229.278 146.768C228.798 146.304 228.094 146.032 227.246 146.032C226.142 146.032 225.262 146.48 224.654 147.344C224.174 146.48 223.326 146.032 222.238 146.032C221.358 146.032 220.574 146.352 220.014 146.992V146.128H218.862V154H220.014V149.152C220.014 147.776 220.798 147.056 221.982 147.056C223.166 147.056 223.918 147.76 223.918 149.152V154H225.07V149.024C225.07 147.776 225.886 147.056 227.038 147.056C228.222 147.056 228.974 147.76 228.974 149.152V154H230.126ZM238.54 154V148.656C238.54 146.944 237.5 146.032 235.388 146.032C234.108 146.032 233.308 146.288 232.604 147.2L233.388 147.92C233.852 147.264 234.364 147.024 235.372 147.024C236.812 147.024 237.388 147.6 237.388 148.752V149.504H235.02C233.26 149.504 232.3 150.4 232.3 151.776C232.3 152.4 232.508 152.992 232.892 153.376C233.388 153.888 234.028 154.096 235.116 154.096C236.172 154.096 236.748 153.888 237.388 153.248V154H238.54ZM237.388 151.216C237.388 151.872 237.26 152.32 236.988 152.576C236.492 153.056 235.9 153.104 235.228 153.104C233.98 153.104 233.42 152.672 233.42 151.76C233.42 150.848 233.996 150.368 235.18 150.368H237.388V151.216ZM244.37 154V153.008H243.762C243.026 153.008 242.69 152.576 242.69 151.856V147.056H244.37V146.176H242.69V143.712H241.538V146.176H240.546V147.056H241.538V151.888C241.538 153.056 242.21 154 243.554 154H244.37ZM252.566 150.368V149.84C252.566 147.504 251.366 146.032 249.334 146.032C247.334 146.032 246.102 147.52 246.102 150.064C246.102 152.848 247.462 154.096 249.542 154.096C250.886 154.096 251.622 153.68 252.422 152.88L251.638 152.192C251.014 152.816 250.486 153.088 249.574 153.088C248.07 153.088 247.254 152.096 247.254 150.368H252.566ZM251.414 149.504H247.254C247.286 148.864 247.318 148.624 247.494 148.192C247.798 147.472 248.502 147.008 249.334 147.008C250.166 147.008 250.87 147.472 251.174 148.192C251.35 148.624 251.382 148.864 251.414 149.504ZM260.858 154V142.608H259.706V147.04C259.066 146.224 258.346 146.032 257.482 146.032C256.682 146.032 255.978 146.304 255.562 146.72C254.762 147.52 254.602 148.832 254.602 150.064C254.602 151.296 254.762 152.608 255.562 153.408C255.978 153.824 256.682 154.096 257.482 154.096C258.346 154.096 259.082 153.888 259.722 153.056V154H260.858ZM259.706 150.064C259.706 151.6 259.45 153.072 257.738 153.072C256.026 153.072 255.754 151.6 255.754 150.064C255.754 148.528 256.026 147.056 257.738 147.056C259.45 147.056 259.706 148.528 259.706 150.064ZM273.529 154.24V146.128H272.393V147.056C271.753 146.224 271.049 146.032 270.185 146.032C269.385 146.032 268.681 146.304 268.265 146.72C267.481 147.504 267.305 148.72 267.305 150C267.305 151.28 267.481 152.496 268.265 153.28C268.681 153.696 269.369 153.984 270.169 153.984C271.017 153.984 271.737 153.776 272.377 152.96V154.192C272.377 155.536 271.737 156.608 270.217 156.608C269.305 156.608 268.905 156.336 268.329 155.824L267.577 156.56C268.409 157.312 269.065 157.616 270.249 157.616C272.313 157.616 273.529 156.192 273.529 154.24ZM272.377 150C272.377 151.472 272.137 152.944 270.425 152.944C268.713 152.944 268.457 151.472 268.457 150C268.457 148.528 268.713 147.056 270.425 147.056C272.137 147.056 272.377 148.528 272.377 150ZM282.025 154V148.656C282.025 146.944 280.985 146.032 278.873 146.032C277.593 146.032 276.793 146.288 276.089 147.2L276.873 147.92C277.337 147.264 277.849 147.024 278.857 147.024C280.297 147.024 280.873 147.6 280.873 148.752V149.504H278.505C276.745 149.504 275.785 150.4 275.785 151.776C275.785 152.4 275.993 152.992 276.377 153.376C276.873 153.888 277.513 154.096 278.601 154.096C279.657 154.096 280.233 153.888 280.873 153.248V154H282.025ZM280.873 151.216C280.873 151.872 280.745 152.32 280.473 152.576C279.977 153.056 279.385 153.104 278.713 153.104C277.465 153.104 276.905 152.672 276.905 151.76C276.905 150.848 277.481 150.368 278.665 150.368H280.873V151.216ZM296.095 154V148.96C296.095 148.048 295.807 147.312 295.247 146.768C294.767 146.304 294.063 146.032 293.215 146.032C292.111 146.032 291.231 146.48 290.623 147.344C290.143 146.48 289.295 146.032 288.207 146.032C287.327 146.032 286.543 146.352 285.983 146.992V146.128H284.831V154H285.983V149.152C285.983 147.776 286.767 147.056 287.951 147.056C289.135 147.056 289.887 147.76 289.887 149.152V154H291.039V149.024C291.039 147.776 291.855 147.056 293.007 147.056C294.191 147.056 294.943 147.76 294.943 149.152V154H296.095ZM304.925 150.368V149.84C304.925 147.504 303.725 146.032 301.693 146.032C299.693 146.032 298.461 147.52 298.461 150.064C298.461 152.848 299.821 154.096 301.901 154.096C303.245 154.096 303.981 153.68 304.781 152.88L303.997 152.192C303.373 152.816 302.845 153.088 301.933 153.088C300.429 153.088 299.613 152.096 299.613 150.368H304.925ZM303.773 149.504H299.613C299.645 148.864 299.677 148.624 299.853 148.192C300.157 147.472 300.861 147.008 301.693 147.008C302.525 147.008 303.229 147.472 303.533 148.192C303.709 148.624 303.741 148.864 303.773 149.504ZM44.464 178V177.008H43.856C43.12 177.008 42.784 176.576 42.784 175.856V171.056H44.464V170.176H42.784V167.712H41.632V170.176H40.64V171.056H41.632V175.888C41.632 177.056 42.304 178 43.648 178H44.464ZM52.9445 178V172.944C52.9445 171.168 51.8885 170.032 50.1125 170.032C49.2325 170.032 48.4805 170.336 47.9045 170.992V166.608H46.7525V178H47.9045V173.136C47.9045 171.776 48.6885 171.056 49.8725 171.056C51.0565 171.056 51.7925 171.76 51.7925 173.136V178H52.9445ZM61.3529 178V172.656C61.3529 170.944 60.3129 170.032 58.2009 170.032C56.9209 170.032 56.1209 170.288 55.4169 171.2L56.2009 171.92C56.6649 171.264 57.1769 171.024 58.1849 171.024C59.6249 171.024 60.2009 171.6 60.2009 172.752V173.504H57.8329C56.0729 173.504 55.1129 174.4 55.1129 175.776C55.1129 176.4 55.3209 176.992 55.7049 177.376C56.2009 177.888 56.8409 178.096 57.9289 178.096C58.9849 178.096 59.5609 177.888 60.2009 177.248V178H61.3529ZM60.2009 175.216C60.2009 175.872 60.0729 176.32 59.8009 176.576C59.3049 177.056 58.7129 177.104 58.0409 177.104C56.7929 177.104 56.2329 176.672 56.2329 175.76C56.2329 174.848 56.8089 174.368 57.9929 174.368H60.2009V175.216ZM67.1828 178V177.008H66.5748C65.8388 177.008 65.5028 176.576 65.5028 175.856V171.056H67.1828V170.176H65.5028V167.712H64.3508V170.176H63.3588V171.056H64.3508V175.888C64.3508 177.056 65.0228 178 66.3668 178H67.1828ZM79.6476 178V172.944C79.6476 171.168 78.5916 170.032 76.8156 170.032C75.9356 170.032 75.1836 170.336 74.6076 170.992V166.608H73.4556V178H74.6076V173.136C74.6076 171.776 75.3916 171.056 76.5756 171.056C77.7596 171.056 78.4956 171.76 78.4956 173.136V178H79.6476ZM88.472 174.368V173.84C88.472 171.504 87.272 170.032 85.24 170.032C83.24 170.032 82.008 171.52 82.008 174.064C82.008 176.848 83.368 178.096 85.448 178.096C86.792 178.096 87.528 177.68 88.328 176.88L87.544 176.192C86.92 176.816 86.392 177.088 85.48 177.088C83.976 177.088 83.16 176.096 83.16 174.368H88.472ZM87.32 173.504H83.16C83.192 172.864 83.224 172.624 83.4 172.192C83.704 171.472 84.408 171.008 85.24 171.008C86.072 171.008 86.776 171.472 87.08 172.192C87.256 172.624 87.288 172.864 87.32 173.504ZM93.7244 178V177.008H93.1004C92.3004 177.008 92.0444 176.624 92.0444 175.856V166.608H90.8924V175.904C90.8924 177.104 91.5164 178 92.8924 178H93.7244ZM101.93 174.064C101.93 172.832 101.77 171.52 100.97 170.72C100.554 170.304 99.8504 170.032 99.0504 170.032C98.1864 170.032 97.4664 170.224 96.8264 171.056V170.128H95.6744V181.52H96.8264V177.072C97.4664 177.888 98.1864 178.096 99.0504 178.096C99.8504 178.096 100.554 177.824 100.97 177.408C101.77 176.608 101.93 175.296 101.93 174.064ZM100.778 174.064C100.778 175.6 100.522 177.072 98.8104 177.072C97.0984 177.072 96.8264 175.6 96.8264 174.064C96.8264 172.528 97.0984 171.056 98.8104 171.056C100.522 171.056 100.778 172.528 100.778 174.064ZM110.073 175.696C110.073 174.224 109.129 173.696 107.753 173.568L106.489 173.456C105.497 173.376 105.113 172.976 105.113 172.304C105.113 171.504 105.721 171.008 106.873 171.008C107.689 171.008 108.409 171.2 108.969 171.632L109.721 170.88C109.017 170.304 108.009 170.032 106.889 170.032C105.209 170.032 103.993 170.896 103.993 172.336C103.993 173.632 104.809 174.32 106.345 174.448L107.641 174.56C108.553 174.64 108.953 175.024 108.953 175.712C108.953 176.64 108.153 177.104 106.857 177.104C105.881 177.104 105.033 176.848 104.409 176.192L103.641 176.96C104.505 177.792 105.545 178.096 106.873 178.096C108.777 178.096 110.073 177.216 110.073 175.696ZM121.851 170.128H120.603L118.459 176.448L116.299 170.128H115.051L117.883 177.84L117.323 179.376C117.067 180.096 116.827 180.352 116.027 180.352H115.675V181.376H116.171C116.731 181.376 117.291 181.232 117.707 180.832C117.931 180.624 118.107 180.336 118.267 179.904L121.851 170.128ZM129.331 174.064C129.331 172.848 129.171 171.744 128.371 170.928C127.827 170.384 127.075 170.032 126.115 170.032C125.155 170.032 124.403 170.384 123.859 170.928C123.059 171.744 122.899 172.848 122.899 174.064C122.899 175.28 123.059 176.384 123.859 177.2C124.403 177.744 125.155 178.096 126.115 178.096C127.075 178.096 127.827 177.744 128.371 177.2C129.171 176.384 129.331 175.28 129.331 174.064ZM128.179 174.064C128.179 174.944 128.131 175.92 127.555 176.496C127.187 176.864 126.675 177.072 126.115 177.072C125.555 177.072 125.059 176.864 124.691 176.496C124.115 175.92 124.051 174.944 124.051 174.064C124.051 173.184 124.115 172.208 124.691 171.632C125.059 171.264 125.555 171.056 126.115 171.056C126.675 171.056 127.187 171.264 127.555 171.632C128.131 172.208 128.179 173.184 128.179 174.064ZM137.911 178V170.128H136.759V174.976C136.759 176.352 135.975 177.072 134.791 177.072C133.607 177.072 132.871 176.368 132.871 174.976V170.128H131.719V175.152C131.719 176.064 131.959 176.816 132.519 177.36C132.999 177.84 133.703 178.096 134.551 178.096C135.431 178.096 136.215 177.76 136.775 177.12V178H137.911ZM147.792 178V177.008H147.184C146.448 177.008 146.112 176.576 146.112 175.856V171.056H147.792V170.176H146.112V167.712H144.96V170.176H143.968V171.056H144.96V175.888C144.96 177.056 145.632 178 146.976 178H147.792ZM155.972 174.064C155.972 172.848 155.812 171.744 155.012 170.928C154.468 170.384 153.716 170.032 152.756 170.032C151.796 170.032 151.044 170.384 150.5 170.928C149.7 171.744 149.54 172.848 149.54 174.064C149.54 175.28 149.7 176.384 150.5 177.2C151.044 177.744 151.796 178.096 152.756 178.096C153.716 178.096 154.468 177.744 155.012 177.2C155.812 176.384 155.972 175.28 155.972 174.064ZM154.82 174.064C154.82 174.944 154.772 175.92 154.196 176.496C153.828 176.864 153.316 177.072 152.756 177.072C152.196 177.072 151.7 176.864 151.332 176.496C150.756 175.92 150.692 174.944 150.692 174.064C150.692 173.184 150.756 172.208 151.332 171.632C151.7 171.264 152.196 171.056 152.756 171.056C153.316 171.056 153.828 171.264 154.196 171.632C154.772 172.208 154.82 173.184 154.82 174.064ZM173.688 178V172.96C173.688 172.048 173.4 171.312 172.84 170.768C172.36 170.304 171.656 170.032 170.808 170.032C169.704 170.032 168.824 170.48 168.216 171.344C167.736 170.48 166.888 170.032 165.8 170.032C164.92 170.032 164.136 170.352 163.576 170.992V170.128H162.424V178H163.576V173.152C163.576 171.776 164.36 171.056 165.544 171.056C166.728 171.056 167.48 171.76 167.48 173.152V178H168.632V173.024C168.632 171.776 169.448 171.056 170.6 171.056C171.784 171.056 172.536 171.76 172.536 173.152V178H173.688ZM182.103 178V172.656C182.103 170.944 181.063 170.032 178.951 170.032C177.671 170.032 176.871 170.288 176.167 171.2L176.951 171.92C177.415 171.264 177.927 171.024 178.935 171.024C180.375 171.024 180.951 171.6 180.951 172.752V173.504H178.583C176.823 173.504 175.863 174.4 175.863 175.776C175.863 176.4 176.071 176.992 176.455 177.376C176.951 177.888 177.591 178.096 178.679 178.096C179.735 178.096 180.311 177.888 180.951 177.248V178H182.103ZM180.951 175.216C180.951 175.872 180.823 176.32 180.551 176.576C180.055 177.056 179.463 177.104 178.791 177.104C177.543 177.104 176.983 176.672 176.983 175.76C176.983 174.848 177.559 174.368 178.743 174.368H180.951V175.216ZM191.101 178V172.96C191.101 172.048 190.845 171.312 190.285 170.768C189.805 170.288 189.117 170.032 188.269 170.032C187.389 170.032 186.621 170.352 186.061 170.992V170.128H184.909V178H186.061V173.152C186.061 171.776 186.829 171.056 188.013 171.056C189.197 171.056 189.949 171.76 189.949 173.152V178H191.101ZM199.509 178V172.656C199.509 170.944 198.469 170.032 196.357 170.032C195.077 170.032 194.277 170.288 193.573 171.2L194.357 171.92C194.821 171.264 195.333 171.024 196.341 171.024C197.781 171.024 198.357 171.6 198.357 172.752V173.504H195.989C194.229 173.504 193.269 174.4 193.269 175.776C193.269 176.4 193.477 176.992 193.861 177.376C194.357 177.888 194.997 178.096 196.085 178.096C197.141 178.096 197.717 177.888 198.357 177.248V178H199.509ZM198.357 175.216C198.357 175.872 198.229 176.32 197.957 176.576C197.461 177.056 196.869 177.104 196.197 177.104C194.949 177.104 194.389 176.672 194.389 175.76C194.389 174.848 194.965 174.368 196.149 174.368H198.357V175.216ZM208.123 178.24V170.128H206.987V171.056C206.347 170.224 205.643 170.032 204.779 170.032C203.979 170.032 203.275 170.304 202.859 170.72C202.075 171.504 201.899 172.72 201.899 174C201.899 175.28 202.075 176.496 202.859 177.28C203.275 177.696 203.963 177.984 204.763 177.984C205.611 177.984 206.331 177.776 206.971 176.96V178.192C206.971 179.536 206.331 180.608 204.811 180.608C203.899 180.608 203.499 180.336 202.923 179.824L202.171 180.56C203.003 181.312 203.659 181.616 204.843 181.616C206.907 181.616 208.123 180.192 208.123 178.24ZM206.971 174C206.971 175.472 206.731 176.944 205.019 176.944C203.307 176.944 203.051 175.472 203.051 174C203.051 172.528 203.307 171.056 205.019 171.056C206.731 171.056 206.971 172.528 206.971 174ZM217.035 174.368V173.84C217.035 171.504 215.835 170.032 213.803 170.032C211.803 170.032 210.571 171.52 210.571 174.064C210.571 176.848 211.931 178.096 214.011 178.096C215.355 178.096 216.091 177.68 216.891 176.88L216.107 176.192C215.483 176.816 214.955 177.088 214.043 177.088C212.539 177.088 211.723 176.096 211.723 174.368H217.035ZM215.883 173.504H211.723C211.755 172.864 211.787 172.624 211.963 172.192C212.267 171.472 212.971 171.008 213.803 171.008C214.635 171.008 215.339 171.472 215.643 172.192C215.819 172.624 215.851 172.864 215.883 173.504ZM229.007 170.128H227.759L225.615 176.448L223.455 170.128H222.207L225.039 177.84L224.479 179.376C224.223 180.096 223.983 180.352 223.183 180.352H222.831V181.376H223.327C223.887 181.376 224.447 181.232 224.863 180.832C225.087 180.624 225.263 180.336 225.423 179.904L229.007 170.128ZM236.487 174.064C236.487 172.848 236.327 171.744 235.527 170.928C234.983 170.384 234.231 170.032 233.271 170.032C232.311 170.032 231.559 170.384 231.015 170.928C230.215 171.744 230.055 172.848 230.055 174.064C230.055 175.28 230.215 176.384 231.015 177.2C231.559 177.744 232.311 178.096 233.271 178.096C234.231 178.096 234.983 177.744 235.527 177.2C236.327 176.384 236.487 175.28 236.487 174.064ZM235.335 174.064C235.335 174.944 235.287 175.92 234.711 176.496C234.343 176.864 233.831 177.072 233.271 177.072C232.711 177.072 232.215 176.864 231.847 176.496C231.271 175.92 231.207 174.944 231.207 174.064C231.207 173.184 231.271 172.208 231.847 171.632C232.215 171.264 232.711 171.056 233.271 171.056C233.831 171.056 234.343 171.264 234.711 171.632C235.287 172.208 235.335 173.184 235.335 174.064ZM245.068 178V170.128H243.916V174.976C243.916 176.352 243.132 177.072 241.948 177.072C240.764 177.072 240.028 176.368 240.028 174.976V170.128H238.876V175.152C238.876 176.064 239.116 176.816 239.676 177.36C240.156 177.84 240.86 178.096 241.708 178.096C242.588 178.096 243.372 177.76 243.932 177.12V178H245.068ZM253.188 170.768C252.628 170.208 252.052 170.032 251.3 170.032C250.388 170.032 249.524 170.432 249.092 171.088V170.128H247.94V178H249.092V173.168C249.092 171.968 249.828 171.056 250.98 171.056C251.588 171.056 251.908 171.2 252.34 171.632L253.188 170.768ZM261.683 178V177.008H261.075C260.339 177.008 260.003 176.576 260.003 175.856V171.056H261.683V170.176H260.003V167.712H258.851V170.176H257.859V171.056H258.851V175.888C258.851 177.056 259.523 178 260.867 178H261.683ZM265.203 167.888V166.592H263.907V167.888H265.203ZM265.123 178V170.128H263.971V178H265.123ZM279.282 178V172.96C279.282 172.048 278.994 171.312 278.434 170.768C277.954 170.304 277.25 170.032 276.402 170.032C275.298 170.032 274.418 170.48 273.81 171.344C273.33 170.48 272.482 170.032 271.394 170.032C270.514 170.032 269.73 170.352 269.17 170.992V170.128H268.018V178H269.17V173.152C269.17 171.776 269.954 171.056 271.138 171.056C272.322 171.056 273.074 171.76 273.074 173.152V178H274.226V173.024C274.226 171.776 275.042 171.056 276.194 171.056C277.378 171.056 278.13 171.76 278.13 173.152V178H279.282ZM288.113 174.368V173.84C288.113 171.504 286.913 170.032 284.881 170.032C282.881 170.032 281.649 171.52 281.649 174.064C281.649 176.848 283.009 178.096 285.089 178.096C286.433 178.096 287.169 177.68 287.969 176.88L287.185 176.192C286.561 176.816 286.033 177.088 285.121 177.088C283.617 177.088 282.801 176.096 282.801 174.368H288.113ZM286.961 173.504H282.801C282.833 172.864 282.865 172.624 283.041 172.192C283.345 171.472 284.049 171.008 284.881 171.008C285.713 171.008 286.417 171.472 286.721 172.192C286.897 172.624 286.929 172.864 286.961 173.504ZM292.037 178V176.496H290.533V178H292.037Z" fill="#3886D1"/>
</svg>
