<svg
            width="auto"
            height="auto"
            viewBox="0 0 372 248"
            fill="none"
            xmlns="http://www.w3.org/2000/svg"
          >
            <path
              d="M0.5 35C0.5 15.9462 15.9462 0.5 35 0.5H268C287.054 0.5 302.5 15.9462 302.5 35C302.5 54.0538 287.054 69.5 268 69.5H35C15.9462 69.5 0.5 54.0538 0.5 35Z"
              stroke="#3886D1"
            />
            <path
              d="M0 85C0 54.0721 25.0721 29 56 29H316C346.928 29 372 54.0721 372 85V192C372 222.928 346.928 248 316 248H56C25.072 248 0 222.928 0 192V85Z"
              fill="#3886D1"
              fill-opacity="0.1"
            />
            <path
              d="M61.7 54.24V51.12H53.63V54.6H57.56V55.41C57.56 56.52 57.29 57.48 56.6 58.26C55.91 59.01 54.89 59.46 53.63 59.46C52.49 59.46 51.56 59.04 50.96 58.35C50.15 57.45 49.94 56.43 49.94 52.32C49.94 48.21 50.15 47.22 50.96 46.32C51.56 45.63 52.49 45.18 53.63 45.18C55.76 45.18 56.99 46.29 57.47 48.3H61.67C61.1 44.7 58.58 41.46 53.63 41.46C51.23 41.46 49.37 42.3 47.87 43.8C45.71 45.96 45.77 48.63 45.77 52.32C45.77 56.01 45.71 58.68 47.87 60.84C49.37 62.34 51.29 63.18 53.63 63.18C55.91 63.18 57.95 62.52 59.66 60.75C61.16 59.19 61.7 57.33 61.7 54.24ZM82.1502 63L74.3502 41.64H71.0802L63.3102 63H67.6602L68.9502 59.22H76.5402L77.8002 63H82.1502ZM75.4302 55.71H70.1202L72.8202 47.94L75.4302 55.71ZM104.131 63V41.64H100.021L94.471 53.19L88.891 41.64H84.781V63H88.951V50.55L93.061 58.65H95.881L99.961 50.55V63H104.131ZM123.167 63V59.28H113.267V54.09H121.697V50.37H113.267V45.36H123.167V41.64H109.097V63H123.167Z"
              fill="#3886D1"
            />
            <path
              d="M48.096 99.608H46.784L44.128 105.064L41.44 99.608H40.128L43.52 106.296V111H44.736V106.296L48.096 99.608ZM54.3935 107.064C54.3935 105.848 54.2335 104.744 53.4335 103.928C52.8895 103.384 52.1375 103.032 51.1775 103.032C50.2175 103.032 49.4655 103.384 48.9215 103.928C48.1215 104.744 47.9615 105.848 47.9615 107.064C47.9615 108.28 48.1215 109.384 48.9215 110.2C49.4655 110.744 50.2175 111.096 51.1775 111.096C52.1375 111.096 52.8895 110.744 53.4335 110.2C54.2335 109.384 54.3935 108.28 54.3935 107.064ZM53.2415 107.064C53.2415 107.944 53.1935 108.92 52.6175 109.496C52.2495 109.864 51.7375 110.072 51.1775 110.072C50.6175 110.072 50.1215 109.864 49.7535 109.496C49.1775 108.92 49.1135 107.944 49.1135 107.064C49.1135 106.184 49.1775 105.208 49.7535 104.632C50.1215 104.264 50.6175 104.056 51.1775 104.056C51.7375 104.056 52.2495 104.264 52.6175 104.632C53.1935 105.208 53.2415 106.184 53.2415 107.064ZM62.9739 111V103.128H61.8219V107.976C61.8219 109.352 61.0379 110.072 59.8539 110.072C58.6699 110.072 57.9339 109.368 57.9339 107.976V103.128H56.7819V108.152C56.7819 109.064 57.0219 109.816 57.5819 110.36C58.0619 110.84 58.7659 111.096 59.6139 111.096C60.4939 111.096 61.2779 110.76 61.8379 110.12V111H62.9739ZM67.0783 102.328V99.608H65.8143V102.328H67.0783ZM72.7244 111V110.008H72.1004C71.3004 110.008 71.0444 109.624 71.0444 108.856V99.608H69.8924V108.904C69.8924 110.104 70.5164 111 71.8924 111H72.7244ZM77.4744 111V110.008H76.8504C76.0504 110.008 75.7944 109.624 75.7944 108.856V99.608H74.6424V108.904C74.6424 110.104 75.2664 111 76.6424 111H77.4744ZM89.0888 108.696C89.0888 107.224 88.1448 106.696 86.7688 106.568L85.5048 106.456C84.5128 106.376 84.1288 105.976 84.1288 105.304C84.1288 104.504 84.7368 104.008 85.8888 104.008C86.7048 104.008 87.4248 104.2 87.9848 104.632L88.7368 103.88C88.0328 103.304 87.0248 103.032 85.9048 103.032C84.2248 103.032 83.0088 103.896 83.0088 105.336C83.0088 106.632 83.8248 107.32 85.3608 107.448L86.6568 107.56C87.5688 107.64 87.9688 108.024 87.9688 108.712C87.9688 109.64 87.1688 110.104 85.8728 110.104C84.8968 110.104 84.0488 109.848 83.4248 109.192L82.6568 109.96C83.5208 110.792 84.5608 111.096 85.8888 111.096C87.7928 111.096 89.0888 110.216 89.0888 108.696ZM97.3783 107.368V106.84C97.3783 104.504 96.1783 103.032 94.1463 103.032C92.1463 103.032 90.9143 104.52 90.9143 107.064C90.9143 109.848 92.2743 111.096 94.3543 111.096C95.6983 111.096 96.4343 110.68 97.2343 109.88L96.4503 109.192C95.8263 109.816 95.2983 110.088 94.3863 110.088C92.8823 110.088 92.0663 109.096 92.0663 107.368H97.3783ZM96.2263 106.504H92.0663C92.0983 105.864 92.1303 105.624 92.3063 105.192C92.6103 104.472 93.3143 104.008 94.1463 104.008C94.9783 104.008 95.6823 104.472 95.9863 105.192C96.1623 105.624 96.1943 105.864 96.2263 106.504ZM105.863 107.368V106.84C105.863 104.504 104.663 103.032 102.631 103.032C100.631 103.032 99.3986 104.52 99.3986 107.064C99.3986 109.848 100.759 111.096 102.839 111.096C104.183 111.096 104.919 110.68 105.719 109.88L104.935 109.192C104.311 109.816 103.783 110.088 102.871 110.088C101.367 110.088 100.551 109.096 100.551 107.368H105.863ZM104.711 106.504H100.551C100.583 105.864 100.615 105.624 100.791 105.192C101.095 104.472 101.799 104.008 102.631 104.008C103.463 104.008 104.167 104.472 104.471 105.192C104.647 105.624 104.679 105.864 104.711 106.504ZM115.387 104.056V103.176H113.707V101.72C113.707 101 114.027 100.568 114.763 100.568H115.387V99.576H114.555C113.211 99.576 112.555 100.52 112.555 101.688V103.176H111.547V104.056H112.555V111H113.707V104.056H115.387ZM123.443 111V103.128H122.291V107.976C122.291 109.352 121.507 110.072 120.323 110.072C119.139 110.072 118.403 109.368 118.403 107.976V103.128H117.251V108.152C117.251 109.064 117.491 109.816 118.051 110.36C118.531 110.84 119.235 111.096 120.083 111.096C120.963 111.096 121.747 110.76 122.307 110.12V111H123.443ZM132.507 111V105.96C132.507 105.048 132.251 104.312 131.691 103.768C131.211 103.288 130.523 103.032 129.675 103.032C128.795 103.032 128.027 103.352 127.467 103.992V103.128H126.315V111H127.467V106.152C127.467 104.776 128.235 104.056 129.419 104.056C130.603 104.056 131.355 104.76 131.355 106.152V111H132.507ZM150.548 111V105.96C150.548 105.048 150.26 104.312 149.7 103.768C149.22 103.304 148.516 103.032 147.668 103.032C146.564 103.032 145.684 103.48 145.076 104.344C144.596 103.48 143.748 103.032 142.66 103.032C141.78 103.032 140.996 103.352 140.436 103.992V103.128H139.284V111H140.436V106.152C140.436 104.776 141.22 104.056 142.404 104.056C143.588 104.056 144.34 104.76 144.34 106.152V111H145.492V106.024C145.492 104.776 146.308 104.056 147.46 104.056C148.644 104.056 149.396 104.76 149.396 106.152V111H150.548ZM154.578 100.888V99.592H153.282V100.888H154.578ZM154.498 111V103.128H153.346V111H154.498ZM163.585 111V105.96C163.585 105.048 163.329 104.312 162.769 103.768C162.289 103.288 161.601 103.032 160.753 103.032C159.873 103.032 159.105 103.352 158.545 103.992V103.128H157.393V111H158.545V106.152C158.545 104.776 159.313 104.056 160.497 104.056C161.681 104.056 162.433 104.76 162.433 106.152V111H163.585ZM167.61 100.888V99.592H166.314V100.888H167.61ZM167.53 111V103.128H166.378V111H167.53ZM174.584 107.224V106.152H170.2V107.224H174.584ZM183.045 111.24V103.128H181.909V104.056C181.269 103.224 180.565 103.032 179.701 103.032C178.901 103.032 178.197 103.304 177.781 103.72C176.997 104.504 176.821 105.72 176.821 107C176.821 108.28 176.997 109.496 177.781 110.28C178.197 110.696 178.885 110.984 179.685 110.984C180.533 110.984 181.253 110.776 181.893 109.96V111.192C181.893 112.536 181.253 113.608 179.733 113.608C178.821 113.608 178.421 113.336 177.845 112.824L177.093 113.56C177.925 114.312 178.581 114.616 179.765 114.616C181.829 114.616 183.045 113.192 183.045 111.24ZM181.893 107C181.893 108.472 181.653 109.944 179.941 109.944C178.229 109.944 177.973 108.472 177.973 107C177.973 105.528 178.229 104.056 179.941 104.056C181.653 104.056 181.893 105.528 181.893 107ZM191.54 111V105.656C191.54 103.944 190.5 103.032 188.388 103.032C187.108 103.032 186.308 103.288 185.604 104.2L186.388 104.92C186.852 104.264 187.364 104.024 188.372 104.024C189.812 104.024 190.388 104.6 190.388 105.752V106.504H188.02C186.26 106.504 185.3 107.4 185.3 108.776C185.3 109.4 185.508 109.992 185.892 110.376C186.388 110.888 187.028 111.096 188.116 111.096C189.172 111.096 189.748 110.888 190.388 110.248V111H191.54ZM190.388 108.216C190.388 108.872 190.26 109.32 189.988 109.576C189.492 110.056 188.9 110.104 188.228 110.104C186.98 110.104 186.42 109.672 186.42 108.76C186.42 107.848 186.996 107.368 188.18 107.368H190.388V108.216ZM205.61 111V105.96C205.61 105.048 205.322 104.312 204.762 103.768C204.282 103.304 203.578 103.032 202.73 103.032C201.626 103.032 200.746 103.48 200.138 104.344C199.658 103.48 198.81 103.032 197.722 103.032C196.842 103.032 196.058 103.352 195.498 103.992V103.128H194.346V111H195.498V106.152C195.498 104.776 196.282 104.056 197.466 104.056C198.65 104.056 199.402 104.76 199.402 106.152V111H200.554V106.024C200.554 104.776 201.37 104.056 202.522 104.056C203.706 104.056 204.458 104.76 204.458 106.152V111H205.61ZM214.441 107.368V106.84C214.441 104.504 213.241 103.032 211.209 103.032C209.209 103.032 207.977 104.52 207.977 107.064C207.977 109.848 209.337 111.096 211.417 111.096C212.761 111.096 213.497 110.68 214.297 109.88L213.513 109.192C212.889 109.816 212.361 110.088 211.449 110.088C209.945 110.088 209.129 109.096 209.129 107.368H214.441ZM213.289 106.504H209.129C209.161 105.864 209.193 105.624 209.369 105.192C209.673 104.472 210.377 104.008 211.209 104.008C212.041 104.008 212.745 104.472 213.049 105.192C213.225 105.624 213.257 105.864 213.289 106.504ZM222.573 108.696C222.573 107.224 221.629 106.696 220.253 106.568L218.989 106.456C217.997 106.376 217.613 105.976 217.613 105.304C217.613 104.504 218.221 104.008 219.373 104.008C220.189 104.008 220.909 104.2 221.469 104.632L222.221 103.88C221.517 103.304 220.509 103.032 219.389 103.032C217.709 103.032 216.493 103.896 216.493 105.336C216.493 106.632 217.309 107.32 218.845 107.448L220.141 107.56C221.053 107.64 221.453 108.024 221.453 108.712C221.453 109.64 220.653 110.104 219.357 110.104C218.381 110.104 217.533 109.848 216.909 109.192L216.141 109.96C217.005 110.792 218.045 111.096 219.373 111.096C221.277 111.096 222.573 110.216 222.573 108.696ZM234.831 107.064C234.831 105.848 234.671 104.744 233.871 103.928C233.327 103.384 232.575 103.032 231.615 103.032C230.655 103.032 229.903 103.384 229.359 103.928C228.559 104.744 228.399 105.848 228.399 107.064C228.399 108.28 228.559 109.384 229.359 110.2C229.903 110.744 230.655 111.096 231.615 111.096C232.575 111.096 233.327 110.744 233.871 110.2C234.671 109.384 234.831 108.28 234.831 107.064ZM233.679 107.064C233.679 107.944 233.631 108.92 233.055 109.496C232.687 109.864 232.175 110.072 231.615 110.072C231.055 110.072 230.559 109.864 230.191 109.496C229.615 108.92 229.551 107.944 229.551 107.064C229.551 106.184 229.615 105.208 230.191 104.632C230.559 104.264 231.055 104.056 231.615 104.056C232.175 104.056 232.687 104.264 233.055 104.632C233.631 105.208 233.679 106.184 233.679 107.064ZM243.491 111V105.96C243.491 105.048 243.235 104.312 242.675 103.768C242.195 103.288 241.507 103.032 240.659 103.032C239.779 103.032 239.011 103.352 238.451 103.992V103.128H237.299V111H238.451V106.152C238.451 104.776 239.219 104.056 240.403 104.056C241.587 104.056 242.339 104.76 242.339 106.152V111H243.491ZM253.292 111V110.008H252.684C251.948 110.008 251.612 109.576 251.612 108.856V104.056H253.292V103.176H251.612V100.712H250.46V103.176H249.468V104.056H250.46V108.888C250.46 110.056 251.132 111 252.476 111H253.292ZM261.773 111V105.944C261.773 104.168 260.717 103.032 258.941 103.032C258.061 103.032 257.309 103.336 256.733 103.992V99.608H255.581V111H256.733V106.136C256.733 104.776 257.517 104.056 258.701 104.056C259.885 104.056 260.621 104.76 260.621 106.136V111H261.773ZM270.597 107.368V106.84C270.597 104.504 269.397 103.032 267.365 103.032C265.365 103.032 264.133 104.52 264.133 107.064C264.133 109.848 265.493 111.096 267.573 111.096C268.917 111.096 269.653 110.68 270.453 109.88L269.669 109.192C269.045 109.816 268.517 110.088 267.605 110.088C266.101 110.088 265.285 109.096 265.285 107.368H270.597ZM269.445 106.504H265.285C265.317 105.864 265.349 105.624 265.525 105.192C265.829 104.472 266.533 104.008 267.365 104.008C268.197 104.008 268.901 104.472 269.205 105.192C269.381 105.624 269.413 105.864 269.445 106.504ZM283.29 107.064C283.29 105.832 283.13 104.52 282.33 103.72C281.914 103.304 281.21 103.032 280.41 103.032C279.546 103.032 278.826 103.224 278.186 104.056V103.128H277.034V114.52H278.186V110.072C278.826 110.888 279.546 111.096 280.41 111.096C281.21 111.096 281.914 110.824 282.33 110.408C283.13 109.608 283.29 108.296 283.29 107.064ZM282.138 107.064C282.138 108.6 281.882 110.072 280.17 110.072C278.458 110.072 278.186 108.6 278.186 107.064C278.186 105.528 278.458 104.056 280.17 104.056C281.882 104.056 282.138 105.528 282.138 107.064ZM291.369 111V105.656C291.369 103.944 290.329 103.032 288.217 103.032C286.937 103.032 286.137 103.288 285.433 104.2L286.217 104.92C286.681 104.264 287.193 104.024 288.201 104.024C289.641 104.024 290.217 104.6 290.217 105.752V106.504H287.849C286.089 106.504 285.129 107.4 285.129 108.776C285.129 109.4 285.337 109.992 285.721 110.376C286.217 110.888 286.857 111.096 287.945 111.096C289.001 111.096 289.577 110.888 290.217 110.248V111H291.369ZM290.217 108.216C290.217 108.872 290.089 109.32 289.817 109.576C289.321 110.056 288.729 110.104 288.057 110.104C286.809 110.104 286.249 109.672 286.249 108.76C286.249 107.848 286.825 107.368 288.009 107.368H290.217V108.216ZM299.982 111.24V103.128H298.846V104.056C298.206 103.224 297.502 103.032 296.638 103.032C295.838 103.032 295.134 103.304 294.718 103.72C293.934 104.504 293.758 105.72 293.758 107C293.758 108.28 293.934 109.496 294.718 110.28C295.134 110.696 295.822 110.984 296.622 110.984C297.47 110.984 298.19 110.776 298.83 109.96V111.192C298.83 112.536 298.19 113.608 296.67 113.608C295.758 113.608 295.358 113.336 294.782 112.824L294.03 113.56C294.862 114.312 295.518 114.616 296.702 114.616C298.766 114.616 299.982 113.192 299.982 111.24ZM298.83 107C298.83 108.472 298.59 109.944 296.878 109.944C295.166 109.944 294.91 108.472 294.91 107C294.91 105.528 295.166 104.056 296.878 104.056C298.59 104.056 298.83 105.528 298.83 107ZM308.894 107.368V106.84C308.894 104.504 307.694 103.032 305.662 103.032C303.662 103.032 302.43 104.52 302.43 107.064C302.43 109.848 303.79 111.096 305.87 111.096C307.214 111.096 307.95 110.68 308.75 109.88L307.966 109.192C307.342 109.816 306.814 110.088 305.902 110.088C304.398 110.088 303.582 109.096 303.582 107.368H308.894ZM307.742 106.504H303.582C303.614 105.864 303.646 105.624 303.822 105.192C304.126 104.472 304.83 104.008 305.662 104.008C306.494 104.008 307.198 104.472 307.502 105.192C307.678 105.624 307.71 105.864 307.742 106.504ZM312.722 112.04V109.592H311.314V113.304L312.722 112.04ZM47.552 135V127.128H46.4V131.976C46.4 133.352 45.616 134.072 44.432 134.072C43.248 134.072 42.512 133.368 42.512 131.976V127.128H41.36V132.152C41.36 133.064 41.6 133.816 42.16 134.36C42.64 134.84 43.344 135.096 44.192 135.096C45.072 135.096 45.856 134.76 46.416 134.12V135H47.552ZM56.1044 132.696C56.1044 131.224 55.1604 130.696 53.7844 130.568L52.5204 130.456C51.5284 130.376 51.1444 129.976 51.1444 129.304C51.1444 128.504 51.7524 128.008 52.9044 128.008C53.7204 128.008 54.4404 128.2 55.0004 128.632L55.7524 127.88C55.0484 127.304 54.0404 127.032 52.9204 127.032C51.2404 127.032 50.0244 127.896 50.0244 129.336C50.0244 130.632 50.8404 131.32 52.3764 131.448L53.6724 131.56C54.5844 131.64 54.9844 132.024 54.9844 132.712C54.9844 133.64 54.1844 134.104 52.8884 134.104C51.9124 134.104 51.0644 133.848 50.4404 133.192L49.6724 133.96C50.5364 134.792 51.5764 135.096 52.9044 135.096C54.8084 135.096 56.1044 134.216 56.1044 132.696ZM64.3939 131.368V130.84C64.3939 128.504 63.1939 127.032 61.1619 127.032C59.1619 127.032 57.9299 128.52 57.9299 131.064C57.9299 133.848 59.2899 135.096 61.3699 135.096C62.7139 135.096 63.4499 134.68 64.2499 133.88L63.4659 133.192C62.8419 133.816 62.3139 134.088 61.4019 134.088C59.8979 134.088 59.0819 133.096 59.0819 131.368H64.3939ZM63.2419 130.504H59.0819C59.1139 129.864 59.1459 129.624 59.3219 129.192C59.6259 128.472 60.3299 128.008 61.1619 128.008C61.9939 128.008 62.6979 128.472 63.0019 129.192C63.1779 129.624 63.2099 129.864 63.2419 130.504ZM76.4466 135V129.656C76.4466 127.944 75.4066 127.032 73.2946 127.032C72.0146 127.032 71.2146 127.288 70.5106 128.2L71.2946 128.92C71.7586 128.264 72.2706 128.024 73.2786 128.024C74.7186 128.024 75.2946 128.6 75.2946 129.752V130.504H72.9266C71.1666 130.504 70.2066 131.4 70.2066 132.776C70.2066 133.4 70.4146 133.992 70.7986 134.376C71.2946 134.888 71.9346 135.096 73.0226 135.096C74.0786 135.096 74.6546 134.888 75.2946 134.248V135H76.4466ZM75.2946 132.216C75.2946 132.872 75.1666 133.32 74.8946 133.576C74.3986 134.056 73.8066 134.104 73.1346 134.104C71.8866 134.104 71.3266 133.672 71.3266 132.76C71.3266 131.848 71.9026 131.368 73.0866 131.368H75.2946V132.216ZM85.4445 135V129.96C85.4445 129.048 85.1885 128.312 84.6285 127.768C84.1485 127.288 83.4605 127.032 82.6125 127.032C81.7325 127.032 80.9645 127.352 80.4045 127.992V127.128H79.2525V135H80.4045V130.152C80.4045 128.776 81.1725 128.056 82.3565 128.056C83.5405 128.056 84.2925 128.76 84.2925 130.152V135H85.4445ZM89.4689 124.888V123.592H88.1729V124.888H89.4689ZM89.3889 135V127.128H88.2369V135H89.3889ZM103.548 135V129.96C103.548 129.048 103.26 128.312 102.7 127.768C102.22 127.304 101.516 127.032 100.668 127.032C99.5638 127.032 98.6838 127.48 98.0758 128.344C97.5958 127.48 96.7478 127.032 95.6598 127.032C94.7798 127.032 93.9958 127.352 93.4358 127.992V127.128H92.2838V135H93.4358V130.152C93.4358 128.776 94.2198 128.056 95.4038 128.056C96.5878 128.056 97.3398 128.76 97.3398 130.152V135H98.4918V130.024C98.4918 128.776 99.3078 128.056 100.46 128.056C101.644 128.056 102.396 128.76 102.396 130.152V135H103.548ZM111.962 135V129.656C111.962 127.944 110.922 127.032 108.81 127.032C107.53 127.032 106.73 127.288 106.026 128.2L106.81 128.92C107.274 128.264 107.786 128.024 108.794 128.024C110.234 128.024 110.81 128.6 110.81 129.752V130.504H108.442C106.682 130.504 105.722 131.4 105.722 132.776C105.722 133.4 105.93 133.992 106.314 134.376C106.81 134.888 107.45 135.096 108.538 135.096C109.594 135.096 110.17 134.888 110.81 134.248V135H111.962ZM110.81 132.216C110.81 132.872 110.682 133.32 110.41 133.576C109.914 134.056 109.322 134.104 108.65 134.104C107.402 134.104 106.842 133.672 106.842 132.76C106.842 131.848 107.418 131.368 108.602 131.368H110.81V132.216ZM117.792 135V134.008H117.184C116.448 134.008 116.112 133.576 116.112 132.856V128.056H117.792V127.176H116.112V124.712H114.96V127.176H113.968V128.056H114.96V132.888C114.96 134.056 115.632 135 116.976 135H117.792ZM121.313 124.888V123.592H120.017V124.888H121.313ZM121.233 135V127.128H120.081V135H121.233ZM130.144 131.064C130.144 129.848 129.984 128.744 129.184 127.928C128.64 127.384 127.888 127.032 126.928 127.032C125.968 127.032 125.216 127.384 124.672 127.928C123.872 128.744 123.712 129.848 123.712 131.064C123.712 132.28 123.872 133.384 124.672 134.2C125.216 134.744 125.968 135.096 126.928 135.096C127.888 135.096 128.64 134.744 129.184 134.2C129.984 133.384 130.144 132.28 130.144 131.064ZM128.992 131.064C128.992 131.944 128.944 132.92 128.368 133.496C128 133.864 127.488 134.072 126.928 134.072C126.368 134.072 125.872 133.864 125.504 133.496C124.928 132.92 124.864 131.944 124.864 131.064C124.864 130.184 124.928 129.208 125.504 128.632C125.872 128.264 126.368 128.056 126.928 128.056C127.488 128.056 128 128.264 128.368 128.632C128.944 129.208 128.992 130.184 128.992 131.064ZM138.804 135V129.96C138.804 129.048 138.548 128.312 137.988 127.768C137.508 127.288 136.82 127.032 135.972 127.032C135.092 127.032 134.324 127.352 133.764 127.992V127.128H132.612V135H133.764V130.152C133.764 128.776 134.532 128.056 135.716 128.056C136.9 128.056 137.652 128.76 137.652 130.152V135H138.804ZM148.605 135V134.008H147.997C147.261 134.008 146.925 133.576 146.925 132.856V128.056H148.605V127.176H146.925V124.712H145.773V127.176H144.781V128.056H145.773V132.888C145.773 134.056 146.445 135 147.789 135H148.605ZM156.784 131.064C156.784 129.848 156.624 128.744 155.824 127.928C155.28 127.384 154.528 127.032 153.568 127.032C152.608 127.032 151.856 127.384 151.312 127.928C150.512 128.744 150.352 129.848 150.352 131.064C150.352 132.28 150.512 133.384 151.312 134.2C151.856 134.744 152.608 135.096 153.568 135.096C154.528 135.096 155.28 134.744 155.824 134.2C156.624 133.384 156.784 132.28 156.784 131.064ZM155.632 131.064C155.632 131.944 155.584 132.92 155.008 133.496C154.64 133.864 154.128 134.072 153.568 134.072C153.008 134.072 152.512 133.864 152.144 133.496C151.568 132.92 151.504 131.944 151.504 131.064C151.504 130.184 151.568 129.208 152.144 128.632C152.512 128.264 153.008 128.056 153.568 128.056C154.128 128.056 154.64 128.264 155.008 128.632C155.584 129.208 155.632 130.184 155.632 131.064ZM168.485 127.768C167.925 127.208 167.349 127.032 166.597 127.032C165.685 127.032 164.821 127.432 164.389 128.088V127.128H163.237V135H164.389V130.168C164.389 128.968 165.125 128.056 166.277 128.056C166.885 128.056 167.205 128.2 167.637 128.632L168.485 127.768ZM175.456 131.368V130.84C175.456 128.504 174.256 127.032 172.224 127.032C170.224 127.032 168.992 128.52 168.992 131.064C168.992 133.848 170.352 135.096 172.432 135.096C173.776 135.096 174.512 134.68 175.312 133.88L174.528 133.192C173.904 133.816 173.376 134.088 172.464 134.088C170.96 134.088 170.144 133.096 170.144 131.368H175.456ZM174.304 130.504H170.144C170.176 129.864 170.208 129.624 170.384 129.192C170.688 128.472 171.392 128.008 172.224 128.008C173.056 128.008 173.76 128.472 174.064 129.192C174.24 129.624 174.272 129.864 174.304 130.504ZM180.709 135V134.008H180.085C179.285 134.008 179.029 133.624 179.029 132.856V123.608H177.877V132.904C177.877 134.104 178.501 135 179.877 135H180.709ZM188.275 135V129.656C188.275 127.944 187.235 127.032 185.123 127.032C183.843 127.032 183.043 127.288 182.339 128.2L183.123 128.92C183.587 128.264 184.099 128.024 185.107 128.024C186.547 128.024 187.123 128.6 187.123 129.752V130.504H184.755C182.995 130.504 182.035 131.4 182.035 132.776C182.035 133.4 182.243 133.992 182.627 134.376C183.123 134.888 183.763 135.096 184.851 135.096C185.907 135.096 186.483 134.888 187.123 134.248V135H188.275ZM187.123 132.216C187.123 132.872 186.995 133.32 186.723 133.576C186.227 134.056 185.635 134.104 184.963 134.104C183.715 134.104 183.155 133.672 183.155 132.76C183.155 131.848 183.731 131.368 184.915 131.368H187.123V132.216ZM196.761 135L194.089 130.984L196.649 127.128H195.257L193.481 130.04L191.673 127.128H190.281L192.841 130.984L190.169 135H191.561L193.481 131.944L195.369 135H196.761ZM208.322 135V129.656C208.322 127.944 207.282 127.032 205.17 127.032C203.89 127.032 203.09 127.288 202.386 128.2L203.17 128.92C203.634 128.264 204.146 128.024 205.154 128.024C206.594 128.024 207.17 128.6 207.17 129.752V130.504H204.802C203.042 130.504 202.082 131.4 202.082 132.776C202.082 133.4 202.29 133.992 202.674 134.376C203.17 134.888 203.81 135.096 204.898 135.096C205.954 135.096 206.53 134.888 207.17 134.248V135H208.322ZM207.17 132.216C207.17 132.872 207.042 133.32 206.77 133.576C206.274 134.056 205.682 134.104 205.01 134.104C203.762 134.104 203.202 133.672 203.202 132.76C203.202 131.848 203.778 131.368 204.962 131.368H207.17V132.216ZM217.32 135V129.96C217.32 129.048 217.064 128.312 216.504 127.768C216.024 127.288 215.336 127.032 214.488 127.032C213.608 127.032 212.84 127.352 212.28 127.992V127.128H211.128V135H212.28V130.152C212.28 128.776 213.048 128.056 214.232 128.056C215.416 128.056 216.168 128.76 216.168 130.152V135H217.32ZM225.952 135V123.608H224.8V128.04C224.16 127.224 223.44 127.032 222.576 127.032C221.776 127.032 221.072 127.304 220.656 127.72C219.856 128.52 219.696 129.832 219.696 131.064C219.696 132.296 219.856 133.608 220.656 134.408C221.072 134.824 221.776 135.096 222.576 135.096C223.44 135.096 224.176 134.888 224.816 134.056V135H225.952ZM224.8 131.064C224.8 132.6 224.544 134.072 222.832 134.072C221.12 134.072 220.848 132.6 220.848 131.064C220.848 129.528 221.12 128.056 222.832 128.056C224.544 128.056 224.8 129.528 224.8 131.064ZM235.839 135V134.008H235.231C234.495 134.008 234.159 133.576 234.159 132.856V128.056H235.839V127.176H234.159V124.712H233.007V127.176H232.015V128.056H233.007V132.888C233.007 134.056 233.679 135 235.023 135H235.839ZM244.24 135V127.128H243.088V131.976C243.088 133.352 242.304 134.072 241.12 134.072C239.936 134.072 239.2 133.368 239.2 131.976V127.128H238.048V132.152C238.048 133.064 238.288 133.816 238.848 134.36C239.328 134.84 240.032 135.096 240.88 135.096C241.76 135.096 242.544 134.76 243.104 134.12V135H244.24ZM252.36 127.768C251.8 127.208 251.224 127.032 250.472 127.032C249.56 127.032 248.696 127.432 248.264 128.088V127.128H247.112V135H248.264V130.168C248.264 128.968 249 128.056 250.152 128.056C250.76 128.056 251.08 128.2 251.512 128.632L252.36 127.768ZM260.038 135V129.96C260.038 129.048 259.782 128.312 259.222 127.768C258.742 127.288 258.054 127.032 257.206 127.032C256.326 127.032 255.558 127.352 254.998 127.992V127.128H253.846V135H254.998V130.152C254.998 128.776 255.766 128.056 256.95 128.056C258.134 128.056 258.886 128.76 258.886 130.152V135H260.038ZM272.351 127.128H271.103L268.959 133.448L266.799 127.128H265.551L268.383 134.84L267.823 136.376C267.567 137.096 267.327 137.352 266.527 137.352H266.175V138.376H266.671C267.231 138.376 267.791 138.232 268.207 137.832C268.431 137.624 268.607 137.336 268.767 136.904L272.351 127.128ZM279.831 131.064C279.831 129.848 279.671 128.744 278.871 127.928C278.327 127.384 277.575 127.032 276.615 127.032C275.655 127.032 274.903 127.384 274.359 127.928C273.559 128.744 273.399 129.848 273.399 131.064C273.399 132.28 273.559 133.384 274.359 134.2C274.903 134.744 275.655 135.096 276.615 135.096C277.575 135.096 278.327 134.744 278.871 134.2C279.671 133.384 279.831 132.28 279.831 131.064ZM278.679 131.064C278.679 131.944 278.631 132.92 278.055 133.496C277.687 133.864 277.175 134.072 276.615 134.072C276.055 134.072 275.559 133.864 275.191 133.496C274.615 132.92 274.551 131.944 274.551 131.064C274.551 130.184 274.615 129.208 275.191 128.632C275.559 128.264 276.055 128.056 276.615 128.056C277.175 128.056 277.687 128.264 278.055 128.632C278.631 129.208 278.679 130.184 278.679 131.064ZM288.411 135V127.128H287.259V131.976C287.259 133.352 286.475 134.072 285.291 134.072C284.107 134.072 283.371 133.368 283.371 131.976V127.128H282.219V132.152C282.219 133.064 282.459 133.816 283.019 134.36C283.499 134.84 284.203 135.096 285.051 135.096C285.931 135.096 286.715 134.76 287.275 134.12V135H288.411ZM296.532 127.768C295.972 127.208 295.396 127.032 294.644 127.032C293.732 127.032 292.868 127.432 292.436 128.088V127.128H291.284V135H292.436V130.168C292.436 128.968 293.172 128.056 294.324 128.056C294.932 128.056 295.252 128.2 295.684 128.632L296.532 127.768ZM47.28 159V147.608H46.128V152.04C45.488 151.224 44.768 151.032 43.904 151.032C43.104 151.032 42.4 151.304 41.984 151.72C41.184 152.52 41.024 153.832 41.024 155.064C41.024 156.296 41.184 157.608 41.984 158.408C42.4 158.824 43.104 159.096 43.904 159.096C44.768 159.096 45.504 158.888 46.144 158.056V159H47.28ZM46.128 155.064C46.128 156.6 45.872 158.072 44.16 158.072C42.448 158.072 42.176 156.6 42.176 155.064C42.176 153.528 42.448 152.056 44.16 152.056C45.872 152.056 46.128 153.528 46.128 155.064ZM55.7748 159V153.656C55.7748 151.944 54.7348 151.032 52.6228 151.032C51.3428 151.032 50.5428 151.288 49.8388 152.2L50.6228 152.92C51.0868 152.264 51.5988 152.024 52.6068 152.024C54.0468 152.024 54.6228 152.6 54.6228 153.752V154.504H52.2548C50.4948 154.504 49.5348 155.4 49.5348 156.776C49.5348 157.4 49.7428 157.992 50.1268 158.376C50.6228 158.888 51.2628 159.096 52.3508 159.096C53.4068 159.096 53.9828 158.888 54.6228 158.248V159H55.7748ZM54.6228 156.216C54.6228 156.872 54.4948 157.32 54.2228 157.576C53.7268 158.056 53.1348 158.104 52.4628 158.104C51.2148 158.104 50.6548 157.672 50.6548 156.76C50.6548 155.848 51.2308 155.368 52.4148 155.368H54.6228V156.216ZM59.8126 148.888V147.592H58.5166V148.888H59.8126ZM59.7326 159V151.128H58.5806V159H59.7326ZM65.4275 159V158.008H64.8035C64.0035 158.008 63.7475 157.624 63.7475 156.856V147.608H62.5955V156.904C62.5955 158.104 63.2195 159 64.5955 159H65.4275ZM72.5385 151.128H71.2905L69.1465 157.448L66.9865 151.128H65.7385L68.5705 158.84L68.0105 160.376C67.7545 161.096 67.5145 161.352 66.7145 161.352H66.3625V162.376H66.8585C67.4185 162.376 67.9785 162.232 68.3945 161.832C68.6185 161.624 68.7945 161.336 68.9545 160.904L72.5385 151.128ZM83.8231 156.696C83.8231 155.224 82.8791 154.696 81.5031 154.568L80.2391 154.456C79.2471 154.376 78.8631 153.976 78.8631 153.304C78.8631 152.504 79.4711 152.008 80.6231 152.008C81.4391 152.008 82.1591 152.2 82.7191 152.632L83.4711 151.88C82.7671 151.304 81.7591 151.032 80.6391 151.032C78.9591 151.032 77.7431 151.896 77.7431 153.336C77.7431 154.632 78.5591 155.32 80.0951 155.448L81.3911 155.56C82.3031 155.64 82.7031 156.024 82.7031 156.712C82.7031 157.64 81.9031 158.104 80.6071 158.104C79.6311 158.104 78.7831 157.848 78.1591 157.192L77.3911 157.96C78.2551 158.792 79.2951 159.096 80.6231 159.096C82.5271 159.096 83.8231 158.216 83.8231 156.696ZM88.9484 159V158.008H88.3404C87.6044 158.008 87.2684 157.576 87.2684 156.856V152.056H88.9484V151.176H87.2684V148.712H86.1164V151.176H85.1244V152.056H86.1164V156.888C86.1164 158.056 86.7884 159 88.1324 159H88.9484ZM97.3489 159V151.128H96.1969V155.976C96.1969 157.352 95.4129 158.072 94.2289 158.072C93.0449 158.072 92.3089 157.368 92.3089 155.976V151.128H91.1569V156.152C91.1569 157.064 91.3969 157.816 91.9569 158.36C92.4369 158.84 93.1409 159.096 93.9889 159.096C94.8689 159.096 95.6529 158.76 96.2129 158.12V159H97.3489ZM106.061 159V147.608H104.909V152.04C104.269 151.224 103.549 151.032 102.685 151.032C101.885 151.032 101.181 151.304 100.765 151.72C99.9653 152.52 99.8053 153.832 99.8053 155.064C99.8053 156.296 99.9653 157.608 100.765 158.408C101.181 158.824 101.885 159.096 102.685 159.096C103.549 159.096 104.285 158.888 104.925 158.056V159H106.061ZM104.909 155.064C104.909 156.6 104.653 158.072 102.941 158.072C101.229 158.072 100.957 156.6 100.957 155.064C100.957 153.528 101.229 152.056 102.941 152.056C104.653 152.056 104.909 153.528 104.909 155.064ZM114.476 151.128H113.228L111.084 157.448L108.924 151.128H107.676L110.508 158.84L109.948 160.376C109.692 161.096 109.452 161.352 108.652 161.352H108.3V162.376H108.796C109.356 162.376 109.916 162.232 110.332 161.832C110.556 161.624 110.732 161.336 110.892 160.904L114.476 151.128ZM123.105 159V158.008H122.497C121.761 158.008 121.425 157.576 121.425 156.856V152.056H123.105V151.176H121.425V148.712H120.273V151.176H119.281V152.056H120.273V156.888C120.273 158.056 120.945 159 122.289 159H123.105ZM126.625 148.888V147.592H125.329V148.888H126.625ZM126.545 159V151.128H125.393V159H126.545ZM140.704 159V153.96C140.704 153.048 140.416 152.312 139.856 151.768C139.376 151.304 138.672 151.032 137.824 151.032C136.72 151.032 135.84 151.48 135.232 152.344C134.752 151.48 133.904 151.032 132.816 151.032C131.936 151.032 131.152 151.352 130.592 151.992V151.128H129.44V159H130.592V154.152C130.592 152.776 131.376 152.056 132.56 152.056C133.744 152.056 134.496 152.76 134.496 154.152V159H135.648V154.024C135.648 152.776 136.464 152.056 137.616 152.056C138.8 152.056 139.552 152.76 139.552 154.152V159H140.704ZM149.535 155.368V154.84C149.535 152.504 148.335 151.032 146.303 151.032C144.303 151.032 143.071 152.52 143.071 155.064C143.071 157.848 144.431 159.096 146.511 159.096C147.855 159.096 148.591 158.68 149.391 157.88L148.607 157.192C147.983 157.816 147.455 158.088 146.543 158.088C145.039 158.088 144.223 157.096 144.223 155.368H149.535ZM148.383 154.504H144.223C144.255 153.864 144.287 153.624 144.463 153.192C144.767 152.472 145.471 152.008 146.303 152.008C147.135 152.008 147.839 152.472 148.143 153.192C148.319 153.624 148.351 153.864 148.383 154.504ZM157.203 148.888V147.592H155.907V148.888H157.203ZM157.123 159V151.128H155.971V159H157.123ZM166.21 159V153.96C166.21 153.048 165.954 152.312 165.394 151.768C164.914 151.288 164.226 151.032 163.378 151.032C162.498 151.032 161.73 151.352 161.17 151.992V151.128H160.018V159H161.17V154.152C161.17 152.776 161.938 152.056 163.122 152.056C164.306 152.056 165.058 152.76 165.058 154.152V159H166.21ZM172.027 159V158.008H171.419C170.683 158.008 170.347 157.576 170.347 156.856V152.056H172.027V151.176H170.347V148.712H169.195V151.176H168.203V152.056H169.195V156.888C169.195 158.056 169.867 159 171.211 159H172.027ZM180.206 155.064C180.206 153.848 180.046 152.744 179.246 151.928C178.702 151.384 177.95 151.032 176.99 151.032C176.03 151.032 175.278 151.384 174.734 151.928C173.934 152.744 173.774 153.848 173.774 155.064C173.774 156.28 173.934 157.384 174.734 158.2C175.278 158.744 176.03 159.096 176.99 159.096C177.95 159.096 178.702 158.744 179.246 158.2C180.046 157.384 180.206 156.28 180.206 155.064ZM179.054 155.064C179.054 155.944 179.006 156.92 178.43 157.496C178.062 157.864 177.55 158.072 176.99 158.072C176.43 158.072 175.934 157.864 175.566 157.496C174.99 156.92 174.926 155.944 174.926 155.064C174.926 154.184 174.99 153.208 175.566 152.632C175.934 152.264 176.43 152.056 176.99 152.056C177.55 152.056 178.062 152.264 178.43 152.632C179.006 153.208 179.054 154.184 179.054 155.064ZM192.275 159V153.656C192.275 151.944 191.235 151.032 189.123 151.032C187.843 151.032 187.043 151.288 186.339 152.2L187.123 152.92C187.587 152.264 188.099 152.024 189.107 152.024C190.547 152.024 191.123 152.6 191.123 153.752V154.504H188.755C186.995 154.504 186.035 155.4 186.035 156.776C186.035 157.4 186.243 157.992 186.627 158.376C187.123 158.888 187.763 159.096 188.851 159.096C189.907 159.096 190.483 158.888 191.123 158.248V159H192.275ZM191.123 156.216C191.123 156.872 190.995 157.32 190.723 157.576C190.227 158.056 189.635 158.104 188.963 158.104C187.715 158.104 187.155 157.672 187.155 156.76C187.155 155.848 187.731 155.368 188.915 155.368H191.123V156.216ZM201.273 159V153.96C201.273 153.048 201.017 152.312 200.457 151.768C199.977 151.288 199.289 151.032 198.441 151.032C197.561 151.032 196.793 151.352 196.233 151.992V151.128H195.081V159H196.233V154.152C196.233 152.776 197.001 152.056 198.185 152.056C199.369 152.056 200.121 152.76 200.121 154.152V159H201.273ZM213.665 159V153.656C213.665 151.944 212.625 151.032 210.513 151.032C209.233 151.032 208.433 151.288 207.729 152.2L208.513 152.92C208.977 152.264 209.489 152.024 210.497 152.024C211.937 152.024 212.513 152.6 212.513 153.752V154.504H210.145C208.385 154.504 207.425 155.4 207.425 156.776C207.425 157.4 207.633 157.992 208.017 158.376C208.513 158.888 209.153 159.096 210.241 159.096C211.297 159.096 211.873 158.888 212.513 158.248V159H213.665ZM212.513 156.216C212.513 156.872 212.385 157.32 212.113 157.576C211.617 158.056 211.025 158.104 210.353 158.104C209.105 158.104 208.545 157.672 208.545 156.76C208.545 155.848 209.121 155.368 210.305 155.368H212.513V156.216ZM222.311 159V147.608H221.159V152.04C220.519 151.224 219.799 151.032 218.935 151.032C218.135 151.032 217.431 151.304 217.015 151.72C216.215 152.52 216.055 153.832 216.055 155.064C216.055 156.296 216.215 157.608 217.015 158.408C217.431 158.824 218.135 159.096 218.935 159.096C219.799 159.096 220.535 158.888 221.175 158.056V159H222.311ZM221.159 155.064C221.159 156.6 220.903 158.072 219.191 158.072C217.479 158.072 217.207 156.6 217.207 155.064C217.207 153.528 217.479 152.056 219.191 152.056C220.903 152.056 221.159 153.528 221.159 155.064ZM230.726 151.128H229.478L227.318 157.448L225.174 151.128H223.926L226.806 159H227.83L230.726 151.128ZM238.222 155.368V154.84C238.222 152.504 237.022 151.032 234.99 151.032C232.99 151.032 231.758 152.52 231.758 155.064C231.758 157.848 233.118 159.096 235.198 159.096C236.542 159.096 237.278 158.68 238.078 157.88L237.294 157.192C236.67 157.816 236.142 158.088 235.23 158.088C233.726 158.088 232.91 157.096 232.91 155.368H238.222ZM237.07 154.504H232.91C232.942 153.864 232.974 153.624 233.15 153.192C233.454 152.472 234.158 152.008 234.99 152.008C235.822 152.008 236.526 152.472 236.83 153.192C237.006 153.624 237.038 153.864 237.07 154.504ZM246.866 159V153.96C246.866 153.048 246.61 152.312 246.05 151.768C245.57 151.288 244.882 151.032 244.034 151.032C243.154 151.032 242.386 151.352 241.826 151.992V151.128H240.674V159H241.826V154.152C241.826 152.776 242.594 152.056 243.778 152.056C244.962 152.056 245.714 152.76 245.714 154.152V159H246.866ZM252.683 159V158.008H252.075C251.339 158.008 251.003 157.576 251.003 156.856V152.056H252.683V151.176H251.003V148.712H249.851V151.176H248.859V152.056H249.851V156.888C249.851 158.056 250.523 159 251.867 159H252.683ZM261.083 159V151.128H259.931V155.976C259.931 157.352 259.147 158.072 257.963 158.072C256.779 158.072 256.043 157.368 256.043 155.976V151.128H254.891V156.152C254.891 157.064 255.131 157.816 255.691 158.36C256.171 158.84 256.875 159.096 257.723 159.096C258.603 159.096 259.387 158.76 259.947 158.12V159H261.083ZM269.204 151.768C268.644 151.208 268.068 151.032 267.316 151.032C266.404 151.032 265.54 151.432 265.108 152.088V151.128H263.956V159H265.108V154.168C265.108 152.968 265.844 152.056 266.996 152.056C267.604 152.056 267.924 152.2 268.356 152.632L269.204 151.768ZM276.175 155.368V154.84C276.175 152.504 274.975 151.032 272.943 151.032C270.943 151.032 269.711 152.52 269.711 155.064C269.711 157.848 271.071 159.096 273.151 159.096C274.495 159.096 275.231 158.68 276.031 157.88L275.247 157.192C274.623 157.816 274.095 158.088 273.183 158.088C271.679 158.088 270.863 157.096 270.863 155.368H276.175ZM275.023 154.504H270.863C270.895 153.864 270.927 153.624 271.103 153.192C271.407 152.472 272.111 152.008 272.943 152.008C273.775 152.008 274.479 152.472 274.783 153.192C274.959 153.624 274.991 153.864 275.023 154.504ZM280.004 160.04V157.592H278.596V161.304L280.004 160.04ZM292.447 159V153.656C292.447 151.944 291.407 151.032 289.295 151.032C288.015 151.032 287.215 151.288 286.511 152.2L287.295 152.92C287.759 152.264 288.271 152.024 289.279 152.024C290.719 152.024 291.295 152.6 291.295 153.752V154.504H288.927C287.167 154.504 286.207 155.4 286.207 156.776C286.207 157.4 286.415 157.992 286.799 158.376C287.295 158.888 287.935 159.096 289.023 159.096C290.079 159.096 290.655 158.888 291.295 158.248V159H292.447ZM291.295 156.216C291.295 156.872 291.167 157.32 290.895 157.576C290.399 158.056 289.807 158.104 289.135 158.104C287.887 158.104 287.327 157.672 287.327 156.76C287.327 155.848 287.903 155.368 289.087 155.368H291.295V156.216ZM301.445 159V153.96C301.445 153.048 301.189 152.312 300.629 151.768C300.149 151.288 299.461 151.032 298.613 151.032C297.733 151.032 296.965 151.352 296.405 151.992V151.128H295.253V159H296.405V154.152C296.405 152.776 297.173 152.056 298.357 152.056C299.541 152.056 300.293 152.76 300.293 154.152V159H301.445ZM310.077 159V147.608H308.925V152.04C308.285 151.224 307.565 151.032 306.701 151.032C305.901 151.032 305.197 151.304 304.781 151.72C303.981 152.52 303.821 153.832 303.821 155.064C303.821 156.296 303.981 157.608 304.781 158.408C305.197 158.824 305.901 159.096 306.701 159.096C307.565 159.096 308.301 158.888 308.941 158.056V159H310.077ZM308.925 155.064C308.925 156.6 308.669 158.072 306.957 158.072C305.245 158.072 304.973 156.6 304.973 155.064C304.973 153.528 305.245 152.056 306.957 152.056C308.669 152.056 308.925 153.528 308.925 155.064ZM47.088 181.928L46.304 181.176C45.712 181.832 45.248 182.072 44.496 182.072C43.728 182.072 43.088 181.768 42.672 181.176C42.304 180.664 42.16 180.056 42.16 179.064C42.16 178.072 42.304 177.464 42.672 176.952C43.088 176.36 43.728 176.056 44.496 176.056C45.248 176.056 45.712 176.28 46.304 176.936L47.088 176.2C46.272 175.32 45.584 175.032 44.496 175.032C42.512 175.032 41.008 176.376 41.008 179.064C41.008 181.752 42.512 183.096 44.496 183.096C45.584 183.096 46.272 182.808 47.088 181.928ZM55.0654 179.064C55.0654 177.848 54.9054 176.744 54.1054 175.928C53.5614 175.384 52.8094 175.032 51.8494 175.032C50.8894 175.032 50.1374 175.384 49.5934 175.928C48.7934 176.744 48.6334 177.848 48.6334 179.064C48.6334 180.28 48.7934 181.384 49.5934 182.2C50.1374 182.744 50.8894 183.096 51.8494 183.096C52.8094 183.096 53.5614 182.744 54.1054 182.2C54.9054 181.384 55.0654 180.28 55.0654 179.064ZM53.9134 179.064C53.9134 179.944 53.8654 180.92 53.2894 181.496C52.9214 181.864 52.4094 182.072 51.8494 182.072C51.2894 182.072 50.7934 181.864 50.4254 181.496C49.8494 180.92 49.7854 179.944 49.7854 179.064C49.7854 178.184 49.8494 177.208 50.4254 176.632C50.7934 176.264 51.2894 176.056 51.8494 176.056C52.4094 176.056 52.9214 176.264 53.2894 176.632C53.8654 177.208 53.9134 178.184 53.9134 179.064ZM68.7978 183V177.96C68.7978 177.048 68.5098 176.312 67.9498 175.768C67.4698 175.304 66.7658 175.032 65.9178 175.032C64.8138 175.032 63.9338 175.48 63.3258 176.344C62.8458 175.48 61.9978 175.032 60.9098 175.032C60.0298 175.032 59.2458 175.352 58.6858 175.992V175.128H57.5338V183H58.6858V178.152C58.6858 176.776 59.4698 176.056 60.6538 176.056C61.8378 176.056 62.5898 176.76 62.5898 178.152V183H63.7418V178.024C63.7418 176.776 64.5578 176.056 65.7098 176.056C66.8938 176.056 67.6458 176.76 67.6458 178.152V183H68.7978ZM77.8523 179.064C77.8523 177.832 77.6923 176.52 76.8923 175.72C76.4763 175.304 75.7723 175.032 74.9723 175.032C74.1083 175.032 73.3883 175.224 72.7483 176.04V171.608H71.5963V183H72.7483V182.056C73.3883 182.888 74.1083 183.096 74.9723 183.096C75.7723 183.096 76.4763 182.824 76.8923 182.408C77.6923 181.608 77.8523 180.296 77.8523 179.064ZM76.7003 179.064C76.7003 180.6 76.4443 182.072 74.7323 182.072C73.0203 182.072 72.7483 180.6 72.7483 179.064C72.7483 177.528 73.0203 176.056 74.7323 176.056C76.4443 176.056 76.7003 177.528 76.7003 179.064ZM81.547 172.888V171.592H80.251V172.888H81.547ZM81.467 183V175.128H80.315V183H81.467ZM90.5539 183V177.96C90.5539 177.048 90.2979 176.312 89.7379 175.768C89.2579 175.288 88.5699 175.032 87.7219 175.032C86.8419 175.032 86.0739 175.352 85.5139 175.992V175.128H84.3619V183H85.5139V178.152C85.5139 176.776 86.2819 176.056 87.4659 176.056C88.6499 176.056 89.4019 176.76 89.4019 178.152V183H90.5539ZM99.3783 179.368V178.84C99.3783 176.504 98.1783 175.032 96.1463 175.032C94.1463 175.032 92.9143 176.52 92.9143 179.064C92.9143 181.848 94.2743 183.096 96.3543 183.096C97.6983 183.096 98.4343 182.68 99.2343 181.88L98.4503 181.192C97.8263 181.816 97.2983 182.088 96.3863 182.088C94.8823 182.088 94.0663 181.096 94.0663 179.368H99.3783ZM98.2263 178.504H94.0663C94.0983 177.864 94.1303 177.624 94.3063 177.192C94.6103 176.472 95.3143 176.008 96.1463 176.008C96.9783 176.008 97.6823 176.472 97.9863 177.192C98.1623 177.624 98.1943 177.864 98.2263 178.504ZM115.783 175.128H114.535L112.743 181.448L110.663 175.128H109.671L107.607 181.448L105.799 175.128H104.551L107.047 183H108.119L110.167 176.888L112.231 183H113.303L115.783 175.128ZM123.331 179.064C123.331 177.848 123.171 176.744 122.371 175.928C121.827 175.384 121.075 175.032 120.115 175.032C119.155 175.032 118.403 175.384 117.859 175.928C117.059 176.744 116.899 177.848 116.899 179.064C116.899 180.28 117.059 181.384 117.859 182.2C118.403 182.744 119.155 183.096 120.115 183.096C121.075 183.096 121.827 182.744 122.371 182.2C123.171 181.384 123.331 180.28 123.331 179.064ZM122.179 179.064C122.179 179.944 122.131 180.92 121.555 181.496C121.187 181.864 120.675 182.072 120.115 182.072C119.555 182.072 119.059 181.864 118.691 181.496C118.115 180.92 118.051 179.944 118.051 179.064C118.051 178.184 118.115 177.208 118.691 176.632C119.059 176.264 119.555 176.056 120.115 176.056C120.675 176.056 121.187 176.264 121.555 176.632C122.131 177.208 122.179 178.184 122.179 179.064ZM131.047 175.768C130.487 175.208 129.911 175.032 129.159 175.032C128.247 175.032 127.383 175.432 126.951 176.088V175.128H125.799V183H126.951V178.168C126.951 176.968 127.687 176.056 128.839 176.056C129.447 176.056 129.767 176.2 130.199 176.632L131.047 175.768ZM139.142 183L136.006 178.136L138.678 175.128H137.238L133.686 179.224V171.608H132.534V183H133.686V180.728L135.222 178.968L137.718 183H139.142ZM150.712 183V177.656C150.712 175.944 149.672 175.032 147.56 175.032C146.28 175.032 145.48 175.288 144.776 176.2L145.56 176.92C146.024 176.264 146.536 176.024 147.544 176.024C148.984 176.024 149.56 176.6 149.56 177.752V178.504H147.192C145.432 178.504 144.472 179.4 144.472 180.776C144.472 181.4 144.68 181.992 145.064 182.376C145.56 182.888 146.2 183.096 147.288 183.096C148.344 183.096 148.92 182.888 149.56 182.248V183H150.712ZM149.56 180.216C149.56 180.872 149.432 181.32 149.16 181.576C148.664 182.056 148.072 182.104 147.4 182.104C146.152 182.104 145.592 181.672 145.592 180.76C145.592 179.848 146.168 179.368 147.352 179.368H149.56V180.216ZM159.71 183V177.96C159.71 177.048 159.454 176.312 158.894 175.768C158.414 175.288 157.726 175.032 156.878 175.032C155.998 175.032 155.23 175.352 154.67 175.992V175.128H153.518V183H154.67V178.152C154.67 176.776 155.438 176.056 156.622 176.056C157.806 176.056 158.558 176.76 158.558 178.152V183H159.71ZM168.343 183V171.608H167.191V176.04C166.551 175.224 165.831 175.032 164.967 175.032C164.167 175.032 163.463 175.304 163.047 175.72C162.247 176.52 162.087 177.832 162.087 179.064C162.087 180.296 162.247 181.608 163.047 182.408C163.463 182.824 164.167 183.096 164.967 183.096C165.831 183.096 166.567 182.888 167.207 182.056V183H168.343ZM167.191 179.064C167.191 180.6 166.935 182.072 165.223 182.072C163.511 182.072 163.239 180.6 163.239 179.064C163.239 177.528 163.511 176.056 165.223 176.056C166.935 176.056 167.191 177.528 167.191 179.064ZM181.462 179.064C181.462 177.832 181.302 176.52 180.502 175.72C180.086 175.304 179.382 175.032 178.582 175.032C177.718 175.032 176.998 175.224 176.358 176.056V175.128H175.206V186.52H176.358V182.072C176.998 182.888 177.718 183.096 178.582 183.096C179.382 183.096 180.086 182.824 180.502 182.408C181.302 181.608 181.462 180.296 181.462 179.064ZM180.31 179.064C180.31 180.6 180.054 182.072 178.342 182.072C176.63 182.072 176.358 180.6 176.358 179.064C176.358 177.528 176.63 176.056 178.342 176.056C180.054 176.056 180.31 177.528 180.31 179.064ZM186.724 183V182.008H186.1C185.3 182.008 185.044 181.624 185.044 180.856V171.608H183.892V180.904C183.892 182.104 184.516 183 185.892 183H186.724ZM194.29 183V177.656C194.29 175.944 193.25 175.032 191.138 175.032C189.858 175.032 189.058 175.288 188.354 176.2L189.138 176.92C189.602 176.264 190.114 176.024 191.122 176.024C192.562 176.024 193.138 176.6 193.138 177.752V178.504H190.77C189.01 178.504 188.05 179.4 188.05 180.776C188.05 181.4 188.258 181.992 188.642 182.376C189.138 182.888 189.778 183.096 190.866 183.096C191.922 183.096 192.498 182.888 193.138 182.248V183H194.29ZM193.138 180.216C193.138 180.872 193.01 181.32 192.738 181.576C192.242 182.056 191.65 182.104 190.978 182.104C189.73 182.104 189.17 181.672 189.17 180.76C189.17 179.848 189.746 179.368 190.93 179.368H193.138V180.216ZM202.632 175.128H201.384L199.24 181.448L197.08 175.128H195.832L198.664 182.84L198.104 184.376C197.848 185.096 197.608 185.352 196.808 185.352H196.456V186.376H196.952C197.512 186.376 198.072 186.232 198.488 185.832C198.712 185.624 198.888 185.336 199.048 184.904L202.632 175.128ZM219.501 183V177.96C219.501 177.048 219.213 176.312 218.653 175.768C218.173 175.304 217.469 175.032 216.621 175.032C215.517 175.032 214.637 175.48 214.029 176.344C213.549 175.48 212.701 175.032 211.613 175.032C210.733 175.032 209.949 175.352 209.389 175.992V175.128H208.237V183H209.389V178.152C209.389 176.776 210.173 176.056 211.357 176.056C212.541 176.056 213.293 176.76 213.293 178.152V183H214.445V178.024C214.445 176.776 215.261 176.056 216.413 176.056C217.597 176.056 218.349 176.76 218.349 178.152V183H219.501ZM227.915 183V177.656C227.915 175.944 226.875 175.032 224.763 175.032C223.483 175.032 222.683 175.288 221.979 176.2L222.763 176.92C223.227 176.264 223.739 176.024 224.747 176.024C226.187 176.024 226.763 176.6 226.763 177.752V178.504H224.395C222.635 178.504 221.675 179.4 221.675 180.776C221.675 181.4 221.883 181.992 222.267 182.376C222.763 182.888 223.403 183.096 224.491 183.096C225.547 183.096 226.123 182.888 226.763 182.248V183H227.915ZM226.763 180.216C226.763 180.872 226.635 181.32 226.363 181.576C225.867 182.056 225.275 182.104 224.603 182.104C223.355 182.104 222.795 181.672 222.795 180.76C222.795 179.848 223.371 179.368 224.555 179.368H226.763V180.216ZM237.329 183L234.193 178.136L236.865 175.128H235.425L231.873 179.224V171.608H230.721V183H231.873V180.728L233.409 178.968L235.905 183H237.329ZM245.019 179.368V178.84C245.019 176.504 243.819 175.032 241.787 175.032C239.787 175.032 238.555 176.52 238.555 179.064C238.555 181.848 239.915 183.096 241.995 183.096C243.339 183.096 244.075 182.68 244.875 181.88L244.091 181.192C243.467 181.816 242.939 182.088 242.027 182.088C240.523 182.088 239.707 181.096 239.707 179.368H245.019ZM243.867 178.504H239.707C239.739 177.864 239.771 177.624 239.947 177.192C240.251 176.472 240.955 176.008 241.787 176.008C242.619 176.008 243.323 176.472 243.627 177.192C243.803 177.624 243.835 177.864 243.867 178.504ZM253.151 180.696C253.151 179.224 252.207 178.696 250.831 178.568L249.567 178.456C248.575 178.376 248.191 177.976 248.191 177.304C248.191 176.504 248.799 176.008 249.951 176.008C250.767 176.008 251.487 176.2 252.047 176.632L252.799 175.88C252.095 175.304 251.087 175.032 249.967 175.032C248.287 175.032 247.071 175.896 247.071 177.336C247.071 178.632 247.887 179.32 249.423 179.448L250.719 179.56C251.631 179.64 252.031 180.024 252.031 180.712C252.031 181.64 251.231 182.104 249.935 182.104C248.959 182.104 248.111 181.848 247.487 181.192L246.719 181.96C247.583 182.792 248.623 183.096 249.951 183.096C251.855 183.096 253.151 182.216 253.151 180.696ZM264.929 175.128H263.681L261.537 181.448L259.377 175.128H258.129L260.961 182.84L260.401 184.376C260.145 185.096 259.905 185.352 259.105 185.352H258.753V186.376H259.249C259.809 186.376 260.369 186.232 260.785 185.832C261.009 185.624 261.185 185.336 261.345 184.904L264.929 175.128ZM272.409 179.064C272.409 177.848 272.249 176.744 271.449 175.928C270.905 175.384 270.153 175.032 269.193 175.032C268.233 175.032 267.481 175.384 266.937 175.928C266.137 176.744 265.977 177.848 265.977 179.064C265.977 180.28 266.137 181.384 266.937 182.2C267.481 182.744 268.233 183.096 269.193 183.096C270.153 183.096 270.905 182.744 271.449 182.2C272.249 181.384 272.409 180.28 272.409 179.064ZM271.257 179.064C271.257 179.944 271.209 180.92 270.633 181.496C270.265 181.864 269.753 182.072 269.193 182.072C268.633 182.072 268.137 181.864 267.769 181.496C267.193 180.92 267.129 179.944 267.129 179.064C267.129 178.184 267.193 177.208 267.769 176.632C268.137 176.264 268.633 176.056 269.193 176.056C269.753 176.056 270.265 176.264 270.633 176.632C271.209 177.208 271.257 178.184 271.257 179.064ZM280.99 183V175.128H279.838V179.976C279.838 181.352 279.054 182.072 277.87 182.072C276.686 182.072 275.95 181.368 275.95 179.976V175.128H274.798V180.152C274.798 181.064 275.038 181.816 275.598 182.36C276.078 182.84 276.782 183.096 277.63 183.096C278.51 183.096 279.294 182.76 279.854 182.12V183H280.99ZM299.11 183V177.96C299.11 177.048 298.822 176.312 298.262 175.768C297.782 175.304 297.078 175.032 296.23 175.032C295.126 175.032 294.246 175.48 293.638 176.344C293.158 175.48 292.31 175.032 291.222 175.032C290.342 175.032 289.558 175.352 288.998 175.992V175.128H287.846V183H288.998V178.152C288.998 176.776 289.782 176.056 290.966 176.056C292.15 176.056 292.902 176.76 292.902 178.152V183H294.054V178.024C294.054 176.776 294.87 176.056 296.022 176.056C297.206 176.056 297.958 176.76 297.958 178.152V183H299.11ZM307.925 179.064C307.925 177.848 307.765 176.744 306.965 175.928C306.421 175.384 305.669 175.032 304.709 175.032C303.749 175.032 302.997 175.384 302.453 175.928C301.653 176.744 301.493 177.848 301.493 179.064C301.493 180.28 301.653 181.384 302.453 182.2C302.997 182.744 303.749 183.096 304.709 183.096C305.669 183.096 306.421 182.744 306.965 182.2C307.765 181.384 307.925 180.28 307.925 179.064ZM306.773 179.064C306.773 179.944 306.725 180.92 306.149 181.496C305.781 181.864 305.269 182.072 304.709 182.072C304.149 182.072 303.653 181.864 303.285 181.496C302.709 180.92 302.645 179.944 302.645 179.064C302.645 178.184 302.709 177.208 303.285 176.632C303.653 176.264 304.149 176.056 304.709 176.056C305.269 176.056 305.781 176.264 306.149 176.632C306.725 177.208 306.773 178.184 306.773 179.064ZM315.641 175.768C315.081 175.208 314.505 175.032 313.753 175.032C312.841 175.032 311.977 175.432 311.545 176.088V175.128H310.393V183H311.545V178.168C311.545 176.968 312.281 176.056 313.433 176.056C314.041 176.056 314.361 176.2 314.793 176.632L315.641 175.768ZM322.613 179.368V178.84C322.613 176.504 321.413 175.032 319.381 175.032C317.381 175.032 316.149 176.52 316.149 179.064C316.149 181.848 317.509 183.096 319.589 183.096C320.933 183.096 321.669 182.68 322.469 181.88L321.685 181.192C321.061 181.816 320.533 182.088 319.621 182.088C318.117 182.088 317.301 181.096 317.301 179.368H322.613ZM321.461 178.504H317.301C317.333 177.864 317.365 177.624 317.541 177.192C317.845 176.472 318.549 176.008 319.381 176.008C320.213 176.008 320.917 176.472 321.221 177.192C321.397 177.624 321.429 177.864 321.461 178.504ZM47.696 203.064C47.696 201.832 47.536 200.52 46.736 199.72C46.32 199.304 45.616 199.032 44.816 199.032C43.952 199.032 43.232 199.224 42.592 200.056V199.128H41.44V210.52H42.592V206.072C43.232 206.888 43.952 207.096 44.816 207.096C45.616 207.096 46.32 206.824 46.736 206.408C47.536 205.608 47.696 204.296 47.696 203.064ZM46.544 203.064C46.544 204.6 46.288 206.072 44.576 206.072C42.864 206.072 42.592 204.6 42.592 203.064C42.592 201.528 42.864 200.056 44.576 200.056C46.288 200.056 46.544 201.528 46.544 203.064ZM55.4068 199.768C54.8468 199.208 54.2708 199.032 53.5188 199.032C52.6068 199.032 51.7428 199.432 51.3108 200.088V199.128H50.1588V207H51.3108V202.168C51.3108 200.968 52.0468 200.056 53.1988 200.056C53.8068 200.056 54.1268 200.2 54.5588 200.632L55.4068 199.768ZM62.3623 203.064C62.3623 201.848 62.2023 200.744 61.4023 199.928C60.8583 199.384 60.1063 199.032 59.1463 199.032C58.1863 199.032 57.4343 199.384 56.8903 199.928C56.0903 200.744 55.9303 201.848 55.9303 203.064C55.9303 204.28 56.0903 205.384 56.8903 206.2C57.4343 206.744 58.1863 207.096 59.1463 207.096C60.1063 207.096 60.8583 206.744 61.4023 206.2C62.2023 205.384 62.3623 204.28 62.3623 203.064ZM61.2103 203.064C61.2103 203.944 61.1623 204.92 60.5863 205.496C60.2183 205.864 59.7063 206.072 59.1463 206.072C58.5863 206.072 58.0903 205.864 57.7223 205.496C57.1463 204.92 57.0823 203.944 57.0823 203.064C57.0823 202.184 57.1463 201.208 57.7223 200.632C58.0903 200.264 58.5863 200.056 59.1463 200.056C59.7063 200.056 60.2183 200.264 60.5863 200.632C61.1623 201.208 61.2103 202.184 61.2103 203.064ZM70.6706 207V195.608H69.5186V200.04C68.8786 199.224 68.1586 199.032 67.2946 199.032C66.4946 199.032 65.7906 199.304 65.3746 199.72C64.5746 200.52 64.4146 201.832 64.4146 203.064C64.4146 204.296 64.5746 205.608 65.3746 206.408C65.7906 206.824 66.4946 207.096 67.2946 207.096C68.1586 207.096 68.8946 206.888 69.5346 206.056V207H70.6706ZM69.5186 203.064C69.5186 204.6 69.2626 206.072 67.5506 206.072C65.8386 206.072 65.5666 204.6 65.5666 203.064C65.5666 201.528 65.8386 200.056 67.5506 200.056C69.2626 200.056 69.5186 201.528 69.5186 203.064ZM79.6614 207V199.128H78.5094V203.976C78.5094 205.352 77.7254 206.072 76.5414 206.072C75.3574 206.072 74.6214 205.368 74.6214 203.976V199.128H73.4694V204.152C73.4694 205.064 73.7094 205.816 74.2694 206.36C74.7494 206.84 75.4534 207.096 76.3014 207.096C77.1814 207.096 77.9654 206.76 78.5254 206.12V207H79.6614ZM88.1818 205.928L87.3978 205.176C86.8058 205.832 86.3418 206.072 85.5898 206.072C84.8218 206.072 84.1818 205.768 83.7658 205.176C83.3978 204.664 83.2538 204.056 83.2538 203.064C83.2538 202.072 83.3978 201.464 83.7658 200.952C84.1818 200.36 84.8218 200.056 85.5898 200.056C86.3418 200.056 86.8058 200.28 87.3978 200.936L88.1818 200.2C87.3658 199.32 86.6778 199.032 85.5898 199.032C83.6058 199.032 82.1018 200.376 82.1018 203.064C82.1018 205.752 83.6058 207.096 85.5898 207.096C86.6778 207.096 87.3658 206.808 88.1818 205.928ZM93.4015 207V206.008H92.7935C92.0575 206.008 91.7215 205.576 91.7215 204.856V200.056H93.4015V199.176H91.7215V196.712H90.5695V199.176H89.5775V200.056H90.5695V204.888C90.5695 206.056 91.2415 207 92.5855 207H93.4015ZM96.922 196.888V195.592H95.626V196.888H96.922ZM96.842 207V199.128H95.69V207H96.842ZM105.273 199.128H104.025L101.865 205.448L99.7209 199.128H98.4729L101.353 207H102.377L105.273 199.128ZM112.769 203.368V202.84C112.769 200.504 111.569 199.032 109.537 199.032C107.537 199.032 106.305 200.52 106.305 203.064C106.305 205.848 107.665 207.096 109.745 207.096C111.089 207.096 111.825 206.68 112.625 205.88L111.841 205.192C111.217 205.816 110.689 206.088 109.777 206.088C108.273 206.088 107.457 205.096 107.457 203.368H112.769ZM111.617 202.504H107.457C107.489 201.864 107.521 201.624 107.697 201.192C108.001 200.472 108.705 200.008 109.537 200.008C110.369 200.008 111.073 200.472 111.377 201.192C111.553 201.624 111.585 201.864 111.617 202.504ZM116.693 207V205.496H115.189V207H116.693Z"
              fill="#3886D1"
            />
          </svg>