<svg width="18" height="19" viewBox="0 0 18 19" fill="none" xmlns="http://www.w3.org/2000/svg">
    <path d="M1.20833 15.6875H3.95833C4.6 15.6875 5.10417 15.1833 5.10417 14.5417V9.95833C5.10417 9.31667 4.6 8.8125 3.95833 8.8125H1.20833C0.566667 8.8125 0.0625 9.31667 0.0625 9.95833V14.5417C0.0625 15.1833 0.566667 15.6875 1.20833 15.6875ZM1.4375 10.1875H3.72917V14.3125H1.4375V10.1875ZM7.625 15.6875H10.375C11.0167 15.6875 11.5208 15.1833 11.5208 14.5417V1.70833C11.5208 1.06667 11.0167 0.5625 10.375 0.5625H7.625C6.98333 0.5625 6.47917 1.06667 6.47917 1.70833V14.5417C6.47917 15.1833 6.98333 15.6875 7.625 15.6875ZM7.85417 1.9375H10.1458V14.3125H7.85417V1.9375ZM16.7917 5.14583H14.0417C13.4 5.14583 12.8958 5.65 12.8958 6.29167V14.5417C12.8958 15.1833 13.4 15.6875 14.0417 15.6875H16.7917C17.4333 15.6875 17.9375 15.1833 17.9375 14.5417V6.29167C17.9375 5.65 17.4333 5.14583 16.7917 5.14583ZM16.5625 14.3125H14.2708V6.52083H16.5625V14.3125ZM17.25 16.8333H0.75C0.383333 16.8333 0.0625 17.1542 0.0625 17.5208C0.0625 17.8875 0.383333 18.2083 0.75 18.2083H17.25C17.6167 18.2083 17.9375 17.8875 17.9375 17.5208C17.9375 17.1542 17.6167 16.8333 17.25 16.8333Z" fill="#3F15EA"/>
</svg>
